<?xml version="1.0" encoding="UTF-8"?>
<svg id="Layer_2" data-name="Layer 2" xmlns="http://www.w3.org/2000/svg" xmlns:xlink="http://www.w3.org/1999/xlink" viewBox="0 0 221.72 163.8">
  <defs>
    <style>
      .cls-1, .cls-2 {
        fill: none;
      }

      .cls-3 {
        fill: #fd0101;
      }

      .cls-4 {
        fill: #f60505;
      }

      .cls-5 {
        fill: #fd0100;
      }

      .cls-6 {
        fill: #fd0002;
      }

      .cls-7 {
        fill: #dfc5a9;
      }

      .cls-8 {
        fill: #3e2825;
        font-family: Gimbot, Gimbot;
        font-size: 30.56px;
      }

      .cls-9 {
        fill: url(#linear-gradient);
      }

      .cls-10 {
        fill: #ebe2ce;
      }

      .cls-11 {
        fill: #921214;
      }

      .cls-12 {
        fill: #cd0507;
      }

      .cls-13 {
        fill: #4c2626;
      }

      .cls-14 {
        fill: #ece1cd;
      }

      .cls-15 {
        fill: #f40807;
      }

      .cls-16 {
        fill: #e30103;
      }

      .cls-17 {
        fill: #8f1113;
      }

      .cls-2 {
        stroke: #8f1113;
        stroke-miterlimit: 10;
      }

      .cls-18 {
        fill: #950f11;
      }

      .cls-19 {
        fill: #cf0407;
      }

      .cls-20 {
        fill: #921012;
      }

      .cls-21 {
        fill: #ebe2cd;
      }

      .cls-22 {
        fill: #fc423f;
      }

      .cls-23 {
        fill: #cf0307;
      }
    </style>
    <linearGradient id="linear-gradient" x1="6715.52" y1="3906.06" x2="6677.42" y2="4013.77" gradientTransform="translate(-7104.38 -3130.49) rotate(-6.42) scale(1.01)" gradientUnits="userSpaceOnUse">
      <stop offset="0" stop-color="#f8ede0"/>
      <stop offset=".07" stop-color="#ebe2cd"/>
      <stop offset=".57" stop-color="#ebe1cc"/>
      <stop offset=".67" stop-color="#e2c4a9"/>
      <stop offset="1" stop-color="#e0bfa4"/>
    </linearGradient>
  </defs>
  <g id="Layer_1-2" data-name="Layer 1">
    <g>
      <path class="cls-5" d="M118.28,60.58c4.99-.72,9.95-.99,14.97-1.32,4.36-.29,8.64-1.13,12.96-1.68-.68-2.08-3.07-1.4-4.88-1.63-.31-.04-.54-.15-.73-.3-5.24.57-10.51.98-15.69,1.82-.39.05-.99.21-1.42.15-.22.05-.43.09-.65.1-1.05-.03-.65-.78,0-1.35,4.76-3.26,10.36-6.06,16.16-6.6.88-.08,1.8-.22,2.59-.59,1.61-.71,2.66-2.47,4.24-3.51.07-.06.16-.11.24-.16.75-.55,1.59-1.06,2.53-1.53.11-.07.23-.14.33-.21.98-.76.1-1.23-.76-1.56-.41-.14-.82-.28-1.22-.39-10.27-2.97-20.93,2.12-29.39,7.81-.85.42-2.06.72-1.3-.31-1.06-.42-1.73-1.96-2.51-2.92-5.76-7.2-12.37-14.36-19.01-20.86-1.3-1.41-4.08-2.47-2.93-4.67,3.45-4.44,7.44-8.65,10.53-13.53,2.43-3.35-.57-8.32-4.69-7.18-1.07.3-1.86,1.07-2.56,1.89-1.39,1.72-2.97,3.49-4.25,5.3-1.93,2.36-4.19,4.7-6.29,6.97-.85.73-1.76.42-2.54-.25-1.11-.96-2.43-1.73-3.58-2.53-6.35-5.02-14.76-8.98-23.03-7.62l-.17.02c-2.19,0-4.5.96-6.57,1.49-3.8.96-7.58,3.24-11.07,5.16-1.8,1.24-3.57,2.12-5.41,3.66-1.08.82-2,1.74-3.32,2.23-1.48.65-3.3-.12-4.77.21-1.31.28-2.42.94-3.64,1.82-1.42,1.08-2.41,2.57-3,4.22-.65,1.59-.45,3.27-1.23,4.51-3.85,4.5-8.54,8.75-11.4,14.09-1.56,2.43-3.31,5.17-3.91,8.01-.16,1.36-2.26,13.7.48,12.77,1-.83,2.1-.05,3.27-.14,2.17-.08,4.92-1.31,5.63,1.16,2.6,9.35,5.65,19.11,10.93,27.26.48.64,1.16,1.86,2,1.62.91-1.24-1.3-3.05-.84-4.17.23-.84.9-1.34,1.69-2.07,1.85-1.84,3.35-3.32,5.44-4.89,17.35-16.2,35.7-32.89,52.82-51.01,1.7-2.35,3.31,1,4.66,2.04,8.14,7.9,15.79,16.39,22.78,25.28.66.85,1.12,1.56-.27,1.88-3.11.49-6.95.78-8.71,3.83-1.04,1.71-1.76,3.79-1.86,4.92.06,1.57.3,2.76.46,4.55.93,7.18,2.19,19.6,3.34,30.08-.4-6.37-.36-12.87-1.68-18.7-.36-1.57-.15-2.97.41-4.13-.37-.73-.61-1.57-.68-2.53-.28-3.9-1.46-7.96.64-11.59,1.85-3.2,5.33-4.49,8.86-4.7,2.21-.13,4.42-.02,6.64.09.41-.15.86-.27,1.36-.34Z"/>
      <path class="cls-5" d="M147.76,42.08l2.9,1.27-6.19,6.11-6.36.35s-1.22-3.38-.39-3.98,10.04-3.75,10.04-3.75Z"/>
      <path class="cls-17" d="M148.77,44.48c-1.83.98-3.47,2.12-4.83,3.67-.51.6-1.12,1.08-1.79,1.43-1.38,2.05-1.93,3.88-2.1,4.55,0,.67.16,1.21.55,1.53.75-.08,1.49-.16,2.23-.24,1.52-.19,3.85-.38,3.77,1.72-.02.52-.05.94-.16,1.26,2.09,7.31,10.88,7.91,17.22,5.46,4.04-1.21,7.99-4.01,8.58-8.44-.05-.09-.09-.19-.14-.31-.69-1.7.72-2.6,2.3-2.63,10.4-1.23,20.82-2.39,31.19-3.44.18-.02.35-.04.53-.07-3.13.27-6.3.71-9.56.89-1.77.04-3.3-.15-5.18.14-2.26.37-4.74,1.19-7.23,1.28-2.73.11-5.4-.13-8.09.63-1.5.44-3.22.75-3.91-1.11-1.5-7.08-4.58-7.26-10.73-8.94-2.16-.46-4.37.22-6.56.22-1.76.27-3.31.7-4.68,1.23-.18.4-.67.81-1.42,1.19Z"/>
      <polygon class="cls-5" points="38.75 113.55 46.14 123.11 46.25 125.52 32.58 111.01 38.75 113.55"/>
      <path class="cls-16" d="M147.24,121.31s-9.03-.23-13.63,5.1c-4.59,5.32-12.99,13.16-16.89,14.72-3.9,1.55-.8-5.13-.8-5.13l16.54-11.9,9.84-3.58,6.13-.14-.18.57-1.01.36Z"/>
      <path class="cls-19" d="M104.94,148.15c1.35.3,7.87,3.62,8.47,3.62s5.52-.6,5.52-.6l.15-4.31-7.02-.9-5.77,2.49"/>
      <path class="cls-5" d="M69.53,138.17c-9.14-10.11-17.42-20.89-26.85-30.77l-.21-.23c-4.84-5.09-9.68-11.87-12.81-18.54-2.46-4.9-4.31-9.55-6.2-14.66-1.55-4.15-3.61-8.48-8.31-10.75-5.15-2.48-11.22-.45-12.29-5.42-.57-1.9-.51-4.55-.92-6.29-.8-1.79-1.76,4.58-1.74,5.78-.69,7.74,1.71,15.55,4.88,22.69.24.29.48.62.69.98,5.15,8.97,11.28,17.31,16.84,26.01.91,1.42,1.16,2.83.94,4.1,3.22,1.47,7.02,2.3,11.31,3.62,9.34,2.73,12.43,9.24,16.58,15.85,2.69,3.86,6.48,6.34,11.48,9.22,7.36,4.05,16.26,9.52,6.61-1.58Z"/>
      <path class="cls-5" d="M121.85,143.07c-1.21-1.09-3.56-2.09-5.13-1.95h-.11c-2.39.57-5.56,3.28-8.09,4.48-3.9,1.9-8.22,5.07-12.26,5.09-2.43.06-4.7-.87-7-1.55-5-1.52-10.43-1.21-15.36-3.03-10.39-3.92-18.28-12.1-25.55-20.25-1.03-1.06-3.34-4.22-4.55-3.28-.91.49-1.21,4.05-1.13,6.16.02,2.52.74,4.93,2.19,6.95.62.96,1.47,1.96,1.99,3.01.4.25.78.53,1.09.84,1.16,1.14,1.85,2.81,1.88,4.43,0,.45.03.91.04,1.36.01.96-.14,1.9-.27,2.85-.29,1.07-.82,2-1.59,2.79-.42.33-.84.66-1.26.99-.15.1-.31.19-.47.27,2.16,1.64,5.62-2.76,8.24-3.73,3.15-1.54,4.98.39,7.82,2.08,8.54,5.31,17.78,7.98,27.77,5.04,3.97-.96,7.72-2.37,11.07-4.18,1.51-.81,3.07-1.5,4.77-1.72,3.3-.57,7.22,1.04,10.48-.51,2.2-1.08,7.24-4.36,5.45-6.14Z"/>
      <path class="cls-11" d="M148.59,120.4c3.84,1.53,6.88,10.71,8,14.61.47,1.96-.38,3.92-.6,6.01-.12,1.24.38,1.65,1.63,1.6,1.84-.14,3.98-.26,5.74-.91,1.61-.65,2.43-2.56,4.04-3.62,1.15-.97,3.02-1.28,4.13-2.15.17-.25-.1-.51-.69-.79-1.45-.66-3.24-1.18-4.72-1.85-1.77-.76-2.45-2.54-3.15-4.41-.8-1.95-1.66-3.86-2.61-5.73-.37-.98-2.18-3.36-.66-3.86,2.06.07,2.89,3.77,3.72,5.25,1.27,1.93,1.67,4.89,3.33,6.41,3.3,1.5,6.87,2.97,10.6,3.03,4.22-.42,8.54-3.36,12.78-1.27,5.59,3.05,6.4,14.16,6.53,19.99,1.16,6.87-4.2,12.65-11.19,10.73-3.24-.92-5.56-3.47-8.7-4.65-3.44-1.21-7.14-2.39-10.24-4.43-1.05-.53-2.24-.59-3.4-.44-2.66.32-5.26.52-7.83.81-3.94,1.05-7.92.51-11.77.81-6.98.3-13.52-.61-20.44-1.03-6.08-1.21-12.35-1.44-18.18-3.21-2.38-.53-2.04-2.43.57-2.39,2.36.36,4.62,1.57,7.06,1.77,17.11,2.58,34.76,3.45,51.95,1.28,1.99-.31,3.5.97,5.04,2,2.46,1.51,5.71,1.64,8.35,2.88,1.96.84,3.68,1.97,5.53,3.04,11.59,6.8,12.5-7.59,10.52-16.35-2.85-14-10.21-8.47-19.92-5.35-1.74.56-3.56.92-5.05,1.98-1.79,1.34-2.86,3.66-5.28,3.92-13.87,2.35-28.45,2.02-42.25-.26-1.71-.27-4.46.05-5.9-1-.72-1.22,1.88-1.8,2.95-1.59,2.29.11,4.57.88,6.81,1.1,4.11.13,8.3.55,12.4.94,1.98-.12,4.55.07,6.71.19,2.26-.29,5.11-.36,7.12-.08,2.85.45,1.95-2.34,2.35-4.2.7-2.25.48-4.85-.62-7.07-1.13-2.68-2.31-5.57-3.78-8.01-.54-.97-3.67-3.62-1.05-3.7l.16.03Z"/>
      <path class="cls-23" d="M215.78,112.8c.1.17-.23.3-.35.31.02.2,0,.52-.12.54-1.9.36-4.5.57-6.47.71-.11,0-.23-.14-.35-.34-6.59.76-13.19,1.49-19.8,2.22-1.93.63-3.99.99-6.15,1.08-.15-.21-.3-.37-.44-.36-1.91.1-4.27.39-6.16.71-.11.02-.2.2-.28.42-4.22.47-6.32.71-6.32.71-.24-.28-.58-.42-1.02-.42-.15.82-1.85.78-2.36.23-1,.26-2.03.42-3.07.49-.59.68-1.92.8-2.7.25-.39.09-.79-.08-1.42.21,2.58,4.11,4.32,8.48,5.94,13.07,1.67.29,3.15.74,4.51,1.58,1.44.88,3,1,4.71,1.78-1.47.91-2.95.85-4.36,1.48-5.51,2.44-3.44,4.59-5.84,4.92-2.63.37-5.27.78-7.95.87-1.43.05.53-6.15.75-6.86-1.69-5.48-4.02-11.83-7.87-15.86l9.78-1.26,57.34-6.47Z"/>
      <path class="cls-5" d="M123.37,143.8l9.94,1c-1.73.56-3.54,1.05-5.32,1.88-5.56,2.6-5.65,2.31-11.72,3.84.22.64.62.67.77.94l-2.4-.29c-.1-.4-.11-.84.18-1.13.25-.25.71-.26,1.03-.48,4.24-2.79,4.11-6.11,7.5-5.77Z"/>
      <g>
        <path class="cls-3" d="M117.05,151.47c-.89-.28-1.71-.72-.7-1.48,4.93-1.09,9.71-2.73,14.33-4.91l2.63-.28c6.95.7,25.22.27,32.48-1.57,1.63-5.25,7.36-4.73,12.91-7.1,4.21-1.79,9.68-4.26,12.87.65,2.16,3.31,3.17,8.89,3.18,12.8,0,2.81.14,5.59-.89,8.21-.55,1.38-1.3,2.85-2.68,3.56-4.16,2.13-9.22-1.8-12.78-3.91-4.31-2.55-9.24-.99-11.77-5.41l-12.25,1.25c-12.53,1.28-24.97-.31-37.34-1.81Z"/>
        <path class="cls-18" d="M180.39,154.92c-1.4-.4-1.93-1.89-2.56-3.12-1.91-3.76-1.75-8.66,1.51-11.77-1.44,5.18-1.11,9.88,1.05,14.89Z"/>
      </g>
      <path class="cls-12" d="M128.32,131.09c-.12.32-.39.55-.72.64.23-.23.18-.79.72-.64Z"/>
      <path class="cls-12" d="M129.28,130.19c-.13.32-.38.55-.72.64.01-.4.33-.68.72-.64Z"/>
      <path class="cls-12" d="M124.19,131.15c5.25-2.32,9.79-5.5,14.98-7.92,2.95-1.5,5.78-1.98,7-3.03-2.24-.35-5.51.4-7.97.6-6.44.88-12.78,1.44-18.42,4.77-13.34,8.5-7.67,11.31,4.2,5.68l.22-.1Z"/>
      <path class="cls-5" d="M44.23,120.68l.8.18c8.18,9.85,19.98,23.62,33.12,26.07.97-.07,1.74.15,2.3.64l1.12.09c-.16-.78,1.34-.86,1.52-.12.73.14,1.48.06,2.16-.25,0-.78.98-.88,1.26-.18l1.59-.41c.08-.75.4-.81.74-.13l.8-.31c-.02-.54.23-.55.48-.07l.8-.34,1.22-1.02c11.26-4.58,21.18-12.11,29.91-20.52l1.59-.89c-.5-.05-.48-.24.03-.35.37-.04.76.02,1.06.18-3.01,4.12-7.58,6.54-11.04,10.68,2.78-.1,14.97-5.28,15.78-4.61.13.1.05.33.04.55.35.34.22.48-.25.3l-.72.64c.39.33.25.47-.23.26l-.72.64.17.58c-.89.9-1.77,1.8-2.66,2.7l-.63-.11c-.47.23-1.08.96-1.47,1.27l-6.05,4.66c-.52.4-1.14.53-1.73,1.07-2.22,2.03-4.76,3.57-7.32,5.14-1.52.93-3.16,1.53-4.93,1.8-1.08.17-3.71,3.95-7.27,3.9-1.29-.02-2.42-1.04-3.26-1.85-1.37-1.32-4-.45-4.58-.89-.47-.35-.59-.72-1.25-.88-4.06-.97-6.88.6-12.84-1.85-4.18-1.72-7.78-3.98-11.29-6.76-5.92-4.68-12.87-11.46-17.25-17.58-.31-.43-.72-.73-1.08-.96-.2-.16-.23-.54-.34-.74-.03-.16-.11-.42.06-.56.08-.07.28-.02.37-.02Z"/>
      <path class="cls-19" d="M85.25,147.3c-.53.51-1.53.62-2.16.25l2.16-.25Z"/>
      <path class="cls-19" d="M90.92,145.87c-.04.35-.53.3-.8.34.03-.36.54-.25.8-.34Z"/>
      <path class="cls-19" d="M89.65,146.28c-.04.36-.54.28-.8.31.09-.31.54-.24.8-.31Z"/>
      <g>
        <path class="cls-19" d="M88.1,146.72c-.32.53-1.05.33-1.59.41.38-.43,1.05-.3,1.59-.41Z"/>
        <path class="cls-19" d="M81.57,147.67c-.36.03-.89.32-1.12-.09.36-.02.85-.21,1.12.09Z"/>
        <path class="cls-13" d="M100.09,63.97c-2.19,4.6-9.66,11.77-14.08,14.56-1.9,1.2-4.61.53-6.65-.02-3.97-1.09-7.26-3.27-10.66-5.45-1.17-.75-2.57-.71-3.54,0-3.79,2.76,3.03,8.39,2.96,18.64-.02,2.56-1.01,4.48-2.75,6.22-3.58,3.59-7.25,6.92-11.62,9.54-2.4,1.44-4.96,1.83-7.6.6-1.99-.92-3.99-2.02-5.78-3.21-1.78-1.18-3.21-3.28-5.34-4.14-1.14-.25-2.67.99-3.86.39-1.13-.56-1.8-1.83-2.43-2.85-.67-1.07-.36-2.1.38-3.02,3.76-4.71,8.15-8.58,12.81-12.44,4.28-3.54,8.37-7.02,12.89-10.2,1.26-.89,2.14-.8,3.66-.94,2.44-.22,4.97-2.62,5.51-5.01.33-1.47.34-2.49,1.31-3.64,6.5-7.74,15.78-16.92,23.99-22.84.73-.53,1.92-1.4,2.83-1.15,1.42.38,2.74,1.72,3.5,2.94.61.99.1,2.34-.41,3.16s-.43,1.34.03,2.11c2.83,4.73,6.29,11.37,4.85,16.75Z"/>
        <g>
          <path class="cls-14" d="M100.07,64.49c-.15,1.15-.78,2.21-.63,3.58l5.68,50.19c.34,3.03,2.82,5.18,5.41,6.01.91.18,1.13.85.42,1.45-3.26,2.77-10,5.67-14.14,7.02-25.43,8.32-43.27-8-56.97-27.49l.53-.41,1.12.09c1.15.71,2.32,1.38,3.52,1.98,2.24,1.11,3.97,1.81,6.45,1.01,4.45-1.45,10.15-7.02,13.53-10.39,4.16-4.14,2.54-9.82.92-14.81l-1.9-4.9c-1.28-4.03.37-6.92,4.78-5.33,3.31,2.32,12.72,7.94,16.78,5.67,5.2-2.92,10.57-9.04,13.81-13.99l.69-.2c.14.05.13.23-.02.53Z"/>
          <path class="cls-13" d="M90.62,107.98c-2.23,1.68-9.58,5.89-11.25,1.34-.59-1.61.33-3.81,2.23-4.25,4.26-.98,7.6-3.75,9.39-7.77.74-1.66,2.82-2.35,4.35-1.66s2.34,2.62,1.58,4.35c-1.36,3.13-3.54,5.91-6.3,7.99Z"/>
        </g>
      </g>
      <path class="cls-9" d="M100.07,64.49c.02-.17-.02-.36.02-.53-.36-.67-.42-1.5-.19-2.48l-.14-2.16c-1.05-4.49-2.83-8.74-5.35-12.74.04-1.01.35-2.03.91-3.05-.05-2.42-2.7-5.05-5.16-3.35-8.79,6.11-17.96,15.22-24.72,23.51-.51,1-.83,2.09-.97,3.25-1.62,4.53-4.55,5.03-8.71,5.7-9.24,6.42-18.97,14.44-26.29,23.01-1.44,1.68.69,4.39,2.34,5.07,2.22-.88,4.08-.61,5.58.81l2.96,2.63.05.68c-.14.61.36.94.74,1.46,7.86,10.51,18.13,22.09,30.93,26.37,13.27,4.43,27.13.22,38.41-7.22.28-.18.41-.52.37-.75-.03-.16-.18-.3-.3-.43.54.17,1.03.16,1.58.18,3.86-.43,7.71-.76,11.53-1.02-4.61,4.87-9.88,9.12-15.47,13.09-5.45,3.87-11.11,7.14-17.26,9.34l-.8.34c-.16.02-.33.03-.48.07l-.8.31c-.25.02-.5.08-.74.13l-1.59.41-1.26.18c-.67.31-1.44.39-2.16.25l-1.52.12-1.12-.09c-12.23.52-29.41-17.77-36.22-26.9l-12.01-16.11-8.49-12.59c-.43-.64-2.3-3.58-2.48-4.44l4.94-4.36.74-.65,15.24-14.07c14.19-13.1,27.99-26.25,41.56-40.16,10.48,9.68,19.71,19.97,28.42,31.08l-6.16.81c-2.72.36-4.61,2.12-5.93,4.32Z"/>
      <path class="cls-12" d="M123.68,123.08l-.03.35c-3.87.14-7.68,1.12-11.53,1.02l11.56-1.37Z"/>
      <path class="cls-7" d="M26.94,82.51c-.22.21-.24.76-.74.65.22-.19.26-.76.74-.65Z"/>
      <path class="cls-21" d="M40.4,53.02c-1.92,3.59-7.11,7.91-10.78,6.98-1.48-.38-2.2-1.79-2.68-3.09-.75-2.02.16-3.95,2.26-4.53,1.3-.36,4.26-.98,3.9-2.5-.15-.61-1.08-.89-1.66-.44l-3.74,2.9c-1.94,1.51-4.36,1.31-6.18-.43-2.49-2.4-3.4-6.07-2.31-9.44.94-2.93,2.98-5.15,5.57-6.75,1.43-.89,3.1-1.67,4.84-1.23,1.83.46,3.38,2.06,3.95,3.84.68,2.12-.63,4.05-2.61,4.73-1.53.52-5.12.68-4.44,2.81.2.61,1.15.92,1.86.57,2.68-1.3,6.04-5.88,10.06-2.73,2.82,2.22,3.71,6.06,1.96,9.31Z"/>
      <path class="cls-21" d="M48.55,46.82c-1.48.83-2.92.17-3.83-.84-3.38-3.76-6.48-7.56-9.58-11.55-1.96-2.52-2.43-5.37-.04-7.79,3.81-3.87,10.38-7.59,14.6-2.47,1.55,1.88,1.75,4.2.56,6.43,2.25-.82,4.57-.23,5.98,1.37,4.47,5.08-3.33,12.41-7.68,14.85Z"/>
      <path class="cls-4" d="M45.8,28.62c.99,1.09-1.14,4.95-2.44,4.94-.61,0-2.63-2.28-2.35-3.22.44-1.47,3.53-3.11,4.79-1.72Z"/>
      <path class="cls-15" d="M48.06,39.04c-1.03.15-1.39-1-1.48-1.5-.33-1.77,3.11-3.44,3.84-2.32.88,1.36-.81,3.59-2.35,3.82Z"/>
      <rect class="cls-5" x="101.27" y="53.59" width="117.9" height="67.19" rx="8.12" ry="8.12" transform="translate(-8.83 18.69) rotate(-6.5)"/>
      <g>
        <path class="cls-6" d="M146.01,47.66c6.74-.77,14.78-3.11,21.21.27,2.73,1.36,4.31,4.39,3.59,7.43-.73,4.3-5.17,6.64-9.54,7.69-4.23,1.13-10.19,1.19-12.66-3.07-1.08-1.66-1.09-4.66-1.76-6.22-.16-.19-.36-.05-.67.21-.81.81-2.27.98-3.4.84-1.29-.34-.44-1.91-.15-2.82.67-1.73,1.84-3.43,3.21-4.24l.16-.08Z"/>
        <path class="cls-22" d="M170.56,51.12c-.1.07-.33-.09-.62-.37-.79-.81-1.68-1.65-2.7-2.21-4.82-2.44-10.56-2.03-15.73-1.04-1.49.3-3.04.6-4.55.4-.84-.11-1.06-.58-.37-1.14,6.53-4.43,22.34-5.91,24.01,4.32l-.04.05Z"/>
      </g>
      <path class="cls-10" d="M146.39,58.48c.7.37,1.25,1.07,1.63,2.11,4.74,7.16,18.86,3.83,22.81-2.72.26-1.02.7-1.78,1.32-2.28l36.14-3.98c2.64-.29,4.42,2.1,4.68,4.38l.85,7.58,4.59,41.99c.22,2.02-1.37,4.37-3.54,4.62l-102.2,11.51c-2.18.25-4.45-1.58-4.69-3.71l-5.65-50.28c-.24-2.17,1.6-4.36,3.72-4.61l40.35-4.61Z"/>
      <text class="cls-8" transform="translate(111.54 102.73) rotate(-6.1)"><tspan x="0" y="0">MENU</tspan></text>
      <path class="cls-20" d="M28.53,135.33c2.62.39,8.52,1.67,11.07,2,1.5.25,4.59-1.27,4.36-3.03-.1-.44.24-.63.37-1.05.08-.24.11-.52.1-.84,0-.89-.42-1.54-.47-2.38.13-.46.47-1.1.63-1.7.69-2.06.81-4.42-.29-6.16-.08-.24.02-.5-.04-.68-.13-.2-.48-.29-.58-.6-.6-1.64-2.02-3.2-3.25-4.3-2.99-2.38-6.5-3.85-9.63-6.01-.31-.26-.51-.39-.63-.57-.97-1.96-1.75-4.19-2.39-6.31-1.27-4.3-5.29-10.02-10.31-6.84-.36.25-.24.65-.45.88-.2.19-.49.35-.69.6-.88,1.09-1.24,2.52-1.6,3.87-.46,2.44-.48,5.33-.25,7.84.42,3.26,2.89,5.9,3.74,8.99.41.83,1.16,1.52,1.08,2.48,1.22,1.95,3.16,3.52,4.9,5.08.15.14.2.29.12.46-.74.88-.96,1.76-1.08,2.88-.3.61-.63.68-.51,1.45.16,1.44,1.6,3.19,2.92,3.63.68.12,1.57.26,2.25.38.39.08.55.07.58-.01l.03-.03ZM24.76,129.93c.42-1.37,1.83-2.44,3.34-1.97.71.13,1.44.44,2.13.18.03-.3-.64-.63-.92-.81-4-2.11-7.38-5.18-9.68-8.82-2.92-4.59-4.17-10.1-3-15.77.37-2.2,2.01-5.29,4.64-4.65,4.79,1.95,4.95,8.7,7.08,12.82,4.93,4.89,16.04,6.91,14.64,15.76-.15,1.08-.63,2.15-1.11,3.15-.13.74,1.43,3.39-.15,4.91-.63.65-1.59.85-2.48.81-3.18-.21-6.31-.69-9.38-1.41-2.16-.49-5.79-1.1-5.15-4.06l.04-.15Z"/>
      <path class="cls-5" d="M39.24,135.55c1.05.07,2.07-.27,2.61-.93,1.55-1.89-.33-4.24.03-4.87,1.97-3.42,1.54-7.42-1.24-10.31-3-3.12-8.48-5.28-12.13-8.12-1.2-2.84-2.09-5.7-3.14-8.61-1.03-2.86-3.86-5.88-6.28-4.24-1.39.94-2.07,2.45-2.43,4.07-2.22,10.25,3.48,19.98,12.65,24.8.42.22.81.47,1.09.87-.88.12-1.66-.1-2.52-.31-1.5-.36-2.76.76-3.15,2.09-.4,1.36.49,2.87,2.03,3.32,4.04,1.19,8.23,1.94,12.48,2.23Z"/>
      <path class="cls-5" d="M34.06,153.34c-.84-.1-1.23-.18-1.02-1.2.79-5,1.76-9.96,2.91-14.88-.12-.34-6.63-1.39-6.98-1.34-.81.11-3.3,14.29-3.51,15.87-.34,2.55-.99,7.45.48,9.62,1.02,1.51,3.36,2.06,5.04,1.48,5.63-1.97,10.57-4.52,15.32-8.16l1.22-.23c.18-.72,1.15-.69,1.14-1.66,0-.39-.26-.82-.74-1-2.42-.9-1.52-4.88-3.32-5.2-.12-.02-.25-.03-.4-.01h0s0,.65,0,.65c-1.3.97-9.21,6.17-10.14,6.05Z"/>
      <path class="cls-5" d="M28.52,135.3c-.01.05-.03.11-.05.16l7.1,1.19-7.06-1.35Z"/>
      <path class="cls-5" d="M36.61,136.85l-1.03-.2-7.1-1.19c-1.55,5.64-5.45,20.86-3.36,25.56,1.02,2.29,3.76,3.04,6.01,2.37,6.14-1.83,11.42-5.26,16.39-8.89h0l-1.22.23c-4.76,3.64-9.69,6.18-15.32,8.16-1.68.59-4.03.03-5.04-1.48-1.46-2.17-.82-7.07-.48-9.62.21-1.58,2.7-15.75,3.51-15.87.35-.05,6.87,1,6.98,1.34-1.15,4.92-2.12,9.89-2.91,14.88-.22,1.02.18,1.1,1.02,1.2.93.11,8.84-5.08,10.14-6.05v-.65c-1.35,1.02-8.67,5.93-10.74,6.32.71-5.55,1.98-10.64,3.14-16.11Z"/>
      <path class="cls-5" d="M46.13,137.43l13.76,11.6s-2.98-1.7-4.82-.79-7.55,6.26-7.55,6.26l-4.58-7,1.26-.87s6.07-3.7,1.93-9.2Z"/>
      <path class="cls-1" d="M163.66,63.85c-6.34,2.44-15.13,1.85-17.22-5.46-.11.3-.29.52-.61.64-3.73.46-34.82,3.99-39.5,4.55-1.72.13-3.76,2.69-3.43,4.55.48,4.32,5.04,44.94,5.56,49.61.04.88.75,1.96,1.5,2.58,1.22.89,2.11,1.09,2.9,1.07,4.73-.53,96.59-10.92,101.7-11.5.06,0,.11-.01.19-.03.24-.05,1.01-.31,1.84-1.13.9-.89,1.24-2.18,1.28-2.75-.19-4.37-4.95-44.72-5.34-49.49-.18-1.5-1.19-3.52-2.82-4.09-1.13-.44-1.58-.29-2.7-.18-1.02.11-1.97.22-3.03.34-8.15.9-21.6,2.39-29.63,3.28-1.13.11-1.72.34-2.11-.41-.59,4.43-4.54,7.23-8.58,8.44Z"/>
      <path class="cls-1" d="M140.05,54.12c-.04.17-.06.27-.06.27,0,0,.02-.1.06-.27,0-.06,0-.13,0-.19.1-1.85-.83-2.42-2.46-2.14-4,.49-7.98,2.55-11.5,4.64-.79.43-1.7.98-2.59,1.21.44.06,1.03-.1,1.42-.15,5.17-.84,10.45-1.25,15.69-1.82-.4-.32-.55-.86-.55-1.53Z"/>
      <path class="cls-5" d="M146.07,45.52c.77-.54,1.77-1.04,2.53-1.53-.94.46-1.78.98-2.53,1.53Z"/>
      <path class="cls-5" d="M109.23,123.57c-3.07-3.7-4.66-8.02-5.53-12.63.53,4.45,1.01,7.85,1.37,9.26.9,1.96,3.22,4.48,5.67,4.71-.52-.33-1.03-.77-1.51-1.34Z"/>
      <path class="cls-17" d="M142.15,49.58c.68-.35,1.28-.83,1.79-1.43,1.37-1.54,3.01-2.69,4.83-3.67.76-.38,1.24-.78,1.42-1.19-.56.22-1.1.45-1.6.7-.76.49-1.76.98-2.53,1.53-1.75,1.28-3.01,2.71-3.92,4.06Z"/>
      <path class="cls-17" d="M143.23,55.04c-.75.1-1.5.19-2.24.28.19.18.43.3.73.35,1.94.28,4.53-.63,5.02,2.43.03.15.08.28.12.43.11-.38.14-.87.16-1.47.07-2.46-2.26-2.24-3.79-2.02Z"/>
      <path class="cls-17" d="M145.01,54.66c.12,0,2.71-1.47,2.79-2.33s2.45-.11,1.08,1.86-2.01,3.24-2.03,4.34"/>
      <path class="cls-2" d="M146.55,56.68s2.4,8.53,10.56,7.94c12.98-.94,14.17-7.58,14.18-12.76"/>
    </g>
  </g>
</svg>