<?xml version="1.0" encoding="UTF-8"?>
<svg id="Layer_1" data-name="Layer 1" xmlns="http://www.w3.org/2000/svg" viewBox="0 0 75.02 82.67">
  <defs>
    <style>
      .cls-1 {
        fill: none;
      }

      .cls-2 {
        fill: #f7baac;
      }

      .cls-3 {
        fill: #f2e9d6;
      }

      .cls-4 {
        fill: #972b28;
      }

      .cls-5 {
        fill: #a42f2c;
      }

      .cls-6 {
        fill: #e63c35;
      }

      .cls-7 {
        fill: #f8c3b1;
      }

      .cls-8 {
        fill: #f0ead5;
      }

      .cls-9 {
        fill: #a22e2b;
      }

      .cls-10 {
        fill: #f0e9d4;
      }

      .cls-11 {
        fill: #efe6d1;
      }

      .cls-12 {
        fill: #f6b4a4;
      }

      .cls-13 {
        fill: #e63e35;
      }

      .cls-14 {
        fill: #f2eeda;
      }

      .cls-15 {
        fill: #9f2d2a;
      }

      .cls-16 {
        fill: #f1ddca;
      }

      .cls-17 {
        fill: #efe9d5;
      }

      .cls-18 {
        fill: #f5b2a3;
      }

      .cls-19 {
        fill: #efead5;
      }

      .cls-20 {
        fill: #f8c2b2;
      }

      .cls-21 {
        fill: #a32f2b;
      }

      .cls-22 {
        fill: #fdd9c7;
      }
    </style>
  </defs>
  <g>
    <path class="cls-13" d="M71.84,46.53c-.24-.28-.99-.96-1.3-1.03-.32-.35-.86-.09-1.3-.28-.36-.16-1.39-1.46-1.88-1.85-1.7-1.32-4.56-2.4-6.69-2.72-.28-.73-1.36-.56-1.32-1.39.39-3.9.56-7.83.58-11.75l-.54-6.68c.17-.48,3.39-.8,4.08-.96,1.07-.24,4.29-.79,4.62-1.9.4-1.34-.33-2.4-1.73-2.31-1.2.25-6.59,1.8-7.37,1.24-.19-.14-.99-3.85-1.24-4.54-1.89-5.22-5.9-7.48-11.2-8.37-1.2-.2-3.91-.17-4.76-.46-.25-.09-.49-.66-.77-.91-.94-.84-1.65-1.12-2.95-.88-1.31.25-1.71,1.6-2.32,1.78-.97.28-3.34.24-4.57.46-6.64,1.19-10.1,4.25-11.75,10.8-.26,1.03-.49,4.04-.78,4.62-.19.39-1.69.64-1.77,1.78-.09,1.35,1.44,1.6,1.47,2.21-.27,3.04-.46,6.1-.37,9.15.04,1.46.34,3.18.39,4.64,0,.1,0,.23.01.37.07.66.15,1.46.24,2.31-.95-.25-2.57-1.67-3-2.16-.43-.48-2.29-3.11-2.07-3.59.06-.13,1.51-.66,1.68-1.49.21-1.02-.66-2.1-.6-2.78.02-.28.73-1.14.92-1.62.8-2.03.73-7.31-2.53-6.56.25,1.13.7,2.13.54,3.31-.75-1.18-.98-2.61-1.7-3.84-1.29-2.21-2.43-2.26-4.78-1.5-1.41.45-4.88,2.45-5.32,3.88-.63,2.05,1.74,5.84,3.15,7.31.64,1.16,2.01,2.35,3.42,2,.34.68-1.07.41-1.21.61-.01.58.53.84.8,1.17.3.38.53.96,1.06,1.13.51.17,1.06-.14,1.36.1.23.18,1.3,2.32,1.71,2.88,1.23,1.67,3.2,3.39,5.08,4.25.54.25,1.7.37,1.97.77.01.09.03.2.04.29.92,4.18,2.62,8.32,6.71,10.25,1.67.79,3.66,1.18,5.45,1.63l.09.66-1.96,15.2c-.2.4-1.11.43-1.57.67-1.24.63-2.18,1.58-3.62,2.16-1.72.69-4.13.91-5.63,1.63-1.19.58-1.65,1.8-.91,2.98.63,1,1.69,1.36,2.81,1.48,2.38.25,7.7.43,10.04.21,2.51-.23,3.57-1.66,3.25-4.17-.12-.91-.69-1.5-.93-2.24-.37-1.19.24-3.16.38-4.49.47-4.47.92-9.03,1.67-13.43l7.47-.08,2.05,16.5c.31,1.22-.46,1.76-.83,2.7-1.15,2.89.04,4.98,3.16,5.22,3.22.25,6.63-.45,9.88-.2,1.93.07,4.38-2.77,2.32-4.18-1.23-.85-4.23-1.24-5.82-1.83-1.99-.74-3.33-2.18-5.34-2.58l-1.32-10.61.06-.11c.16-.17.52.12.69.2,4.87,2.36,13.3,2.92,18.45,1.31,2.12-.66,3.63-1.82,4.29-4.01,4.07-1.04,4.18-9.69,1.86-12.39ZM11.75,31.8l-.67.14c.22-.06.45-.11.67-.14Z"/>
    <path class="cls-14" d="M38.87,1.66c.83,0,1.42.32,2.14.96.28.25.51.83.77.91.85.29,3.56.25,4.76.46,5.3.89,9.31,3.15,11.2,8.37.25.69,1.05,4.4,1.24,4.54.12.08.34.12.64.12,1.68,0,5.72-1.15,6.73-1.36.06,0,.11,0,.16,0,1.3,0,1.95,1.03,1.57,2.31-.33,1.11-3.55,1.66-4.62,1.9-.69.16-3.91.48-4.08.96l.54,6.68c-.03,3.92-.19,7.85-.58,11.75-.04.83,1.04.67,1.32,1.39,2.13.32,4.99,1.4,6.69,2.72.5.38,1.53,1.69,1.88,1.85.17.08.36.08.54.08.04,0,.07,0,.11,0,.25,0,.48.01.65.2.31.07,1.06.75,1.3,1.03,2.32,2.7,2.21,11.35-1.86,12.39-.66,2.19-2.17,3.35-4.29,4.01-1.98.62-4.44.92-7,.92-4.1,0-8.45-.77-11.45-2.22-.13-.06-.38-.25-.56-.25-.05,0-.1.02-.13.05l-.06.11,1.32,10.61c2.02.39,3.36,1.83,5.34,2.58,1.58.59,4.59.98,5.82,1.83,2.03,1.4-.34,4.19-2.25,4.19-.02,0-.05,0-.07,0-.51-.04-1.03-.06-1.54-.06-2.26,0-4.57.31-6.81.31-.51,0-1.03-.02-1.53-.06-3.12-.24-4.31-2.33-3.16-5.22.37-.94,1.15-1.49.83-2.7l-2.05-16.5-7.47.08c-.75,4.4-1.2,8.96-1.67,13.43-.14,1.32-.75,3.29-.38,4.49.23.74.81,1.33.93,2.24.32,2.51-.74,3.94-3.25,4.17-.75.07-1.8.1-2.95.1-2.48,0-5.46-.14-7.08-.31-1.12-.12-2.18-.48-2.81-1.48-.74-1.18-.28-2.41.91-2.98,1.5-.73,3.92-.95,5.63-1.63,1.44-.58,2.38-1.52,3.62-2.16.46-.24,1.37-.26,1.57-.67l1.96-15.2-.09-.66c-1.79-.45-3.78-.84-5.45-1.63-4.09-1.93-5.79-6.07-6.71-10.25-.01-.09-.03-.19-.04-.29-.27-.4-1.43-.53-1.97-.77-1.88-.85-3.86-2.58-5.08-4.25-.41-.56-1.48-2.69-1.71-2.88-.09-.07-.21-.1-.34-.1-.19,0-.42.05-.65.05-.12,0-.25-.01-.37-.05-.53-.17-.76-.76-1.06-1.13-.26-.33-.81-.59-.8-1.17.14-.2,1.55.07,1.21-.61-.17.04-.34.06-.51.06-1.22,0-2.35-1.05-2.91-2.06-1.41-1.47-3.78-5.26-3.15-7.31.44-1.43,3.91-3.43,5.32-3.88.85-.27,1.54-.44,2.14-.44,1.06,0,1.82.53,2.65,1.94.72,1.23.95,2.66,1.7,3.84.16-1.18-.29-2.18-.54-3.31.21-.05.41-.07.6-.07,2.67,0,2.68,4.74,1.93,6.64-.19.48-.89,1.34-.92,1.62-.06.68.81,1.76.6,2.78-.17.83-1.62,1.36-1.68,1.49-.22.48,1.64,3.11,2.07,3.59.43.49,2.05,1.91,3,2.16-.09-.84-.18-1.65-.24-2.31,0-.14-.01-.27-.01-.37-.05-1.47-.34-3.18-.39-4.64-.09-3.05.09-6.12.37-9.15-.03-.61-1.57-.86-1.47-2.21.08-1.14,1.57-1.38,1.77-1.78.29-.58.52-3.59.78-4.62,1.65-6.55,5.11-9.61,11.75-10.8,1.23-.22,3.6-.18,4.57-.46.61-.18,1.01-1.53,2.32-1.78.3-.06.56-.08.81-.08M11.08,31.94l.67-.14c-.22.03-.45.08-.67.14M38.87,0h0s0,0,0,0c-.35,0-.72.04-1.12.11-1.39.26-2.15,1.19-2.6,1.74-.03.04-.07.09-.11.13-.46.07-1.25.12-1.86.16-.81.05-1.65.1-2.3.21-7.37,1.32-11.28,4.92-13.07,12.03-.14.54-.25,1.39-.37,2.29-.07.5-.17,1.26-.25,1.73-.54.3-1.49.88-1.85,1.98-.51-.28-1.1-.43-1.72-.43-.17,0-.34.01-.52.03-.75-1.2-1.88-2.43-3.88-2.43-.9,0-1.84.26-2.65.52-1.15.37-5.66,2.55-6.4,4.97-.89,2.9,1.87,7.12,3.4,8.79.43.72,1.09,1.47,1.92,2,.14.92.76,1.48,1.04,1.74.03.03.07.06.1.09.03.04.08.12.13.19.28.44.76,1.16,1.7,1.47.28.09.57.14.89.14.02,0,.03,0,.05,0,.11.2.24.42.34.6.45.81.74,1.32.98,1.64,1.48,2.02,3.68,3.85,5.74,4.78.32.14.67.24,1.01.33.05.01.11.03.18.05.86,3.69,2.61,8.6,7.52,10.92,1.43.68,2.98,1.07,4.48,1.43l-1.73,13.45c-.25.07-.53.15-.79.29-.61.32-1.14.68-1.64,1.02-.6.41-1.17.81-1.83,1.07-.68.27-1.58.48-2.45.68-1.14.26-2.32.53-3.29,1-1.05.51-1.78,1.35-2.08,2.37-.29.99-.12,2.06.48,3,.81,1.29,2.17,2.05,4.05,2.25,1.74.18,4.79.31,7.26.31,1.31,0,2.35-.04,3.11-.11,1.69-.16,2.97-.77,3.8-1.81.85-1.06,1.17-2.49.94-4.23-.11-.85-.46-1.5-.72-1.97-.12-.21-.22-.41-.27-.55-.14-.44.08-1.6.22-2.37.09-.51.18-.99.23-1.44l.12-1.15c.37-3.57.76-7.26,1.31-10.81l4.58-.05,1.86,15.02v.11s.04.1.04.1c.04.16.05.18-.25.66-.16.27-.36.6-.52,1.01-.99,2.48-.47,4.17.14,5.15.6.96,1.85,2.15,4.43,2.35.52.04,1.07.06,1.66.06,1.18,0,2.36-.08,3.5-.16,1.15-.08,2.23-.15,3.3-.15.51,0,.97.02,1.42.05h.03s.03,0,.03,0c.04,0,.09,0,.13,0,1.91,0,3.95-1.54,4.53-3.43.46-1.48-.04-2.9-1.34-3.79-1.01-.7-2.59-1.08-4.12-1.45-.8-.19-1.55-.37-2.06-.56-.7-.26-1.34-.65-2.02-1.06-.71-.43-1.49-.9-2.39-1.24l-.86-6.93c2.9,1.01,6.57,1.59,10.23,1.59,2.82,0,5.42-.34,7.49-.99,2.54-.79,4.22-2.21,5.1-4.31,1.43-.69,2.54-2.11,3.16-4.09,1.14-3.61.52-8.5-1.35-10.67,0-.01-.81-.92-1.67-1.37-.57-.42-1.2-.44-1.5-.44-.15-.15-.34-.36-.47-.5-.39-.42-.76-.82-1.09-1.08-1.67-1.29-4.38-2.45-6.79-2.93-.17-.16-.36-.29-.52-.38.32-3.49.5-7.17.52-11.22v-.07s0-.07,0-.07l-.44-5.43c.56-.11,1.25-.21,1.63-.27.48-.07.82-.12,1.06-.18.11-.03.25-.05.4-.09,2.57-.54,4.91-1.18,5.44-2.97.34-1.16.17-2.32-.46-3.17-.62-.82-1.58-1.28-2.7-1.28-.09,0-.18,0-.27,0h-.12s-.11.03-.11.03c-.29.06-.74.17-1.31.31-1.19.3-3.25.81-4.5.97-.12-.46-.25-.99-.35-1.39-.27-1.09-.44-1.77-.56-2.13-1.93-5.33-5.89-8.34-12.49-9.45-.61-.1-1.44-.15-2.31-.2-.54-.03-1.36-.07-1.85-.14-.14-.2-.3-.43-.53-.64-.77-.69-1.75-1.39-3.25-1.39h0ZM15.6,34.8c.28-.22.57-.48.8-.8.03.37.07.73.11,1.09.05.43.09.84.12,1.24-.29-.39-.72-1.01-1.04-1.53h0Z"/>
  </g>
  <g>
    <path class="cls-1" d="M21.73,32.93s0,0,0,0c0-.02.01-.04.02-.07,0,0,0,0,0,0,0,.01-.01.04-.02.06Z"/>
    <path class="cls-13" d="M44.35,57.99c-.29-.34-1.32-.34-1.54-1.07-.43-1.44,1.11-1.81,1.35-2.47.03-.08-.06-1.42-.08-1.69-5.01.23-14.12.79-18.17-2.61-3.53-2.97-4.29-11.08-4.2-15.46-.05-.61-.08-1.13-.01-1.57,0-.05,0-.09.01-.13v-6.75c-.06-.23-.09-.47,0-.67v-2.62c11.44-.47,22.9-.83,34.29-2.05.36,4,.42,8,.38,12.02,0,.32.12.83-.19,1.02.05,2.18-.13,4.38-.56,6.52,1.59-.08,3.47-.05,5.03.19-.28-.73-1.36-.56-1.32-1.39.39-3.9.56-7.83.58-11.75l-.54-6.68c.17-.48,3.39-.8,4.08-.96,1.07-.24,4.29-.79,4.62-1.9.4-1.34-.33-2.4-1.73-2.31-1.2.25-6.59,1.8-7.37,1.24-.19-.14-.99-3.85-1.24-4.54-1.89-5.22-5.9-7.48-11.2-8.37-1.2-.2-3.91-.17-4.76-.46-.25-.09-.49-.66-.77-.91-.94-.84-1.65-1.12-2.95-.88-1.31.25-1.71,1.6-2.32,1.78-.97.28-3.34.24-4.57.46-6.64,1.19-10.1,4.25-11.75,10.8-.26,1.03-.49,4.04-.78,4.62-.19.39-1.69.64-1.77,1.78-.09,1.35,1.44,1.6,1.47,2.21-.27,3.04-.46,6.1-.37,9.15.04,1.46.34,3.18.39,4.64,0,.1,0,.23.01.37.11,1.13.27,2.68.46,4.14.34-.43.83-.69,1.1-1.07.37-.53.33-1.53,1.15-1.62.13-.01.56.1.6.17.2.32.22,2.47.13,2.96-.2,1.07-.62,1.16-1.11,1.87-.11.17-.29,1.28-.66.92-.43-.42-.17-1.87-.27-2.05-.11-.18-.52-.35-.84-.48.08.58.16,1.13.24,1.63.92,4.18,2.62,8.32,6.71,10.25,1.67.79,3.66,1.18,5.45,1.63l.09.66-1.96,15.2c-.2.4-1.11.43-1.57.67-1.24.63-2.18,1.58-3.62,2.16-1.72.69-4.13.91-5.63,1.63-1.19.58-1.65,1.8-.91,2.98.63,1,1.69,1.36,2.81,1.48,2.38.25,7.7.43,10.04.21,2.51-.23,3.57-1.66,3.25-4.17-.12-.91-.69-1.5-.93-2.24-.37-1.19.24-3.16.38-4.49.47-4.47.92-9.03,1.67-13.43l7.47-.08,2.05,16.5c.31,1.22-.46,1.76-.83,2.7-1.15,2.89.04,4.98,3.16,5.22,3.22.25,6.63-.45,9.88-.2,1.93.07,4.38-2.77,2.32-4.18-1.23-.85-4.23-1.24-5.82-1.83-1.99-.74-3.33-2.18-5.34-2.58l-1.32-10.61c-.34-.78-1.07-1.23-1.5-1.95-.24-.42-.45-1.35-.65-1.58ZM54.89,10.46c.03-.32-.42-.79-.38-1.02.17-.87,2.49.67.38,1.02ZM53.67,7.49c.3-.01,1.15.95.56,1.3-.56-.04-1.23-1.26-.56-1.3ZM51.72,6.36c.49-.23.99.5.74.74-.31.31-.85-.32-.74-.74ZM45.69,8.67c.75.69,1.24,1.9.89,2.91-.19.56-1.39,1.21-1.2,1.5,3.03,1.86.49,4.17-2.17,4.45-2.03.21-3.61.17-3.8-2.11-.11-1.3-.09-5.76.49-6.79.9-1.61,4.62-1.03,5.79.05ZM37.54,3.65l-1.3.66M37.92,8.6c-.17-.32-.22-.59-.48-.93-.17-.23-1.36-.84-.45-1.22.54-.23.85.24,1.24.25.25,0,.46-.3.72-.33,1.08-.1,1.87.05,2.88.37-.13,1.24-.51.53-1.2.56-1.16.06-1.23,2.43-1.41,3.35-1.06,0-.64-.71-.87-1.47-.12-.4-.38-.47-.44-.58.62.97.26,3.27-1.37,3.16-.59-.04-2.66-1.47-2.64-.27,0,.92,1.83.59,2.54.73,1.69.34,1.9,1.41,1.65,2.98-.52,3.32-7.44,2.92-7.07.03.08-.65.83-1.5,1.53-1.38.3.05,2.38,1.47,2.38.25,0-.75-1.45-.4-1.96-.46-3.92-.5-2.15-5.53,1.33-5.94.9-.11,3.08.08,3.61.91ZM18.5,23.08c-.16-.54-1.4-1.04-1.24-1.67.29-1.12,1.53-1.24,1.75-2.18.25-1.09.41-2.11.73-3.18.07-.25.37-.44.43-.69.13-.51-.15-1.49.51-1.73.3-.11.69,1.03.83.27.08-.43-.72-.41-.74-.91-.04-1.12.94-2.74,1.59-3.64.92-1.28.85-1.11,2.12-1.8.69-.37,1.01-1.35,2.18-1.38.79-.02,1.43.55,2.74.14.34-.11.59-.65.78-.67.23-.02.66.6,1.1.53.1-.01.89-1.33,1.6-.95.08.52-.4.85-.49,1.3-.19,1.01.41,1.51-.91,2.43-1.04.73-.72.22-1.58,1.41-.12.17-.47.22-.52.3-.09.16.06,1.69-.6,1.18-.28-.21-.13-1.7-1.3-1.59.16.29.03,1.18.1,1.31.18.37,1.1.46,1.03,1.39-.06.71-1.2.23-1.13,1.02,1.07-.39,1.02.7,1.59.93.43.17.32-.61.49-.72.38-.24,1.24.08,1.28.63.04.5-.36.84-.06,1.54.17.39,1.73,1.33,2.2,1.44.89.21,1.9-.04,2.77.13.56.12,2.61,1.59,2.73.44.08-.77-.57-1.81-.51-2.21.03-.2.25-.42.29-.66.06-.33.18-1.65.24-1.71.05-.05.56.03.74,0,.15.88-.21,2.49,0,3.26.22.81,2.38.7,3.21.89.42.1.73.42,1.18.5.66.11,2.32.17,2.61-.55.1-.24-.56-.4,0-1.11.07-.09.95-.95,1.03-1.02.87-.64,1.52-.03.73-1.79.64.02.79.99,1.31,1.21.48.2,1,.07,1.49.1.15-.32-.41-.48-.29-.74.35-.8,2.02-.23,1.78-1.85-.44-.12-1.07-.37-1.49-.11-.43.26-.08,1.19-1.3.84-.21-1.17,1.23-1.22,1.3-1.31.18-.2-.9-1.84-1.5-1.41-.45.32.1,1.18-1.01,1.05-1.14-.14-1.28-1.42-1.67-2.26-.26-.57-.66-.56-.68-1.38-.04-1.49,1.08-1.37,1.15-2.07.06-.61-.6-.67-.57-1.2.88-.19,1.57.22,2.34.36.48.09,2.52.16,2.69.86.06.26-.7.77-.87.8-.99.14-2.92-2.23-3.04,1.16.82-.33,1.31-.33,1.96.38.51.54-.31.85.08,1.21.3.28,2.28.22,2.8.28.21.47-.34.36-.47.55-.55.84.53.52.83.67.15.08.86.57,1.07.71.15.1.18.41.34.5.37.21.34-.66.65-.84.09-.05,1.41-.31,1.47-.26.07.05.91,1.41.97,1.56.71,1.73.05,5.26,2.69,4.96.74-.08,1.98-.29,2.75-.42,1.16-.2,3.33-1.67,4.34-1.09.99.58.93,1.81-.05,2.2-.77.31-2.69.82-3.57,1.05-.92.24-2.58.57-3.47.67-.37.04-.82-.41-1.11.2-.29.62.23,1.38.28,1.77.23,1.75.15,3.48.38,5.39.12,1-.32,1.87-.3,2.43.01.28.35.6.32,1.12-.06.85-.58,2.39-.59,3.36-.01,1.35.55,1.64-.17,3.36-.17.42-.54.57-.66.83-.63,1.32.22,1.96-2.15,1.67-.4-.4.86-3.16.93-3.65.12-.88-.37-2.26-.37-3.15,0-.59.38-1.21.39-1.87.01-.69-.3-1.33-.21-2.06.07-.61.5-.66.58-1.28.06-.45.03-1.37-.05-1.83-.12-.64-.57-.88-.66-1.2-.04-.12-.24-1.72-.23-1.82.07-.76,1.74-1.04.94-2.44-.49-.84-1.8-.99-2.67-.79-.5.12-.77.68-1.14.69-1.43.06-3.21-.18-4.66.03-.88.13-2.22.66-3.18.74-1.02.09-2.92-.15-3.89-.42-.3-.08-.48-.6-.78-.52-.18.04-.35.61-.55.76-.43.32-1.77-.01-2.41.01-1.79.06-4.47.13-6.18.34-.67.08-.88.49-1.48.57-1.21.16-2.21-.39-3.16-.36-.65.02-1.47.56-2.07.55-.45,0-.73-.32-1.13-.37-1.05-.14-3.55-.61-3.77.87-.16,1.05,1.25,1.59,1,2.1-.27.55-.92.47-1.32.74-.52.35-.95,1.52-1.48.37-.26-.56.33-2.28.06-3.22ZM19.47,37.67c-1.47-.72-.69-1.66-.78-2.66-.17-1.92-.32-3.03-.15-5.07.08-.95.2-1.95.37-2.89.6.33.22,1.31.47,1.86.45,1.03,1.76.1,1.95,1.96.3,2.86-1.21,4.22-1.87,6.8ZM26.74,76.07c-.05.28.1,1.16-.02,1.28-.2.22-1.09.09-1.1-.26,0-.08.95-1.22,1.11-1.02ZM18.07,78.31c-.46-.71.92-1.59,1.59-1.49l-.95,1.65-.64-.16ZM19.29,79.14c.24-.55,1.52.05,1.68.46-.21.04-1.9.05-1.68-.46ZM22.08,79.23c.27-.35-.16-1.35.29-1.48.86-.26.68.45.88.68.27.32,1.07.25,1.07,1.35-.85-.01-1.3-1.11-2.24-.56ZM24.97,78.11c-.72-.27.16-1.05.46-.74.08.08.18.98-.46.74ZM26.83,79.98c-.07.01-1.34-.14-1.39-.19-.48-.37,1.27-.71,1.48-.55.09.07.25.67-.09.73ZM33.98,58.15c-.28.17-1.33-.27-1.23.5.03.25.68.47.87.77.43.67-.55,3.86-.68,4.87-.08.63-.25,2.54-.24,3.12,0,.45.37.77.34,1.08-.02.27-.39.64-.47,1.01-.14.65-.48,3.27-.44,3.87.05.81.74,2.12.93,2.99.49,2.34.02,3.17-2.14,4.18-.48-.23-3.01-.46-3.07-.67-.31-1.11.82-.28,1.49-.74l1.13-1.2c-.75.34-1.62.06-2.32.19-.38.07-1.41,1.37-1.59.64-.04-.14.5-1.7.56-1.77.48-.53.35,1.27.74,1.12-.29-1,1.77-1.68.84-2.6-.84-.83-1.68.47-2.52-.29.03-.78,1.28-1.64,1.92-1.99.82-.44,1.85-.24,2.11-1.44.13-.63-.13-.96-.08-1.37.09-.67.16-.71.19-1.53.1-2.62,1.03-4.44,1.08-7.26.02-1.09.6-2.83.74-3.94.43-3.49-2.31-2.53-4.64-3.34-.77-.27-3.27-1.73-3.83-2.32-.72-.75-.84-.94-1.67-1.68-.6-.54-1.28-2.13-.85-2.87.15-.25.57-.05.81-.16.4-.18.54-.7,1.13-.5.21.07,1.26,2.03,1.26,2.31,0,.76-.43.51-.75.75-.94.71,1.04,1.05,1.29,1.3.23.22.88,1.69.96,1.74.17.11,3.35-.54,3.98-.53.52,0,3.01.35,2.89,1.02-.09.51-1.76-.35-1.68.84.32.07,1.06-.11,1.28.03.14.09.75,2.73.96,3.14,1-.9,1.11.48.72.72ZM40.53,55.47c-.18.11-2.14.29-2.52.29-.68,0-2.24-.17-1.94-1.19.08-.27,2.25-1.24,2.5-1.24.42,0,2.59-.07,2.7,0,.44.29-.42,1.95-.75,2.14Z"/>
    <path class="cls-13" d="M46.5,61.53l.06-.11s-.04.06-.06.11Z"/>
    <path class="cls-13" d="M21.73,32.93s0,0,0,0c0,.02-.01.04-.02.06v.05s.01-.08.02-.12Z"/>
    <path class="cls-21" d="M63.44,56.6c-.84-1.87-.33-6.94,1.62-8.09,1.68-.99,4.46-.17,6.21.34.06-.63-.77-.7-1.02-1.13-.28-.48-.33-1.46-.84-1.95-.18-.42.94-.32,1.11-.27-.32-.35-.86-.09-1.3-.28-.36-.16-1.39-1.46-1.88-1.85-1.7-1.32-4.56-2.4-6.69-2.72-.72.3-1.56.35-2.52.16-.98.13-1.82.02-2.51-.35-.45.02-2.34.08-2.53.36-.22.32.07,1.02-.26,1.61-.47.84-1.79.76-1.87.84-.15.15.37,1.6-.69,2.39-1.01.75-2.2.14-2.29.22-.04.03-.2.62-.47.94-1.24,1.43-2.64.14-2.89.37-.36.44.05,1.78,0,1.85-.11.15-3.1,1.18-1.78,2.44.67.64,1.1-.12,1.22,1.29.67.03.55,1.72.2,2.19-1.29.94-1.83,2.05.06,2.56.47.48.81,1.1,1,1.87l1.39,1.74-.16.29c.16-.17.52.12.69.2,4.87,2.36,13.3,2.92,18.45,1.31,2.12-.66,3.63-1.82,4.29-4.01-1.82.46-5.67-.39-6.53-2.32ZM46.76,48.28c1.2-.2,1.55-1.33,1.91-1.45.74-.24,1.54.23,2.4-.58.71-.67.75-2.06.87-2.21.05-.06.91-.27,1.27-.68.67-.75.27-1.82,1.39-1.97,2.6-.35,6.9.13,9.36,1.09,2.08.81,4.8,2.79,5.27,5.07-4.03-.92-6.45.77-6.81,4.85-3.56,0-7.06.16-10.56-.62-1.52-.34-6.01-1.64-6.48-3.21-.14-.49,1.02-.23,1.38-.29ZM43.51,50.81c1.37-1.82,2.06-.45,3.48.25.92.46,2.62,1.08,3.61,1.33,3.65.93,8.02,1.15,11.74.75-.06.55.23,1.25-.3,1.66-.25.2-2.51,1.3-2.75,1.28-.52-.05-2.59-1.24-3.3-1.53-1.76-.71-3.58-1.42-5.4-1.96-2.35-.7-4.78-1.02-7.08-1.77ZM44.02,56.83c-.81-.36.28-1.67.67-1.61.14.02,1.94,1.19,2.5,1.42,3.21,1.33,8.78,2.12,12.26,2.11,1.22,0,2.86-.37,4.1-.4.36,0,.68.13,1.02.2.05.27-.35.23-.56.28-1.02.22-2.05.33-3.04.69-.81.3-2.94,1.67-3.57,1.63-.61-.04-4.61-2.21-5.79-2.61-1.22-.42-2.56-.73-3.82-1.03-.98-.23-3.01-.34-3.79-.68ZM67.14,61.39c-3.24,2.12-12.46,1.71-16.17.79-2.04-.51-5.44-1.73-5.59-4.19.27-.26,6,1.38,6.81,1.67,1.2.43,4.45,2.38,5.23,2.42,1.03.05,3.42-1.65,4.66-2.02,2.15-.63,4.4-.71,6.6-.39.26.22-1.3,1.56-1.54,1.72Z"/>
    <path class="cls-21" d="M45.32,59.39c-.19-.77-.53-1.39-1-1.87-1.89-.51-1.35-1.62-.06-2.56.35-.48.47-2.16-.2-2.19.02.27.11,1.61.08,1.69-.24.65-1.78,1.03-1.35,2.47.22.73,1.25.73,1.54,1.07.2.23.41,1.16.65,1.58.42.73,1.15,1.17,1.5,1.95.01-.05.03-.08.06-.11l.16-.29-1.39-1.74Z"/>
    <path class="cls-21" d="M55.63,40.47c.69.37,1.53.48,2.51.35.96.19,1.8.14,2.52-.16-1.56-.23-3.45-.26-5.03-.19Z"/>
    <path class="cls-13" d="M71.84,46.53c-.24-.28-.99-.96-1.3-1.03-.07.26-.26.38-.58.36l.63,1.69c.78.36,1.69,1.55.33,1.59-3.76-1.02-6.39-1.7-7.29,2.88-.98,5.01,1.13,6.75,6.06,6.58l.29.32c4.07-1.04,4.18-9.69,1.86-12.39Z"/>
    <path class="cls-13" d="M63.63,52.02c.9-4.58,3.53-3.9,7.29-2.88,1.36-.03.45-1.22-.33-1.59l-.63-1.69c.32.02.51-.1.58-.36-.18-.04-1.29-.15-1.11.27.51.49.56,1.48.84,1.95.25.43,1.07.5,1.02,1.13-1.76-.51-4.53-1.34-6.21-.34-1.95,1.15-2.47,6.22-1.62,8.09.87,1.92,4.72,2.78,6.53,2.32l-.29-.32c-4.93.17-7.04-1.57-6.06-6.58Z"/>
    <path class="cls-13" d="M19.93,25.93c.4-.27,1.05-.2,1.32-.74.25-.51-1.16-1.05-1-2.1.23-1.47,2.73-1.01,3.77-.87.4.05.68.36,1.13.37.6,0,1.42-.53,2.07-.55.95-.03,1.95.52,3.16.36.59-.08.81-.49,1.48-.57,1.71-.21,4.39-.28,6.18-.34.65-.02,1.98.31,2.41-.01.2-.15.36-.71.55-.76.29-.07.48.44.78.52.97.27,2.87.5,3.89.42.95-.08,2.3-.61,3.18-.74,1.45-.21,3.23.03,4.66-.03.37-.02.64-.58,1.14-.69.87-.2,2.19-.06,2.67.79.8,1.39-.87,1.68-.94,2.44,0,.1.19,1.7.23,1.82.09.32.54.56.66,1.2.08.46.12,1.38.05,1.83-.09.62-.51.67-.58,1.28-.08.73.23,1.37.21,2.06-.01.66-.39,1.28-.39,1.87,0,.89.49,2.28.37,3.15-.07.49-1.32,3.25-.93,3.65,2.37.29,1.52-.35,2.15-1.67.12-.26.48-.41.66-.83.71-1.72.15-2.01.17-3.36,0-.97.53-2.52.59-3.36.03-.52-.31-.83-.32-1.12-.02-.56.43-1.43.3-2.43-.23-1.91-.15-3.64-.38-5.39-.05-.39-.57-1.15-.28-1.77.29-.61.74-.16,1.11-.2.89-.1,2.55-.43,3.47-.67.88-.23,2.8-.75,3.57-1.05.98-.39,1.05-1.63.05-2.2-1-.58-3.18.88-4.34,1.09-.76.13-2.01.34-2.75.42-2.65.3-1.99-3.22-2.69-4.96-.06-.14-.9-1.5-.97-1.56-.06-.04-1.38.21-1.47.26-.31.18-.28,1.05-.65.84-.16-.09-.19-.4-.34-.5-.21-.14-.92-.63-1.07-.71-.29-.15-1.38.17-.83-.67.13-.19.68-.07.47-.55-.52-.06-2.5,0-2.8-.28-.38-.36.43-.67-.08-1.21-.66-.7-1.14-.7-1.96-.38.12-3.39,2.05-1.02,3.04-1.16.17-.02.93-.54.87-.8-.17-.7-2.21-.77-2.69-.86-.77-.14-1.46-.55-2.34-.36-.03.53.63.59.57,1.2-.07.69-1.18.58-1.15,2.07.02.82.42.81.68,1.38.38.84.52,2.12,1.67,2.26,1.11.14.56-.72,1.01-1.05.6-.43,1.69,1.2,1.5,1.41-.08.09-1.51.13-1.3,1.31,1.22.34.87-.58,1.3-.84.42-.26,1.05-.01,1.49.11.25,1.62-1.43,1.06-1.78,1.85-.11.26.45.43.29.74-.49-.02-1.01.1-1.49-.1-.51-.21-.67-1.19-1.31-1.21.78,1.76.14,1.15-.73,1.79-.09.06-.96.92-1.03,1.02-.55.71.1.87,0,1.11-.29.71-1.95.66-2.61.55-.45-.07-.76-.4-1.18-.5-.83-.19-2.99-.09-3.21-.89-.21-.77.15-2.38,0-3.26-.18.03-.69-.05-.74,0-.06.06-.19,1.39-.24,1.71-.04.24-.26.45-.29.66-.06.39.59,1.44.51,2.21-.12,1.15-2.16-.32-2.73-.44-.86-.18-1.88.08-2.77-.13-.47-.11-2.03-1.05-2.2-1.44-.3-.7.1-1.04.06-1.54-.04-.55-.9-.87-1.28-.63-.17.1-.06.89-.49.72-.56-.23-.51-1.32-1.59-.93-.07-.8,1.07-.31,1.13-1.02.08-.92-.85-1.02-1.03-1.39-.07-.14.06-1.03-.1-1.31,1.17-.11,1.02,1.37,1.3,1.59.66.51.51-1.02.6-1.18.05-.09.4-.14.52-.3.86-1.19.54-.68,1.58-1.41,1.31-.92.71-1.43.91-2.43.09-.45.57-.78.49-1.3-.71-.38-1.51.93-1.6.95-.44.07-.87-.55-1.1-.53-.19.01-.44.56-.78.67-1.3.41-1.94-.16-2.74-.14-1.16.03-1.49,1.01-2.18,1.38-1.26.69-1.19.52-2.12,1.8-.64.89-1.63,2.52-1.59,3.64.02.5.82.48.74.91-.14.76-.53-.38-.83-.27-.66.24-.38,1.22-.51,1.73-.06.24-.36.44-.43.69-.32,1.07-.48,2.1-.73,3.18-.22.94-1.46,1.06-1.75,2.18-.16.63,1.08,1.13,1.24,1.67.28.94-.32,2.65-.06,3.22.53,1.14.96-.02,1.48-.37Z"/>
    <path class="cls-3" d="M55.7,37.41c-.05-1.25.12-2.4.49-3.46,0-.42.05-.86-.03-1.28l-1.84-.96c-.48,1.71-1.07,4.14-2.79,4.95-1.53.72-5.5.86-7.17.63-3.41-.48-3.65-6.74-4.96-7.34-1.62-.75-2.29,3.12-2.82,4.26-1.65,3.52-3.28,3.34-6.97,3.11-4.5-.28-4.97-1.62-6.05-5.6-.28.14-1.74,1.04-1.82,1.15,0,.02-.01.04-.02.07.53.07.51,1.02-.02,1.11v.65l.37.39c.02,3.21.28,6.55,1.2,9.65,1.49,5.01,3.78,6.61,8.89,7.44,3.79.57,7.65.43,11.46.25l.06.04c-.05-.08-.08-.18-.12-.28-2.59-.75-1.18-2.69.67-3.36-.35-1.67-.04-2.43,1.7-1.71.87.02,1.49-.48,1.87-1.49,1.72.12,3.07.05,2.78-2.13l.16-.44c1.48-.16,2.12-.86,1.93-2.12.3-.84,2.52-1.12,2.96-.46-.21-.96-.19-1.99.07-3.06ZM46.59,41.63c-.08,0-1,.84-1.34,1.04-1.46.85-2.68.75-3.17,2.6-.31,1.15,0,1.73-.05,2.74-.26,5.05-8.46,4.98-7.83-1.48.1-1.04.66-1.82.84-2.71-.59-.34-1.29-.43-1.91-.71-.57-.26-2.07-1.22-2.44-1.31-.33-.08-1.66.96-2.1.53-.49-.47,1.23-1.01,1.58-1.5.4-.58.33-1.92,1.04-1.4.49.36-.14,1.38,0,1.58.07.09,1.85.85,2.13.95,3.4,1.22,6.86,1.18,10.26,0,.38-.13,2.37-.95,2.5-1.14.05-.07-.58-1.38-.17-1.66.75-.51.78,1.46,1.31,1.95.32.29,1.42.51,1.48.76.31,1.23-2.02-.25-2.14-.24Z"/>
    <path class="cls-3" d="M21.73,32.93s-.02.08-.02.12v1.65s0-.65,0-.65c.53-.09.56-1.04.02-1.11Z"/>
    <path class="cls-3" d="M43.68,52.46l-.06-.04c-3.81.18-7.67.33-11.46-.25-5.11-.83-7.4-2.42-8.89-7.44-.92-3.1-1.19-6.43-1.2-9.65l-.37-.39c-.09,4.38.67,12.49,4.2,15.46,4.04,3.41,13.15,2.84,18.17,2.61-.21-.06-.31-.17-.39-.31Z"/>
    <path class="cls-3" d="M55.7,37.41c-.25,1.08-.28,2.1-.07,3.06.42-2.14.61-4.34.56-6.52-.37,1.06-.54,2.21-.49,3.46Z"/>
    <path class="cls-3" d="M21.69,33.12c-.07.44-.03.96.01,1.57,0-.33-.05-1.13-.01-1.57Z"/>
    <path class="cls-3" d="M52.67,40.93c.19,1.26-.45,1.96-1.93,2.12l-.16.44c.29,2.18-1.06,2.25-2.78,2.13-.38,1.01-1,1.5-1.87,1.49-1.74-.72-2.04.04-1.7,1.71-1.85.67-3.26,2.61-.67,3.36.04.11.07.2.12.28l.39.31c-.12-1.42-.55-.65-1.22-1.29-1.32-1.26,1.67-2.3,1.78-2.44.06-.08-.35-1.41,0-1.85.26-.23,1.65,1.07,2.89-.37.27-.32.43-.9.47-.94.09-.07,1.28.53,2.29-.22,1.06-.78.54-2.24.69-2.39.07-.08,1.39,0,1.87-.84.33-.59.04-1.28.26-1.61.19-.28,2.08-.34,2.53-.36-.44-.66-2.66-.38-2.96.46Z"/>
    <path class="cls-3" d="M44.07,52.77l-.39-.31c.07.14.18.25.39.31Z"/>
    <path class="cls-17" d="M36.62,26.95c.74.29,1.05,1,2.14,1.04,1.4.05,1.74-.8,2.65-1.08,2.51-.77,10.19-.93,12.91-.6l-1.3-.19c.07-.9,2.95-.55,3.14-.36-.41-1.46-.52-3-.32-4.61-11.21,1.25-22.46,1.94-33.76,2.08v2.2c-.18-.05-.25.02-.23.2l1.53.68c2.29-.31,11.29-.12,13.24.65ZM44.12,23.59c.03-.18.45-.35.63-.44,2.02-.94,4.58-.09,5.85,1.65-1.06-.33-2.32-.93-3.45-.93-.79,0-3.26,1.19-3.03-.29ZM32.81,23.68c.79.37.29,1.23,0,1.28-.18.03-1.72-.54-2.42-.52-1.23.04-2.5.74-3.64,1.12,1.03-1.86,4.13-2.79,6.07-1.88Z"/>
    <path class="cls-17" d="M56.29,33.4c0,.1-.02.18-.04.27.02-.09.03-.18.04-.27Z"/>
    <path class="cls-17" d="M21.72,32.92s0,0,.01,0c0-.02.01-.05.02-.06,0,0,0,0,0,0,0-.02,0-.03.01-.05-.02.04-.03.08-.05.11Z"/>
    <path class="cls-17" d="M56.02,32.19s0-.02,0-.02c0-2.01.08-4.02.26-6.01-.01-.04-.02-.09-.04-.13.01.34-.23.72-.24.84-.03.56.11,1.46,0,1.92-.05.19-1.02.52-1.29.99-.33.58-.23,1.36-.39,1.94.19-.42,1.24.13,1.7.48Z"/>
    <path class="cls-17" d="M21.87,28.64c-.21-.49.05-1.19.02-1.78,0-.1-.09-.29-.15-.51,0,0-.01.01-.01.02-.04.1.01,1.82.04,2.09.36,1.16.55,2.82.15,4.01.22-.4.62-.72,1.3-.99l.36.23c-.15-.56-.14-1.43-.41-1.92-.28-.5-1.02-.5-1.29-1.14Z"/>
    <path class="cls-17" d="M21.85,25.62c-.03-.18.05-.25.23-.2v-2.2c11.3-.14,22.55-.84,33.76-2.08-.2,1.61-.09,3.15.32,4.61,0,0,0,0,0,0,.05.08.07.17.07.26.01.04.02.09.04.13-.18,2-.27,4-.26,6.01,0,0,0,.02,0,.02.1.08.17.15.2.19.1.19.11.63.07,1.01,0,.09-.02.18-.04.27-.02.11-.04.21-.07.28.31-.19.19-.71.19-1.02.04-4.02-.02-8.02-.38-12.02-11.39,1.22-22.85,1.58-34.29,2.05v2.62s0,0,0,0l.14.06Z"/>
    <path class="cls-17" d="M21.71,32.99s-.01.09-.01.13c0-.03,0-.05.01-.08v-.05Z"/>
    <path class="cls-17" d="M21.72,32.92s.03-.08.05-.11c.04-.12.08-.23.14-.34.41-1.2.21-2.85-.15-4.01-.03-.27-.08-1.99-.04-2.09,0,0,0-.01.01-.02-.01-.04-.02-.08-.03-.12v6.75s.01-.04.02-.06c0,0,0,0-.01,0Z"/>
    <path class="cls-17" d="M56.29,33.4c.02-.4-.08-.82-.27-1.2-.45-.35-1.51-.91-1.7-.48l1.84.96c.08.42.02.85.03,1.28.04-.09.05-.19.07-.28.01-.08.03-.17.04-.27Z"/>
    <path class="cls-17" d="M21.91,32.48c-.04.12-.09.23-.14.34,0,.02,0,.03-.01.05.08-.11,1.55-1.01,1.82-1.15l-.36-.23c-.69.27-1.08.6-1.3.99Z"/>
    <path class="cls-17" d="M56.19,33.95c.03-.07.05-.17.07-.28-.02.09-.03.19-.07.28Z"/>
    <path class="cls-17" d="M21.77,32.81c.05-.11.1-.22.14-.34-.06.11-.11.22-.14.34Z"/>
    <path class="cls-17" d="M56.22,32.39s-.09-.11-.2-.19c.19.39.29.8.27,1.2.04-.38.02-.82-.07-1.01Z"/>
    <path class="cls-17" d="M21.69,33.12c-.04.44.02,1.24.01,1.57v-1.65s-.01.05-.01.08Z"/>
    <path class="cls-13" d="M33.27,57.43c-.2-.42-.82-3.05-.96-3.14-.22-.14-.96.04-1.28-.03-.08-1.19,1.58-.33,1.68-.84.12-.67-2.37-1.01-2.89-1.02-.63,0-3.81.64-3.98.53-.08-.05-.73-1.52-.96-1.74-.25-.25-2.23-.59-1.29-1.3.33-.25.76,0,.75-.75,0-.28-1.04-2.24-1.26-2.31-.59-.19-.73.33-1.13.5-.24.1-.65-.1-.81.16-.43.73.25,2.33.85,2.87.83.74.96.93,1.67,1.68.56.59,3.06,2.05,3.83,2.32,2.33.81,5.07-.15,4.64,3.34-.14,1.1-.72,2.85-.74,3.94-.05,2.81-.98,4.63-1.08,7.26-.03.82-.1.87-.19,1.53-.06.41.21.74.08,1.37-.26,1.2-1.28,1-2.11,1.44-.65.34-1.9,1.2-1.92,1.99.84.77,1.68-.54,2.52.29.93.92-1.13,1.6-.84,2.6-.4.15-.26-1.65-.74-1.12-.06.07-.59,1.63-.56,1.77.18.72,1.21-.57,1.59-.64.7-.13,1.58.15,2.32-.19l-1.13,1.2c-.67.47-1.8-.36-1.49.74.06.21,2.6.44,3.07.67,2.15-1.01,2.63-1.83,2.14-4.18-.18-.87-.88-2.19-.93-2.99-.04-.61.29-3.23.44-3.87.08-.37.45-.74.47-1.01.03-.31-.34-.63-.34-1.08,0-.58.17-2.5.24-3.12.13-1.01,1.11-4.2.68-4.87-.19-.3-.84-.52-.87-.77-.09-.76.96-.33,1.23-.5.4-.24.29-1.62-.72-.72Z"/>
    <path class="cls-19" d="M39.9,8.62c-.58,1.03-.6,5.49-.49,6.79.19,2.28,1.78,2.33,3.8,2.11,2.65-.28,5.2-2.59,2.17-4.45-.19-.29,1.01-.93,1.2-1.5.34-1.01-.15-2.22-.89-2.91-1.17-1.08-4.89-1.66-5.79-.05ZM42.22,10.29c.13-.13,1.47,0,1.74.19,1.39.98-1.69,2.56-1.91.97-.02-.14.12-1.12.16-1.16ZM43.38,13.67c1.77.39-.3,2.03-1.12,1.22-.61-.6.08-1.45,1.12-1.22Z"/>
    <path class="cls-8" d="M32.98,13.63c.51.06,1.96-.28,1.96.46,0,1.22-2.08-.2-2.38-.25-.7-.12-1.45.73-1.53,1.38-.38,2.89,6.55,3.29,7.07-.03.25-1.57.03-2.64-1.65-2.98-.71-.14-2.53.19-2.54-.73-.01-1.21,2.05.23,2.64.27,1.63.11,2-2.2,1.37-3.16-.53-.83-2.71-1.02-3.61-.91-3.47.42-5.24,5.45-1.33,5.94Z"/>
    <path class="cls-13" d="M19.38,28.91c-.24-.55.13-1.53-.47-1.86-.17.94-.29,1.94-.37,2.89-.18,2.04-.03,3.15.15,5.07.09,1-.69,1.94.78,2.66.65-2.58,2.16-3.94,1.87-6.8-.19-1.86-1.5-.93-1.95-1.96Z"/>
    <path class="cls-13" d="M18.92,42.42c-.03-.23-.06-.46-.09-.7-.12.15-.22.32-.29.52-.01.03.16.09.38.18Z"/>
    <path class="cls-13" d="M19.76,42.9c.1.18-.16,1.62.27,2.05.37.36.55-.75.66-.92.49-.71.91-.8,1.11-1.87.09-.49.07-2.64-.13-2.96-.04-.07-.47-.18-.6-.17-.82.1-.78,1.1-1.15,1.62-.27.38-.76.64-1.1,1.07.03.24.06.47.09.7.32.13.73.3.84.48Z"/>
    <path class="cls-13" d="M38.57,53.33c-.25,0-2.42.97-2.5,1.24-.3,1.03,1.26,1.2,1.94,1.19.38,0,2.34-.19,2.52-.29.33-.19,1.19-1.85.75-2.14-.11-.07-2.28,0-2.7,0Z"/>
    <path class="cls-13" d="M38.36,9.18c.23.76-.19,1.46.87,1.47.18-.92.25-3.29,1.41-3.35.69-.03,1.07.67,1.2-.56-1.01-.31-1.8-.47-2.88-.37-.26.03-.47.33-.72.33-.38,0-.7-.47-1.24-.25-.91.39.28.99.45,1.22.25.34.31.61.48.93.06.11.31.18.44.58Z"/>
    <path class="cls-13" d="M23.25,78.44c-.2-.23-.02-.94-.88-.68-.44.13-.02,1.13-.29,1.48.93-.55,1.38.55,2.24.56,0-1.1-.8-1.03-1.07-1.35Z"/>
    <path class="cls-13" d="M18.07,78.31l.64.16.95-1.65c-.67-.1-2.05.78-1.59,1.49Z"/>
    <path class="cls-13" d="M54.51,9.44c-.04.23.41.7.38,1.02,2.11-.35-.21-1.89-.38-1.02Z"/>
    <path class="cls-13" d="M26.72,77.35c.11-.12-.04-1.01.02-1.28-.17-.19-1.12.95-1.11,1.02,0,.35.9.48,1.1.26Z"/>
    <path class="cls-13" d="M25.44,79.79c.06.04,1.32.2,1.39.19.34-.06.18-.67.09-.73-.21-.16-1.96.18-1.48.55Z"/>
    <path class="cls-13" d="M54.23,8.78c.59-.35-.26-1.31-.56-1.3-.67.03,0,1.26.56,1.3Z"/>
    <path class="cls-13" d="M19.29,79.14c-.22.52,1.47.5,1.68.46-.16-.41-1.44-1.01-1.68-.46Z"/>
    <path class="cls-13" d="M25.43,77.37c-.31-.31-1.18.48-.46.74.64.24.54-.66.46-.74Z"/>
    <path class="cls-13" d="M52.46,7.11c.25-.25-.25-.97-.74-.74-.1.42.43,1.05.74.74Z"/>
    <g>
      <path class="cls-13" d="M18.83,40.97c.11.19.24.33.39.46.1,1.47.23,3.02.34,4.15-.09-.6-.23-1.46-.4-1.79-.22-.43-1.44-.55-2-.81-1.88-.85-3.86-2.58-5.08-4.25-.41-.56-1.48-2.69-1.71-2.88-.3-.24-.85.07-1.36-.1-.53-.17-.76-.76-1.06-1.13l-.39-1.06c.9-.16,1.91-.42,2.75-.77.42-.17,1.28-.55,1.47-.99-1.37.19-2.75,1.02-4.17.87-.72-.08-2.15-1.3-2.66-1.83-1.41-1.47-3.78-5.26-3.15-7.31.44-1.43,3.91-3.43,5.32-3.88,2.35-.76,3.5-.71,4.78,1.5.72,1.23.95,2.66,1.7,3.84.16-1.18-.29-2.18-.54-3.31,3.26-.75,3.33,4.54,2.53,6.56-.19.48-.89,1.34-.92,1.62-.06.68.81,1.76.6,2.78-.17.83-1.62,1.36-1.68,1.49-.22.48,1.64,3.11,2.07,3.59.52.59,2.74,2.51,3.47,2.16,0-.27,0-.54.01-.81.01.5.04,1.06.07,1.64-.2.13-.36.22-.34.25ZM9.06,34.6c.02.39.06.42.43.29l-.43-.29ZM10.68,33.15l.11.55c.35-.02.54-.09.68-.42l-.05-.27-.73.14ZM12.03,33.26c.05.03.68-.29.69-.33.02-.04-.06-.25-.07-.36-.4-.11-.88.51-.62.69ZM13.04,29.65c.06-.09-.32-.47-.31-.75.01-.23.69-1.65.96-.8l-.39.93c2.03.24,1.65-3.06,2.33-4.38.01-.89-.38-2.12-1.28-2.48-1.68-.65.07,2.8.15,3.32.04.3-.32.9-.62.93-.28-.03-.53-.12-.74-.33-1.02-1.01-.86-2.78-1.41-4.03-.06-.14-1.01-1.23-1.1-1.27-.43-.19-.82.37-1.32.39-1,.03-1.23-1.09-2.83-.51-.84.31-1.22,1.46-1.44,1.58-.35.19-1.01-.08-1.6.17-.52.22-1.31,1.24-1.29,1.84.03.92.51,2.52.91,3.34.22.46,3.32,4.3,3.66,3.65.04-.46-.62-.71-.59-1.11.02-.22.71-.64.9-.64.37.02.96,1.13,1.32,1.33.48.26.95,0,1.35.13.56.17.24.98,1.51.22.55-.32.69-.82,1.08-1.18.24-.22.74-.33.76-.36ZM16.76,39.08c-.33-.26-2.05-1.04-2.13-1.14-.12-.13-1.63-2.93-1.69-3.1-.15-.41.28-1.09.12-1.21-.06-.04-1.35-.13-1.42-.09-.73.36.14.6.25.76.24.39.34.92.42,1.37-2.44-1.18-.48.94-.1,1.67.2.38.22.9.49,1.4.57,1.06,1.78,1.47,2.69,2.14.39.28.36.95,1.08.63-.42-.18-2.06-1.89-1.28-2.22.44-.19.56.76,1.05,1.03.38.21,2,.8,2.37.5-.75-.36-1.26-1.27-1.85-1.74Z"/>
      <path class="cls-13" d="M8.32,32.76c.32.38,0,.65-.97.84l.58,1.03c-.26-.33-.81-.59-.8-1.17.14-.2,1.55.07,1.21-.61-1.41.35-2.78-.84-3.42-2,.82,1.02,1.96,2.15,3.4,1.92Z"/>
      <path class="cls-13" d="M11.2,31.19c-1.27.75-.95-.06-1.51-.22-.4-.12-.87.14-1.35-.13-.37-.2-.95-1.31-1.32-1.33-.19,0-.88.42-.9.64-.03.39.63.64.59,1.11-.34.65-3.43-3.18-3.66-3.65-.4-.82-.88-2.42-.91-3.34-.02-.6.77-1.61,1.29-1.84.59-.25,1.26.02,1.6-.17.22-.12.61-1.27,1.44-1.58,1.6-.59,1.83.54,2.83.51.5-.02.89-.57,1.32-.39.09.04,1.04,1.13,1.1,1.27.54,1.25.38,3.02,1.41,4.03.21.2.46.3.74.33.3-.03.67-.63.62-.93-.07-.52-1.83-3.98-.15-3.32.91.35,1.29,1.58,1.28,2.48-.68,1.32-.3,4.62-2.33,4.38l.39-.93c-.27-.85-.94.57-.96.8-.02.28.36.67.31.75-.02.04-.52.14-.76.36-.39.36-.54.85-1.08,1.18Z"/>
      <path class="cls-13" d="M16.24,40.33c-.49-.27-.61-1.21-1.05-1.03-.78.33.86,2.04,1.28,2.22-.72.32-.7-.35-1.08-.63-.91-.67-2.12-1.08-2.69-2.14-.27-.5-.29-1.02-.49-1.4-.38-.73-2.35-2.86.1-1.67-.08-.45-.17-.98-.42-1.37-.11-.17-.98-.41-.25-.76.06-.03,1.36.05,1.42.09.16.12-.26.8-.12,1.21.06.17,1.58,2.97,1.69,3.1.09.1,1.81.88,2.13,1.14.58.47,1.1,1.37,1.85,1.74-.36.3-1.99-.29-2.37-.5Z"/>
      <path class="cls-13" d="M10.78,33.69l-.11-.55.73-.14.05.27c-.14.32-.33.39-.68.42Z"/>
      <path class="cls-13" d="M12.65,32.58c.01.11.09.32.07.36-.02.03-.64.36-.69.33-.26-.18.22-.79.62-.69Z"/>
      <path class="cls-13" d="M9.06,34.6l.43.29c-.37.13-.41.1-.43-.29Z"/>
    </g>
    <path class="cls-13" d="M51.86,51.79c3.5.78,7,.61,10.56.62.36-4.09,2.78-5.77,6.81-4.85-.47-2.28-3.2-4.26-5.27-5.07-2.47-.96-6.76-1.44-9.36-1.09-1.11.15-.71,1.21-1.39,1.97-.37.41-1.23.63-1.27.68-.12.15-.16,1.54-.87,2.21-.86.81-1.66.34-2.4.58-.35.12-.7,1.25-1.91,1.45-.36.06-1.53-.2-1.38.29.47,1.58,4.96,2.88,6.48,3.21ZM63.64,44.38c.17-.19,1.25.16,1.12.74-.31.15-1.58-.24-1.12-.74ZM61.4,45.96c-.36.63-1.21-.34-.93-.65.16-.17,1.01.24.93.65ZM59.73,42.52c1.43-.13,1.43.69,0,.56v-.56ZM58.37,43.51c.12.12.33.61.24.69-.8.15-.91-.18-.93-.93.09-.09.57.12.69.24ZM55.07,45.87v-.56c1.43-.13,1.43.69,0,.56ZM55.44,42.89c.04.65-.62.59-1.12.56-.04-.65.62-.59,1.12-.56Z"/>
    <path class="cls-13" d="M62.08,60.06c-1.24.37-3.63,2.07-4.66,2.02-.77-.03-4.03-1.98-5.23-2.42-.81-.29-6.54-1.93-6.81-1.67.15,2.46,3.55,3.69,5.59,4.19,3.71.92,12.93,1.33,16.17-.79.24-.16,1.79-1.5,1.54-1.72-2.2-.32-4.45-.24-6.6.39Z"/>
    <path class="cls-11" d="M51.62,58.54c1.18.4,5.18,2.57,5.79,2.61.63.04,2.75-1.34,3.57-1.63.99-.36,2.02-.47,3.04-.69.2-.04.6,0,.56-.28-.34-.08-.66-.21-1.02-.2-1.24.03-2.88.4-4.1.4-3.48.01-9.04-.78-12.26-2.11-.56-.23-2.36-1.4-2.5-1.42-.39-.06-1.49,1.26-.67,1.61.78.34,2.81.46,3.79.68,1.26.29,2.6.61,3.82,1.03Z"/>
    <path class="cls-10" d="M55.99,54.55c.7.28,2.78,1.48,3.3,1.53.24.02,2.5-1.08,2.75-1.28.53-.41.24-1.1.3-1.66-3.72.4-8.09.18-11.74-.75v.19c1.81.54,3.64,1.25,5.4,1.96Z"/>
    <path class="cls-16" d="M50.6,52.4c-.99-.25-2.69-.88-3.61-1.33-1.42-.7-2.1-2.08-3.48-.25,2.3.75,4.74,1.07,7.08,1.77-.16-.05-.16-.12,0-.19Z"/>
    <path class="cls-16" d="M50.6,52.58v-.19c-.16.07-.16.13,0,.19Z"/>
    <path class="cls-5" d="M55.68,28.63c-.16-.78-.06-1.37.32-1.76-.19-.09-.38-.3-.56-.37l-.56-.19c-.18-.02-.38.02-.56,0l-.3.34c-4.16-.21-8.48-.25-12.56.64-1.93,1.43-3.23,1.4-5.13-.04-4.13-.81-8.52-.79-12.71-.59l-.23-.35c-.12.02-.25-.02-.37,0l-.56.19c-.11.04-.23.05-.33.09-.04.08-.11.16-.23.28.37.15.46.59.27,1.31l.1.42c1.14.61,2.06,2.01,1.31,3.12l.46.27c.71,2.68,1.16,4.31,4.12,4.8,3.14.51,6.87.92,8.1-2.73.53-1.98,2.3-7.19,4.3-3.04l1.21,3.27c1.16,2.42,1.9,2.76,4.52,2.75,4.37-.02,6.7-.35,7.61-5.14l.43-.16c-.75-1.03.1-2.7,1.36-3.08Z"/>
    <path class="cls-5" d="M49.1,31.81c-.84-.31-1.77-.37-2.65-.24-.88.13-1.56.7-2.37.89-.14-1.62,2.49-2.9,3.82-2.98.41-.03,1.04-.12,1.21.37-.7.18-1.8.09-2.24.75.98-.21,3.78.34,4.07,1.43.37,1.37-1.5-.09-1.84-.21Z"/>
    <path class="cls-5" d="M46.28,37.02c-2.62.01-3.36-.33-4.52-2.75l-1.21-3.27c-1.99-4.15-3.76,1.06-4.3,3.04-1.23,3.65-4.96,3.25-8.1,2.73-2.96-.48-3.41-2.11-4.12-4.8l-.46-.27c1.08,3.98,1.55,5.32,6.05,5.6,3.69.23,5.32.41,6.97-3.11.53-1.13,1.2-5.01,2.82-4.26,1.31.6,1.55,6.86,4.96,7.34,1.67.24,5.64.09,7.17-.63,1.72-.81,2.31-3.23,2.79-4.95l-.43.16c-.91,4.79-3.24,5.12-7.61,5.14Z"/>
    <path class="cls-5" d="M56,28.78c.11-.46-.03-1.36,0-1.92-.37.39-.48.98-.32,1.76-1.26.38-2.11,2.05-1.36,3.08.16-.57.06-1.36.39-1.94.27-.47,1.24-.8,1.29-.99Z"/>
    <path class="cls-5" d="M22.26,28.59l-.1-.42c.2-.72.11-1.16-.27-1.31.03.59-.23,1.29-.02,1.78.28.64,1.01.64,1.29,1.14.27.49.26,1.36.41,1.92.74-1.11-.18-2.51-1.31-3.12Z"/>
    <path class="cls-5" d="M41.42,26.91c-.91.28-1.25,1.13-2.65,1.08-1.09-.03-1.41-.75-2.14-1.04-1.95-.77-10.94-.95-13.24-.65l.23.35c4.2-.2,8.58-.22,12.71.59,1.9,1.44,3.21,1.47,5.13.04,4.07-.89,8.4-.85,12.56-.64l.3-.34c-2.72-.32-10.4-.17-12.91.6Z"/>
    <path class="cls-5" d="M21.89,26.86c.12-.12.19-.2.23-.28-.1.04-.19.11-.23.28Z"/>
    <path class="cls-9" d="M47.25,41.11c-.53-.48-.56-2.45-1.31-1.95-.41.28.22,1.59.17,1.66-.13.18-2.12,1.01-2.5,1.14-3.4,1.18-6.85,1.22-10.26,0-.28-.1-2.06-.86-2.13-.95-.15-.2.49-1.22,0-1.58-.71-.52-.64.82-1.04,1.4-.34.49-2.06,1.03-1.58,1.5.44.42,1.77-.61,2.1-.53.37.09,1.86,1.05,2.44,1.31.62.28,1.31.36,1.91.71-.18.89-.74,1.67-.84,2.71-.63,6.46,7.57,6.53,7.83,1.48.05-1.01-.26-1.58.05-2.74.49-1.86,1.71-1.76,3.17-2.6.34-.19,1.25-1.03,1.34-1.04.12,0,2.45,1.47,2.14.24-.06-.25-1.16-.47-1.48-.76ZM40.61,49.77c-1.55,2.21-5.3,1.01-5.65-1.59-.3-2.17.4-5.26,3.15-3.9-.43.92-.82,2.64-.42,3.59.11.27.05.28.42.23-.09-.97.31-3.89,1.4-4.1.56-.11,1.34.03,1.95-.19.07.64-.32,1.15-.37,1.77-.13,1.4.38,2.96-.48,4.18Z"/>
    <path class="cls-15" d="M32.8,24.96c.3-.04.8-.91,0-1.28-1.94-.91-5.04.02-6.07,1.88,1.14-.38,2.41-1.08,3.64-1.12.7-.02,2.24.55,2.42.52Z"/>
    <path class="cls-4" d="M47.15,23.88c1.13,0,2.38.6,3.45.93-1.27-1.75-3.83-2.6-5.85-1.65-.18.09-.6.25-.63.44-.23,1.48,2.24.29,3.03.29Z"/>
    <path class="cls-3" d="M55.85,26.3c.07-.58-1.89-.58-1.53,0,.21-.48.35-.48.56,0,.36.05.32.09.56.19.15-.19.3-.23.41-.19Z"/>
    <path class="cls-3" d="M53.02,26.12l1.3.19c-.36-.58,1.6-.59,1.53,0,.15.05.23.27.15.57,0-.12.25-.5.24-.84-.03-.09-.05-.17-.08-.26-.19-.19-3.07-.54-3.14.36Z"/>
    <path class="cls-3" d="M56.17,25.76s0,0,0,0c.02.09.05.18.08.26,0-.09-.02-.18-.07-.26Z"/>
    <path class="cls-3" d="M55.85,26.3c-.11-.04-.26,0-.41.19.18.08.37.28.56.37l-.29-.31c.09-.1.13-.18.14-.26Z"/>
    <path class="cls-3" d="M54.32,26.31c.18.02.38-.02.56,0-.21-.48-.35-.48-.56,0Z"/>
    <path class="cls-3" d="M55.85,26.3c0,.08-.05.16-.14.26l.29.31c.08-.29,0-.51-.15-.57Z"/>
    <path class="cls-3" d="M22.06,26.12s.02.05.03.08c.1,0,.22.09.36.29.23-.09.23-.14.56-.19.01-.02.05-.02.07-.03-.35-.04-.69-.08-1.02-.15Z"/>
    <path class="cls-3" d="M21.71,26.24v-.67c-.09.2-.06.45,0,.67Z"/>
    <path class="cls-3" d="M22.06,26.12c.33.07.68.11,1.02.15.07-.03.16-.03.3.03l-1.53-.68c.02.13.09.32.22.58,0,0,0,0,.01,0-.01-.03-.02-.05-.03-.08Z"/>
    <path class="cls-3" d="M22.01,26.22c-.13.03-.23.07-.27.13.07.22.15.41.15.51-.06-.34,0-.58.11-.64Z"/>
    <path class="cls-3" d="M22.01,26.22s.04-.02.07-.02c-.13-.26-.2-.45-.22-.58l-.14-.06s0,0,0,0v.67s.02.08.03.12c.04-.07.14-.1.27-.13Z"/>
    <path class="cls-3" d="M22.09,26.21c.07.17.08.28.03.38.1-.04.22-.05.33-.09-.14-.19-.26-.28-.36-.29Z"/>
    <path class="cls-3" d="M23.01,26.31c.12-.02.25.02.37,0-.1,0-.2-.02-.3-.03-.02.01-.06.01-.07.03Z"/>
    <path class="cls-3" d="M23.08,26.27c.1.01.2.02.3.03-.14-.06-.24-.06-.3-.03Z"/>
    <path class="cls-3" d="M21.89,26.86c.04-.17.13-.24.23-.28.05-.1.04-.21-.03-.38,0,0,0,0-.01,0,0,0,0,0,0,0-.03,0-.05,0-.07.02-.12.06-.18.3-.11.64Z"/>
    <path class="cls-3" d="M22.08,26.2s-.05.01-.07.02c.02,0,.05-.01.07-.02,0,0,0,0,0,0Z"/>
    <path class="cls-13" d="M43.97,10.48c-.27-.19-1.61-.32-1.74-.19-.04.04-.18,1.02-.16,1.16.22,1.59,3.29.01,1.91-.97Z"/>
    <path class="cls-6" d="M43.38,13.67c-1.04-.23-1.74.62-1.12,1.22.83.81,2.89-.82,1.12-1.22Z"/>
    <path class="cls-2" d="M64.76,45.13c.14-.58-.94-.93-1.12-.74-.46.5.81.9,1.12.74Z"/>
    <path class="cls-18" d="M58.61,44.2c.09-.08-.12-.57-.24-.69-.12-.12-.6-.33-.69-.24.02.75.13,1.08.93.93Z"/>
    <path class="cls-7" d="M60.47,45.32c-.28.31.57,1.27.93.65.08-.41-.77-.82-.93-.65Z"/>
    <path class="cls-20" d="M55.07,45.32v.56c1.43.13,1.43-.69,0-.56Z"/>
    <path class="cls-12" d="M59.73,42.52v.56c1.43.13,1.43-.69,0-.56Z"/>
    <path class="cls-22" d="M55.44,42.89c-.5-.03-1.16-.1-1.12.56.5.03,1.16.1,1.12-.56Z"/>
    <path class="cls-17" d="M55.44,26.49c-.24-.1-.2-.14-.56-.19l.56.19Z"/>
    <path class="cls-17" d="M23.01,26.31c-.33.05-.33.1-.56.19l.56-.19Z"/>
    <path class="cls-13" d="M41.46,43.82c-.62.22-1.39.08-1.95.19-1.09.21-1.5,3.13-1.4,4.1-.37.05-.31.04-.42-.23-.4-.95,0-2.67.42-3.59-2.75-1.36-3.45,1.73-3.15,3.9.36,2.6,4.11,3.79,5.65,1.59.85-1.22.35-2.78.48-4.18.06-.62.45-1.13.37-1.77Z"/>
  </g>
</svg>