<?xml version="1.0" encoding="UTF-8"?>
<svg id="Layer_1" data-name="Layer 1" xmlns="http://www.w3.org/2000/svg" viewBox="0 0 90.22 102.88">
  <defs>
    <style>
      .cls-1 {
        fill: #d8664f;
      }

      .cls-2 {
        fill: #f4f0dc;
      }

      .cls-3 {
        fill: #f3a48a;
      }

      .cls-4 {
        fill: #f8bd9f;
      }

      .cls-5 {
        fill: #e54237;
      }

      .cls-6 {
        fill: #d54236;
      }

      .cls-7 {
        fill: #f2ead9;
      }

      .cls-8 {
        fill: #7f4d3f;
      }

      .cls-9 {
        fill: #f8ba9c;
      }

      .cls-10 {
        fill: #e2b697;
      }

      .cls-11 {
        fill: #f3a385;
      }

      .cls-12 {
        fill: #efeedc;
      }

      .cls-13 {
        fill: #eee5d1;
      }

      .cls-14 {
        fill: #f8bca0;
      }

      .cls-15 {
        fill: #e54337;
      }

      .cls-16 {
        fill: #f0eddb;
      }

      .cls-17 {
        fill: #e44237;
      }

      .cls-18 {
        fill: #eeedda;
      }

      .cls-19 {
        fill: #f3f1de;
      }

      .cls-20 {
        fill: #f3f0de;
      }

      .cls-21 {
        fill: #e44137;
      }

      .cls-22 {
        fill: #eeecd7;
      }

      .cls-23 {
        fill: #f3f2df;
      }

      .cls-24 {
        fill: #922f28;
      }

      .cls-25 {
        fill: #f2edd7;
      }

      .cls-26 {
        fill: #e34036;
      }

      .cls-27 {
        fill: #e3bfa0;
      }

      .cls-28 {
        fill: #e34136;
      }

      .cls-29 {
        fill: #f4eedb;
      }

      .cls-30 {
        fill: #f4f1df;
      }

      .cls-31 {
        fill: #f4f1de;
      }

      .cls-32 {
        fill: #701f18;
      }

      .cls-33 {
        fill: #f5eeda;
      }

      .cls-34 {
        fill: #6c1c17;
      }

      .cls-35 {
        fill: #f3f1df;
      }

      .cls-36 {
        fill: #efecda;
      }

      .cls-37 {
        fill: #6e1e18;
      }

      .cls-38 {
        fill: #ebe2cf;
      }

      .cls-39 {
        fill: #d54436;
      }
    </style>
  </defs>
  <g>
    <path class="cls-23" d="M28.37,8.06c-5.76,4.36-12.89,14.04-14.28,21.4-1.36.24-2.12,1.12-2.43,2.38-2.5,9.9-1.1,20.76,1.66,30.77l-8.3-2.58c-1.12-.35-2.07.51-2.49,1.4-.47.99-.14,2.07.7,2.91l1.39,1.38c1.79,1.77,3.74,3.28,5.38,5.24-2.86.18-5.33.05-7.91.38-1.21.16-1.96,1.08-2.06,2.09-.12,1.19.58,2.15,1.76,2.63l3.53,1.45c2.47,1.01,4.91,1.92,7.24,3.22l-10.18,5.86c-1.07.62-1.47,1.73-1.21,2.74.31,1.21,1.3,1.89,2.63,1.79l10.14-.77c-2.16,3.02-4.45,5.6-6.72,8.36-.73.88-.93,2.02-.39,2.96.5.89,1.76,1.53,2.91,1.07l11.56-4.62c9.81,4.62,18.06,4.02,28.05.86l7.31,3.32c.93.42,1.94.19,2.57-.33.79-.66,1.04-1.84.6-2.84l-3.75-8.48c3.6.27,7.04,1.05,10.58,1.7,1.23.23,2.33-.31,2.82-1.35.5-1.04.13-2.36-.91-3.08l-6.91-4.75c2.29-.5,4.46-.66,6.66-.97,1.33-.19,2.19-1.11,2.21-2.26.07-3.33-4.48-2.75-6.98-4.04,2.35-1.21,4.61-1.95,6.89-2.87,1.22-.49,1.73-1.6,1.5-2.84-.2-1.04-1.26-1.81-2.55-1.84-2.17-.05-4.28-.16-6.47-.32-1.55-.12-2.98.18-4.58-.36,1.99-3.05,5.39-6.46,7.18-9.33.56-.89.42-1.94-.15-2.7-.51-.68-1.72-1.17-2.66-.73l-8.23,3.91c.5-1.45.44-2.62.03-3.89-.8-2.49-2.86-3.66-5.55-3.55.34-1.37,1.28-3.13,2.66-3.35,3.31-.51,6.73-.44,9.91-1.64,1.47-.56,2.62-.41,4.07.15,9.2,3.53,5.5,10.95,10.23,12.53,1.46.49,3.2.38,4.64-.35,4.05-2.06,7.46-5.46,9.24-9.61.85-1.99.68-4.11-.5-5.7-2.77-3.72-8.06-1.57-11.21.8-1.89-2.4-4.03-4.23-6.73-5.61.9-2.69,1.07-5.14,1.14-7.81.67-.59,1.57-1.37,2.45-1.37.52.3,1.14,1.27,1.84,1.5.62,2.82,3,3.36,5.45,3.49,2.64.15,4.8-.06,6.16-2.69,1.01-1.97,1.81-4.4,1.15-6.64-1.01-3.44-4.12-4.31-7.12-4.87-2.08-.39-3.25-.68-5.35.36-1.32.65-3.78-.42-5.35.95-.42-1.26-.45-1.86-.45-2.91,2.57-1.25,3.84-1.16,5.8-3.31,1.09-1.2,1.2-2.87.46-4.24-1.72-3.21-5.46-1.61-8.35-.52-1.18-3.6-3.26-6.49-6.78-8.17-10.88-3.09-18.21-3.59-28.04,1.19"/>
    <path class="cls-24" d="M56.75,81.97c.99,1.32,2.18,2.15,3.43,3.03l6.96,4.94c-2.02-.06-13.31-2.74-13.86-1.34s3.63,9.43,4.14,11.41l-8.36-3.59c-8.01,3.24-18.57,4.01-26.25-.37-.38-.22-.68-.78-1.15-.59l-12.65,5.03,6.03-7.67c1.04-1.33,2.02-2.62,2.62-4.35-1.2-.56-2.53-.51-3.85-.43l-10.27.65,6.84-4c1.28-.75,5.9-3,5.92-4.26.02-1.04-6.05-3.29-7.25-3.87l-6.59-2.94,12.71-.71-10.39-10.44,12.07,3.63c-3.52-10.65-5.82-23.34-2.63-34.28l1.05,4.75c.5-11.77,8.79-23.84,19.19-29.86-2.29,2.8-4.6,5.37-6.28,8.59-3.24,6.24-3.95,13.24-1.42,20.02.19-4.51,1.52-8.78,3.72-12.53-.02.99-.08,1.66-.18,2.45-.64,5.03.04,9.98,2.29,14.65,1.67-3.19,3.66-5.82,6.25-8.19-.75-2.85-1.11-5.65-1.33-8.6-.76-.37-.92-1.03-1.09-1.49-.36-.97.53-1.43.59-2.18l.46-5.8c.18-2.21,1.37-4.06,2.95-5.59,2.08-2.01,4.77-2.65,7.22-3.83.88-.42,1.33-1.68,2.36-1.88,1.48-.28,2.08.74,3.17.94,2.23.4,4.51-.06,6.71.72,4.97,1.77,6.09,4.39,7.81,9.29l5.98-1.77c.75-.22,1.5.12,1.81.77,1.12,2.41-5.32,4.07-7.05,4.77l1.29,8.04c2.53-1.81,5.38-2.5,8.3-1.95.47-.6,1.1-.95,1.6-1.13.77-.27,1.14.64,1.88.64,2.14.02,4.87.49,5.62,2.9.64,2.09-.38,4.71-1.82,6.17-.85.86-1.92.11-2.8.1s-1.61.39-2.37-.08c-.5-.31-1.02-.91-1.26-1.68-.58-1.88-1.47-.31-2.31-3-1.55-1.16-5.08,1.43-6.48,2.7.07,3.76,0,6.72-2.25,10.11,4.32,1.15,7.58,4.06,9.83,7.93,2.18-2.29,6.97-5.67,9.48-3.35,3.69,3.41-6.8,14.7-10.94,12.25-.58-.34-.77-1.14-.98-1.97-1.66-6.36-5.62-10.43-12.23-11.02-4.19.98-8.18,2.12-12.55,1.8-1.33,1.26-2.45,2.38-3.35,3.97s-.41,4.01,1.43,4.37c.97.19,1.98-.44,2.79.36,1.99,1.96.83,5.15-.19,6.33-.6.69-.74,2.09.11,2.44l12.26-5.81c-2.94,4.35-6.64,7.8-8.82,12.29.54.41,1.15.47,1.77.51l13.12.86-12.38,5.4,10.84,3.47c-3.02.99-8.36.81-11.23,2.28Z"/>
    <path class="cls-23" d="M65.44,17.96c.16.16.32.32.45.5s.24.35.28.53c1.08,4.95,2.76,15.07-.31,19.35-2.4,3.35-8.52,4.67-12.49,4.88-4.02.21-7.32-.6-9.39-4.28-2.59-4.62-3.38-10.3-4.07-15.48l.43-.68c2.14-.57,4.25-.81,6.32-1.04-1.5.82-2.96,1.61-2.65,3.27,1.26-1.72,2.94-2.46,5.13-2.53-.66-.74-1.55-.43-2.36-.91,6.54-.71,12.53-2.51,18.67-3.6Z"/>
    <path class="cls-17" d="M37.34,55.05l-.8.55c2.77,1.02,5.05,2.6,7.03,4.69,2.57,2.7,2.72,6.15,1.7,9.58-.6,2-.97,6.37-4.51,6.07,2.1-1.27,3.02-3.05,2.94-5.41-.05-1.73-.7-3.44-2.4-4.15.14-1.57.29-2.46-.49-3.39-.65-.78.54,3-.26,3.75-.4-.37-.13-.98-.74-1.24.13,1.82.36,3.42.87,5.19,1.16-.32-.57-3.27.48-3.27,2.22.01,2.44,5.17,0,7.19-1.53,1.26-3.76.84-4.79-.57l.31-.36c-1.23-1.13-2.18-2.44-2.86-3.94-.28-.13-.32-.6-.81-.55.24,2.53,1.39,4.6,3.4,6.17-.96,1.04-2.37,1.6-3.78,1.35-1.27-.22-2.16-1.08-2.76-2.14l.57-.15-1.29-1.59c-.49-.87-.96-1.63-1.4-2.3-.11-.33-.39-.71-.63-1.02-.14,2.25.82,4.16,2.13,5.86.2.26-.27.36-.41.43-.91.23-3,.02-1.28-.58-7.05-2.81-4.87-14.74.99-17.96-.07-.31.09-.57.5-.79l-.47-.17c-.12.06-.34-.03-.45.05-1.4.46-.92-.73-.12-1.35-.12-.18-.22-.44-.11-.51,2.33-1.58,6.08-2.41,8.62-.87.52.32,1.41.92.81,1.45Z"/>
    <path class="cls-17" d="M40.34,22.77c.46,4.61,1.69,11.83,4.07,15.91,1.28,2.2,3.42,3.78,6.01,3.98,4.58.34,9.29-.51,13.24-2.91,2.07-1.26,3.14-3.81,3.29-6.21.34-5.33-.44-10.49-1.52-15.59.7-.36,1.34-.74,2.09-.67.96,2.91,1.14,5.86,1.48,8.91.21.23.81-.07,1.09-.3,2.38-1.99,5.82-2.76,8.69-1.59-.15,3.79-2.04.3-6.09,2.59-1.12.63-2.71,1.56-3.45,2.6l-.25,5.37c-.09,2.04-1.02,3.91-2.69,5.41,2.73.77,5.15,1.62,7.06,3.5,1.44,1.41,2.81,2.79,3.6,4.65.17.41-.22.92.1,1.27,1.57-2.07,7.28-7.09,9.58-4.49-3.45.46-5.53,2.63-7.5,5.1-1.18,1.47-2.34,2.94-2.94,4.86-1.12-3.95-2.64-7.43-6.02-9.64-8.22-5.38-9.11-.57-16.95-.86-1.06-.04-2.2.24-3.3.14-1.39,1.42-2.66,2.73-3.65,4.36-1.08,1.78-.73,3.78.89,5.05,1.74,1.37,2.41-.24,3.7.91.92.82.65,4.24-.89,5.13-.79-.66-.86-1.82-1.44-2.7-1.43-2.17-2.78-4.3-4.38-6.33-.46-.58-1.05-.99-1.12-1.61-.13-1.25,2.28-4.74,3.93-5.53-.67-.81-1.48-.81-2.08-1.37-2.09-2-3.2-4.56-4.2-7.33-3.64,3.07-4.92,8.64-5.65,12.85-.21,1.2-.33,2.26.05,3.52h-4.81c.77-7.88,3.69-14.42,9.48-19.82-.83-2.98-1.43-6-1.46-9.07.76-.41,1.47.07,2.02-.07Z"/>
    <path class="cls-5" d="M74.55,12.47c1.58,1.95-8.08,4.21-9.21,4.52-3.88,1.07-7.6,1.95-11.6,2.66-5.37.94-10.65,2.11-16.08,2.24-.96.02.09-1.54.1-2.09.1-9.04,1.48-12.09,10.53-14.84.38-.78,1.11-1.46,1.7-1.71,1.27-.54,1.72.67,2.63.8,3.52.52,8.77-.57,11.89,4.06,1.9,2.82,2.29,5.43,2.66,5.74.88.74,6.46-2.51,7.37-1.39Z"/>
    <path class="cls-17" d="M30.33,45.73h-.7s-1.4-2.07-1.4-2.07l.46,3.1c-.09.29-.23.75-.42.87-.68.42-3.41-3.93-3.9-4.8-2.25-4.03-3.08-8.61-2.92-13.18-2.46,7.73-2.07,16.17.47,23.84.05.88-.25.82-1.09.57-.95-.92-1.8-1.93-2.54-3.02.69,3.12,1.53,6.17,2.53,9.14-.48,2.36-.69,4.77-.64,7.24.25,1,.19,1.87-.16,2.61-.66.02-1.92-3.53-2.18-4.3-3.39-10-4.93-18.47-3.7-29.21l1.88,4.58c-.04-6.23.96-12.11,3.81-17.57,1.68-3.22,3.6-6.07,6.03-8.76.99-1.09,1.68-2.52,3.31-3.02-4.75,7.25-6.45,15.63-3.32,23.7.47,1.22.85,2.43,1.88,3.28.11-3.99-.48-7.3,1.32-11.05.05,4.73.91,9.19,3.09,13.29l-1.81,4.76Z"/>
    <path class="cls-30" d="M30.33,45.73c-.72,1.91-.61,4.1-.98,6.28-3.43,1.31-5.24,2.91-5.11,6.68-3.79,4.67-4.01,11.8-.29,16.45,1.42,1.77,3.86,2.41,5.97,1.11,2.13,2.08,5.04,1.62,7.17-.18,1.49.84,3.16,1.46,5,.74,3.3-1.29,3.74-5.02,4.52-8.71.79-3.7-.65-7.24-3.55-9.55-.77-.61-1.58-1.08-2.31-1.74-.62-.57.46-3.65-4.85-4.89-.33-.65-.07-1.28-.08-1.86l.72-.22c1.71,1.03,3.35,2.18,4.91,3.44,4.89,2.07,7.15,7.32,7.4,12.48.14-.03.26-.05.3,0,1.11,1.34-.65,5.11-1.42,6.57-2.15,4.07-4.13,7.4-9.14,7.45-2.82.03-11.09-.59-13.52-1.85-2.13-1.1-4.03-3.95-4.95-6.14l.15-.75c-.15-.25-.21-.73-.27-1.01-.41-1.96-.44-3.91-.25-6.02.5-5.47,1.25-1.75-.74-7.92-.76-2.35-1.38-4.57-1.34-7.06,1.09,1.75,2.14,3.62,3.94,5.04-3.25-8.96-3.14-19.9.64-27.79-1.06,8.33.5,15,6.01,21.1-.29-2.13-.81-3.86-.61-5.89.8,1.48,1.46,3.09,2.67,4.23Z"/>
    <path class="cls-17" d="M21.34,82.26c.64-3.89,8.7-1.72,9.94-1.15l6.16,2.83c.94.43,1.93.93,2.96.33-1-.41-1.94-.56-2.78-1.33,1.43-.53,2.89-.8,4.18-1.72,2.08-1.48,4.63-2.47,7.22-1.79,1.26.33,2.31,2.03,2.03,3.29-.3,1.35-1.4,2.39-2.59,2.95-3.07,1.45-6.18,2.74-9.65,3.05-5.65.5-11.41-.81-16.18-3.62-1.05-.62-1.43-1.96-1.29-2.84Z"/>
    <path class="cls-17" d="M17.52,68.47c-.33.47-.98.51-1.94.11.93.77,1.5,1.6,1.98,2.7l1.72,3.7-.25.52-4.15.34c2.13.77,4.11,1.78,5.96,3.02.29.27.67.66.52,1.06-.31.86-1.8,2.6-2.68,3.03l-2.49,1.58c.98-.15,1.69.02,2.12.5-.35.37-.52.86-.41,1.35.26,1.26,1.96.7,2.11,1.34.5,2.12-2.92,1.63-1.7,4.06l.27.47-1.31,1.85,2.58-1.18.5.13c.21.46.5.9.76,1.68l-9.22,3.56c.75-1.59,7.53-8.38,6.51-10.2-1.13-2.01-8.66-.14-10.84-.61.91-1,2.16-1.27,3.24-1.98,2.4-1.58,6.62-3.22,6.43-5.27-.05-.56-.61-1.11-1.19-1.42-3.21-1.71-6.5-2.96-9.87-4.47,3.51-.51,6.74-.02,9.98-.8.5-.12-.17-1.14-.48-1.46l-7.42-7.59c3.09.53,5.63,1.88,8.47,2.6.71.18.89.77.81,1.38Z"/>
    <path class="cls-21" d="M54.88,85.75c.49-.36,1.14-.38,1.94-.06-1.35-1.25-2.82-2.36-4.42-3.32l-.58-1.05c-.09-.15-.07-.36-.15-.52-.27-.49,0-.72.5-.87l4.31-.85c-1.93-.54-3.87-1.12-5.64-2.08-.43-.35-.34-.72-.05-1.15l5.45-2.43c-1.85,0-3.67-.17-5.47-.52l-.38-.62.48-2.23c.83-1.98,1.98-3.83,3.47-5.53l-2.61,1.31-.54-.29c.02-.44-.42-1.14.11-1.55-.1.08,8.04-4.33,8.99-4.22-1.08,1.74-7.48,8.91-6.56,10.24.74,1.08,4.2,1.01,5.42,1.03,2.25.02,4.39.24,6.6.38l-9.92,4.29c-1.95.84,3.48,2.31,3.54,2.33l4.59,1.41-6.93,1.29c-.52.1-1.04.39-1.15.76-.23.83.82,2.02,1.23,2.31l6.12,4.48c-3.43-.1-7.14-1.35-10.43-.79-.26.04-.36-.93-.1-1.05.75-.35,1.49-.51,2.18-.69Z"/>
    <path class="cls-28" d="M20.29,71.05c1.02,1.75,1.86,3.65,3.3,5.16,1.94,2.04,4.37,2.01,6.96,2.34,1.79.23,3.48.42,5.25.51,2.26.11,4.38.72,6.5-.65,2.42-1.57,3.98-3.89,5.13-6.57.81-1.89,1.87-3.63,1.59-5.82-.21.15-.28.47-.64.53.06-3.97-1.23-7.59-3.72-10.54-.88-1.05-1.97-1.38-3.02-2.02-1.94-1.19-3.6-3.01-5.79-3.92-.01-.93.04-1.93.46-2.91l4.29,4.14c-.06-1.32-.67-2.33-.34-3.63,1.04.9,1.59,2.16,2.45,3.26,2.07,2.63,4.02,5.21,5.5,8.22,1.19,2.41.53,4.73.97,4.5.12-.06.04-.55.42-.62,1.42,5.59-.32,11.94-5.04,15.69-1.06.84-2.51,1.05-3.69,1.87-1.63,1.14-4.03,1.61-5.95,1.03-1.47-.44-2.75-1.23-4.14-1.79-1.45-.59-2.98-.23-4.45-.68-2.78-.86-6.94-4.64-7.62-7.9l1.56-.2Z"/>
    <path class="cls-5" d="M51.43,92.39c.03,4.09-11.17,5.58-13.94,5.82-4.76.42-9.59-.6-13.86-2.63-1.47-.69-2.48-1.96-2.37-3.62,5.5,1.44,8.01,2.79,12.88,5.37,3.82-1.73,7.72-2.87,11.88-3.42,1.87-.25,3.51-1.02,5.42-1.53Z"/>
    <path class="cls-19" d="M39.76,44.01c-.79,1.47-.52,3.02-.61,4.83l-2.63-3.13c.6-3.22,1.76-6.31,3.86-8.83,1.09,3.02,2.61,5.45,5.2,7.16-1.48,1.3-2.38,2.75-3.3,4.55-1.07-1.36-1.69-2.81-2.52-4.58Z"/>
    <path class="cls-26" d="M83.38,30.3c.29-.51-1.94-1.17-2.18-.47l1.01.9c-.35.41-.76.5-1.15.49-.91-.04-1.77-1.81-1.78-2.47,0-.5.65-.78.9-1.27-.31-.74-.99.98-2.06.54-.28-.11-.61-.48-.65-.96.94-.16,1.51-.57,1.81-1.29.33-.8.39-1.66-.12-2.38.17-.33.59-.43.88-.38.51.08.66.68,1.05,1.14-.58-.68,4-1.42,5.15,1.56.74,1.91-.84,5.4-1.95,5.56-.37.05-1.05-.15-1.18-.6-.02-.09.23-.28.28-.35Z"/>
    <path class="cls-35" d="M51.67,80.79c-.89-1.84-2.64-2.75-4.95-2.59,1.64-1.88,2.67-3.88,3.67-5.93,2.72.81,4.67.37,7.78.85l-7.37,3.27c2.39,1.38,5.02,1.93,7.85,2.79l-6.03,1.13c-.4.1-.7.27-.93.48Z"/>
    <path class="cls-31" d="M27.71,88.8c-.97-.48-2.1-.18-2.94-.68-.77-.45-1.33-1.13-2.25-1.3-1.26-.24-2.42-.15-3.85-.54.55-.85,1.33-1.21,2.19-1.56,3.69,3.54,11.97,5.21,16.89,4.95,3.71-.19,12.03-2.27,13.96-5.88.91.06,1.72.35,2.55,1.09-2.95,1.33-4.99,1.22-7.25,3.55-.81.84-2.17,1.29-3.39,1.21-6.55-.4-9.52,3.24-10.93,2.34-1.66-1.06-3.12-2.28-4.97-3.19Z"/>
    <path class="cls-2" d="M19.27,74.98c1.52,1.5,3.01,2.94,4.9,4.21-1.39.09-2.36.52-3.09,1.29-.8.85-.58,1.96-.78,3.09-.12.62-1.37,1.4-2,1.46-1.27.12-2.77-.15-3.99.18,1.43-1.21,6.62-3.74,6.62-5.29,0-1.35-6.67-3.65-8.19-4.49l6.52-.45Z"/>
    <path class="cls-20" d="M34.18,96.55c-2.5-1.47-4.82-2.71-7.36-3.73,7.28,1.41,14.89,1.75,21.78-1.23,1.3-.56,2.29-1.3,3.13-2.23.18,1.34-.14,2.08-1.15,2.43-5.98,2.06-10.52,1.79-16.41,4.76Z"/>
    <path class="cls-6" d="M28.55,57.25c-5.85,3.19-8.03,15.13-.99,17.96-.06.16-.23.21-.48.49.6-.07,1.17.06,1.77.08-1.03.56-3.37.11-4.32-1.29-3.14-4.6-3.09-10.88.49-15.29,1.34-1.65,3.32-2.49,3.58-2.93.32-.54,1.33-.37,1.98-.42-.75.4-1.21,1.16-2.02,1.39Z"/>
    <path class="cls-1" d="M51.41,94.79c.56-.26.74-.47.54-.64l.19-.56c.19-.99-.07-1.87.63-2.53.68,1.76,1.35,3.37,2.11,5.02.34.75.8,1.36.8,2.23-1.96-.84-3.73-1.52-5.6-2.57l1.34-.94Z"/>
    <path class="cls-33" d="M50.87,70.04c.32-1.47.26-3.02.32-4.51l4.85-2.44-5.17,6.95Z"/>
    <path class="cls-14" d="M37.06,53.52c.79.3,2.35,1.49,1.73,2.22-.42-.15-1.22-.21-1.46-.68-1.3-3.02-7.5-2.3-9.33-.07l-.69,1.01c.23.26.08.51-.47.75-.4.12-.63.7-1.36.47,1.22-4.65,7.94-5.56,11.58-3.7Z"/>
    <path class="cls-9" d="M29.88,74.57c-.75-1.32-1.65-2.56-2.13-4.04-.06-.06,0-.14.19-.23.76,1.74,2.04,3.35,3.71,4.46,1.1.73,2.26.08,3.65.26-1.64,1.9-4.08.58-5.43-.44Z"/>
    <path class="cls-29" d="M20.33,93.06c.22.36-3.98,1.98-4.5,2.08l2.46-3.35c.57.04,1.29-.13,1.87.2.37.21.06.84.17,1.08Z"/>
    <path class="cls-10" d="M54.88,85.75c.18-.39.3-.83.17-1.27-.29-.97-2.4-1.2-2.87-1.75-.34-.39-.15-1.06-.35-1.42,2.09,1.96,4.68,3.28,6.67,5.1-1.28-.04-2.45-.35-3.62-.66Z"/>
    <path class="cls-3" d="M36.38,74.04c-.99-1.37-2.14-2.6-2.55-4.3.1-.14.31-.13.39.08,1.07,2.83,2.99,4.46,6.1,3.92-.45.9-1.42,1.06-2.25.81l-1.7-.52Z"/>
    <path class="cls-27" d="M17.52,68.47c.2.14.34.32.43.48.13.24.12.56-.2.5-.11-.02-.42-.1-.61,0,.15.54.18,1.33.41,1.84-1.08-1.21-2.2-2.22-3.84-3.59l3.8.77Z"/>
    <path class="cls-7" d="M23.81,91.71l-4.79-.89c.27-.77.88-1.05,1.48-1.39,1.01,1.02,2.06,1.76,3.31,2.28Z"/>
    <path class="cls-11" d="M51.41,94.79c.15-.57.43-.9.73-1.2.4.57.68,1.19.94,1.96-.56-.39-1.08-.6-1.66-.76Z"/>
    <path class="cls-39" d="M38.8,55.73c-.18-.99-1.01-1.58-1.73-2.22,1.19.07,2.19,1.26,2.52,2.51-.39.27-.54-.21-.79-.29Z"/>
    <path class="cls-6" d="M28.01,54.99c-.22.36-.57.75-.42,1.24.15.1.44.08.54.11-.38.27-.85.27-1.29.4.05-.74.44-1.5,1.16-1.76Z"/>
    <path class="cls-34" d="M54.7,39.72c-2.17-.73-3.62-2.38-5.15-3.91-.53-.53-2.58-.66-2.52-1.19.02-.13.29-.34.53-.26,4.8,1.5,10.07.02,13.08-4.14.16-.3-.83-1.06-.17-1.55.78,1.03,1.9,1.36,3.26,1.46-.41.84-1.13.55-1.92.63-.15,1.95-.11,3.83-.69,5.7-.86,2.77-3.51,4.24-6.42,3.25Z"/>
    <path class="cls-32" d="M47.58,31.05c-1.15-.56-1.64-1.84-1.72-2.97l1.52-.8c-.37-.49-.99-.57-1.31-1.05-.42-.63.25-1.61.72-1.94.76-.52,1.76-.26,2.38.44,1.3,1.47,1.58,3.61.88,5.44-.36.95-1.43,1.39-2.47.89Z"/>
    <path class="cls-37" d="M57.38,24.99c1.45-.62,4.8-.31,4.52.86-.19.79-2.89-1.4-5.93,1.53-.14.13-.37.15-.48.16-1.24.12.82-4.97,4.38-4.16-.9.62-1.81.86-2.5,1.62Z"/>
    <path class="cls-8" d="M60.09,40.11c-.84,1.39-2.53,1.86-3.98,1.02,1.28-.08,2.52-.39,3.59-1.22.18-.13.43-.11.39.2Z"/>
    <path class="cls-4" d="M28.55,57.25c-4.08,3.4-5.96,8.95-4.46,14.18.54,1.88,2.17,2.64,3.46,3.79-3.18-.09-4.02-3.42-4.56-6.15-.64-3.28.22-6.51,2.19-9.2.9-1.22,1.97-2.22,3.36-2.61Z"/>
    <path class="cls-38" d="M45.18,68.23c-.02-2.4-.25-4.88-1.73-7.04-.5-.73-1.59-.99-1.78-2.04,3.11,2.58,4.23,4.56,3.51,9.08Z"/>
    <path class="cls-12" d="M27.18,83.43c-.34,0-.53-.16-.54-.27-.02-.19.15-.42.43-.51.36-.11.55.03.69.28.12.21-.09.49-.58.5Z"/>
    <path class="cls-18" d="M43.15,82.43c.19-.08.58-.08.75.15.09.13-.06.39-.19.48-.14.11-.47.18-.62.09-.31-.19-.33-.56.06-.73Z"/>
    <path class="cls-22" d="M29.69,81.96c.03-.29.53-.12.68-.12.16,0,.19.44.08.63-.06.11-.15.13-.35.1-.17-.02-.47-.15-.41-.61Z"/>
    <path class="cls-13" d="M25.95,80.86c.02.29-.23.43-.39.49-.29.12-.56.1-.76-.33.33-.19.58-.24,1.15-.17Z"/>
    <path class="cls-16" d="M46.75,81.3c-.33.09-.57,0-.7-.03-.08-.02-.16-.09-.05-.24.17-.24.55-.4.85-.3.23.07.34.46-.09.58Z"/>
    <path class="cls-36" d="M32.71,83.47c.12-.34.52-.16.66-.07.12.08.18.28.14.5-.03.18-.36.17-.5.15s-.43-.21-.3-.59Z"/>
    <path class="cls-15" d="M54.63,38.89c-.8-.46-.71-1.61-.26-2.22.37-.51,1.24-1.08,1.99-.78.05.61-.46,1.01-.04,1.44.49-2.13,2.36-3.33,4.35-2.59-.3,1.36-.67,2.76-1.75,3.55-1.18.87-2.93,1.39-4.29.6Z"/>
  </g>
  <g>
    <path class="cls-25" d="M56.88,8.63c-.27-.28-.61-.48-.96-.62-.55-.21-1.15-.29-1.73-.26-.98.05-2.19.18-2.7,1.1-.13.24-.16.55-.16.83,0,.39.05.79.1,1.19.06.53.6,3.39.7,3.91.15.64.23,1.53,1.16,1.54.39.01.79,0,1.19-.08.91-.15,1.83-.42,2.6-.92.39-.26.78-.59.95-1.02.14-.41.13-.88,0-1.28-.1-.29-.28-.57-.51-.76-.27-.23-.61-.39-.96-.48,1.24-.63,1.18-2.26.32-3.13ZM55.64,13.5c-.24.28-.84.52-1.18.4-.37-.13-.28-.81-.03-1,.19-.14.76-.1,1-.04.14.03.3.12.34.25.04.13-.03.29-.12.39ZM55.55,10.57c-.05.23-.24.4-.42.53-.31.21-1.09.62-1.25.29-.04-.16-.17-.88-.17-1.03,0-.06,0-.13.04-.18.04-.06.11-.11.17-.14.41-.2.97-.18,1.36.06.15.09.29.29.27.47Z"/>
    <path class="cls-25" d="M49.14,12.55c-.51.03-1,.12-1.5.16-1.05.08-.9-1.11.06-.81.32.1.65.23.98.3.38.08.8,0,1.12-.23.98-.76.39-2.59-.43-2.87-1.31-.44-2.84-.2-3.96.67-.44.34-.78.86-1,1.42-.21.53-.26,1.18-.13,1.76.43,1.86,2.08,1.42,3.17,1.21.8-.15.94.68.12.67-.16,0-1-.27-1.16-.28-.25-.02-.52-.01-.74.11-.2.11-.34.31-.43.54-.07.19-.11.4-.13.61-.03.26-.01.52.08.76.08.22.24.41.41.53.25.17.53.24.8.3.78.16,1.59.12,2.33-.1.62-.18,1.22-.53,1.67-1.01,1.16-1.24.68-3.82-1.27-3.73Z"/>
  </g>
</svg>