<?xml version="1.0" encoding="UTF-8"?>
<svg id="Layer_1" data-name="Layer 1" xmlns="http://www.w3.org/2000/svg" viewBox="0 0 79.88 93.39">
  <defs>
    <style>
      .cls-1 {
        fill: #eae3cd;
      }

      .cls-2 {
        fill: #747676;
      }

      .cls-3 {
        fill: #e1513c;
      }

      .cls-4 {
        fill: #e64035;
      }

      .cls-5 {
        fill: #923129;
      }

      .cls-6 {
        fill: #dd4d39;
      }

      .cls-7 {
        fill: #ede6d0;
      }
    </style>
  </defs>
  <path class="cls-1" d="M42.78,67.54c2.71,7.38-.92,11.03-6.98,14.19-.75,3.4,1.14,6.86-.49,9.54-.9,1.47-2.54,2.19-4.2,2.12-1.56-.06-3.11-.91-4.06-2.4-1.82-2.86-3.01-6.24-3.58-9.62-.35-2.1.55-4.03,2.06-5.21,1.55-1.22,3.22-.99,5.01-1.18,1.46-.15,2.81-1.48,4.05-2.16,1.56-.86-.31-4.16-1.02-5.12-2.97-.31-5.73-1.25-7.87-3.27-3.2-3.02-4.93-8.79-5.91-13.08-3.6-1.94-6.85-4.35-9.18-7.86-2.09.25-2.96-1.33-4.29-2.41-2.44-1.98-4.8-3.92-5.96-7-.86-2.29-.25-4.69,1.55-6.34,3.01-2.76,7.74-5.77,11.18-1.79,4.14.65,4.62,4.48,4.5,8.09.42-.44.47-1,.5-1.59.1-1.72.27-3.37.72-5.03,1.74-6.37,6.97-9.03,13.07-10.25,1.69-2.59,5.1-2.97,7.56-1.18,1,.21,2.22-.06,3.3-.01,7.07.35,11.14,3.03,13.89,9.59l4.07-1.31c.81-.26,1.49-.3,2.49.08.54-1.63,2.31-1.65,3.35-2.44,1.85-1.39,3.64-2.38,6.01-1.49,1.82.69,3.39,1.76,4.93,3.02,2.31,1.88,3.13,4.9,1.57,7.61-2.88,5.01-5.41,5.18-6.5,6.84-.67,1.03-2,1.36-3.13,1.62-.47.11-.82.56-1.1.91-2.13,2.7-4.68,4.83-7.7,6.44.2,7.36-.16,14.19-7.69,17.73,2.28,2.53,3.79,5.31,4.77,8.52.82.28,1.59.14,2.4.06l4.58-.82c1.33-.24,2.64.31,3.5,1.19,2.01,2.06,1.08,5.52-1.52,7.33-2.88,2-6.01,3.62-9.33,4.76-1.73.59-3.54.22-4.91-.9-1.17-.96-1.94-2.71-1.79-4.44.13-1.47-.06-2.63-.48-4-1.04-3.36-2.84-6.22-5.68-8.32-.48-.36-.81-.97-1.73-.47ZM14.36,39.77c.86-1.25,1.49-2.61.33-3.98.89-1.97.9-4.18.29-6.06-.49-1.51-1.91-1.09-2.78-1.68-1.17-.79-1.94-2.33-3.75-1.72s-3.45,1.59-4.85,2.86-1.73,3.21-.79,4.91c1.28,2.3,3.04,4.25,5.54,5.16.19,1.44,1.35,2.3,2.71,1.99.3-.07.6-.04.87.12.08.41.34.75.63,1.14,2.4,3.21,5.53,5.64,9.17,7.35.94,4.18,2.75,11.08,6.31,13.64,2.03,1.46,4.41,1.97,6.95,2.12,1.02,1.59,1.84,3.31,2.41,5.12.43,1.34.1,2.55-1.03,3.44-1.64,1.3-3.5,2.56-5.58,3.15-.75.21-1.6-.12-2.38.02-1.79.34-2.96,1.77-2.7,3.7.33,2.43,2.29,9.62,5.02,10.08.99.17,2.06,0,2.61-.85,1.07-1.64-.05-4.83.08-6.37.1-1.2.25-2.32.16-3.55l2.24-1.19c2.02-1.08,4-2.42,5.1-4.51.9-1.72.79-3.84.11-5.58l-1.36-3.48,4.66-.49c4.8,2.99,7.86,7.98,8.59,13.61.15,1.19-.31,2.27.27,3.41.62,1.21,1.88,2,3.35,1.49,3.15-1.1,6.22-2.6,8.93-4.55.96-.69,1.62-1.58,1.65-2.73.03-1.07-.74-1.81-1.79-1.75-2.63.16-5.31,1.48-9.23.65-1.58-5.19-2.88-7.57-6.96-11.35,4.45-1.72,7.95-3.71,8.88-8.81.58-3.13.6-6.21.33-9.52,3.9-1.92,7.35-4.71,9.57-8.35.49-.13,1.03.14,1.61.06,1.11-.16,1.8-1.06,2.08-2.09,2.79-.73,7.66-6.14,5.45-8.91-1.5-1.87-6.53-6.05-8.75-2.63-.36.55-.73.82-1.45.78-2.78-.14-2.81,5.42-1.5,7.34-1.28,1.04-1.02,2.62.03,3.82-1.8,2.69-4.19,4.99-7.27,6.5-.35-3.77-1.03-7.21-1.81-10.76,2.21-.72,4.25-1.29,6.21-2.26.76-.44,1.13-1.22.73-2.03-.27-.55-1.05-.89-1.8-.65-2.02.64-3.92,1.47-6.09,1.87-1.4-4.91-5.33-9.68-10.56-9.88l-6.18-.24c-.96-.04-1.59-1.47-2.87-1.02-.91.32-1.88.68-2.18,1.92-2.56.52-4.96,1.23-7.23,2.38-4.84,2.43-6.14,7.57-6.03,12.62.04,1.75-1.4.98-1.38,2.68.01,1.19,1.4.93,1.42,2.1.03,2.37.38,4.57.67,7.05-2.78-1.56-4.87-3.7-6.66-6.1ZM62.72,35.41c-.63-1.32-.57-2.47-.12-3.82l-3.68,1.21.99,5.5c1.17-.81,2.04-1.73,2.81-2.89ZM18.1,40.73c.22-.82.04-1.54-.62-1.89-.25-.03-.42.61-.35.87.35.4.6.77.97,1.02Z"/>
  <path class="cls-1" d="M15.81,62.49c-1.71.08-3.42.26-4.25-1-1.02-1.56.74-2.28-.02-3.97-.3-.66-.4-1.41,0-2.09.81-1.43,2.68-1.29,4.46-1.21.98.05,1.72.62,2.07,1.5.95,2.44.79,6.64-2.25,6.78ZM15.93,60.03c.84-1.04.37-2.5.09-3.54-.95-.01-1.71-.14-2.47.17.56,1.29.62,2.35.03,3.6.65.02,1.86.38,2.35-.24Z"/>
  <path class="cls-1" d="M69.05,57.18c-1.21.89-2.68.77-3.77-.19-1.49-1.31-3.57-4.6-1.58-6.19.81-.64,1.68-1.15,2.64-1.54,1.25-.5,2.66.19,2.96,1.49.44,1.9,2.24,1.71,2.19,3.53-.02.73-.37,1.37-1.03,1.85l-1.42,1.05ZM67.37,55.58c.76-.49,1.33-.77,1.89-1.36-1.17-.68-1.76-1.62-2.12-2.87l-1.96,1.13c.18,1.29.93,2.5,2.19,3.1Z"/>
  <path class="cls-1" d="M14.79,22.13c-.84-.48-1.65-.79-2.59-.74-1.2.06-2.08-.9-1.94-2.13.13-1.17.53-2.3,1.01-3.36.9-2,4.06-.92,5.73-.35,1.24.42,1.93,1.62,1.71,2.92-.15.87-.41,1.66-.69,2.48-.47,1.33-1.91,1.94-3.22,1.19ZM15.83,20.17c.38-.86.57-1.48.6-2.31-1-.53-2.05-.88-3.2-.87-.34.69-.53,1.34-.73,2.16,1.19.1,2.2.33,3.33,1.02Z"/>
  <path class="cls-1" d="M31.06,15.72c-1.58,1.54-3.55.29-5.1-.81-.62-.44-.94-1.08-.96-1.73-.02-.77.34-1.4.98-1.91,1.24-.99.24-2.02,1.45-3.05,1.33-1.13,3.19-.05,4.74.91,1.82,1.13.75,4.77-1.11,6.59ZM29.32,14.1c1.1-.57,1.69-2.07,1.42-3.11-.4-.52-1.24-.75-1.8-.88-.11,1.33-.63,2.15-1.64,3,.6.34,1.38,1.17,2.02,1Z"/>
  <path class="cls-1" d="M23.42,7.34c-1.03,1.31.24,2.29-.81,3.49-1.24,1.41-3.71.49-5.29-.29-.74-.36-1.19-1.23-1.18-2.07.03-1.96,1.11-6.2,3.94-5.41,1.52.43,3.38.9,3.8,2.25.24.79.02,1.42-.46,2.03ZM20.79,9.25c-.22-1.38.22-2.27.9-3.28-.82-.38-1.49-.54-2.36-.69-.55,1.01-1.08,2.29-.76,3.39.57.37,1.52.69,2.22.59Z"/>
  <path class="cls-1" d="M62.28,9.03c-1.47,1.31-2.6,2.52-4.26,1.89-.52-.2-1.07-.86-1.23-1.63-.36-1.75-1.67-1.06-2.08-2.61s.94-2.4,2.21-3.55c1.21-1.09,2.85-.94,4.04.2s3.26,3.98,1.32,5.7ZM60.87,7.32c-.37-1.23-1.04-2.41-2.26-2.72-.6.51-1.07.91-1.62,1.54,1.14.63,1.78,1.48,1.99,2.72.69-.49,1.27-.9,1.88-1.54Z"/>
  <path class="cls-1" d="M50.21,15.48c-.84.37-1.88.16-2.55-.54-1.46-1.53-3.19-5.57-.72-6.84,1.52-.78,3.01-1.68,4.29-.8.53.37,1.04,1.13.98,1.97-.11,1.44,1.52,1.44,1.51,3.12s-1.88,2.38-3.5,3.1ZM49.59,13.31c.72-.18,1.3-.63,1.86-.98-1.11-.85-1.45-1.89-1.48-3.15-.78.25-1.36.52-2.09.89.01,1.2.35,2.86,1.71,3.24Z"/>
  <path class="cls-1" d="M8.99,54.47c-1.29,1.17-4.07-.51-5.39-1.29-1.13-.67-1.63-2.25-.98-3.41.5-.88,1.11-1.65,1.77-2.39s1.81-.63,2.56-.1,1.51.78,2.35,1.07c1.45.51,2.25,1.96,1.61,3.44-.42.96-1.07,1.9-1.92,2.67ZM7.66,52.46c.73-.18,1.16-1.36,1.29-1.96-1.11-.36-2.11-.48-3.07-1.32-.52.55-.92,1.06-1.35,1.84.9.58,1.92,1.54,3.13,1.43Z"/>
  <path class="cls-1" d="M63.14,22.02c-2.2.54-1.59,1.92-3.5,1.8-.69-.04-1.36-.33-1.8-1.05-1.17-1.91-2.3-3.58-.33-5.33,1.39-1.23,4.97-3.3,6.27-.65.38.78.73,1.53,1.01,2.36.43,1.27-.35,2.55-1.65,2.87ZM62.77,19.88c-.33-.8-.55-1.51-1.05-2.14-1.23.17-2.29.75-3.05,1.72.2.85.61,1.47,1.16,2.23.66-1.05,1.57-1.65,2.94-1.81Z"/>
  <path class="cls-1" d="M42.7,4.49c-.17,2.19-2.2,1.78-3.56,2.35-.69.29-1.4.23-2.05-.16-1.55-.92-1.02-3.88-.61-4.92.48-1.21,1.78-1.55,2.95-1.73,1.54-.24,2.97.54,3.2,2.14.11.75.13,1.53.07,2.31ZM40.49,4.35c.08-.8.07-1.39-.11-2.07-.62-.13-1.55-.1-1.92.47s-.16,1.36-.16,2c.81-.18,1.38-.35,2.18-.39Z"/>
  <path class="cls-1" d="M67.94,16.38c-1.44.08-2.34-1.33-2.06-2.61.34-1.55-.51-3.74,2.1-4.22,1.41-.26,3.02.36,3.74,1.73s.53,3.33-.66,4.31c-.8.66-2.12.75-3.12.8ZM68.27,14.05c.57.14,1.26.07,1.49-.38.19-.39.28-1.1-.08-1.42-.3-.28-.83-.46-1.37-.36.12.77.11,1.26-.04,2.16Z"/>
  <path class="cls-4" d="M65.39,35.58l2.54,1.62c-2.23,3.64-5.68,6.44-9.57,8.35.26,3.31.24,6.39-.33,9.52-.94,5.1-4.43,7.1-8.88,8.81,4.08,3.78,5.37,6.17,6.96,11.35,3.92.83,6.6-.49,9.23-.65,1.05-.06,1.82.68,1.79,1.75-.03,1.15-.69,2.04-1.65,2.73-2.71,1.95-5.78,3.45-8.93,4.55-1.47.51-2.73-.28-3.35-1.49-.58-1.15-.12-2.23-.27-3.41-.73-5.62-3.78-10.62-8.59-13.61l-4.66.49,1.36,3.48c.68,1.74.79,3.86-.11,5.58-1.1,2.09-3.08,3.44-5.1,4.51l-2.24,1.19c.09,1.23-.06,2.35-.16,3.55-.12,1.53,1,4.73-.08,6.37-.55.84-1.62,1.01-2.61.85-2.73-.46-4.69-7.65-5.02-10.08-.26-1.93.91-3.36,2.7-3.7.78-.15,1.63.19,2.38-.02,2.08-.59,3.94-1.85,5.58-3.15,1.13-.89,1.45-2.1,1.03-3.44-.58-1.82-1.39-3.53-2.41-5.12-2.54-.14-4.92-.66-6.95-2.12-3.56-2.56-5.37-9.46-6.31-13.64-3.64-1.71-6.76-4.14-9.17-7.35-.29-.39-.55-.73-.63-1.14.57-.75,1.59-.98,2.44-1.6,1.79,2.4,3.88,4.54,6.66,6.1-.29-2.48-.64-4.68-.67-7.05-.02-1.17-1.41-.91-1.42-2.1-.02-1.71,1.42-.93,1.38-2.68-.11-5.05,1.19-10.19,6.03-12.62,2.28-1.15,4.67-1.86,7.23-2.38.3-1.24,1.26-1.6,2.18-1.92,1.28-.45,1.91.98,2.87,1.02l6.18.24c5.23.2,9.16,4.97,10.56,9.88,2.17-.4,4.06-1.23,6.09-1.87.76-.24,1.54.11,1.8.65.4.81.03,1.59-.73,2.03-1.96.97-4,1.54-6.21,2.26.78,3.54,1.47,6.98,1.81,10.76,3.08-1.52,5.46-3.82,7.27-6.5ZM44.24,27.57c-.06-.61-.64-1.07-1.35-1.56.65-.56,1.01-1.21.85-2.01-.11-.58-.4-1.31-1.07-1.69-1.66-.94-5.01-.76-5.1.96-.06,1.17-.09,6.78,1.26,7.08,1.79.39,5.63-.32,5.4-2.78ZM35.99,26.72c-.91-.56-2.81-.02-3.13-.43-.05-.07-.17-.37-.06-.46.88-.71,1.76.73,2.95-.09.4-.27.56-.71.56-1.28,0-.83-.39-1.47-1.21-1.75-1.22-.43-2.63-.21-3.73.57-1.27.91-1.81,2.76-.92,4.07.94,1.38,3.09.18,3.44.7.09.13.12.33.04.47-.27.48-1.76-.33-2.33-.22-.79.15-.99,1.1-.88,1.74.27,1.47,3.54,1.87,5.34.28,1.05-.93,1.26-2.78-.07-3.61ZM52.99,58.23c1.2-1.09,1.68-2.67,1.99-4.23.15-1.5.39-2.88.33-4.42-.24-5.92-1.04-11.65-2.22-17.59-4.91,1.16-9.63,2.12-14.58,2.99l-15.12,2.67c.43,5.88,1.27,11.57,2.98,17.14.66,2.16,1.59,4.06,3.06,5.74,1.4,1.16,3.07,1.76,4.93,1.91,5.31.43,14.59-.53,18.62-4.21Z"/>
  <path class="cls-5" d="M14.36,39.77c-.85.62-1.87.85-2.44,1.6-.27-.17-.57-.19-.87-.12-1.36.31-2.53-.55-2.71-1.99-2.5-.91-4.26-2.87-5.54-5.16-.95-1.7-.66-3.6.79-4.91s3.1-2.26,4.85-2.86,2.58.93,3.75,1.72c.87.59,2.29.16,2.78,1.68.62,1.89.6,4.09-.29,6.06,1.16,1.37.53,2.73-.33,3.98ZM6.55,34.46c.78-.13,2.04-.61,2.2-1.38.21-1-1.23-1.57,2.58-4.44-.5-1.05-1.75-2-3-1.5-1.71.69-3.26,1.77-4.54,3.05-1.17,1.17-.96,2.89.1,3.92.43-1.76,1,.62,2.65.34ZM12.03,37.77c-.59,1.09-1.77,1.19-2.63,1.84.55,1.98,4,.4,5.14-1.65.17-.3.07-.67.02-.94-.05-.24-.45-.27-.66-.52-.26-.3-.05-.9.14-1.22.78-1.29,1.08-4.7-.33-5.97-1.31-1.19-4.78,1.92-4.2,3.12.58,1.21,2.11.1,3.05.05l-2.22,2.85c-.17-.38.32-.9.21-1.32-.19-.7-1.1-.37-1.52.01-.87.8-2,1.38-3.17,1.12-.73-.16-1.03-.96-1.95-.94.79,1.39,1.79,2.58,3,3.51,2.02,1.56,3.52.33,5.13.05Z"/>
  <path class="cls-5" d="M67.92,37.2l-2.54-1.62c-1.04-1.2-1.31-2.78-.03-3.82-1.31-1.92-1.28-7.49,1.5-7.34.73.04,1.1-.23,1.45-.78,2.22-3.42,7.26.76,8.75,2.63,2.21,2.77-2.65,8.18-5.45,8.91-.28,1.03-.97,1.93-2.08,2.09-.58.08-1.12-.19-1.61-.06ZM67.24,25.1c-1.07-.1-1.78.93-1.87,1.82-.23,2.39-.21,3.12.87,5.27-.86.32-1.27,1.29-.76,2.15.68,1.14,1.98,1.84,3.26,2.28.7.24,2.05-.32,1.66-1.01-.35-.62-1.68-.55-1.66-1.53.68.1,1.36.5,2.06.48,2.16-.08,4.07-2.42,5.32-4.12.66-.9,1.21-2.28.53-3.33-1.12-1.74-2.92-2.94-4.75-3.81-1.36-.65-2.92.06-3.33,1.41,1.78,1.54,3.11,2.23,2.51,4.52.06.89,1.77,1.43,2.53,1.42.95-.02,1.39-.65,2.18-1.16-.02.99-.92,1.65-1.89,1.76-2.46.28-3.71-2.3-4.72-1.38-.19.34.44.96-.03,1.23-.43-.42-.5-.98-.84-1.43-.32-.42-.91-.54-1.01-1.16.82-.2,2.22,1.3,3.09.16s-1.57-3.38-3.16-3.53Z"/>
  <path class="cls-2" d="M18.1,40.73c-.37-.26-.62-.62-.97-1.02-.07-.26.1-.9.35-.87.66.35.84,1.07.62,1.89Z"/>
  <path class="cls-3" d="M15.93,60.03c-.5.61-1.71.26-2.35.24.59-1.26.53-2.31-.03-3.6.76-.32,1.52-.19,2.47-.17.28,1.04.75,2.5-.09,3.54Z"/>
  <path class="cls-5" d="M67.37,55.58c-1.26-.6-2-1.81-2.19-3.1l1.96-1.13c.36,1.25.95,2.19,2.12,2.87-.56.59-1.12.87-1.89,1.36Z"/>
  <path class="cls-5" d="M15.83,20.17c-1.13-.69-2.14-.92-3.33-1.02.2-.82.39-1.47.73-2.16,1.16-.01,2.2.34,3.2.87-.03.83-.22,1.45-.6,2.31Z"/>
  <path class="cls-5" d="M29.32,14.1c-.64.17-1.42-.65-2.02-1,1.01-.85,1.53-1.67,1.64-3,.55.13,1.39.36,1.8.88.27,1.05-.32,2.54-1.42,3.11Z"/>
  <path class="cls-3" d="M20.79,9.25c-.7.11-1.65-.22-2.22-.59-.31-1.1.21-2.37.76-3.39.87.15,1.53.31,2.36.69-.68,1.02-1.12,1.9-.9,3.28Z"/>
  <path class="cls-5" d="M60.87,7.32c-.61.64-1.19,1.05-1.88,1.54-.21-1.24-.85-2.09-1.99-2.72.55-.63,1.01-1.04,1.62-1.54,1.22.31,1.89,1.49,2.26,2.72Z"/>
  <path class="cls-5" d="M49.59,13.31c-1.35-.38-1.69-2.04-1.71-3.24.73-.37,1.31-.64,2.09-.89.03,1.26.37,2.29,1.48,3.15-.56.35-1.14.8-1.86.98Z"/>
  <path class="cls-5" d="M7.66,52.46c-1.2.1-2.23-.85-3.13-1.43.43-.78.83-1.3,1.35-1.84.96.83,1.95.96,3.07,1.32-.13.6-.57,1.78-1.29,1.96Z"/>
  <path class="cls-3" d="M62.77,19.88c-1.37.16-2.28.76-2.94,1.81-.55-.76-.97-1.38-1.16-2.23.76-.97,1.82-1.55,3.05-1.72.5.63.73,1.34,1.05,2.14Z"/>
  <path class="cls-3" d="M40.49,4.35c-.81.04-1.37.22-2.18.39,0-.64-.22-1.4.16-2s1.29-.6,1.92-.47c.18.68.2,1.27.11,2.07Z"/>
  <path class="cls-5" d="M68.27,14.05c.14-.9.15-1.39.04-2.16.55-.1,1.07.08,1.37.36.35.32.27,1.04.08,1.42-.23.46-.91.52-1.49.38Z"/>
  <path class="cls-7" d="M52.99,58.23c-4.03,3.68-13.32,4.63-18.62,4.21-1.86-.15-3.53-.75-4.93-1.91-1.47-1.68-2.39-3.58-3.06-5.74-1.71-5.57-2.55-11.26-2.98-17.14l15.12-2.67c4.95-.87,9.67-1.83,14.58-2.99,1.17,5.94,1.97,11.66,2.22,17.59.06,1.54-.18,2.92-.33,4.42-.31,1.56-.8,3.14-1.99,4.23ZM50.09,42.06c-.37-2.03-2.44-3.04-4.27-2.65-1.71.36-3.14,2.01-2.91,3.83.79.29.84-1.66,3.07-2.17,2.5-.57,3.55,1.72,4.1.99ZM35.98,43.67c.46.26.88.64,1.48.46-.52-1.74-2.39-2.83-4.2-2.58-2.09.29-3.56,2.3-2.98,4.28.51-.13.64-.54.82-.85,1-1.77,3.04-2.35,4.88-1.3ZM32.93,52.11c.91,3.16,3.11,5.74,6.13,6.71,3.93,1.26,7.91-.69,9.47-4.4.7-1.66.91-3.31.89-5.11l1.3-.13c.29-.03.44-.27.42-.43-.1-.82-2.12.57-3.08-1.49-.13-.28-.41-.42-.61-.25-.44.38.24.96.52,1.5-3.56,3.93-9,5.13-13.78,2.46-.25-.31,0-1.01-.02-1.33-.03-.39-.26-.52-.48-.45-.6.18.23,2.07-2.3,2.45-.23.03-.48.25-.4.45.25.67,1.57-.08,1.93.02Z"/>
  <path class="cls-1" d="M35.99,26.72c1.33.83,1.12,2.67.07,3.61-1.79,1.59-5.07,1.19-5.34-.28-.11-.63.09-1.59.88-1.74.57-.11,2.06.7,2.33.22.08-.14.05-.34-.04-.47-.35-.52-2.5.68-3.44-.7-.89-1.31-.34-3.16.92-4.07,1.09-.78,2.5-1,3.73-.57.81.29,1.2.92,1.21,1.75,0,.57-.16,1.01-.56,1.28-1.19.82-2.07-.62-2.95.09-.11.09.01.39.06.46.32.4,2.22-.13,3.13.43Z"/>
  <path class="cls-1" d="M44.24,27.57c.24,2.46-3.6,3.16-5.4,2.78-1.35-.29-1.32-5.91-1.26-7.08.09-1.72,3.44-1.9,5.1-.96.67.38.95,1.11,1.07,1.69.16.8-.2,1.45-.85,2.01.71.49,1.29.95,1.35,1.56ZM41.63,24.24c-.34-.52-1.36-.51-1.7-.06-.29.38-.15,1.06.18,1.32.43.34.92.06,1.26-.14.28-.17.58-.64.27-1.12ZM41.77,27.04c-.4-.16-1.12-.24-1.41.11-.26.3-.17.86.03,1,.38.28,1.44-.09,1.55-.47.05-.18.04-.56-.17-.65Z"/>
  <path class="cls-4" d="M12.03,37.77c-1.61.29-3.11,1.51-5.13-.05-1.2-.93-2.21-2.12-3-3.51.91-.03,1.22.77,1.95.94,1.17.26,2.3-.32,3.17-1.12.42-.38,1.33-.71,1.52-.01.11.41-.38.94-.21,1.32l2.22-2.85c-.94.05-2.47,1.16-3.05-.05-.58-1.2,2.89-4.31,4.2-3.12,1.41,1.28,1.11,4.68.33,5.97-.19.31-.4.91-.14,1.22.21.25.62.27.66.52.05.27.15.63-.02.94-1.14,2.05-4.6,3.63-5.14,1.65.86-.64,2.04-.75,2.63-1.84Z"/>
  <path class="cls-4" d="M6.55,34.46c-1.65.28-2.22-2.11-2.65-.34-1.06-1.03-1.27-2.75-.1-3.92,1.27-1.28,2.83-2.36,4.54-3.05,1.25-.5,2.5.45,3,1.5-3.81,2.87-2.37,3.45-2.58,4.44-.16.77-1.42,1.25-2.2,1.38Z"/>
  <path class="cls-4" d="M67.24,25.1c1.59.15,3.99,2.44,3.16,3.53-.87,1.14-2.27-.35-3.09-.16.1.62.69.74,1.01,1.16.34.45.41,1.01.84,1.43.47-.28-.16-.9.03-1.23,1.01-.92,2.25,1.66,4.72,1.38.97-.11,1.87-.77,1.89-1.76-.79.51-1.23,1.14-2.18,1.16-.77.01-2.48-.52-2.53-1.42.61-2.29-.72-2.98-2.51-4.52.42-1.35,1.97-2.05,3.33-1.41,1.84.87,3.63,2.07,4.75,3.81.68,1.06.13,2.43-.53,3.33-1.25,1.71-3.17,4.04-5.32,4.12-.7.03-1.39-.38-2.06-.48-.02.99,1.31.91,1.66,1.53.39.69-.96,1.25-1.66,1.01-1.28-.44-2.58-1.13-3.26-2.28-.51-.86-.11-1.82.76-2.15-1.08-2.15-1.1-2.88-.87-5.27.09-.88.79-1.92,1.87-1.82Z"/>
  <path class="cls-5" d="M35.98,43.67c-1.84-1.04-3.88-.47-4.88,1.3-.18.31-.31.72-.82.85-.58-1.98.89-3.98,2.98-4.28,1.81-.25,3.68.84,4.2,2.58-.6.18-1.03-.2-1.48-.46Z"/>
  <path class="cls-5" d="M50.09,42.06c-.55.73-1.6-1.56-4.1-.99-2.24.51-2.28,2.46-3.07,2.17-.23-1.82,1.19-3.47,2.91-3.83,1.83-.38,3.89.63,4.27,2.65Z"/>
  <path class="cls-3" d="M41.63,24.24c.31.48.02.96-.27,1.12-.34.2-.83.48-1.26.14-.32-.26-.46-.94-.18-1.32.34-.45,1.36-.46,1.7.06Z"/>
  <path class="cls-3" d="M41.77,27.04c.21.08.22.47.17.65-.1.37-1.17.74-1.55.47-.2-.15-.29-.7-.03-1,.29-.35,1.01-.27,1.41-.11Z"/>
  <path class="cls-6" d="M36.66,56.4c.05-.75,1.32-1.18,2.01-1.29,1.48-.25,2.73.39,3.85,1.33-.09-.73-.71-.96-1.2-1.54,1.78-.82,3.6.11,4.88,1.48-1.77,1.91-4.22,2.61-6.68,1.84-1.01-.31-2.34-.72-2.87-1.82Z"/>
  <path class="cls-5" d="M32.93,52.11c-.36-.1-1.68.64-1.93-.02-.08-.2.18-.41.4-.45,2.52-.38,1.69-2.27,2.3-2.45.22-.07.45.06.48.45.02.32-.23,1.03.02,1.33,4.78,2.67,10.22,1.47,13.78-2.46-.28-.54-.96-1.12-.52-1.5.2-.17.48-.03.61.25.96,2.05,2.98.67,3.08,1.49.02.15-.13.4-.42.43l-1.3.13c.02,1.8-.19,3.44-.89,5.11-1.56,3.71-5.54,5.66-9.47,4.4-3.02-.96-5.22-3.54-6.13-6.71ZM36.66,56.4c.53,1.1,1.86,1.5,2.87,1.82,2.46.77,4.9.06,6.68-1.84-1.28-1.37-3.1-2.3-4.88-1.48.49.58,1.11.81,1.2,1.54-1.12-.94-2.37-1.57-3.85-1.33-.69.11-1.97.55-2.01,1.29Z"/>
</svg>