<?xml version="1.0" encoding="UTF-8"?>
<svg id="Layer_1" data-name="Layer 1" xmlns="http://www.w3.org/2000/svg" viewBox="0 0 83.88 72.99">
  <defs>
    <style>
      .cls-1 {
        fill: #eeddcd;
      }

      .cls-2 {
        fill: #9a574c;
      }

      .cls-3 {
        fill: #ece8d3;
      }

      .cls-4 {
        fill: #efe3d0;
      }

      .cls-5 {
        fill: #efe2cd;
      }

      .cls-6 {
        fill: #e14e3b;
      }

      .cls-7 {
        fill: #efe4d0;
      }

      .cls-8 {
        fill: #efdaca;
      }

      .cls-9 {
        fill: #e1513d;
      }

      .cls-10 {
        fill: #f0e0cf;
      }

      .cls-11 {
        fill: #8e342c;
      }

      .cls-12 {
        fill: #f0e6d1;
      }

      .cls-13 {
        fill: #f4e1d1;
      }

      .cls-14 {
        fill: #e3533d;
      }

      .cls-15 {
        fill: #9c6255;
      }

      .cls-16 {
        fill: #efebd4;
      }

      .cls-17 {
        fill: #85312b;
      }

      .cls-18 {
        fill: #eee0ce;
      }

      .cls-19 {
        fill: #e6c9bb;
      }

      .cls-20 {
        fill: #f3e5d3;
      }

      .cls-21 {
        fill: #892d26;
      }

      .cls-22 {
        fill: #8f4f44;
      }

      .cls-23 {
        fill: #efdccc;
      }

      .cls-24 {
        fill: #e64035;
      }

      .cls-25 {
        fill: #dd4637;
      }

      .cls-26 {
        fill: #efe3cf;
      }

      .cls-27 {
        fill: #eee2d0;
      }

      .cls-28 {
        fill: #efe2ce;
      }

      .cls-29 {
        fill: #e74535;
      }

      .cls-30 {
        fill: #f2edd7;
      }

      .cls-31 {
        fill: #f1dccc;
      }

      .cls-32 {
        fill: #b37e71;
      }

      .cls-33 {
        fill: #efe5d2;
      }

      .cls-34 {
        fill: #eee1ce;
      }

      .cls-35 {
        fill: #eacbbb;
      }

      .cls-36 {
        fill: #ead5c3;
      }

      .cls-37 {
        fill: #f0daca;
      }

      .cls-38 {
        fill: #ede4d0;
      }

      .cls-39 {
        fill: #f1e5d2;
      }

      .cls-40 {
        fill: #eee7d1;
      }

      .cls-41 {
        fill: #f2e3d5;
      }

      .cls-42 {
        fill: #f2e0ce;
      }

      .cls-43 {
        fill: #f1e5d4;
      }

      .cls-44 {
        fill: #f0e5d2;
      }

      .cls-45 {
        fill: #ecd9c9;
      }

      .cls-46 {
        fill: #f0dbc7;
      }

      .cls-47 {
        fill: #ece2cf;
      }

      .cls-48 {
        fill: #894639;
      }

      .cls-49 {
        fill: #bc9e8d;
      }

      .cls-50 {
        fill: #a36c61;
      }

      .cls-51 {
        fill: #edd8c6;
      }

      .cls-52 {
        fill: #edd9c7;
      }

      .cls-53 {
        fill: #f3eedb;
      }
    </style>
  </defs>
  <g>
    <path class="cls-40" d="M44.65,62.24c.61-1.16,0-2.75.08-4.17-1.02,1.56-2.51,2.24-4.32,2.68-5.58,1.37-11.02,2.79-16.77,3.27-1.21.1-2.35-.03-2.98-1.09-1.32-2.23-2.54-4.43-3.75-6.84-3.25.84-5.09-1.02-6.53-3.39-.69-1.13-1.56-2.12-2.19-3.32-.79-1.52-1.27-2.8-1.75-4.48-.69-2.4-1.03-4.59.96-6.73-1.12-1.36-1.25-3-2.09-4.26-1.28-1.92-5.75-3.01-4.51-6.63l1.08-3.16c-1.99-1.26-2.45-3.53-1.15-5.45.58-.86,1.03-1.78,2.16-2.26-.75-1.75-.38-3.25.73-4.38l2.39-2.45c.22-.22,1.34-6.01,6.83-5.45,1.67.17,3.39.52,4.19,2.23.98-1.08,1.5-2.2,2.72-2.72,1.59-.66,3.45-.69,5.13-.39,2.31.41,2.04,2.77,2.48,2.9,1.11.33,4.39-1.84,7.38-.15,1.14.65,2.1,1.59,3.47,1.54,3.82-5.13,8.76-6.1,14.75-6.1,2.57-2.32,5.53-1.66,7.74.44l6.59,2.09c4.44,1.41,8.07,7.3,8.36,12.25,2.86-.07,7.43-1.45,8.15,2.76.37,2.16-.84,3.93-3.07,4.45-1.58.37-3.16.52-4.85.72-.08,3.84-.35,7.43-1,11.29,2.3.79,4.05,2.2,5.57,3.8,2.25,2.36,2.05,5.23,2.42,8.03.32,2.44.15,3.61-1.06,5.72-1.49,2.6-2.52,5.62-5.03,7.6-4.49,3.56-7.75.36-11.57-2.54.06,1.29-.49,2.93.11,4.06.93,1.76,5.44,1.66,7.18,3.55,1.14,1.24,1.23,3.14.56,4.66-.61,1.39-2.17,2.33-3.94,2.47-2.99.24-5.99.16-8.95,0-2.07-.12-3.52-1.35-4.2-3.13-.8-2.1.3-3.76.68-5.7.63-3.21-.03-6.53.28-9.82-1.42-.19-2.24-.15-3.85-.12.24,3.26-.36,6.62.21,9.88.33,1.87,1.33,3.48.71,5.47-.58,1.87-2.01,3.32-4.16,3.44-3.07.17-6.19.26-9.21-.07-2.39-.26-4.05-2.03-4.12-4.17-.18-5.24,6.51-3.94,8.13-6.35Z"/>
    <path class="cls-24" d="M46.14,50.39c-1.06-.22-.85-2.78,0-3.2l.44-.51c5.04,1.02,10.86,2.18,15.92.47,2.16-.72,3.54-2.48,4.34-4.55,2.42-6.23,2.82-13.2,2.87-19.83l.31-.48c-7.6-.2-15.37-.52-22.92-1.61-.97-.14-1.89-.53-2.78-.92-.68-.19-.85-.85-.51-1.98,1.29-3.74,1.06-7.64-3.78-4.93-.71,1.71-1.35,2-1.92.88-.42-1.24-.27-2.05.43-2.45.35-.08.45-.42.63-.79,1.21-2.48,3.21-4.5,5.75-5.59,2.91-1.24,5.94-.96,8.97-1.44,1.02-.16,1.66-1.31,2.82-1.23,1.28.09,1.72,1.37,2.78,1.69l6.78,2.07c4.94,1.51,7.22,7.84,7.4,12.61,2.48.48,7.19-1.48,7.9.52,1.07,2.96-5.86,2.61-7.84,2.95-.08,5.03-.35,9.88-1.36,14.85,4.47,1.44,9.02,4.65,7.95,9.96-.15.72.3,1.4.47,2.01.4,1.45-.49,2.3-1.58,2.8-.32.73-.07,2.03-.6,2.87-1.86,2.93-4.18,7.03-7.95,4.7-1.57-.97-3-2.15-4.34-3.45-2.02-1.96.92-4.74,1.92-5.68-.87-.17-.82.81-1.26.85-.62.05-.88-.5-1.12-1.2l-2.94,1.34-.08,12.43c1.93,1.49,4.13,2.34,6.57,2.86,1.04.22,1.79,1.01,1.86,1.89.07.98-.73,1.95-1.91,2.14-2.92.47-5.93.28-8.93.1-.88-.05-1.58-.54-1.96-.95-.68-.74-.7-1.82-.37-2.64l1.05-2.65c1.48-3.73.12-8.37,0-12.64-2.8.3-5.29.07-8.23-.28-.11,4.33-1.41,9-.01,12.85l1.01,2.77c.31.84.22,1.8-.38,2.54-.43.52-1.19,1.01-2.13,1.06-2.93.17-5.83.13-8.74-.19-1.05-.12-1.79-1.03-1.84-1.86-.16-2.95,5.17-1.94,8.31-5.05v-12.72c-.07-.28-.82-.32-.94-.41Z"/>
    <path class="cls-11" d="M38.54,11.28c0,1.09-.14,1.95.37,2.85.2-1.81,1.46-2.55,3.08-2.66,1.16-.08,1.82-.05,2.52.67,1.62,1.67-.59,5.1-.2,7.61.11.55.1,1.14-.01,1.78l1.51,14.9.97-.75c.74-2.27,2.56-2.44,2.03.3,3.31,3.17,9.85,3.54,13.48.01-.52-2.05,1.21-2.92,1.87-.71.42.7,1.05,1.2,1.9,1.5.76,1.47-1.41,1.82-2.2.87-4.72,4.1-11.55,4.18-16.36.11l-1.75.36.78,8.12-.41.93c.26,1.13-.34,2.25,0,3.2.19.51.08,1.62-.14,1.97l-4.08,5.57c-5.66,1.7-11.25,3.02-17.14,3.74-.64.08-1.78.29-2.24-.1l-4.52-7.98c-2.23.31-2.52.9-4.37-.15-.57-.32-.59-1.65-1.04-2.07-1.33-.49-1.6-2.07-2.26-2.99-.96-1.37-1.3-2.16-1.57-3.89-.24-1.52-2.1-2.05,1.16-5.83l-1.91-3.97-.05-1.4-4.94-4.37c-.37-1.31.83-3.33,1.8-4.1l-2.49-3.38c-.23-2.04,1.74-3.33,3.6-3.58.57-1.7-2.12-1.76-.52-4.26.94-1.46,2.19-2.22,4.04-2.27-.04-.9-1.02-1.49-.77-2.34.38-.76,1.13-1.76,1.97-2.21.91-.48,3.01-.5,3.78.2,1.2,1.1,1.3,2.85,2.36,3.98.73-.27,1.42-.48,2.1-.87-.47-1.36-.07-2.38.64-3.33,1.37-1.83,5.06-1.59,5.18-1.05l.99,4.19c.75-1.44,2.17-1.04,3.34-1.39.15-.05,4.17-2.17,5.27.55.75.27,1.7.03,2.29.55l1.91,1.68Z"/>
    <path class="cls-3" d="M46.13,47.19c-.69-3.02-.52-6.11-1.01-9.52.91-.16,1.69-.36,2.57-.42,4.81,4.01,11.39,3.89,16.09-.09.8.36,1.53.76,2.19.1-1.52-.34-2.4-1.3-2.68-2.8-.94.13-.28,1.36-.4,1.93-4.1,3.66-10.71,3.61-14.7-.15.02-.62.55-1.46-.22-1.91-.31,1.46-1.18,2.76-2.75,2.8l-1.26-13.87c-.11-1.19-.7-2.42.34-3.49,8.53,1.08,17.07,1.7,25.97,2.15.13,6.6-.58,16.19-3.42,22.09-1.16,2.28-3.25,3.7-5.77,4.15-3.48.61-6.91.59-10.39-.07l-4.57-.87Z"/>
    <path class="cls-38" d="M76.76,44.84c-1.54-.87-2.32.32-3.45.91-.94.49-2.43-.27-3.77.24l1.98-5.61c1.38.3,5.51,2.14,5.23,4.46Z"/>
    <path class="cls-16" d="M19.05,44.7c-.55-1.37-.86-2.41-1.6-3.62-.89-1.47-1.53-3.22-3.89-2.66l-2.15.51-2.15-4.13,4.44-.29c4.12,4.08,10.18,4.95,15.47,2.7,3.96-1.69,6.97-4.74,8.2-8.88,2.25-1.02,3.79-2.65,5.83-4.1l2.02,27.59-3.94,5.22c-5.94,1.85-11.9,3.13-18.22,3.8l-4.06-7.92c.85-.7,1.24-1.48,1.45-2.15.31-.97-.57-1.72-.85-2.46.69-1.25-.1-2.48-.55-3.62Z"/>
    <path class="cls-26" d="M25.77,31.92c-1.43-1.52-2.59-5.67-4.83-5.74l-4.64-8.33c1.1-.43,2.09-.33,2.97-1.2-.84-.33-1.77.33-2.67.34-.06-1.08,2.33-2.61,3.2-1.65,1.4,1.53,5.82,8.94,5.19,11.15-1.63-2.78-2.75-5.72-4.85-8.18,1.24,3.78,6.14,9.81,5.64,13.62Z"/>
    <path class="cls-47" d="M14.94,17.63l4.83,8.53c-.07.39-1.17.61-1.35.21l-2.49-5.71c-.16-.38-.81-.35-1.26-.57-1.15-3.74-2.96-7.08-4.73-10.65-.31-.73.87-1.55,1.35-1.91.57-.43,2.06-.36,2.54.4.56.89,3.39,6.06,3.18,6.58-.07.18-.26.28-.58.46-.89-1.61-1.61-3.27-2.71-4.84.45,2.06,1.68,3.58,2.36,5.47l-1.12,2.04Z"/>
    <path class="cls-39" d="M29.03,13.08l-.47,6.57c-.9.08-1.61.29-2.47.92l.18-9.27c.66-.12,1.1.26,1.76-.12-.38-.46-.88-.01-1.5-.14.25-.88,1.19-1.46,2.06-1.31.57.1,1.75.18,1.92.86.06,2.15.44,4.15.14,6.2-.05.36-1.04,1.04-.65,3.03.02.1-.23.17-.37.13-.7-.18-.21-5.68-.6-6.88Z"/>
    <path class="cls-4" d="M16.33,28.81c.75,1.82,1.28,3.74,2.19,5.52.39-.22.09-.47.11-.64.62.29,1.57,1.9,1.85,2.66l-.36.61c-1.08-.52-3.06-.6-3.73-1.83-1.91-3.51-3.13-7.22-4.7-10.74-.43-.69.01-1.07,1.34-1.13l1.12-.47c.9,1.95,1.63,3.95,2.2,6.01Z"/>
    <path class="cls-28" d="M37.06,27.3l-.78-8.91c-.08-.95-1.46-1.38-2.03-2.07-.11-1.46.24-2.9.49-4.4.91-.24,1.66-.19,2.67-.01l.73,13.66c.04.78.15,1.59-1.07,1.74Z"/>
    <path class="cls-18" d="M30.18,35.47l-1.96-13.06c-.71-.15-1.49-.18-1.8-.58.33-1.3,3.41-1.49,3.74-.31l1.63,12.52c.1.81-1.06,1.35-1.61,1.44Z"/>
    <path class="cls-12" d="M42.27,12.46c.36-.23.89-.25,1,.23-1.14,3.6-2.02,7.27-2.64,11.03.22.5,0,1.02-.69,1.56-.22.22-.56.69-.82.46-.74-4.61-.37-8.07,1.1-12.52.23-.7,1.55-.55,2.05-.77Z"/>
    <path class="cls-5" d="M34.98,30.79c-.82.86-1.16.22-1.01-1.94l-.18-.66-.88-8.92c.93-.26,1.51-.36,2.47-.39l.68,9.29c.07,1.02-.64,1.9-1.09,2.61Z"/>
    <path class="cls-34" d="M5.24,20.8c.02-.78.58-1.39,1.38-1.35.29-1.26,3.44,3,3.68,3.35.41.61.2,1.47.3,2.02l-2.03-2.04,3.39,5.29c-1.27-.68-2.27-1.74-3.25-2.76-1.89-1.97-1.43,1.11-5.15-3.91.47-.53,1.11-.41,1.68-.6Z"/>
    <path class="cls-44" d="M20.4,29.36c.31-.8.8-.64.88.17l4.4,7.51c-.82.45-1.8.38-2.78.27-1.46-2.61-3.13-4.88-4.94-7.26.97-.41,1.74-.82,2.44-.69Z"/>
    <path class="cls-9" d="M9.85,43.42c-1.34-.59-.77-3.63.13-3.4l.97.25c1.28-.83,2.8-1.42,4.26-.77.49.22.79.78.87,1.13.3,1.22-3.54,3.97-6.23,2.79Z"/>
    <path class="cls-27" d="M9.32,14.17c1.28,1.92,2.45,3.98,3.51,6.2-.28.78-1.13.95-1.82,1.72l-2.49-3.28c-.88-1.16-1.44-2.45-2.26-3.63.36-.33.7-.27,1-.38.43-.3.91-.61,1.46-.92.23-.92,1-.59.6.29Z"/>
    <path class="cls-7" d="M13,33.4c-.88.3-2.18.57-3.11.26l-5.47-4.85c.72-.66,1.74-1.08,2.54-1.15,2.27,1.61,4.1,3.54,6.03,5.74Z"/>
    <path class="cls-33" d="M22.1,8.41c.29.3.4.77.33,1.41l1.38,9.97-3.01-5.38c-.98-1.74-.53-4.03-1.07-5.94l2.36-.06Z"/>
    <path class="cls-6" d="M10.92,47.08c-.82-.18-1.08-1.68-.59-2.17,2.12-.2,4.15-1.23,5.92-2.51.67-.48,1.37.7,1.48,1.27.13.64-.29,1.32-1.05,1.78-1.72,1.05-3.46,2.14-5.77,1.63Z"/>
    <path class="cls-14" d="M18.26,48.54c-1.44,1.28-4.87,2.61-6.21,1.25-.37-.37-.59-1.18-.29-1.65,2.28-.08,4.29-1.31,6.16-2.56.58-.39,1.14.75,1.07,1.19-.09.58-.17,1.28-.73,1.78Z"/>
    <path class="cls-10" d="M24.12,6.96c.11,2.15.75,4.26,1.07,6.53.36,2.6.22,5.19-.08,7.7-1.18-4.19-1.6-8.09-2.38-11.96-.34.02-.46-.27-.37-.88-.2-.13-.35-.24-.34-.25.07-.12,2.03-1.85,2.1-1.15Z"/>
    <path class="cls-52" d="M21.28,29.53l-.88-.17.28-.6c-1.02.11-1.75.37-2.92.27.38-.79.84-1.56,1.43-1.63.97-.11,2.21-.38,2.71.43l5.34,8.59c.17.27-.15.49-.31.54-.8.25-4.62-7.25-5.65-7.43Z"/>
    <path class="cls-31" d="M33.69,31.86c.15.74-.17,1.45-.86,1.52-.78-4.06-1.07-7.98-1.51-12.03-.09-.85-.68-1.59-.33-2.48,1.06-.02,1.47.73,1.51,1.69.18,3.82.45,7.53,1.18,11.29Z"/>
    <path class="cls-43" d="M26.76,30.52c-.34-1.57-.2-2.87,1.55-3.22l1.23,8.21c.09.59-1.33,1.23-1.53.81-.83-1.85-.93-3.92-1.25-5.8Z"/>
    <path class="cls-20" d="M14.23,20.27c-.3.34-1.01.26-1.33-.12-1.18-2.03-2.37-4.02-3.58-5.99-.14-.17-.32-.36-.6-.29-.44.6-1.39.69-2.08.52-.08-.03-.32-.09-.38-.15s.28-.26.36-.44c.47-1.11,2.13-1.79,3.31-.81.95.78,4.16,5.43,4.3,7.28Z"/>
    <path class="cls-25" d="M19.46,50.92c-.61,1.33-3.54,3.09-4.92,1.95-.38-.32-.86-.88-.78-1.53,1.45-.43,2.91-.57,4.11-1.43.39-.28.77-.53,1.17-.37s.67.83.42,1.38Z"/>
    <path class="cls-13" d="M43.7,12.93c.31.48.4.8.31,1.24l-1.6,8.3c-.16.84-.45,1.41-1,1.88-.71.38-1.01.35-.89-.09.69-3.98,1.62-7.91,2.79-11.79l.39.45Z"/>
    <path class="cls-42" d="M14.44,33.67l-1.09-.84c-1.87-2.14-3.89-4.01-6.18-5.69-.2-.53-.22-1.01.2-1.6,1.79,1.47,3.49,2.98,5.11,4.72.96.89,1.75,1.8,1.96,3.41Z"/>
    <path class="cls-2" d="M43.7,12.93c-.14-.26-.33-.16-.41.14l-1.08,4.26-1.33,6.8c-.03.15.47.2.53.22-.54.46-1.09.56-1.47.93.97-3.98,1.5-8.06,2.88-12.04.11-.32.23-.6.07-.68-.21-.11-.49-.13-.62-.1.2-.28.53-.42.99-.29.24.07.26.49.44.76Z"/>
    <path class="cls-23" d="M16.54,28.48c-.78-1.85-1.63-3.67-2.56-5.44.33-.54.68-.97,1.04-1.27.21.27.6.33.79.84l1.64,4.45c.26.71-.29,1.42-.92,1.43Z"/>
    <path class="cls-43" d="M27.98,24.98c.87,1.85-1.57,2.73-2.07.86-.1-.46-.1-.98-.05-1.44-.16-.59-.14-1.22.08-1.79.5-.11,1.41-.27,1.89.18.55.53-.15,1.68.15,2.19Z"/>
    <path class="cls-46" d="M33.63,16.07c-.04.34-1.09.36-1.23.18.05-1.77.22-3.47.57-5.23.32.08,1.19.42,1.14.85l-.48,4.2Z"/>
    <path class="cls-18" d="M28.31,27.3c-.23.69-.79,1.11-1.38,1.57-.06.46-.24,1.26-.17,1.65-.51-1.49-.49-3.13-.85-4.68.19.93,2.08.08,2.05.16.13-.35,0-.73.02-1.02.57.68.21,1.49.33,2.32Z"/>
    <path class="cls-36" d="M19.46,13.92c0,.29-.66.24-.9.2-.5-.07-1.51-1.73-.8-2.38.3-.27,1.17-.64,1.42-.15.36.68.29,1.52.28,2.33Z"/>
    <path class="cls-15" d="M15.03,21.76c-.03.47-.62,1.08-.43,1.64.7,1.76,1.54,3.35,1.95,5.08-.09.09-.17.21-.21.33l-2.24-5.42c-.27-.31-2.95.35-2.41,1.01-.11-.25-.41-.35-.4-.73s.23-.47.4-.73l1.62-.57c.52-.27.74-.56.66-.86.17-.12.45-.55.65-.3l.43.55Z"/>
    <path class="cls-1" d="M6.46,26.96c-.63.74-1.58.9-2.41,1.26-.04-1.64,1.07-2.34,2.5-2.84.13.33.31,1.11-.09,1.58Z"/>
    <path class="cls-41" d="M20.11,36.97l-1.48-3.27v-.2c-.23-.38-.1-.52.31-.28.87,1.28,1.91,2.43,2.64,3.92-.58.11-1.09.01-1.47-.17Z"/>
    <path class="cls-19" d="M33.31,9.17c-1.94,1.77-.95.94-1.68,3.58-.53-1,.44-3-1.04-4,.87-.17,1.99-.4,2.72.41Z"/>
    <path class="cls-45" d="M6.62,19.45c-.29.59-.75,1.13-1.38,1.35-.44-.34-1.06-.04-1.69.02-.09-1.42,2.23-2.01,2.58-1.86.18.08.34.26.5.48Z"/>
    <path class="cls-50" d="M14.23,20.27c.04.45-.37.36-.68.34-.2-.02-.57-.03-.72-.25-1.35-1.95-2.33-4.16-3.85-6.03.19-.17.3-.2.34-.17,1.47,1.75,2.66,3.72,3.73,5.89.2.41.93.21,1.18.22Z"/>
    <path class="cls-51" d="M34.9,18.23c-1.35.67-2.68.77-3.55-.32,1.61-.7,2.44-.99,3.55.32Z"/>
    <path class="cls-8" d="M13.95,21.51c.16.07.33.12.48.16-.19,1.7-3.09,1.86-2.76,1.27.51-.79,1.36-1.25,2.28-1.43Z"/>
    <path class="cls-37" d="M20.42,7.47c.2-.44.62-.83,1.12-.87l1.46-.21.24.02c.74-.04-.79,1.81-.91,1.85-.05.02-.16-.13-.28-.32-1.09.13-1.63-.03-1.63-.48Z"/>
    <path class="cls-32" d="M24.12,6.96c-.57-.07-.87.48-1.28.81-.45.36-.21.94-.11,1.46-.24.09-.3.35-.29.58-.3-.33-.36-.78-.33-1.41.76-.67-3.6.03-1.69-.93.26.51,1.15.36,1.76.23.47-.1,1.05-.65,1.06-1.29.38.03.85.08.88.53Z"/>
    <path class="cls-35" d="M36.75,11.1c-1.14.42-2.33.21-3.22-.6,1.13-.1,2.24-.53,3.22.6Z"/>
    <path class="cls-31" d="M34.98,30.79c-.25.39-.27.96-.77,1.2-.54-1.34-.36-2.57-.43-3.8,1.01.74-.61,3.1,1.19,2.6Z"/>
    <path class="cls-50" d="M8.72,13.87c.09.78-.89.72-1.46.92-.09-.25-.42-.33-.62-.4l2.08-.52Z"/>
    <path class="cls-18" d="M25.86,24.4c-.39-.46-.37-1.36.08-1.79.04.6-.02,1.19-.08,1.79Z"/>
    <path class="cls-32" d="M23,6.4c-.42.33-.96.17-1.46.21.29-.48.98-.3,1.46-.21Z"/>
    <path class="cls-4" d="M18.94,33.21l-.3.28c-.27-.11-.29-.28-.3-.48-.02-.27.04-.55.31-.32.18.15.18.37.28.52Z"/>
    <path class="cls-21" d="M48.54,31.71c-1.22-1.11-1.62-2.79-1.2-4.22l2.22-.36c.15-.94-.8-1.52-.85-2.43-.04-.78.8-1.06,1.31-1.08.58-.02,1.2.15,1.67.72,1.64,2.02,1.64,5.04,0,7.06-.79.98-2.14,1.24-3.16.31Z"/>
    <path class="cls-17" d="M65.92,29.74c-2.25-1.32-4.79-1.61-6.83-.26-.24.16-1.25.28-1.11-.13.96-2.8,4.23-4.05,6.78-3.06-1.1.48-2.2.27-2.98.97,1.72.37,3.78.29,4.14,2.48Z"/>
    <path class="cls-22" d="M58.62,41.52c-1.27,1.28-3.51,1.33-5.08.03,1.74.14,3.11.06,5.08-.03Z"/>
    <path class="cls-48" d="M38.49,35.48c-.31-1.15-.22-1.63.29-1.46l1.91,13.48c.37,2.64.91,5.13.59,7.85-.62-1.84-2.86-19.44-2.79-19.87Z"/>
    <path class="cls-49" d="M38.78,34.02c-.54.27-.21.98-.29,1.46-.17,1.04-.87-5.99-.41-5.57l.71,4.12Z"/>
    <path class="cls-11" d="M29.1,10.81c.23-.23.6-.11.61.02s-.27.34-.41.44c-.25.17-.59-.06-.2-.45Z"/>
    <g>
      <path class="cls-30" d="M62.7,10.21c-.2-.34-.49-.64-.8-.87-.49-.35-1.07-.58-1.66-.71-.99-.2-2.24-.38-2.97.4-.19.21-.3.51-.37.79-.1.39-.15.81-.2,1.21-.08.55-.27,3.53-.3,4.08-.01.68-.16,1.59.76,1.84.39.11.79.2,1.21.23.94.09,1.94.06,2.83-.25.45-.16.93-.39,1.21-.78.25-.37.36-.85.33-1.28-.02-.31-.13-.64-.31-.89-.21-.3-.51-.54-.83-.73,1.4-.31,1.76-1.95,1.12-3.04ZM60.2,14.76c-.31.22-.97.31-1.29.1-.34-.22-.07-.88.22-1.01.23-.09.79.1,1.01.21.13.06.27.2.27.34,0,.14-.11.28-.22.36ZM60.87,11.8c-.1.21-.34.34-.56.43-.36.13-1.25.33-1.32-.04,0-.17.05-.92.1-1.07.02-.07.04-.13.09-.17.06-.05.14-.08.21-.1.46-.09,1.01.07,1.34.41.12.13.22.37.15.54Z"/>
      <path class="cls-30" d="M53.96,12.13c-.51-.1-1.03-.14-1.54-.23-1.07-.19-.61-1.34.26-.8.3.19.59.39.9.55.36.18.8.21,1.18.06,1.17-.5,1.05-2.49.31-2.98-1.19-.78-2.78-.93-4.12-.35-.52.23-1,.66-1.36,1.16-.34.47-.56,1.11-.58,1.73-.05,1.97,1.71,1.95,2.85,2.03.83.06.76.92-.05.7-.16-.04-.92-.53-1.09-.58-.25-.08-.52-.15-.77-.09-.22.06-.42.22-.57.42-.12.17-.21.37-.28.58-.09.25-.15.52-.12.78.03.24.13.47.28.64.2.23.47.37.73.5.74.36,1.55.53,2.35.5.66-.02,1.35-.22,1.93-.57,1.48-.94,1.66-3.64-.31-4.05Z"/>
    </g>
  </g>
  <g>
    <path class="cls-29" d="M35.39,46.64c-.05-.24-.11-.49-.17-.73-.04-.15-.11-.29-.2-.42-.4-.52-1.17-.57-1.74-.33-.13.05-.31.14-.44.15-.11.01-.17-.06-.19-.15-.02-.1,0-.25,0-.37,0-.14,0-.28-.02-.41-.09-.64-.47-1.22-.96-1.64-1.14-.97-2.81-.85-4.19-.56-.68.14-1.31.34-1.96.6-.35.14-.69.3-1.02.49-.21.12-.41.25-.59.41-.27.24-.47.59-.39.96.06.3.24.56.39.82.12.21.23.42.31.65.05.14.1.28.15.43.07.22.32.65.04.8-.08.04-.18.06-.27.06-.18.02-.37.02-.55.07-.61.15-1.09.68-1.09,1.32,0,.26.09.51.16.76.12.37.2.74.57.94.34.19.76.17,1.12.05.18-.06.33-.15.5-.21.08-.03.16-.05.25-.05.38.03.33.64.38.92.03.25.06.49.06.74,0,.27-.05.53-.04.8.02.56.29.89.84,1,.65.14,1.35.11,2.01.07.66-.05,1.27-.14,1.89-.28,1.45-.34,3.13-.99,3.61-2.54.22-.71.28-1.53-.07-2.21-.18-.36-.2-.47.22-.55.55-.09,1.18-.36,1.37-.92.07-.21.05-.44,0-.66h0Z"/>
    <g>
      <path class="cls-53" d="M24.28,48.83c-.13.01-.25.04-.38.06-.26.03-.24-.27,0-.21.08.02.17.05.25.06.1.02.2,0,.28-.07.24-.2.06-.66-.14-.72-.34-.09-.72-.01-.99.22-.11.09-.19.23-.23.37-.05.14-.05.3,0,.45.13.47.54.33.82.27.2-.05.25.16.04.17-.04,0-.26-.06-.3-.06-.06,0-.13,0-.19.04-.05.03-.08.08-.1.14-.02.05-.02.1-.02.16,0,.06,0,.13.03.19.02.06.07.1.11.13.07.04.14.05.21.06.2.03.4,0,.59-.05.15-.05.3-.15.41-.28.28-.33.12-.97-.37-.93Z"/>
      <path class="cls-53" d="M25.47,49.71c.1.01.21-.02.28-.09.05-.05.08-.12.08-.19,0-.19-.12-.47-.19-.65.06.07.19.24.28.27.14.05.28.04.4-.09.06-.07.11-.3.14-.39.01.19.02.52.11.69.03.06.1.12.17.14.1.03.22,0,.31-.06.04-.03.08-.08.1-.13.03-.08.04-.17.05-.25,0-.13,0-.25-.03-.38-.03-.24-.1-.47-.19-.7-.04-.1-.07-.19-.13-.28-.05-.07-.11-.15-.19-.2-.05-.03-.1-.05-.15-.05-.04,0-.08,0-.11.03-.04.02-.08.06-.11.1-.06.09-.1.21-.12.32-.05.28-.1.82-.44.4-.07-.09-.14-.19-.21-.29-.08-.09-.17-.18-.28-.22-.07-.03-.13-.03-.2,0-.04.02-.08.06-.11.1-.04.07-.07.16-.08.24-.02.13,0,.27,0,.41.03.24.08.47.16.7.05.14.11.27.19.39.04.05.08.11.14.14.04.03.09.04.14.04Z"/>
      <path class="cls-53" d="M28.41,47.04c-.3-.19-.71.02-.85.32-.08.18-.11.38-.13.57-.02.17-.04.35-.03.53,0,.13.01.26.02.38.03.35.31.37.59.23.11-.06.14-.19.13-.34,0-.03,0-.05.02-.07.04-.06.23-.09.31-.09.13,0,.14.18.23.27.07.07.19.08.29.06.08-.01.16-.04.22-.09.03-.02.06-.06.08-.09.02-.03.02-.06.02-.1,0-.04-.05-.22-.07-.25-.06-.22-.15-.43-.25-.64-.13-.26-.31-.53-.57-.68ZM28.11,48.13c-.18-.04-.12-.29-.09-.44.05-.23.09-.26.19-.1.07.11.13.23.17.35.06.16-.16.22-.28.19Z"/>
      <path class="cls-53" d="M30.08,47.95s-.26-.06-.3-.06c-.06,0-.13,0-.19.04-.05.03-.08.08-.1.14-.02.05-.02.1-.02.16,0,.06,0,.13.03.19.02.06.07.1.11.13.07.04.14.05.21.06.2.03.4,0,.59-.05.15-.05.3-.15.41-.28.28-.33.12-.97-.37-.93-.13.01-.25.04-.38.06-.26.03-.24-.27,0-.21.08.02.17.05.25.06.1.02.2,0,.28-.07.24-.2.06-.66-.14-.72-.34-.09-.72-.01-.99.22-.11.09-.19.23-.23.37-.05.14-.05.3,0,.45.13.47.54.33.82.27.2-.05.25.16.04.17Z"/>
      <path class="cls-53" d="M32.96,46.91c-.04-.19-.07-.38-.1-.57-.01-.1-.03-.2-.07-.29-.02-.04-.05-.07-.09-.09-.04-.02-.09-.03-.14-.03-.06,0-.13,0-.19,0-.05,0-.1.04-.13.07-.04.04-.06.09-.07.13,0,0,0,0,0,0-.02.03-.01.15-.01.18,0,.2.04.4.08.59.06.28-.38.4-.45.11-.04-.19-.05-.25-.07-.44-.02-.1-.03-.2-.08-.29-.02-.03-.05-.07-.09-.08-.04-.02-.1-.03-.14-.03-.06,0-.13,0-.19.01-.05,0-.1.04-.14.07-.03.04-.06.09-.07.14,0,0,0,0,0,0-.02.03-.02.15-.01.18,0,.2.04.39.08.58.06.27.14.53.26.77.04.08.08.16.15.21.03.03.07.05.11.06.06.01.13,0,.2-.01.06-.02.13-.04.18-.08.03-.02.05-.05.07-.09.01-.05.01-.09,0-.14-.02-.1-.07-.24.07-.31.18-.1.3-.07.39.09.04.08.08.16.15.21.03.03.07.05.11.06.06.01.13,0,.2-.01.06-.02.13-.04.18-.08.03-.02.05-.05.06-.09.02-.05.01-.09,0-.14-.02-.11-.07-.23-.11-.34-.05-.13-.08-.27-.12-.41Z"/>
      <path class="cls-53" d="M34.73,46.65c-.07-.06-.16-.09-.25-.11.31-.18.27-.59.04-.8-.07-.07-.16-.11-.25-.15-.14-.05-.29-.06-.44-.04-.25.03-.55.07-.67.31-.03.06-.03.14-.03.21,0,.1.02.2.04.3.02.13.19.85.23.98.05.16.08.38.31.38.1,0,.2-.01.3-.04.23-.05.46-.13.65-.27.09-.07.19-.16.23-.27.03-.1.02-.22-.02-.32-.03-.07-.08-.14-.14-.19ZM34.27,46.99c-.06.07-.2.14-.29.12-.1-.03-.08-.2-.02-.25.05-.04.19-.03.25-.02.03,0,.08.03.09.06.01.03,0,.07-.03.1ZM34.21,46.25c0,.06-.06.1-.1.14-.08.06-.27.17-.31.09-.01-.04-.06-.22-.06-.26,0-.02,0-.03,0-.05.01-.02.03-.03.04-.04.1-.05.24-.06.34,0,.04.02.08.07.07.12Z"/>
      <path class="cls-53" d="M29.35,45.01c0-.06-.06-.11-.12-.11-.06,0-.11.06-.11.12,0,.06.06.11.12.11.06,0,.11-.06.11-.12Z"/>
      <path class="cls-53" d="M29.78,44.91c0-.06-.05-.11-.12-.1-.06,0-.11.05-.1.12,0,.06.05.11.12.1.06,0,.11-.05.1-.12Z"/>
      <path class="cls-53" d="M29.45,45.27c0,.07.07.13.14.13.07,0,.13-.07.13-.14,0-.07-.07-.13-.14-.13-.07,0-.13.07-.13.14Z"/>
      <path class="cls-53" d="M24.62,45.56c.13.28.21.59.31.88.21.61.51.87,1.17.76.11-.02.21-.04.32-.06.15-.03.25-.19.21-.34l-.16-.68c-.03-.12-.02-.25.01-.37,0,0,0-.01,0-.02.05-.23.17-.45.33-.61.22-.24.56-.38.89-.48.23-.07.46-.12.69-.17.36-.08.78-.14,1.13-.03.18.06.36.15.5.28.22.2.37.49.35.79,0,.16-.08.35-.14.47-.06.12-.11.22.04.21.21-.02.55-.12.78-.2.31-.11.59-.27.78-.54.65-.87-.01-2.06-.84-2.55h0c-1.09-.67-2.74-.41-3.93-.1-.92.22-2.43.85-2.88,1.31-.2.18-.23.34-.08.58.17.27.38.54.51.85Z"/>
      <path class="cls-53" d="M33.41,49.22c-.16-.45-.55-.77-1.03-.82-.21-.02-.42,0-.62.04-.22.04-.4.08-.6.14,0,0-.01,0-.02,0-.07.02-.18.06-.15.14.03.06.08.11.13.18.05.06.1.13.15.21.25.5-.03,1.11-.51,1.35-.31.16-.71.23-1.06.32-.18.04-.37.09-.55.13-.32.07-.66.13-.96.04-.29-.09-.53-.29-.65-.54,0,0,0-.01,0-.02-.03-.05-.05-.11-.06-.17-.02-.15-.05-.3-.08-.45-.03-.15-.18-.25-.33-.21-.03,0-.06.01-.08.02-.23.06-.46.13-.65.26-.14.1-.25.24-.31.4-.09.27-.04.57,0,.85.07.37.11.77.06,1.13-.02.19-.05.38-.07.53-.02.22.04.33.23.4.66.26,2.58.14,3.7-.12.11-.02.22-.05.34-.08.91-.23,1.82-.56,2.49-1.21.22-.22.38-.48.49-.77.19-.52.31-1.23.13-1.76h0Z"/>
    </g>
  </g>
</svg>