<?xml version="1.0" encoding="UTF-8"?>
<svg id="Layer_1" data-name="Layer 1" xmlns="http://www.w3.org/2000/svg" viewBox="0 0 76.24 109.52">
  <defs>
    <style>
      .cls-1 {
        fill: #fef5df;
      }

      .cls-2 {
        fill: #e0bba8;
      }

      .cls-3 {
        fill: #6d2d25;
      }

      .cls-4 {
        fill: #6c362d;
      }

      .cls-5 {
        fill: #ebc4ae;
      }

      .cls-6 {
        fill: #fef4df;
      }

      .cls-7 {
        fill: #712d25;
      }

      .cls-8 {
        fill: #672b24;
      }

      .cls-9 {
        fill: #fbeddc;
      }

      .cls-10 {
        fill: #f3d6c2;
      }

      .cls-11 {
        fill: #fdf1db;
      }

      .cls-12 {
        fill: #f3decb;
      }

      .cls-13 {
        fill: #efd0b8;
      }

      .cls-14 {
        fill: #f5e0cd;
      }

      .cls-15 {
        fill: #672c25;
      }

      .cls-16 {
        fill: #e1513d;
      }

      .cls-17 {
        fill: #f4dfcc;
      }

      .cls-18 {
        fill: #ad4e3f;
      }

      .cls-19 {
        fill: #fff6e0;
      }

      .cls-20 {
        fill: #f1d9c5;
      }

      .cls-21 {
        fill: #fceddb;
      }

      .cls-22 {
        fill: #6a2c24;
      }

      .cls-23 {
        fill: #fdf4de;
      }

      .cls-24 {
        fill: #7b5f56;
      }

      .cls-25 {
        fill: #6a2c23;
      }

      .cls-26 {
        fill: #fceede;
      }

      .cls-27 {
        fill: #e8c6a9;
      }

      .cls-28 {
        fill: #e6d0b4;
      }

      .cls-29 {
        fill: #fcebd6;
      }

      .cls-30 {
        fill: #6e2e25;
      }

      .cls-31 {
        fill: #fdf2e1;
      }

      .cls-32 {
        fill: #8c2622;
      }

      .cls-33 {
        fill: #fcf0dd;
      }

      .cls-34 {
        fill: #fae7d4;
      }

      .cls-35 {
        fill: #fdeedc;
      }

      .cls-36 {
        fill: #e44237;
      }

      .cls-37 {
        fill: #f7dfca;
      }

      .cls-38 {
        fill: #f4ddcb;
      }

      .cls-39 {
        fill: #6b2d24;
      }

      .cls-40 {
        fill: #6b4137;
      }

      .cls-41 {
        fill: #af5041;
      }

      .cls-42 {
        fill: #f5dac8;
      }

      .cls-43 {
        fill: #f6ddca;
      }

      .cls-44 {
        fill: #f4decd;
      }

      .cls-45 {
        fill: #a04034;
      }

      .cls-46 {
        fill: #e65648;
      }

      .cls-47 {
        fill: #f8e2ce;
      }

      .cls-48 {
        fill: #82221e;
      }

      .cls-49 {
        fill: #a24135;
      }

      .cls-50 {
        fill: #d4b79f;
      }

      .cls-51 {
        fill: #6e342d;
      }

      .cls-52 {
        fill: #d5bca2;
      }

      .cls-53 {
        fill: #702e26;
      }

      .cls-54 {
        fill: #f3deca;
      }

      .cls-55 {
        fill: #6b3028;
      }

      .cls-56 {
        fill: #f19583;
      }

      .cls-57 {
        fill: #742e25;
      }

      .cls-58 {
        fill: #fdf2e0;
      }

      .cls-59 {
        fill: #fdf2de;
      }

      .cls-60 {
        fill: #f2edd7;
      }

      .cls-61 {
        fill: #83241f;
      }

      .cls-62 {
        fill: #f8e7d4;
      }

      .cls-63 {
        fill: #632a23;
      }

      .cls-64 {
        fill: #873931;
      }

      .cls-65 {
        fill: #652b24;
      }

      .cls-66 {
        fill: #f1d3bf;
      }

      .cls-67 {
        fill: #fdebda;
      }

      .cls-68 {
        fill: #642f26;
      }

      .cls-69 {
        fill: #f7e3d1;
      }

      .cls-70 {
        fill: #e4cfb4;
      }

      .cls-71 {
        fill: #8d7269;
      }

      .cls-72 {
        fill: #6b2c23;
      }

      .cls-73 {
        fill: #6b2c24;
      }

      .cls-74 {
        fill: #f8e3d0;
      }

      .cls-75 {
        fill: #e6d0b5;
      }

      .cls-76 {
        fill: #fdebd7;
      }

      .cls-77 {
        fill: #fdf1e4;
      }

      .cls-78 {
        fill: #fdf4df;
      }

      .cls-79 {
        fill: #904e44;
      }

      .cls-80 {
        fill: #652d24;
      }

      .cls-81 {
        fill: #fbe9d6;
      }

      .cls-82 {
        fill: #682c25;
      }

      .cls-83 {
        fill: #f5dac6;
      }
    </style>
  </defs>
  <path class="cls-1" d="M40.34,108.72c-1.55.88-3.29.86-4.89.13-1.69.78-3.64.74-5.2-.29-1.81,1.03-3.89,1.27-5.85.44-1.52.51-3.01.52-4.45-.06-1.39.55-2.97.72-4.34.08s-1.75-2.19-1.21-3.45l3.21-7.42c.47-1.09,1.11-1.98,2.43-2.26-.49-1.17.37-1.89.61-2.77.27-1.01-.3-2.22.2-3.36-1.5-.06-2.68.14-3.96-.36s-1.86-1.9-1.59-3.24l1.53-7.76c.19-.98,1.07-1.46,1.95-2.03l-2.88-.16-10.27-.58c-2.94-.17-5.21-2.07-5.51-5.05-.15-1.5-.36-4.87.49-6.14l7.13-10.55c1.24-1.84,2.31-3.63,3.71-5.32v-5.23c0-1.28.34-2.52,1.19-3.48.61-.69,1.8-.81,2.49-1.31.06-1.12.71-2.18.74-3.27l.1-3.73c.09-3.28,4.62-5.76,7.78-6.14l-.18-4.78c-1.26-1.61-1.13-3.84.29-5.28.54-8.26,3.74-11.81,11.73-13.63,1.91-2.08,5.04-2.35,7.14-.43,6.19.39,11.44,2.71,13.06,9.3l3.14-.81c1.66-.43,3.24.38,3.94,1.81s.37,3.28-.95,4.38-2.96,1.59-4.73,1.95l.3,8.01,3.2,1.4c3.23,1.42,4.88,4.74,4.16,8.23-.4,1.94.68,1.58.63,4-.07,3.89.63,1.5,2.08,4.26.73,1.38.42,2.85.77,4.28.24.98.98,1.86,1.33,2.9l6.31,18.34c.49,1.41-.04,2.95.08,4.36.14,1.67-.47,3.2-1.51,4.24-1.25,1.26-2.75,1.56-4.55,1.45l-5.13-.31-3.97-.24c-.03,1.33-.47,2.4-1.23,3.42-.77,2.63.65,2.85-.26,5.38-.55,1.52-1.95,2.32-3.63,2.15l-1.08,6c.63.32,1.26.25,1.92.06,1.48-.43,3.15-.05,4.05,1.24,1.11,1.58-.97,5.29-1.05,7.96-.05,1.51-.27,2.74-1.38,3.66s-2.48.75-3.96.65c-1.27-.08-2.64-.14-3.9-.14-1.54,0-3.03.39-4.46-.47-1.86,1.01-3.83,1.04-5.63-.03Z"/>
  <path class="cls-7" d="M22.35,34.29c.13-.64.89-.41,1.4-.26.91.28,1.91,1.04,2.11,1.97,1.62.3,2.8,1.54,3.57,2.92,1.49-.39,2.98-.62,4.2.64.32.33,1.27,1.79.69,2.05.71.37.71.98.55,1.69l.51.29c.24,1.1.59,2.17,1.04,3.2.61.03.98.22,1.09.56l.26-.39,6.17.36,1.34-3.81.48-.38c-.29-1.31,2.56-2.74,3.21-1.45.14-.3.46-.38.96-.25.12-.49.39-.85.83-1.06l-.12-.45c.37-.51,1.59-1.85,2.15-1.59.41-.41.84-.78,1.27-1.1.22-1.02,1.1-1.77,2.06-2.09.51-.17,1.39-.43,1.52.23.48.47.1.66-.47.73-.08.35-.4.6-.95.77.76-.02,1.56.44.91,1.09-1.78.22-3.32.92-4.55,2.24-1.5,1.61-1.19,1.76.76,1.37,1.27,1.49.71,3.77-.58,5.09,1.05.87,2.2.38,3.46-1.48.83-.17.87.48.64,1.16-1.67,1.92,1.04,1.81,2.11.76.89-1.76,2.35-1.37,1.22.55,2.77-.4,2.52-4.71,1.49-6.86-.63-.91-1.33-2.25.25-1.84-.23-.33-.25-.62-.04-.86-.53-.72-.5-1.04.07-.94,1.33.68,1.39,2.2,1.19,3.58-.13.89.74,1.91.43,2.87l.88.31c.35.43.33.68-.04.75-.59.32-.88,1-.86,2.03.46.18.78.47.95.89-.08,1.9-.22,3.8-.42,5.7.45.22,1.07.7.95,1.11.68.51.07.77-.64.71-1.51-.66-2.95-1.45-4.32-2.38-3.34-1.03-6.78-1.62-10.32-1.77-.04.79-.14,1.56-.3,2.32l-.46.07c-.48.64-.81-.02-1-.59l.66-9.18c-.21-.87-1.05-1.13-1.51-.26-.93,2.72-1.87,5.42-2.85,8.11l-.58.05c-.43-.21-.91-.3-1.43-.24.17.52,0,.56-.35.16.03.4.03.79,0,1.17.12.36.13.75.06,1.17.88.85,1.97,1.43,3.27,1.76l.28.52,1.11-.06c2.48.69,4.97,1.27,7.49,1.75l.47.33.8-.3,3,.36c1.13-.06,2.13.12,3,.54.28.17.65.27,1.13.29l.1.28c.39-.01.38.15-.02.24-.61.27-1.32.45-2.12.53-5.06-.38-10.05-1.3-14.96-2.75-.26-.65-1.08-.75-1.44-.26.05.32-.62,1.14-.98.82-.38,1.7-.5,4.19,1.62,4.69.72.73,1.66,1.09,2.81,1.07l2.25.7c1.59.36,5.73.12,7.45-.11,1.86-.24,4.16-.95,5.7-2.01.6-.42.95-2.22.33-2.64l.15-.25c-.09-.18-.06-.35.13-.4.83-.22,2.01-.5,2.79-.21-.2.07-.1.16.13.19.09-.03.18-.05.27-.05.44.02,2.48,7.41,2.73,8.36l-.27.33.02.79c.7,1.25.08,1.79-1.84,1.62-1.36-.23-2.67-.21-3.95.04l-.21.39-56.69-3.01c-1.34-.5-1.76-1.6-1.3-2.89l6.35-9.61c.13-.43.21-.87.25-1.34-.38-.54.25-1.4.89-1.2.27-.28.39-.17.24.19.56.16.56.58,0,.74.22.32.38.73.48,1.24.38.3,1.83.49,2.37.54,6.43.53,15.11-.5,21-3.1.68-.3,1.19-1.32.28-1.52-.63.1-.75-.26-.2-.57-.27-.22-.11-.52.47-.9l.06-.26c-.31.13-.62.08-.93-.14-.39.35-.83.7-1.24.19l-1.93-6.31c-1.75-4.56-2.62-1.02-2.09,1.48l-.37.35c-.2.22-.48,0-.82-.66l-.8,1.99c-1,.96-2.28,1.26-3.83.91-.34.09-.54.25-.58.49-.01.28-.22.45-.62.51-.32.65-1.51,1.05-1.79.31-.74,0-1.46-.02-2.15-.05l-.03-.29c-.2-.41-.92-.19-1.45,0,.29.34.59.49.92.46l.28.33c.52,0,.58.19.35.62.04.13.09.32,0,.39-.38.3-1.89,1.23-2.07.69-.45-.05-.45-.06-.24-.46-.3-.45-.69-1.76-.07-2.04.15-.1.17-.19.01-.24-.1.01-.19.02-.28,0-.12-.03-1.1-1.89-.96-2.13.2-.29.1-.53-.3-.74-.34-.6-.52-1.35-.52-2.27-.82.25-1.15.94-.98,2.08-.14.15-.31.17-.51.09l-.27-.09c-.03-.51-.14-.89-.34-1.15.19-1.23.94-2.21,2.59-2.05l1.07-2.29c.35-.74.23-2.3,1.13-2.86l.14-.55,1.73-.82c.81-.43,1.45-.45,1.91-.06Z"/>
  <path class="cls-36" d="M61.95,36.95l-.49.13c-.16-.04-2.85-1.25-2.95-1.37-.12-.15-.1-.37-.06-.57-.16-.08-.33-.21-.31-.37,1.02-2.09-.89-3.07-2.66-3.44-.18,1.61-.38,3.36-1.02,4.87-.41.96-.77,1.54-1.67,2.14.03-.02-2.01,2.02-2.04,2.04l-.42.53-1.37.78c-1.81-.34-2.22.34-3.21,1.45-.35.18-.64-.09-.87-.78-1.85.3-3.74.39-5.62.31l-1.29,4.52-.47.17c-.38-.02-1.18.02-1.45-.35-.61-1.19-.8-2.5-1.19-3.7.11-.77.03-1.13-.55-1.69-.15-.47-.54-1.04-.81-1.5-1.16-2.06-3.35-.38-4.08-1.19-2.04-2.32-2.68-5.31-3.05-8.37l-.11.17c-2.12.05-4.59.66-3.62,3.21l-.29.34c-1.32.14-2.66.73-3.78,1.43-.89-3.25-.46-5.7,2.82-7.26,1.54-.74,3.07-.9,4.94-1l-.52-7.65c-.03-.5-.89-.78-.82-1.31.26-1.92,1.13-1.51,1.16-2.29.09-1.96.37-3.84.97-5.69.66-2.06,2.06-3.52,3.84-4.67s3.97-1.36,6.01-2.08c.64-.43,1.2-1.33,1.98-1.5,1.37-.29,1.76.85,2.68,1.11,2.16.63,4.52.4,6.65,1.43,4.24,2.05,4.72,4.07,5.93,8.57,1.72-.28,3.28-.79,4.9-1.27.76-.22,1.56-.01,1.79.68.79,2.28-4.42,2.96-6.18,3.34.47,3.88.62,7.72.49,11.69,2.69.49,6.42,1.8,7.29,4.59.49,1.57.2,3.21-.56,4.54Z"/>
  <path class="cls-68" d="M14.39,44.15l.41.22.26,6.08.26-.11-.23-5.53c.19-.61.93-1.36,1.3-.55.23.03.3-.24.44-.2.22.06.31.32.34.48.06.31-.17.62-.48.47-.18.2-.29.39-.35.57l.23,4.05c.57-.49,1.04-.56,1.41-.21.16.1.28.27.24.46.06.15.14.37.05.46-.52.51-3.07,2.03-3.7,1.62-.25-.16-.35-.27-.23-.56-.12-.15-.37-.11-.75.1-.28.33-.58.58-.89.76-.34.37-.63.82-.89,1.2l-.12.9-7.86,11.82c-.33.67.09.98.68,1.27l66.8,3.61c.51-.1,1.19-.39,1.2-.96l-4.7-13.65c1.07,3.77,2.21,7.54,3.42,11.29l-.31.35v.62c.97.53-.89,2.38-1.44,1.43-.61.09-1.22.09-1.83.02-.09.66-1.48.53-1.59-.07-.75-.06-1.49-.12-2.23-.19-.04.54-.23.52-.4.02.33-.82,4.77.02,5.78-.53-.23-.69-.41-1.42-.01-1.91.43.06.64.4.64,1.05l.21.18c.13-.26.21-.59.02-.84l-.27.02c-1.04-2.95-2.02-5.95-2.93-8.99l-.39-.05c-.02.22-.12.29-.28.18-.77-.5-2.04-.11-2.76.24.03.37-.61.21-.8-.02l-.96-.09c-.27-.03-.29-.32-.27-.48.27-.63,1.99-.78,2.23-.08l1.01-.17c-.11-.43.23-.63,1.04-.63.43-.15.57-.51.57-.95-3.46.61-6.98.63-10.54.06l-.55-.44-1.23.24c-1.52-.1-6.43-1.02-7.51-1.72-.18-.12-.35-.26-.51-.41-.47.21-1.43.2-1.41-.55-.18-.19-.36-.31-.62-.38-.4.68-2.29-.35-1.97-1.06-.2-.18-.44-.37-.41-.69.02-.22.2-.38.41-.48l1.31.94,3.64,1.43c2.45.5,4.9,1.05,7.34,1.65l.44-.35c1.37.31,2.75.5,4.14.57l.41.37h.6c1.34.15,2.68.16,4.02.02l.08-.17c.89-.04,1.69-.3,2.4-.8-.56-.51-1.17-.99-1.81-1.42.17-2.62.21-5.24.12-7.85-.28-.42-.35-.79-.21-1.11.13-.24-.38-.68.04-.75,2.26.79,1.09,4.17,1.57,5.13.39.78,1.04,1.29,1.37,2.25l6.4,18.58c.46,1.34-.15,2.83-.06,4.22.1,1.61-1.14,3.13-2.89,3.03l-65.33-3.82c-3.78-.22-3.34-4.79-2.96-7.37,2.68-4.84,7.03-10.08,9.61-14.75.4-.73,1.54-1.21,1.55-2.24.01-2.08-.23-4.09.07-6.05.08.01.42-.07.48.11.13.39.12.79.13,1.14Z"/>
  <path class="cls-57" d="M49.47,106.8c-.12.51-1.45.27-1.93.03l1.59-8.41c.36-.35,1.62-.5,1.93-.09l1.33,4.04c.53-1.29.32-2.78.97-3.99.28-.52,1.47-.33,1.94-.06l-1.74,8.37c-.16.44-1.53.52-1.82.16l-1.37-3.95-.9,3.9Z"/>
  <path class="cls-25" d="M46.01,83.83c.28,1.48-.75,2.86-2.14,3.29-1.43.44-2.91.4-4.42.06l1.54-8.42c1.51-.44,5.59-.89,5.53,1.78-.02.95-.62,1.57-1.3,2.18.21.4.68.6.78,1.11Z"/>
  <path class="cls-72" d="M33.36,93.05c-.41.74-.73,1.6-1.28,2.43-.21.32-1.1.35-1.3,0-.4-.71-.26-1.54-.55-2.26l-.84,3.38c-.21.39-1.47.3-1.69-.09l1.49-7.48c.78-.27,1.46-.25,2.16-.03l.56,3.8c.71-1.17,1.03-2.55,1.92-3.66.42-.52,1.43-.3,2.12-.13l-1.32,7.55c-.26.39-1.53.44-1.75.04l.48-3.54Z"/>
  <path class="cls-22" d="M26.47,87.19c-2.12-1.03-1.59-5.27.05-7.32.79-.98,1.87-1.55,3.1-1.52,1.36.03,2.35.89,2.6,2.24.35,1.91-.17,3.86-1.34,5.43-1.01,1.35-2.78,1.96-4.41,1.17Z"/>
  <path class="cls-79" d="M21.9,86.96c-1.33.63-2.83.5-4.29.23l1.52-8.42c1.59-.44,3.32-.54,4.61.42,1.86,1.4,1.24,6.3-1.83,7.76Z"/>
  <path class="cls-8" d="M42.25,107.03c-2.64-.72-2.12-5.08-.48-7.32.7-.96,1.75-1.59,2.94-1.69,1.46-.12,2.6.79,2.84,2.24.27,1.71-.09,3.53-1.03,4.99-.92,1.44-2.5,2.26-4.27,1.78Z"/>
  <path class="cls-63" d="M39.91,78.57c-.27,2.21-.67,4.3-1.21,6.42-.41,1.6-1.83,2.55-3.43,2.57-.82,0-1.56-.21-2.02-.71-.53-.58-.78-1.44-.64-2.3.32-1.94.72-3.79,1.21-5.72.33-.49,1.61-.41,2.12-.13l-1.07,5.67c-.09.48.04,1.02.53,1.15.36.09,1.01-.17,1.13-.7l1.34-5.96c.2-.51,1.25-.43,2.05-.29Z"/>
  <path class="cls-73" d="M21.2,105.3c-.61-.12-1.4-.26-1.87.12-.41.33-.28,1.18-.74,1.47-.57.36-1.39.21-2.18-.03l3.73-8.49c.86-.34,1.84-.32,2.79-.07l.48,8.55c-.66.28-1.48.42-2.07.05-.29-.33-.04-.93-.15-1.59Z"/>
  <path class="cls-64" d="M55.06,83.78c-.53.19-.51,1.09-.46,1.56.9.22,1.92-.26,2.71.12.29.33.04,1.65-.43,1.76-.81.19-4.32.28-4.64-.06-.09-.09-.19-.37-.15-.6l1.42-7.26c.07-.33.31-.72.69-.74,1.49-.04,2.86-.14,4.37-.03.07.55.08,1.47-.41,1.73-.77.41-1.73-.08-2.53.23-.44.17-.34.99-.39,1.39.61.17,1.33-.17,1.94.13.4.2.16,1.38-.23,1.6-.56.32-1.22-.08-1.89.17Z"/>
  <path class="cls-3" d="M27.01,105.14c.82.35,1.29-.99,1.6-1.14.38-.19,1.42.24,1.54.68-.17,1.57-1.8,2.58-3.33,2.5-1.32-.07-2.35-.83-2.56-2.15-.33-2.1.31-4.23,1.73-5.81.93-1.03,2.33-1.47,3.67-.96.79.3,1.52,1.48,1.22,2.31-.32.33-1.29.66-1.72.5-.31-.12-.25-.81-.55-.89-1.74-.48-3.02,4.37-1.6,4.97Z"/>
  <path class="cls-82" d="M52.05,96.52c-.12.45-1.45.41-1.67.08-.19-.86.28-1.86.37-2.83-.3-.1-1.11-.25-1.33.1-.5.82-.19,1.96-.74,2.7-.32.43-1.26.28-1.76.04.48-2.53.8-4.94,1.51-7.43.15-.54,1.44-.32,1.8-.17l-.48,2.89c.29.07.99.16,1.29-.08l.79-2.76c.14-.48,1.24-.25,1.73-.04-.47,2.53-.8,4.9-1.5,7.51Z"/>
  <path class="cls-65" d="M39.01,95.35c-.29-.35-1.25-.24-1.54,0-.38.32-.22,1-.6,1.27-.5.36-1.24.26-1.89-.08l3.18-7.37c.49-.56,1.8-.39,2.46-.16l.48,7.59c-.6.22-1.31.33-1.86.03-.37-.2.1-.92-.22-1.3Z"/>
  <path class="cls-15" d="M46.26,95.69c-.95,1.3-2.74,1.59-4.07.82-.56-.33-.94-1.21-.52-1.73.26-.32,1.17-.7,1.41-.41.25.3.35.72.63.77.36.06.68.01.87-.18,1.02-1.05-1.47-1.33-2.09-2.54-.44-.86-.2-1.84.35-2.54s1.29-1.06,2.29-1.14c1.16-.09,2.28.85,2.08,2.01-.18.38-1.17.68-1.52.49-.24-.15-.26-.64-.49-.67-.36-.05-.66.02-.8.22-.23.32-.19.74.15,1,.32.24.63.43.99.62,1.17.63,1.6,2.09.73,3.29Z"/>
  <path class="cls-80" d="M26.06,96.54c-1.02.49-2.11.52-3-.02-.52-.31-.98-1.07-.62-1.65.29-.46,1.01-.53,1.46-.65.13.7.44.95.99.94.37,0,.97-.56.56-.99-.62-.66-1.68-.83-2.17-1.65-.48-.81-.3-1.76.18-2.51.91-1.39,3.06-1.66,3.93-.76.31.32.83,1.07.46,1.56-.26.34-1.13.59-1.44.4-.23-.18-.24-.72-.56-.73-.34,0-.64.12-.75.31-.64,1.1,1.33,1.31,1.99,2.28.8,1.18.3,2.82-1.04,3.46Z"/>
  <path class="cls-65" d="M34.05,106.72c-.13.6-1.49.35-1.97.1l1.13-6.57c-.56-.15-1.36.19-1.75-.27-.31-.36.08-1.66.56-1.73l5.54-.12c.19.59.14,1.49-.34,1.87-.45.35-1.18.02-1.75.16l-1.42,6.57Z"/>
  <path class="cls-65" d="M51.38,85.38c.49.13.26,1.7-.28,1.82-.97.22-3.66.3-4.52.03-.21-.07-.3-.35-.24-.66l1.59-7.82c.55-.37,1.52-.38,2.11-.08l-1.2,6.59c.76.26,1.49-.16,2.53.12Z"/>
  <path class="cls-39" d="M38.86,106.78c-.31.49-1.52.3-2.04.04l1.65-8.38c.42-.43,1.67-.53,2.11-.04l-1.72,8.38Z"/>
  <path class="cls-55" d="M57.26,103.93c-.17.5-1.25.27-1.61.05.27-1.88.39-3.73.95-5.59.37-.51,1.57-.36,2.18-.13-.44,1.92-.87,3.69-1.52,5.67Z"/>
  <path class="cls-51" d="M57.24,106.22c-.23.57-.6.88-1.06.96-.41.07-.97,0-1.25-.44-.25-.41-.11-.91.09-1.27.22-.4.63-.69,1.18-.72.38-.02.68.12.87.33.24.28.35.67.16,1.14Z"/>
  <path class="cls-61" d="M61.95,36.95v.24c-.22.27-.11.62-.08.94-.48.02-.96-.21-1.42-.68l-1.91-.75c-.65,0-1.1-.19-1.37-.59l.47-.73c.16-.48.41-.54.8-.24.71.75,2.06.66,3.5,1.81Z"/>
  <path class="cls-38" d="M63.43,69.9l.4-.02c.73.07,1.48.14,2.23.19.53,0,1.06.14,1.59.07.61.08,1.21.07,1.83-.02.81-.13,1.35-.59,1.43-1.43v-.62s-3.43-11.09-3.43-11.09c-.21-.67.14-1.42.28-1.97l5.12,14.88c.31.89-1.02,1.62-1.87,1.57l-29.54-1.63-36.91-1.99c-.5-.03-.89-.49-1.09-.7-.26-.27-.21-.85.04-1.23l8.3-12.47c.43.46.38,1.13,0,1.7l-6.1,9.15c-.32.48-.37,1.26-.14,1.74.18.36.62.88,1.32.91l56.52,2.96Z"/>
  <path class="cls-36" d="M57.17,36.11c1.85.11,3.52.68,4.69,2.01.44.5.64,1.16.52,1.81-.42-.27-.65-.88-1.23-.66,1.81,2.38,2.23,5.33.79,7.77-.52.88-1.5,1.39-2.44.98.29-.7.9-1.13.62-1.84-.58.74-1,1.62-1.69,1.82-.87.26-2.37.43-2.59-.43-.05-.7,1.04-1.37.66-2.2-.88,1.03-2.12,3.07-3.92,1.77-.22-.16-.31-.44-.28-.59,0-.02,2.25-1.92.89-4.67-.53.26-1.68.58-2.12-.18,1.12-2.35,3.59-4.01,6.11-4.07-.54-.56-1.13-.2-1.84-.31.37-.78,1.09-1.1,1.83-1.21Z"/>
  <path class="cls-36" d="M23.24,42.72c-.01,1.11.69,1.84,1.37,2.76-.7.6-1.98,1.05-2.95.56s-1.29-1.54-2.01-2.24c-.15.85.33,1.52.95,2.28-1.24.43-2.28-.24-2.83-1.38-1.21-2.51-.61-5.29,1.89-6.97-.49-.46-.82.05-1.32.21.03-2.15,5.15-4,6.28-1.89-.45.16-.74.12-.96.36,1.86.44,3.58,1.15,4.82,2.76-.64.52-1.45.51-2.13.05-.62,1.35-.44,2.99.48,4.1.39.47,1.36,0,1.69.28.3.61-.3,1.32-.68,1.55-.55.32-1.29.25-1.9.05-1.22-.4-1.78-1.53-2.69-2.46Z"/>
  <path class="cls-18" d="M35.71,56.04c.76.43.24,1.36-.22,1.89-.79.9-3.52,2.06-4.67,1.39-.52.62-1.29,1-2.1,1.01-2.73-.41-5.46-.67-8.21-.79-.98-.54-1.98-1-3.02-1.37-.41-.61-.85-1.2-1.5-1.58.14-.28.43-.41.75-.4,6.1.22,9.89-.3,15.72-1.52.85-.18,1.41-.02,2.16.37.49.25,1.11.34,1.09,1Z"/>
  <path class="cls-49" d="M36.64,56.61c.57,1.26.79,3.13-.43,4.16-.99.84-2.39,1.39-3.64,1.73-.62.17-1.28-.13-1.9.19-1.45.76-5.38.16-6.02.19-1.53.06-2.61-.12-3.99-.71-.62-.26-1.45-.02-2.21-.51l-2.64-1.71c-.97-.63-.52-2.58.19-3.37.59.32,1.07.81,1.43,1.46,1.04.56,2.13,1.07,3.26,1.52,2.82.07,5.61.37,8.38.89.47-.08.95-.3,1.43-.67,1.09.19,2.14-.08,3.17-.81,1.34-.11,2.01-1.07,2.52-2.25l.45-.12Z"/>
  <path class="cls-75" d="M30.79,50.39c.11.48-.28.76-1.16.82l.04.31c-.71.29-1.39.53-2.05.71.16.59-.7.78-.8.16-.37-.22-.95-.15-1.24.16-.12.11-.25.22-.39.3-.65.36-3.58.45-4.56.47-.32,0-.6-.12-.85-.33-1.78-.06-3.54-.24-5.29-.54-.77-.34-1-1-.12-1.07-.04,1.24,3.55-1.27,3.88-1.51-.32.23,2.11-1.27,2.07-1.08l.87-.51c3.03-.54,6.07-.88,9.13-1l.38.57c.1.89.14,1.74.1,2.55Z"/>
  <path class="cls-28" d="M65.02,54.42c.91-.38,1.75.91.26,1.21-2,.3-4.02.43-6.08.39-1.64.19-3.4-.42-5-.59-1.65-.28-3.27-.72-4.85-1.3l-.21-.53c-.32.23-.4.1-.17-.22.35-.8.21-1.55.36-2.81,3.58.31,7.32.56,10.78,1.78.72.25,5.12,3.51,4.91,2.08Z"/>
  <path class="cls-45" d="M62.04,61.11c.57-.16,1.22-.84,1.12-1.45-.27.21-.42.23-.35-.12-.1.1-.17.07-.2-.08l.02-.24.8.02c.5.73.57,1.5.42,2.27-.2,1.06-1.11,1.04-1.8,1.56-1.14.85-2.36.85-3.5,1.2-1.48.46-2.45.29-4,.38l-3.28.19c-1.24.07-2.39-.51-3.62-.85-1.02-.28-2.07,0-2.93-1-.32-.38-1.15-.4-1.5-.89-.92-1.28-.98-3.08-.12-4.31.26.35.49.79.69,1.3,1.08,1.38,4.71,2.06,6.4,2.37l.43.44c2.66-.44,5.43-.29,8.11.07l2.88-1.05.41.18Z"/>
  <path class="cls-41" d="M62.61,59.46s.15.09.2.08c-.19.64-.76.94-1.71.9-.05,1.02-2.24,1.38-3.1,1.44-2.16-.29-4.34-.29-6.52-.08-.27-.36-.56-.45-.85-.25-2.23-.09-6.61-1.2-7.18-3.71.65-.45.86-.74.64-.86-.04-.16.05-.35.17-.33.1.02.37-.17.51-.12,2.85,1.08,5.7,1.72,8.72,2.17,1.23.18,2.46.46,3.7.48,1.38.03,2.6.27,3.89.49.39.07,1.28-.42,1.54-.22Z"/>
  <path class="cls-62" d="M12.94,53.18c.21-.14.44-.24.7-.21,3.35.38,5.76.49,9.12.22,5.11-.41,9.02-1.02,13.77-2.92.19-.07.36-.05.53.07.22-.15.48-.23.73-.36.4,1.11,0,1.85-.92,2.29-2.48,1.17-5.09,1.89-7.85,2.34-3.43.56-12.93,1.54-15.73.2-.53-.25-.54-1.21-.35-1.62Z"/>
  <path class="cls-78" d="M45.75,43.14c-.23,1.56-.94,3-1.41,4.62l-6.83-.4,1.47-5.14c2.09.18,4.05,0,6.14-.28l.64,1.2Z"/>
  <path class="cls-17" d="M48.97,53.38l.17.22c.4.21.35.5-.09.65-.94.32-6.08-1.86-6.85-2.65-.11-.12-.08-.24.06-.35.86-.8,1.08-.24,1.82-.05.95-2.7,1.58-5.46,2.68-8.03.26-.6.9-.88,1.4-.72.37.12.91.71.87,1.25l-.66,8.88c-.03.46.25.72.6.79Z"/>
  <path class="cls-17" d="M37.4,48.6c0,.13,0,.24-.06.31-.78.9-6.58,3.08-7.52,2.59-.09-.05-.15-.16-.19-.28.4-.32.84-.44,1.16-.82-.18-.16-.17-.4.03-.71l-.36-5.18.37-.32c-.09-1.21-.55-4.26.75-4.38.43-.04.99.11,1.26.55,1.2,2.01,1.88,5.89,2.77,8.28.46-.3.63-.68,1.01-.53.32.13.61.22.78.5Z"/>
  <path class="cls-23" d="M29.42,38.92c-1.05-1.15-2.16-2.16-3.81-2.64-.46-1.34-1.87-2.15-3.26-2-.48-1.06-.51-2.51.65-3.19,1.06-.62,2.35-.75,3.62-.78.46,2.15.87,4.17,1.61,6.21.33.9,1.03,1.54,1.21,2.4Z"/>
  <path class="cls-44" d="M64.64,58.41l-1.01.17c-.74-.09-1.5.07-2.23.08-2.29.04-4.55-.31-6.8-.6-1.43-.39-.81-1.84.57-1.6,3.75.24,7.55,1.02,11.43-.16.13.58.07,1.26-.4,1.66s-1.14.19-1.55.45Z"/>
  <path class="cls-68" d="M36.87,49.76c.02.2.05.42.2.57-4.01,2.7-14.27,3.36-19.3,3.45-1.72.03-3.3-.2-4.83-.6v-.74s.79-.24.79-.24c1.94.53,3.95.8,6.04.81,1.94-.02,3.87-.3,5.8-.44.25-.32.89-.38,1.24-.16.32.11.54-.14.8-.16.66-.22,1.34-.43,2.02-.63,2.34-.28,4.59-.92,6.75-1.93l.49.09Z"/>
  <path class="cls-46" d="M62.81,59.54c.11-.03.26.13.35.12.1.6-.54,1.31-1.12,1.45-.27.39-2.87,1.26-3.25,1.27-1.31.05-2.64-.6-3.94-.39-.96.15-1.76.02-2.68,0-.67-.02-1.66.89-2.2-.22-.92-.36-1.98-.38-2.97-.66-.59-.17-1.11-.57-1.78-.6-1.09-.05-2.59-1.86-2.1-2.7.23-.33.63-.59.98-.82.3-.19.81-.17,1.25-.11-.51.34-1,.44-1.56,1.01.49.79,1.19,1.9,2.19,2.06.69.12.99.44,1.54.71.85.42,2.16.36,3.09.49.17.02.52-.43.74-.23.09.08.1.24.16.46.61.31,1.24-.15,1.9-.12.23.01,4.98.15,4.62.22.63-.11,1.22-.37,1.92-.38.25,0,.47-.25.67-.35.16-.08-.02-.47.09-.63.7-.24,1.64-.05,2.12-.59Z"/>
  <path class="cls-6" d="M58.44,35.14c-.21.21-.51.27-.8.24-1.42-.15-2.88.61-3.28,2.1l-1.56.86c1.57-1.85,2.17-5.01,2.31-7.5,1.39.24,2.79.73,3.51,1.85.49.78.05,1.72-.17,2.45Z"/>
  <path class="cls-46" d="M36.64,56.61c-.07.58-1.36,2.67-2.18,2.59-1.11-.12-1.66.81-2.52,1.07-.61.18-1.35-.52-2,.34-.28.36-1.27.28-1.72.13-.87-.31-1.71-.2-2.51-.42-.97-.28-4.18-.27-5.35-.47-.93-.16-1.75-1.02-2.74-1.28-.8-.21-1.16-1.46-1.62-1.98,1.5.06,1.64,1.47,2.01,1.66.28.15.63-.06.95.03.84.22,1.54,1.1,2.43,1.18-.22-.02,3.46-.17,3.77-.02.74.36,1.55.04,2.22.25,1.21.39,2.22.36,3.16-.64.54-.57.57.92,3.53-.6,1.06-.54,1.76-1.2,1.64-2.41.32.16.8.29.92.56Z"/>
  <path class="cls-69" d="M64.41,44.69c.63.59.76,1.45.73,2.37l-.24,6.74c.77.27,1.58.64,1.99,1.4-.92.81-2.08.61-3.05.84-1.34.14-2.69.13-4.02-.03h-.6c2.58-.29,5.79.05,6.61-1.05-.2-.3-.6-.32-.8-.54-.34-.37-.81-.56-1.38-.85l.48-5.6c.06-.7-.72-.75-1.03-1.04l.39-2.33c.39-.11.64,0,.92.09Z"/>
  <path class="cls-33" d="M45.92,54.56c3.05.79,6.12,1.5,9.24,1.89-.37-.02-.83.31-.9.59-.1.4-.06.82.33,1.01-3.07-.4-6.13-1-9.07-2.02-.93-.38-.66-1.88.4-1.47Z"/>
  <path class="cls-68" d="M30.83,44.18l.39,5.4c.03.47-.24.59-.43.82-.61.63-.21-2.23-.62-2.8-3.36.14-6.64.82-9.86,1.2-.24-.11-.3-.38-.35-.62l.14-.48,2.28.02c.3-.05,1.01.16,1.19-.17.35-.63.63-.63,1.22-.65l.66-.41c1.47.09,2.9.01,4.31-.23-.09-.87-.1-1.74-.02-2.6l.25-.15c.12-.07.46-.28.57-.15.13.31,0,.68.25.82Z"/>
  <path class="cls-14" d="M16.4,44.25c-.26-.04-.63.14-.77.3-.17.19-.17.49-.15.79l.23,5.02c.02.35-.69.52-1.07.62l-.25-6.85c.4-.1-.28-1.34.63-2.18.27-.25,1.07-.58,1.29-.28-.02.69.4,2.61.1,2.56Z"/>
  <path class="cls-50" d="M63.19,53.15c-.71-.17-1.23-.62-1.87-1.01.27-1.39.47-2.77.99-4.11.19-.3.88-.28,1.35-.22l-.47,5.34Z"/>
  <path class="cls-27" d="M9.53,61.28c-1.05,1.49-1.81,3.05-2.94,4.49-.41-.41-.27-.9-.03-1.26l6.05-9.11c.28.17.43.22.44.32.04.36-3,4.83-3.52,5.57Z"/>
  <path class="cls-52" d="M16.71,45c.55.29,1.09,1.44,1.24,2.13.32-.01.3.13-.01.24-.04.69.48,1.41.07,2.04-.65.09-1.07.6-1.81.82-.05-1.76-.11-3.35-.27-5.06-.03-.31.61-.26.79-.17Z"/>
  <path class="cls-59" d="M30.01,43.52l.19,3.21c-1.87.22-3.64.13-5.4.18-.17-.24-.49,0-.83-.27.53.05.95-.61,1.44-.63.78-.04,1.48.31,2.25.04,2.57-.9,1.27-3.15,2.35-2.53Z"/>
  <path class="cls-12" d="M43.9,53.64c.33-.16.57.03.62.38.47.18.99.26,1.41.55-.38,0-.5.29-.54.64-.03.27-.04.58.14.83-.9-.31-4-1.3-3.94-2.32.02-.44-.05-.92.34-1.12.53.48,1.29.91,1.97,1.06Z"/>
  <path class="cls-21" d="M49.14,53.6c1.61.67,3.15,1.52,5.06,1.61.2,0,.21.2,0,.22-3.58-.38-7.15-1.19-10.53-2.63-.76-.32-1.47-.72-1.76-1.39.11-.05.25-.11.35-.16.06.5.48.67.96.87.91.37,5.75,2.72,5.92,1.48Z"/>
  <path class="cls-42" d="M60.52,49.15c.27,0,.54.06.55.16.01.12-.04.45-.3.42-3.84-.34-7.57-.08-11.49-.66,2.44-.49,4.75.05,7.13.06l4.12.02Z"/>
  <path class="cls-9" d="M36.87,49.76c-2.99,1.21-6.03,2.16-9.25,2.47-.19-.07-.48.08-.61-.19.97-.13,1.93-.27,2.62-.83,2.59.25,5.5-1.25,7.77-2.62.05.09.28.08.2.25-.3.66-.34.3-.74.91Z"/>
  <path class="cls-20" d="M52.7,44.35c-.07.24,0,.88-.34.97-.79.19-1.56-.14-2.4-.17-.17-.69-.01-1.26-.21-1.82.26-.3,2.38-.05,2.63.12.3.2.35.53.33.91Z"/>
  <path class="cls-54" d="M29.83,42.32c-.62.41-1.57.44-2.39.39-.46-.15-.53-.98-.62-1.35.51-.87,2.06-.81,2.97-.58-.12.54-.11,1.05.03,1.54Z"/>
  <path class="cls-74" d="M14.35,51.38c-1.17,1.61,5.36,1.17,5.41,1.62-2.3.03-4.58-.04-6.82-.56l-.24-.19c0-.74.73-1.42,1.63-1.24.19.04.07.31.02.38Z"/>
  <path class="cls-29" d="M27.61,64.38l5.61-.71c.94-.12,1.7-.75,2.74-.73-2.44,1.55-5.46,1.95-8.34,1.45Z"/>
  <path class="cls-77" d="M29.83,42.32c-.34-.24-.18-.7-.2-1.29-.95-.02-1.91.1-2.81.33-.05-.23-.3-.8.03-.89,1.09-.3,2.15-.33,3.21-.41-.2.88-.24,1.55-.23,2.26Z"/>
  <path class="cls-2" d="M60.64,50.55c.09.11.04.29,0,.39-.07.16-.39.29-.63.25l-5.64-.87c.77-.37,1.58-.02,2.43.01,1.32.05,2.59.01,3.84.23Z"/>
  <path class="cls-10" d="M44.25,48.8c.45.34-7.71.26-5.56-.52,1.84.24,3.61-.09,5.56.52Z"/>
  <path class="cls-5" d="M43.54,49.85c-2.34.71-2.39.65-4.82.39-.09,0-.09-.53,0-.54s.19-.08.38-.07l4.45.21Z"/>
  <path class="cls-26" d="M52.75,43.15c.17.22.19.55.05.79,0,.12-.06.3-.1.41-.14-1.02-2.03-.38-2.96-1.03-.05-.15-.15-.45,0-.64,1.03.09,2.12.12,3,.46Z"/>
  <path class="cls-67" d="M57.07,66.66c.37,0,.63-.38.95-.1-.38.9-6.06.54-7.09.02.58-.35,1.19.06,1.84.06l4.29.02Z"/>
  <path class="cls-16" d="M51.35,47.92c-.62.19-1.14.16-1.77.02-.04-.68.08-1.26.19-1.95.45-.16.67.04.8.38.12.57.37.94.79,1.55Z"/>
  <path class="cls-34" d="M20.31,63.36c.23,0,.57.29.67.49-1.75.08-3.34-.19-4.68-1.21,1.49.22,2.6.73,4,.72Z"/>
  <path class="cls-66" d="M20.21,47.38c.72.27,1.49.01,2.17.34-.58.1-1.79.12-2.42.46-.21.12-.68.08-.97.03-.22-.04-.35-.63-.23-.82.63-.32,1.11-.32,1.45,0Z"/>
  <path class="cls-76" d="M50.75,40.37c-.32.29-.18,1.07-.6,1.38-.28.21-.87-.01-1.19-.07-.32-.9,1.05-1.02,1.79-1.31Z"/>
  <path class="cls-81" d="M35.25,64.49c-1.47.72-2.89,1.2-4.45.89,1.32-.38,2.67-.41,3.98-1,.18-.17.49-.23.47.11Z"/>
  <path class="cls-21" d="M62.07,64.65c1.62-1.24,1.77-.57,3-2.61-.05,1.48-1.42,2.68-3,2.61Z"/>
  <path class="cls-43" d="M64.25,64.88c-.92,1.06-2.17,1.32-3.44,1.4.13-.52.62-.33.97-.46l2.47-.94Z"/>
  <path class="cls-56" d="M34.86,43.31l-.55-1.69c.28.14.62.13.93.36.03.54-.12.98-.38,1.34Z"/>
  <path class="cls-47" d="M41.42,61.5c-.79-.31-1.47-1.4-.83-2.34.07.86.25,1.45.83,2.34Z"/>
  <path class="cls-83" d="M14.21,60.52c-.98-.69-.38-1.63-.14-2.26l.14,2.26Z"/>
  <path class="cls-37" d="M14.05,61.51c-.8-.09-1.3-.83-1.05-1.69.31.63.61,1.18,1.05,1.69Z"/>
  <path class="cls-68" d="M20.21,47.38c-.43-.16-1.01.1-1.45,0,.24-.37,1.06-.56,1.45-.31.19.12.19.32,0,.3Z"/>
  <path class="cls-13" d="M15.18,63.09c.08-.11.32-.03.45-.04.08,0,.18.15.11.3-.07.17-.23.08-.31.11-.18.06-.44-.12-.25-.37Z"/>
  <path class="cls-20" d="M52.8,43.94l-.05-.79c.21.08.26.24.23.47-.02.11.01.34-.18.32Z"/>
  <path class="cls-68" d="M17.93,47.37v-.24c.07-.05.14-.12.21-.15.17-.05.32.17.22.29-.12.15-.29.09-.43.1Z"/>
  <path class="cls-78" d="M47.62,38.71c-4.18,1.12-8.46,1.27-12.59.45-2-.4-3.49-1.54-4.26-3.38-1.9-4.43-2.16-11.15-2.31-16.25l23.58-3.23c.53,3.95.58,7.8.57,11.75,0,2.26-.13,4.38-.8,6.52-.64,1.98-2.04,3.56-4.2,4.14Z"/>
  <path class="cls-36" d="M37.87,16.37c-.21.26-.11.5.02.63-.46-.31-3.1,0-2.14-.73.72-.54.43.63,2.12.1Z"/>
  <path class="cls-70" d="M72.86,71.68c.02,1.64.39,4.74-2.04,4.6l-49.2-2.84-16.13-.95c-2.28-.13-2.42-2.58-2.21-4.44.62.43,1.23.62,2.01.66l18.12.95,46.61,2.59c1.11.06,1.91-.14,2.84-.58Z"/>
  <path class="cls-28" d="M63.83,56.04c-.67.16-3.93.38-4.02-.03l4.02.03Z"/>
  <path class="cls-7" d="M66.06,70.07h-1.84c-.21.02-.41-.03-.39-.19.06,0,2.63-.08,2.23.19Z"/>
  <path class="cls-7" d="M44.52,54.02c-.23-.09-.47-.18-.62-.38.13-.03.36-.35.52-.23.21.15.07.45.1.61Z"/>
  <path class="cls-7" d="M64.64,58.41c-.38.24-.55.22-1.01.17.23-.28.68-.11,1.01-.17Z"/>
  <path class="cls-58" d="M43.51,85.17c-.47.34-.99.39-1.61.33.08-.59,0-1.46.5-1.77.4-.25,1.05-.08,1.28.13.36.34.26.99-.18,1.31Z"/>
  <path class="cls-11" d="M44.29,80.65c.1.61-.16.91-.46,1.13-.25.19-1.04.38-1.16.06-.17-.45.1-.96.13-1.42.51-.19,1.02-.17,1.49.23Z"/>
  <path class="cls-19" d="M29.48,80.39c1.36.26.4,5.22-1.35,5.14-1.56-.07-.69-5.52,1.35-5.14Z"/>
  <path class="cls-11" d="M22.49,81.2c.36,1.75-.42,4.42-2.41,4.14.38-1.59.43-3.22,1.01-4.74.21-.55,1.3.08,1.41.6Z"/>
  <path class="cls-23" d="M44.77,100.09c1.39.26.42,5.35-1.34,5.09-1.66-.24-.53-5.45,1.34-5.09Z"/>
  <path class="cls-35" d="M21.15,103.22c-.03.42-.82.3-1.09.17l1.04-2.98c.16.95.14,1.74.05,2.81Z"/>
  <path class="cls-31" d="M39.14,93.35c-.23.39-.62.36-1.08.21.3-.85.56-1.6.96-2.38l.12,2.18Z"/>
  <path class="cls-32" d="M61.73,44.36c-.7.45-1.48.19-1.97-.37-.84-.95-1.84.39-3.08-1.36-.58-.19-1.14-.06-1.72-.31.76-.65,1.78-.42,2.44.22,1.11,1.07,1.39-.33,2.97,1.23.34.33.94-.02,1.37.59Z"/>
  <path class="cls-48" d="M21.58,41.12c-1.7-.07-1.93,1.77-3.52.79.83-.22,1.39-.42,1.86-1.02s1.42-.15,1.95-.51c.87-.58,1.88-1.41,2.86-.52-2.23.07-1.76,1.31-3.15,1.25Z"/>
  <path class="cls-9" d="M26.81,52.39c-.41-.15-.85.14-1.24.16-.09-.36.31-.4.54-.38.26.02.61-.06.7.22Z"/>
  <path class="cls-7" d="M62.04,61.11c.35-.5.71-1,1.12-1.45.18-.03.42.04.33.34-.29,1.02-1.54,1.59-1.45,1.11Z"/>
  <path class="cls-24" d="M47.83,44.73c.16.44,0,6.65-.47,6.67-.06-2.23.11-4.46.47-6.67Z"/>
  <path class="cls-71" d="M32.4,48.77c-.46.68-.58-4.7-.58-4.62-.02-.74-.58-1.59.16-2.28.1.86.2,1.62.23,2.49l.06,2.37c.02.69.3,1.31.13,2.03Z"/>
  <path class="cls-53" d="M42.35,24.62c.56-.44,1.12-.42,1.53-.9l-1.79-1.07c-.62-.37-1.55-.26-1.54-1.29,2.26.19,2.33-1.4,4.51-2.61,1.09-.61,2.51-.41,3.06.86-1.34-.46-2.59-.01-3.27,1.23,1.88,1.17,2.27,3.7,1.15,5.47-.46.73-1.37.91-2.09.58-.89-.41-1.42-1.29-1.55-2.27Z"/>
  <path class="cls-30" d="M35.93,28.11c-1.59.25-2.4-1.11-2.62-2.61l1.58-.7c-.35-.53-1.17-.55-1.49-1.1-.24-.42.44-1.01.6-1.38-.85-.67-1.85-.47-2.82.06.03-.98.89-1.57,1.87-1.61,2.54-.11,3.27,1.99,5.51,1.1.32.99-.67,1.31-1.19,1.67.32,1.39.22,4.32-1.45,4.59Z"/>
  <path class="cls-4" d="M47.52,29.26c-5.12,6.79-13.36,3-12.27,2.7.54-.15,7.05,2.2,11.36-3.15-.29-.17-.6-.13-.86-.42.54-.57,1.4-.61,2.03-.27s1.11,1.05.82,1.87c-.45-.19-.65-.78-1.08-.73Z"/>
  <path class="cls-40" d="M44.8,33.61c-1.15,1.5-3.15,2.17-4.75.96,1.66-.12,3.15-.27,4.52-1.22.22-.1.4.04.23.27Z"/>
  <g>
    <path class="cls-60" d="M44.08,8.41c-.21-.25-.49-.45-.78-.59-.46-.22-.96-.32-1.46-.34-.84-.02-1.88.01-2.37.77-.13.2-.17.46-.19.7-.03.33,0,.68.01,1.02.01.46.3,2.93.35,3.38.09.56.1,1.32.89,1.39.34.04.68.04,1.02,0,.78-.07,1.59-.24,2.28-.62.35-.19.7-.45.88-.81.15-.34.17-.74.08-1.09-.06-.25-.2-.5-.39-.68-.22-.22-.5-.37-.79-.47,1.1-.46,1.15-1.86.47-2.66ZM42.71,12.5c-.22.23-.75.4-1.04.27-.31-.13-.19-.71.03-.86.17-.11.66-.04.86.03.11.03.25.12.27.24.02.12-.05.24-.13.33ZM42.81,9.98c-.05.19-.23.33-.39.43-.28.16-.97.46-1.09.17-.02-.14-.09-.76-.08-.89,0-.06.02-.11.05-.15.04-.05.1-.08.15-.11.36-.14.84-.09,1.16.14.12.09.23.27.2.42Z"/>
    <path class="cls-60" d="M37.22,11.27c-.43,0-.86.04-1.29.04-.9,0-.7-1.01.1-.69.27.11.54.23.82.31.32.09.69.05.97-.13.88-.58.49-2.19-.18-2.48-1.09-.46-2.41-.35-3.42.32-.39.26-.72.69-.94,1.15-.21.44-.3.99-.22,1.5.25,1.62,1.68,1.34,2.63,1.24.69-.08.76.64.06.58-.14-.01-.83-.29-.97-.32-.21-.03-.45-.04-.64.04-.17.08-.31.25-.4.43-.07.16-.12.34-.15.51-.04.22-.04.45.02.65.06.2.18.37.32.48.2.16.44.24.67.3.66.19,1.35.2,1.99.07.54-.11,1.07-.38,1.49-.75,1.07-.98.82-3.22-.85-3.26Z"/>
  </g>
</svg>