<?xml version="1.0" encoding="UTF-8"?>
<svg id="Layer_2" data-name="Layer 2" xmlns="http://www.w3.org/2000/svg" viewBox="0 0 216.1 225.07">
  <defs>
    <style>
      .cls-1 {
        fill: #fef5df;
      }

      .cls-2 {
        fill: #e0bba8;
      }

      .cls-3 {
        fill: #6c362d;
      }

      .cls-4 {
        fill: #ebc4ae;
      }

      .cls-5 {
        fill: #fef4df;
      }

      .cls-6 {
        fill: #712d25;
      }

      .cls-7 {
        fill: #fbeddc;
      }

      .cls-8 {
        fill: #f3d6c2;
      }

      .cls-9 {
        fill: #f3decb;
      }

      .cls-10 {
        fill: #efd0b8;
      }

      .cls-11 {
        fill: #f5e0cd;
      }

      .cls-12 {
        fill: #e1513d;
      }

      .cls-13 {
        fill: #f4dfcc;
      }

      .cls-14 {
        fill: #ad4e3f;
      }

      .cls-15 {
        fill: #f1d9c5;
      }

      .cls-16 {
        fill: #fceddb;
      }

      .cls-17 {
        fill: #fdf4de;
      }

      .cls-18 {
        fill: #7b5f56;
      }

      .cls-19 {
        fill: #fceede;
      }

      .cls-20 {
        fill: #e8c6a9;
      }

      .cls-21 {
        fill: #e6d0b4;
      }

      .cls-22 {
        fill: #fcebd6;
      }

      .cls-23 {
        fill: #6e2e25;
      }

      .cls-24 {
        fill: #8c2622;
      }

      .cls-25 {
        fill: #fcf0dd;
      }

      .cls-26 {
        fill: #fae7d4;
      }

      .cls-27 {
        fill: #e44237;
      }

      .cls-28 {
        fill: #f7dfca;
      }

      .cls-29 {
        fill: #f4ddcb;
      }

      .cls-30 {
        fill: #6b4137;
      }

      .cls-31 {
        fill: #af5041;
      }

      .cls-32 {
        fill: #f5dac8;
      }

      .cls-33 {
        fill: #f6ddca;
      }

      .cls-34 {
        fill: #f4decd;
      }

      .cls-35 {
        fill: #a04034;
      }

      .cls-36 {
        fill: #e65648;
      }

      .cls-37 {
        fill: #f8e2ce;
      }

      .cls-38 {
        fill: #82221e;
      }

      .cls-39 {
        fill: #a24135;
      }

      .cls-40 {
        fill: #d4b79f;
      }

      .cls-41 {
        fill: #d5bca2;
      }

      .cls-42 {
        fill: #702e26;
      }

      .cls-43 {
        fill: #f3deca;
      }

      .cls-44 {
        fill: #f19583;
      }

      .cls-45 {
        fill: #fdf2de;
      }

      .cls-46 {
        fill: #f2edd7;
      }

      .cls-47 {
        fill: #83241f;
      }

      .cls-48 {
        fill: #f8e7d4;
      }

      .cls-49 {
        fill: #f1d3bf;
      }

      .cls-50 {
        fill: #fdebda;
      }

      .cls-51 {
        fill: #642f26;
      }

      .cls-52 {
        fill: #f7e3d1;
      }

      .cls-53 {
        fill: #e4cfb4;
      }

      .cls-54 {
        fill: #8d7269;
      }

      .cls-55 {
        fill: #f8e3d0;
      }

      .cls-56 {
        fill: #e6d0b5;
      }

      .cls-57 {
        fill: #fdebd7;
      }

      .cls-58 {
        fill: #fdf1e4;
      }

      .cls-59 {
        fill: #fdf4df;
      }

      .cls-60 {
        fill: #fbe9d6;
      }

      .cls-61 {
        fill: #ff1c00;
      }

      .cls-62 {
        fill: #f5dac6;
      }
    </style>
  </defs>
  <g id="Layer_1-2" data-name="Layer 1">
    <g>
      <g>
        <path class="cls-1" d="M215.51,196.53l-17.89-51.98c-1.01-2.93-3.09-5.42-3.78-8.21-.99-4.06-.12-8.22-2.18-12.14-4.11-7.81-6.1-1.04-5.91-12.07.12-6.87-2.93-5.85-1.8-11.35,2.05-9.91-2.63-19.32-11.79-23.34l-9.06-3.97-.85-22.72c5.03-1.01,9.64-2.38,13.41-5.52,3.73-3.1,4.7-8.29,2.69-12.4-1.99-4.07-6.46-6.36-11.18-5.14l-8.91,2.31c-4.58-18.67-19.48-25.23-37.02-26.35-5.95-5.43-14.84-4.66-20.24,1.23-22.65,5.14-31.73,15.23-33.26,38.63-4.05,4.09-4.41,10.41-.84,14.97l.5,13.56c-8.98,1.07-21.81,8.1-22.06,17.39l-.29,10.57c-.08,3.07-1.91,6.09-2.09,9.25-1.94,1.42-5.31,1.76-7.05,3.72-2.43,2.73-3.41,6.23-3.4,9.87l.02,14.84c-3.98,4.79-7,9.87-10.53,15.08L1.79,182.69c-2.42,3.58-1.82,13.15-1.4,17.4.84,8.45,7.29,13.85,15.61,14.31l29.1,1.64,8.15.46c-.13.09-.27.17-.4.26,4.13-.27,8.2-.27,11.97-.16,6.59.19,13.15.86,19.69,1.66,4.75.58,9.49,1.23,14.23,1.88.96.13,1.93.26,2.89.39.63-.12,2.28.31,2.77.37,2.03.26,4.07.49,6.1.69,1.76.15,3.51.27,5.25.36,1.89.1,15.84-4.16,20.15-3.68,4.25.47,8.48,1.04,12.72,1.61,1.42.19,2.84.38,4.26.57,1.9.26,1.25.17-1.93-.26.56-.33,3.07.39,3.76.47.16.02.32.03.48.05,2.04-.51,4.18-.86,6.45-1.13,7.95-.95,36.92,5.41,36.92,5.41,5.08.31,9.35-.52,12.89-4.1,2.93-2.96,4.67-7.27,4.27-12.02-.34-4.01,1.15-8.36-.23-12.36Z"/>
        <path class="cls-6" d="M63.35,97.18c.36-1.82,2.53-1.17,3.97-.73,2.59.79,5.42,2.95,5.98,5.59,4.59.85,7.94,4.35,10.11,8.28,4.22-1.09,8.44-1.77,11.9,1.82.9.94,3.6,5.09,1.94,5.81,2.01,1.05,2.03,2.79,1.57,4.8l1.45.82c.68,3.13,1.66,6.15,2.93,9.07,1.74.1,2.78.62,3.1,1.57l.73-1.1,17.49,1.03s1.27-3.6,3.81-10.79l1.35-1.09c-.81-3.71,7.25-7.77,9.1-4.12.41-.85,1.31-1.09,2.72-.71.33-1.4,1.11-2.4,2.36-3l-.33-1.28c1.05-1.43,4.51-5.23,6.11-4.51,1.17-1.16,2.37-2.2,3.59-3.12.62-2.9,3.12-5.03,5.84-5.92,1.46-.48,3.95-1.21,4.31.66,1.35,1.34.27,1.86-1.32,2.07-.22.99-1.12,1.71-2.7,2.17,2.17-.06,4.43,1.23,2.59,3.09-5.05.62-9.41,2.6-12.91,6.34-4.26,4.57-3.39,5,2.15,3.89,3.59,4.22,2.02,10.68-1.65,14.44,2.98,2.48,6.25,1.08,9.79-4.18,2.36-.49,2.47,1.37,1.8,3.3-4.74,5.43,2.96,5.13,5.97,2.17,2.51-5,6.67-3.87,3.45,1.56,7.84-1.13,7.13-13.36,4.21-19.43-1.78-2.57-3.77-6.37.71-5.21-.66-.93-.7-1.75-.13-2.44-1.5-2.05-1.43-2.94.21-2.65,3.78,1.93,3.94,6.25,3.38,10.15-.36,2.53,2.09,5.41,1.23,8.13l2.49.87c.98,1.22.94,1.93-.12,2.14-1.67.92-2.49,2.84-2.44,5.76,1.32.5,2.21,1.34,2.69,2.51-.23,5.39-.63,10.77-1.19,16.15,1.28.63,3.05,1.99,2.69,3.15,1.93,1.45.2,2.2-1.82,2.03-4.28-1.87-8.37-4.11-12.26-6.73-9.47-2.91-19.22-4.58-29.26-5.01-.11,2.23-.39,4.42-.85,6.57l-1.3.19c-1.37,1.8-2.3-.06-2.83-1.68l1.86-26.02c-.6-2.46-2.96-3.2-4.28-.74-2.62,7.72-5.31,15.37-8.07,22.97l-1.64.13c-1.22-.61-2.58-.84-4.05-.69.48,1.46.03,1.59-.99.46.08,1.14.09,2.24.02,3.32.33,1.02.38,2.13.17,3.32,2.49,2.4,5.57,4.06,9.26,4.98,0,0,.26.49.79,1.47l3.13-.17c7.02,1.94,14.1,3.6,21.23,4.96l1.35.95,2.28-.85,8.49,1.03c3.19-.16,6.03.35,8.51,1.53.78.49,1.85.77,3.21.82l.27.79c1.11-.03,1.08.42-.04.68-1.73.76-3.74,1.26-6.02,1.5-14.35-1.08-28.48-3.67-42.39-7.79-.73-1.85-3.06-2.12-4.09-.74.14.92-1.76,3.22-2.77,2.32-1.08,4.82-1.42,11.87,4.6,13.29,2.03,2.08,4.69,3.1,7.98,3.04l6.38,1.98c4.5,1.02,16.23.33,21.12-.3,5.27-.69,11.79-2.68,16.16-5.7,1.71-1.18,2.68-6.28.92-7.49l.42-.72c-.25-.51-.18-.99.36-1.14,2.34-.63,5.71-1.42,7.9-.6-.58.2-.29.44.37.53.25-.09.51-.15.75-.13,1.25.07,7.02,21,7.75,23.69l-.77.94.05,2.23c1.98,3.54.24,5.07-5.22,4.58-3.85-.64-7.58-.61-11.18.1l-.6,1.11-160.7-8.53c-3.79-1.42-5-4.54-3.7-8.19l18-27.24c.37-1.21.61-2.48.71-3.8-1.08-1.54.7-3.95,2.51-3.39.78-.79,1.11-.5.68.55,1.6.44,1.59,1.65-.01,2.09.62.9,1.07,2.07,1.36,3.52,1.09.86,5.19,1.39,6.72,1.52,18.22,1.51,42.82-1.42,59.52-8.8,1.91-.85,3.39-3.73.78-4.31-1.78.29-2.13-.73-.56-1.61-.76-.63-.31-1.47,1.34-2.54l.17-.75c-.87.37-1.75.23-2.64-.4-1.1,1-2.34,1.98-3.52.55l-5.48-17.87c-4.97-12.93-7.42-2.9-5.93,4.21l-1.06,1c-.58.63-1.35,0-2.33-1.88-1.52,3.77-2.27,5.65-2.27,5.65-2.84,2.72-6.46,3.57-10.85,2.57-.97.26-1.52.72-1.65,1.4-.04.8-.62,1.28-1.76,1.44-.92,1.83-4.28,2.97-5.09.87-2.11-.02-4.13-.07-6.08-.13l-.07-.83c-.56-1.17-2.6-.54-4.12.01.81.97,1.68,1.4,2.62,1.3l.79.94c1.47-.01,1.64.54.99,1.75.12.38.24.91-.01,1.11-1.08.85-5.35,3.49-5.87,1.94-1.27-.13-1.29-.18-.68-1.31-.86-1.28-1.95-5-.2-5.78.43-.29.48-.52.04-.69-.27.04-.54.05-.78-.02-.33-.1-3.13-5.36-2.72-6.03.58-.81.29-1.52-.86-2.11-.96-1.69-1.46-3.84-1.49-6.43-2.32.71-3.25,2.67-2.78,5.89-.39.44-.87.49-1.44.24l-.77-.25c-.08-1.44-.41-2.53-.98-3.27.54-3.49,2.66-6.27,7.34-5.8l3.04-6.48c.98-2.1.64-6.52,3.21-8.11l.41-1.57,4.91-2.32c2.29-1.22,4.1-1.27,5.41-.16Z"/>
        <path class="cls-61" d="M175.59,104.72l-1.4.38c-.45-.12-8.08-3.53-8.37-3.89-.34-.43-.27-1.06-.17-1.62-.46-.22-.93-.59-.86-1.05,2.9-5.92-2.51-8.7-7.53-9.76-.51,4.56-1.09,9.54-2.89,13.8-1.15,2.72-2.19,4.37-4.73,6.07.09-.05-5.71,5.73-5.78,5.79l-1.2,1.51-3.89,2.2c-5.12-.97-6.29.98-9.1,4.12-.99.5-1.81-.24-2.47-2.22-5.26.84-10.61,1.09-15.93.88l-3.67,12.82-1.32.47c-1.07-.06-3.34.05-4.11-.99-1.71-3.38-2.26-7.09-3.37-10.48.3-2.18.09-3.22-1.57-4.8-.44-1.35-1.54-2.94-2.29-4.26-3.3-5.84-9.48-1.09-11.56-3.37-5.78-6.57-7.58-15.06-8.64-23.71l-.31.49c-6,.14-13.02,1.87-10.26,9.11l-.83.96c-3.73.41-7.53,2.07-10.73,4.05-2.52-9.21-1.32-16.15,7.98-20.59,4.36-2.08,8.7-2.55,14-2.85l-1.46-21.7c-.09-1.41-2.53-2.22-2.32-3.71.75-5.44,3.2-4.29,3.3-6.5.27-5.56,1.06-10.87,2.74-16.14,1.86-5.83,5.83-9.98,10.89-13.24,5.2-3.35,11.26-3.87,17.04-5.9,1.82-1.23,3.41-3.78,5.6-4.25,3.88-.83,5,2.4,7.6,3.16,6.13,1.78,12.82,1.14,18.86,4.06,12.01,5.81,13.37,11.53,16.8,24.3,4.88-.78,9.29-2.23,13.88-3.59,2.14-.64,4.41-.03,5.09,1.93,2.23,6.47-12.53,8.38-17.51,9.48,1.34,10.99,1.76,21.88,1.39,33.15,7.62,1.4,18.21,5.11,20.67,13.01,1.38,4.44.56,9.1-1.59,12.87Z"/>
        <path class="cls-51" d="M40.78,125.14l1.16.62.75,17.24.75-.32-.65-15.67c.54-1.73,2.64-3.84,3.7-1.57.65.09.86-.67,1.24-.57.62.16.88.9.97,1.35.17.87-.49,1.75-1.35,1.33-.5.57-.83,1.11-.99,1.62l.65,11.49c1.62-1.4,2.96-1.6,4-.6.45.28.78.77.68,1.31.17.42.41,1.04.15,1.29-1.48,1.44-8.7,5.75-10.5,4.59-.71-.45-.99-.77-.65-1.6-.35-.41-1.06-.32-2.13.29-.79.94-1.64,1.65-2.54,2.16-.98,1.05-1.8,2.32-2.51,3.39-.22,1.7-.33,2.55-.33,2.55l-22.29,33.5c-.94,1.9.25,2.77,1.94,3.61l189.34,10.22c1.44-.29,3.37-1.11,3.41-2.71l-13.34-38.68c3.02,10.69,6.25,21.36,9.68,32l-.89.98-.03,1.76c2.78,1.5-2.5,6.75-4.06,4.05-1.74.25-3.46.27-5.18.04-.26,1.88-4.19,1.51-4.52-.19-2.12-.17-4.22-.35-6.32-.53-.12,1.52-.65,1.47-1.14.04.94-2.33,13.52.05,16.39-1.49-.64-1.96-1.15-4.03-.03-5.42,1.22.16,1.83,1.15,1.81,2.97l.61.5c.37-.73.6-1.66.05-2.39l-.78.06c-2.96-8.36-5.73-16.86-8.31-25.49l-1.12-.15c-.07.61-.35.82-.8.52-2.17-1.41-5.79-.31-7.83.69.08,1.04-1.73.61-2.27-.06l-2.72-.26c-.75-.07-.83-.9-.76-1.35.77-1.78,5.64-2.2,6.33-.23l2.85-.48c-.32-1.21.66-1.8,2.95-1.77,1.22-.42,1.61-1.43,1.62-2.69-9.82,1.74-19.77,1.8-29.87.17l-1.55-1.25-3.48.67c-4.31-.29-18.22-2.89-21.27-4.87-.51-.33-.98-.73-1.43-1.15-1.32.61-4.05.56-3.99-1.55-.52-.55-1.02-.87-1.76-1.08-1.13,1.93-6.5-.99-5.59-2.99-.56-.51-1.25-1.04-1.17-1.95.05-.62.56-1.07,1.15-1.36,2.47,1.77,3.7,2.66,3.7,2.66l10.31,4.05c6.94,1.43,13.88,2.98,20.82,4.67l1.26-.99c3.88.89,7.8,1.43,11.74,1.62l1.17,1.05,1.71-.02c3.78.45,7.59.48,11.41.09l.22-.49c2.53-.11,4.8-.86,6.8-2.26-1.59-1.46-3.31-2.8-5.13-4.03.49-7.44.6-14.85.34-22.24-.79-1.2-.99-2.25-.6-3.15.36-.68-1.07-1.92.12-2.14,6.41,2.25,3.1,11.83,4.45,14.53,1.1,2.21,2.96,3.67,3.89,6.37l18.13,52.67c1.3,3.79-.41,8.03-.16,11.95.29,4.56-3.23,8.88-8.18,8.59l-185.17-10.82c-10.71-.63-9.47-13.58-8.4-20.9,7.59-13.73,19.92-28.57,27.24-41.82,1.14-2.07,4.37-3.44,4.39-6.35.03-5.89-.66-11.6.19-17.16.22.03,1.19-.2,1.37.3.38,1.09.34,2.25.38,3.22Z"/>
        <path class="cls-47" d="M175.59,104.72l-.02.67c-.61.75-.28,1.76-.21,2.65-1.37.06-2.71-.58-4.03-1.92-3.6-1.41-5.4-2.11-5.4-2.11-1.83.01-3.12-.55-3.87-1.67l1.32-2.07c.46-1.37,1.15-1.54,2.28-.68,2.01,2.12,5.83,1.87,9.93,5.13Z"/>
        <path class="cls-29" d="M179.79,198.13l1.14-.04c2.08.21,4.19.39,6.32.53,1.5-.01,3.01.4,4.52.19,1.72.22,3.44.21,5.18-.04,2.28-.37,3.84-1.68,4.06-4.05l.03-1.76-9.76-31.44c-.59-1.91.4-4.03.81-5.59l14.51,42.17c.87,2.52-2.88,4.59-5.29,4.45l-83.72-4.61-104.61-5.64c-1.4-.08-2.51-1.39-3.1-2-.74-.76-.6-2.42.1-3.48l23.51-35.35c1.23,1.31,1.08,3.21.01,4.81l-17.28,25.93c-.91,1.37-1.05,3.58-.39,4.93.51,1.03,1.75,2.48,3.74,2.59l160.21,8.4Z"/>
        <path class="cls-61" d="M162.05,102.35c5.26.31,9.99,1.94,13.3,5.7,1.25,1.41,1.82,3.28,1.49,5.13-1.2-.76-1.85-2.48-3.48-1.87,5.13,6.74,6.31,15.1,2.25,22.03-1.47,2.51-4.26,3.93-6.91,2.79.83-1.98,2.55-3.19,1.75-5.22-1.65,2.09-2.82,4.59-4.78,5.17-2.46.72-6.72,1.21-7.35-1.22-.14-1.99,2.95-3.9,1.86-6.25-2.5,2.93-6.01,8.69-11.11,5.01-.63-.46-.87-1.24-.79-1.68.01-.07,6.39-5.43,2.53-13.24-1.52.74-4.77,1.65-6.02-.5,3.19-6.66,10.17-11.37,17.31-11.54-1.54-1.58-3.21-.56-5.23-.87,1.05-2.22,3.1-3.13,5.18-3.43Z"/>
        <path class="cls-61" d="M65.88,121.09c-.03,3.15,1.95,5.22,3.87,7.82-1.98,1.69-5.62,2.97-8.36,1.59-2.65-1.34-3.67-4.35-5.7-6.36-.44,2.41.93,4.31,2.7,6.45-3.51,1.22-6.46-.68-8.02-3.91-3.43-7.1-1.73-15.01,5.36-19.76-1.39-1.31-2.32.13-3.75.59.09-6.08,14.59-11.34,17.8-5.36-1.28.46-2.1.34-2.72,1.02,5.27,1.24,10.15,3.25,13.66,7.83-1.82,1.48-4.12,1.46-6.04.15-1.75,3.82-1.24,8.48,1.36,11.61,1.1,1.33,3.84,0,4.8.78.84,1.74-.84,3.74-1.93,4.39-1.55.92-3.64.7-5.4.13-3.45-1.13-5.04-4.33-7.64-6.97Z"/>
        <path class="cls-14" d="M101.23,158.85c2.14,1.22.68,3.86-.62,5.34-2.23,2.55-9.98,5.83-13.24,3.94-1.47,1.75-3.65,2.83-5.95,2.86-7.74-1.15-15.49-1.9-23.26-2.23-2.77-1.54-5.62-2.83-8.57-3.88-1.16-1.74-2.4-3.41-4.25-4.48.4-.81,1.22-1.15,2.12-1.12,17.28.61,28.03-.85,44.57-4.3,2.41-.5,3.99-.06,6.12,1.05,1.39.72,3.15.98,3.08,2.82Z"/>
        <path class="cls-39" d="M103.85,160.45c1.63,3.59,2.23,8.88-1.22,11.8-2.81,2.38-6.76,3.94-10.31,4.91-1.76.48-3.62-.37-5.4.55-4.12,2.14-15.26.47-17.05.53-4.32.16-7.41-.34-11.31-2-1.75-.74-4.12-.05-6.26-1.44l-7.49-4.85c-2.76-1.79-1.46-7.31.54-9.56,1.67.91,3.02,2.29,4.05,4.13,2.96,1.59,6.04,3.03,9.24,4.32,7.98.2,15.9,1.04,23.75,2.53,1.34-.22,2.69-.86,4.06-1.91,3.08.54,6.08-.23,8.99-2.31,3.81-.3,5.68-3.04,7.14-6.39l1.27-.33Z"/>
        <path class="cls-56" d="M87.27,142.84c.3,1.37-.8,2.14-3.29,2.33l.1.87c-2,.84-3.94,1.5-5.81,2.01.46,1.67-1.98,2.22-2.28.46-1.05-.62-2.68-.44-3.52.47-.35.32-.71.62-1.11.85-1.83,1.03-10.15,1.29-12.94,1.34-.91.02-1.71-.33-2.4-.93-5.04-.18-10.04-.69-15-1.54-2.18-.96-2.83-2.84-.34-3.04-.1,3.51,10.05-3.59,11.01-4.29-.91.67,5.99-3.6,5.88-3.05l2.46-1.46c8.59-1.54,17.22-2.49,25.88-2.84l1.07,1.6c.29,2.51.38,4.92.29,7.22Z"/>
        <path class="cls-21" d="M184.31,154.25c2.59-1.08,4.96,2.59.73,3.42-5.66.84-11.4,1.21-17.22,1.11-4.64.53-9.64-1.2-14.17-1.68-4.69-.8-9.28-2.03-13.76-3.69l-.6-1.49c-.89.64-1.14.29-.48-.63,1-2.26.59-4.4,1.02-7.98,10.14.88,20.75,1.57,30.55,5.05,2.03.72,14.5,9.94,13.92,5.88Z"/>
        <path class="cls-35" d="M175.84,173.22c1.61-.46,3.46-2.38,3.18-4.1-.76.6-1.2.65-1-.35-.29.28-.47.19-.56-.22l.04-.68,2.27.06c1.41,2.07,1.61,4.25,1.19,6.45-.57,3-3.15,2.95-5.09,4.41-3.23,2.42-6.68,2.41-9.92,3.41-4.18,1.3-6.94.81-11.34,1.07l-9.29.54c-3.52.21-6.77-1.44-10.25-2.4-2.89-.8-5.88,0-8.29-2.84-.9-1.07-3.27-1.14-4.26-2.51-2.62-3.62-2.78-8.74-.33-12.22.75,1,1.4,2.23,1.97,3.68,3.06,3.9,13.36,5.85,18.15,6.71l1.22,1.26c7.53-1.25,15.4-.81,23,.21,5.44-1.99,8.16-2.98,8.16-2.98l1.16.5Z"/>
        <path class="cls-31" d="M177.47,168.55c.12.09.41.26.56.22-.53,1.81-2.14,2.65-4.84,2.54-.14,2.88-6.35,3.92-8.77,4.08-6.12-.82-12.29-.83-18.48-.22-.77-1.03-1.58-1.27-2.42-.72-6.32-.27-18.75-3.41-20.36-10.5,1.84-1.28,2.44-2.09,1.82-2.42-.11-.46.15-1,.47-.92.28.07,1.06-.48,1.44-.34,8.07,3.07,16.17,4.88,24.71,6.16,3.49.52,6.96,1.3,10.49,1.37,3.92.07,7.37.76,11.01,1.4,1.1.19,3.63-1.18,4.37-.63Z"/>
        <path class="cls-48" d="M36.68,150.73c.59-.41,1.26-.68,1.98-.6,9.49,1.06,16.33,1.39,25.86.62,14.49-1.17,25.56-2.9,39.03-8.29.53-.21,1.02-.15,1.51.2.62-.41,1.35-.66,2.07-1.03,1.12,3.13.02,5.24-2.62,6.49-7.04,3.33-14.44,5.35-22.26,6.62-9.73,1.58-36.65,4.37-44.59.58-1.49-.71-1.53-3.42-.98-4.6Z"/>
        <path class="cls-59" d="M129.68,122.27c-.66,4.44-2.67,8.51-4.01,13.09l-19.37-1.14,4.17-14.56c5.92.52,11.49,0,17.41-.8l1.81,3.41Z"/>
        <path class="cls-13" d="M138.81,151.29l.48.63c1.14.61.98,1.41-.25,1.83-2.67.91-17.24-5.28-19.41-7.5-.32-.33-.22-.68.17-.99,2.44-2.26,3.07-.68,5.15-.14,2.7-7.65,4.47-15.49,7.59-22.76.73-1.69,2.55-2.49,3.96-2.04,1.06.33,2.59,2,2.48,3.56l-1.87,25.17c-.1,1.32.71,2.05,1.7,2.25Z"/>
        <path class="cls-13" d="M106.01,137.75c.02.36,0,.69-.17.88-2.21,2.54-18.65,8.72-21.31,7.33-.25-.13-.41-.44-.55-.8,1.13-.9,2.39-1.26,3.29-2.33-.5-.45-.47-1.13.09-2.02l-1.02-14.69,1.05-.9c-.25-3.43-1.55-12.07,2.13-12.42,1.23-.12,2.81.31,3.57,1.57,3.4,5.69,5.33,16.68,7.86,23.47,1.3-.85,1.78-1.93,2.86-1.51.91.36,1.74.61,2.2,1.41Z"/>
        <path class="cls-17" d="M83.4,110.32c-2.96-3.26-6.11-6.11-10.8-7.47-1.32-3.79-5.3-6.1-9.25-5.67-1.35-3.02-1.44-7.11,1.83-9.04,3-1.76,6.65-2.13,10.25-2.21,1.31,6.1,2.46,11.83,4.55,17.59.93,2.55,2.92,4.36,3.42,6.8Z"/>
        <path class="cls-34" d="M183.22,165.56l-2.85.48c-2.09-.26-4.24.19-6.33.23-6.5.12-12.9-.89-19.28-1.71-4.06-1.11-2.31-5.21,1.61-4.54,10.64.67,21.41,2.9,32.39-.45.37,1.66.21,3.57-1.13,4.72-1.31,1.13-3.24.53-4.41,1.27Z"/>
        <path class="cls-51" d="M104.5,141.05c.05.58.15,1.18.56,1.61-11.38,7.64-40.45,9.53-54.7,9.77-4.87.08-9.34-.55-13.68-1.7v-2.09s2.24-.69,2.24-.69c5.5,1.49,11.21,2.26,17.11,2.29,5.5-.07,10.96-.85,16.45-1.26.7-.92,2.51-1.08,3.52-.47.92.33,1.54-.39,2.28-.46,1.88-.61,3.79-1.21,5.72-1.79,6.64-.79,13.01-2.62,19.13-5.48l1.38.26Z"/>
        <path class="cls-36" d="M178.03,168.77c.32-.09.73.37,1,.35.3,1.71-1.53,3.7-3.18,4.1-.77,1.11-8.13,3.57-9.22,3.61-3.72.13-7.5-1.69-11.17-1.11-2.72.43-4.98.06-7.6-.02-1.91-.06-4.71,2.52-6.23-.62-2.61-1.02-5.63-1.07-8.42-1.88-1.68-.49-3.14-1.62-5.06-1.71-3.09-.14-7.33-5.27-5.94-7.66.66-.95,1.78-1.68,2.77-2.32.85-.55,2.29-.48,3.53-.31-1.43.97-2.85,1.24-4.42,2.87,1.4,2.23,3.37,5.38,6.21,5.85,1.95.33,2.81,1.24,4.37,2.02,2.41,1.2,6.12,1.03,8.74,1.39.47.07,1.49-1.21,2.09-.64.25.23.28.67.45,1.3,1.74.87,3.51-.44,5.39-.34.66.03,14.13.43,13.09.61,1.78-.32,3.46-1.04,5.45-1.07.72-.01,1.32-.7,1.91-.99.45-.23-.06-1.33.25-1.77,1.98-.68,4.65-.13,6.01-1.66Z"/>
        <path class="cls-5" d="M165.66,99.59c-.6.6-1.45.77-2.28.68-4.03-.42-8.17,1.72-9.3,5.94l-4.44,2.44c4.45-5.26,6.15-14.2,6.55-21.24,3.95.69,7.92,2.06,9.94,5.25,1.39,2.2.13,4.88-.48,6.94Z"/>
        <path class="cls-36" d="M103.85,160.45c-.19,1.63-3.84,7.58-6.19,7.33-3.15-.33-4.71,2.3-7.13,3.04-1.72.52-3.82-1.47-5.67.97-.78,1.03-3.61.8-4.88.36-2.48-.87-4.86-.56-7.12-1.2-2.76-.78-11.84-.78-15.15-1.33-2.64-.44-4.97-2.88-7.78-3.62-2.26-.59-3.3-4.14-4.59-5.61,4.25.16,4.65,4.18,5.7,4.71.81.41,1.79-.16,2.7.08,2.38.62,4.36,3.12,6.88,3.34-.63-.05,9.8-.49,10.69-.05,2.09,1.02,4.4.12,6.29.72,3.44,1.1,6.3,1.03,8.97-1.81,1.53-1.62,1.62,2.62,10.02-1.71,3-1.54,4.99-3.41,4.66-6.83.91.44,2.27.84,2.61,1.6Z"/>
        <path class="cls-52" d="M182.55,126.68c1.8,1.66,2.16,4.1,2.07,6.7l-.68,19.12c2.19.76,4.48,1.83,5.64,3.97-2.61,2.3-5.89,1.73-8.65,2.39-3.81.39-7.61.36-11.41-.09l-1.71.02c7.32-.84,16.42.11,18.75-3-.57-.86-1.7-.91-2.26-1.53-.96-1.05-2.28-1.6-3.9-2.42l1.36-15.87c.17-1.98-2.04-2.13-2.91-2.93l1.09-6.6c1.09-.31,1.83.01,2.61.24Z"/>
        <path class="cls-25" d="M130.17,154.66c8.64,2.23,17.33,4.24,26.19,5.36-1.04-.07-2.36.89-2.55,1.67-.27,1.13-.18,2.33.94,2.87-8.71-1.12-17.37-2.84-25.71-5.74-2.64-1.08-1.88-5.32,1.12-4.16Z"/>
        <path class="cls-51" d="M87.38,125.23l1.1,15.3c.1,1.35-.68,1.68-1.21,2.31-1.72,1.8-.6-6.31-1.75-7.92-9.52.39-18.83,2.32-27.95,3.39-.67-.32-.85-1.07-.99-1.75l.4-1.36,6.46.07c.86-.15,2.87.45,3.38-.47.99-1.78,1.8-1.79,3.46-1.84l1.86-1.17c4.15.24,8.23.03,12.23-.64-.27-2.47-.28-4.93-.05-7.38l.72-.42c.35-.21,1.31-.8,1.61-.43.38.87.02,1.93.72,2.31Z"/>
        <path class="cls-11" d="M46.49,125.43c-.73-.1-1.78.39-2.18.86-.48.55-.47,1.39-.43,2.25l.65,14.24c.05,1-1.94,1.48-3.04,1.77l-.71-19.41c1.13-.27-.8-3.79,1.78-6.19.76-.7,3.05-1.66,3.66-.78-.04,1.96,1.12,7.4.27,7.26Z"/>
        <path class="cls-40" d="M179.12,150.66c-2.02-.49-3.49-1.76-5.31-2.87.77-3.94,1.33-7.85,2.81-11.64.53-.85,2.49-.8,3.83-.62l-1.33,15.13Z"/>
        <path class="cls-20" d="M27,173.68c-2.98,4.22-5.13,8.66-8.34,12.72-1.16-1.17-.76-2.55-.08-3.58l17.13-25.82c.8.48,1.22.62,1.26.9.13,1.03-8.5,13.68-9.97,15.77Z"/>
        <path class="cls-41" d="M47.36,127.54c1.57.83,3.09,4.09,3.5,6.05.92-.04.86.37-.04.69-.12,1.96,1.36,4,.2,5.78-1.83.25-3.05,1.71-5.14,2.32-.14-4.98-.32-9.49-.76-14.35-.08-.88,1.74-.74,2.23-.48Z"/>
        <path class="cls-45" d="M85.05,123.34l.55,9.1c-5.3.64-10.31.38-15.31.51-.49-.69-1.39-.02-2.37-.77,1.5.14,2.7-1.72,4.09-1.78,2.22-.1,4.19.87,6.37.11,7.28-2.55,3.59-8.94,6.67-7.18Z"/>
        <path class="cls-9" d="M124.42,152.03c.92-.45,1.61.1,1.76,1.08,1.33.52,2.8.74,3.99,1.55-1.08-.01-1.42.83-1.52,1.82-.08.76-.11,1.64.4,2.34-2.55-.88-11.33-3.68-11.18-6.59.07-1.25-.13-2.6.96-3.19,1.49,1.37,3.64,2.57,5.59,2.99Z"/>
        <path class="cls-16" d="M139.29,151.92c4.56,1.91,8.92,4.3,14.36,4.55.55.03.6.58,0,.63-10.13-1.09-20.27-3.36-29.84-7.45-2.15-.92-4.17-2.04-4.99-3.93.3-.15.71-.3.99-.46.17,1.41,1.35,1.91,2.72,2.46,2.57,1.04,16.31,7.72,16.77,4.19Z"/>
        <path class="cls-32" d="M171.55,139.32c.76,0,1.52.17,1.56.45.04.34-.12,1.27-.86,1.2-10.87-.95-21.46-.23-32.58-1.87,6.93-1.39,13.47.14,20.22.17l11.67.06Z"/>
        <path class="cls-7" d="M104.5,141.05c-8.48,3.44-17.09,6.11-26.23,7-.54-.21-1.35.22-1.73-.53,2.74-.37,5.46-.78,7.44-2.35,7.34.7,15.6-3.54,22.03-7.41.15.26.8.22.58.7-.86,1.87-.96.86-2.09,2.59Z"/>
        <path class="cls-15" d="M149.38,125.72c-.2.69-.02,2.51-.98,2.74-2.23.54-4.43-.4-6.8-.48-.48-1.96-.03-3.58-.6-5.16.73-.86,6.74-.15,7.46.33.86.58,1,1.5.93,2.57Z"/>
        <path class="cls-43" d="M84.55,119.95c-1.74,1.17-4.45,1.23-6.78,1.1-1.31-.42-1.51-2.78-1.75-3.82,1.46-2.47,5.85-2.3,8.43-1.64-.34,1.54-.31,2.99.09,4.36Z"/>
        <path class="cls-55" d="M40.68,145.65c-3.3,4.58,15.2,3.31,15.34,4.58-6.51.08-12.98-.12-19.33-1.59l-.68-.55c.01-2.09,2.07-4.02,4.61-3.52.53.1.2.88.06,1.08Z"/>
        <path class="cls-22" d="M78.25,182.47l15.89-2.03c2.67-.34,4.82-2.13,7.76-2.07-6.92,4.4-15.46,5.53-23.65,4.1Z"/>
        <path class="cls-58" d="M84.55,119.95c-.97-.69-.52-2-.56-3.66-2.7-.06-5.43.29-7.96.94-.15-.65-.86-2.27.08-2.53,3.08-.85,6.08-.93,9.09-1.16-.56,2.49-.67,4.4-.65,6.4Z"/>
        <path class="cls-2" d="M171.9,143.29c.24.32.11.83,0,1.09-.19.45-1.09.81-1.8.7l-15.99-2.48c2.2-1.05,4.48-.06,6.9.04,3.74.15,7.34.03,10.9.65Z"/>
        <path class="cls-8" d="M125.42,138.33c1.29.95-21.84.73-15.76-1.46,5.22.68,10.23-.26,15.76,1.46Z"/>
        <path class="cls-4" d="M123.41,141.29c-6.62,2.02-6.78,1.85-13.67,1.11-.26-.03-.25-1.5-.02-1.52s.54-.21,1.08-.19l12.61.6Z"/>
        <path class="cls-19" d="M149.52,122.31c.48.61.53,1.56.13,2.25.02.35-.18.85-.27,1.16-.39-2.9-5.76-1.09-8.38-2.91-.15-.43-.42-1.29.03-1.81,2.91.25,6.01.35,8.5,1.3Z"/>
        <path class="cls-50" d="M161.76,188.94c1.04,0,1.79-1.09,2.71-.3-1.08,2.56-17.17,1.54-20.09.07,1.64-.98,3.37.17,5.23.18l12.16.05Z"/>
        <path class="cls-12" d="M145.55,135.84c-1.76.53-3.23.47-5.03.05-.11-1.91.23-3.57.53-5.52,1.28-.45,1.89.12,2.25,1.08.35,1.61,1.04,2.67,2.24,4.39Z"/>
        <path class="cls-26" d="M57.57,179.59c.64,0,1.62.81,1.91,1.39-4.96.23-9.47-.54-13.26-3.43,4.22.64,7.38,2.07,11.35,2.04Z"/>
        <path class="cls-49" d="M57.29,134.31c2.03.76,4.24.03,6.15.96-1.65.29-5.08.33-6.86,1.29-.61.33-1.92.23-2.74.09-.63-.11-.99-1.79-.67-2.33,1.78-.9,3.15-.91,4.12-.01Z"/>
        <path class="cls-57" d="M143.86,114.44c-.92.83-.5,3.03-1.71,3.92-.81.59-2.47-.04-3.37-.21-.9-2.55,2.99-2.89,5.08-3.71Z"/>
        <path class="cls-60" d="M99.92,182.78c-4.17,2.04-8.2,3.39-12.61,2.52,3.75-1.08,7.58-1.16,11.27-2.84.51-.48,1.39-.66,1.34.31Z"/>
        <path class="cls-16" d="M175.93,183.25c4.58-3.53,5.01-1.62,8.5-7.39-.13,4.18-4.03,7.58-8.5,7.39Z"/>
        <path class="cls-33" d="M182.1,183.91c-2.6,3-6.16,3.73-9.74,3.97.36-1.48,1.75-.93,2.75-1.31l6.99-2.66Z"/>
        <path class="cls-44" d="M98.81,122.75l-1.57-4.8c.79.39,1.75.38,2.65,1.01.07,1.54-.35,2.79-1.08,3.79Z"/>
        <path class="cls-37" d="M117.4,174.32c-2.25-.87-4.18-3.96-2.35-6.63.19,2.43.71,4.11,2.35,6.63Z"/>
        <path class="cls-62" d="M40.28,171.54c-2.78-1.97-1.07-4.63-.41-6.41l.41,6.41Z"/>
        <path class="cls-28" d="M39.81,174.35c-2.27-.25-3.67-2.37-2.97-4.8.87,1.78,1.72,3.35,2.97,4.8Z"/>
        <path class="cls-51" d="M57.29,134.31c-1.22-.46-2.85.28-4.12.01.67-1.05,2.99-1.58,4.11-.87.54.34.55.91,0,.86Z"/>
        <path class="cls-10" d="M43.03,178.83c.23-.31.9-.07,1.27-.12.24-.03.5.43.32.84-.21.48-.64.24-.87.31-.51.16-1.24-.33-.71-1.04Z"/>
        <path class="cls-15" d="M149.65,124.56l-.13-2.25c.6.23.75.69.65,1.34-.05.3.04.96-.51.92Z"/>
        <path class="cls-51" d="M50.82,134.27l.04-.69c.17-.15.35-.35.55-.42.47-.15.9.47.61.83-.35.44-.83.25-1.21.27Z"/>
        <path class="cls-59" d="M134.98,109.73c-11.85,3.17-23.98,3.61-35.68,1.27-5.66-1.13-9.88-4.37-12.06-9.59-5.38-12.56-6.12-31.6-6.54-46.05l66.83-9.15c1.5,11.19,1.63,22.11,1.62,33.31,0,6.4-.38,12.42-2.26,18.47-1.81,5.62-5.77,10.09-11.91,11.73Z"/>
        <path class="cls-27" d="M107.35,46.41c-.58.74-.32,1.42.05,1.79-1.29-.88-8.79-.01-6.07-2.07,2.04-1.54,1.22,1.79,6.02.28Z"/>
        <path class="cls-53" d="M206.52,203.18c.05,4.64,1.11,13.43-5.8,13.04l-139.45-8.05-45.73-2.69c-6.45-.38-6.87-7.32-6.26-12.59,1.77,1.21,3.5,1.75,5.69,1.86l51.37,2.71,132.11,7.35c3.16.18,5.41-.39,8.05-1.63Z"/>
        <path class="cls-21" d="M180.94,158.85c-1.91.46-11.15,1.07-11.41-.09l11.41.09Z"/>
        <path class="cls-6" d="M187.26,198.62l-5.21.04c-.59,0-1.15-.11-1.11-.57.16,0,7.47-.24,6.32.53Z"/>
        <path class="cls-6" d="M126.18,153.11c-.64-.25-1.34-.52-1.76-1.08.38-.1,1.02-1,1.48-.66.58.42.19,1.29.28,1.74Z"/>
        <path class="cls-6" d="M183.22,165.56c-1.07.68-1.56.63-2.85.48.66-.81,1.92-.32,2.85-.48Z"/>
        <path class="cls-24" d="M174.99,125.75c-2,1.28-4.2.54-5.59-1.05-2.38-2.7-5.22,1.11-8.73-3.86-1.65-.52-3.24-.17-4.89-.88,2.16-1.84,5.05-1.18,6.93.62,3.15,3.02,3.95-.93,8.42,3.5.95.94,2.65-.05,3.87,1.67Z"/>
        <path class="cls-38" d="M61.18,116.55c-4.82-.2-5.47,5.03-9.98,2.24,2.34-.62,3.93-1.2,5.27-2.88,1.3-1.64,4.02-.43,5.54-1.44,2.47-1.64,5.33-3.99,8.1-1.46-6.31.21-4.98,3.71-8.92,3.55Z"/>
        <path class="cls-7" d="M75.99,148.5c-1.16-.41-2.41.38-3.52.47-.25-1.01.87-1.14,1.53-1.09.74.06,1.73-.18,1.99.62Z"/>
        <path class="cls-6" d="M175.84,173.22c.98-1.41,2.01-2.84,3.18-4.1.5-.08,1.19.1.94.96-.83,2.89-4.36,4.51-4.12,3.14Z"/>
        <path class="cls-18" d="M135.58,126.78c.46,1.24.02,18.86-1.34,18.92-.17-6.32.31-12.63,1.34-18.92Z"/>
        <path class="cls-54" d="M91.83,138.25c-1.3,1.92-1.66-13.31-1.65-13.08-.06-2.11-1.65-4.51.46-6.45.27,2.43.58,4.6.64,7.06l.17,6.73c.05,1.97.85,3.71.37,5.75Z"/>
        <path class="cls-42" d="M120.05,69.77c1.6-1.26,3.19-1.18,4.32-2.54l-5.08-3.05c-1.76-1.06-4.39-.73-4.37-3.67,6.42.54,6.61-3.97,12.77-7.39,3.09-1.72,7.12-1.15,8.66,2.44-3.81-1.31-7.35-.03-9.26,3.49,5.33,3.31,6.42,10.49,3.27,15.51-1.29,2.06-3.89,2.58-5.92,1.64-2.51-1.17-4.01-3.66-4.4-6.42Z"/>
        <path class="cls-23" d="M101.84,79.67c-4.52.71-6.82-3.13-7.42-7.4l4.48-2c-.99-1.5-3.32-1.57-4.21-3.13-.68-1.18,1.24-2.85,1.71-3.9-2.42-1.89-5.23-1.33-8,.17.09-2.78,2.53-4.46,5.29-4.58,7.19-.3,9.28,5.64,15.63,3.1.9,2.82-1.89,3.71-3.36,4.72.91,3.95.63,12.25-4.11,13Z"/>
        <path class="cls-3" d="M134.71,82.94c-14.51,19.24-37.87,8.52-34.78,7.66,1.53-.42,19.99,6.24,32.19-8.92-.82-.49-1.71-.37-2.45-1.2,1.54-1.62,3.96-1.73,5.76-.76,1.77.94,3.15,2.98,2.33,5.29-1.28-.54-1.84-2.21-3.06-2.07Z"/>
        <path class="cls-30" d="M126.99,95.27c-3.25,4.25-8.92,6.14-13.45,2.72,4.69-.34,8.93-.78,12.8-3.47.61-.28,1.14.12.66.75Z"/>
        <g>
          <path class="cls-46" d="M124.93,23.84c-.6-.72-1.39-1.28-2.22-1.68-1.29-.61-2.73-.9-4.15-.95-2.38-.05-5.34.04-6.72,2.17-.36.56-.48,1.3-.54,1.99-.08.95-.02,1.93.03,2.89.04,1.3.84,8.3,1,9.59.25,1.59.28,3.75,2.52,3.95.95.1,1.92.13,2.9.02,2.22-.19,4.51-.68,6.46-1.75.98-.55,2-1.29,2.48-2.31.42-.96.47-2.11.23-3.1-.18-.71-.57-1.42-1.1-1.94-.61-.61-1.42-1.04-2.23-1.34,3.12-1.31,3.25-5.26,1.34-7.53ZM121.05,35.43c-.63.64-2.12,1.12-2.94.77-.88-.37-.53-2,.1-2.44.49-.31,1.87-.1,2.43.07.32.09.72.34.78.67.06.33-.13.69-.37.93ZM121.36,28.3c-.15.54-.65.93-1.12,1.22-.78.45-2.75,1.29-3.08.47-.07-.38-.26-2.16-.23-2.53,0-.16.04-.32.13-.43.11-.14.29-.24.44-.31,1.03-.4,2.37-.26,3.28.4.34.25.66.76.57,1.19Z"/>
          <path class="cls-46" d="M105.49,31.95c-1.23-.02-2.44.11-3.66.12-2.56,0-1.98-2.86.28-1.96.76.31,1.53.67,2.31.89.92.26,1.95.15,2.75-.36,2.5-1.66,1.4-6.2-.51-7.04-3.09-1.3-6.84-.99-9.7.91-1.12.75-2.05,1.95-2.66,3.27-.59,1.24-.84,2.8-.63,4.24.71,4.59,4.77,3.8,7.45,3.51,1.96-.22,2.16,1.82.18,1.65-.39-.03-2.36-.84-2.76-.9-.61-.09-1.26-.12-1.81.12-.5.24-.89.7-1.14,1.22-.21.44-.34.95-.41,1.45-.11.61-.12,1.26.05,1.85.17.56.51,1.04.91,1.36.57.46,1.25.67,1.89.86,1.86.53,3.82.57,5.65.19,1.53-.32,3.04-1.06,4.22-2.13,3.03-2.78,2.33-9.12-2.4-9.25Z"/>
        </g>
      </g>
      <path class="cls-1" d="M114.79,221.99l85.2,3.08-23.93-6.6s-35.81-1.32-37.46-1.65-17-.17-17-.17l-6.82,5.34Z"/>
    </g>
  </g>
</svg>