<?xml version="1.0" encoding="UTF-8"?>
<svg id="Layer_1" data-name="Layer 1" xmlns="http://www.w3.org/2000/svg" viewBox="0 0 72.64 83.13">
  <defs>
    <style>
      .cls-1 {
        fill: #812920;
      }

      .cls-2 {
        fill: #efe4d3;
      }

      .cls-3 {
        fill: #e54238;
      }

      .cls-4 {
        fill: #e13c35;
      }

      .cls-5 {
        fill: #c16253;
      }

      .cls-6 {
        fill: #eadac5;
      }

      .cls-7 {
        fill: #e24036;
      }

      .cls-8 {
        fill: #f1f0dc;
      }

      .cls-9 {
        fill: #f7d4c0;
      }

      .cls-10 {
        fill: #f3ead7;
      }

      .cls-11 {
        fill: #942f27;
      }

      .cls-12 {
        fill: #942f28;
      }

      .cls-13 {
        fill: #e54337;
      }

      .cls-14 {
        fill: #ee8378;
      }

      .cls-15 {
        fill: #e44237;
      }

      .cls-16 {
        fill: #e44137;
      }

      .cls-17 {
        fill: #dd3b36;
      }

      .cls-18 {
        fill: #f2e5d5;
      }

      .cls-19 {
        fill: #8c4839;
      }

      .cls-20 {
        fill: #e54338;
      }

      .cls-21 {
        fill: #f3e8d6;
      }

      .cls-22 {
        fill: #eef1dd;
      }

      .cls-23 {
        fill: #f5e9d8;
      }

      .cls-24 {
        fill: #f9dec9;
      }

      .cls-25 {
        fill: #f3f0dc;
      }

      .cls-26 {
        fill: #f2edd7;
      }

      .cls-27 {
        fill: #ebd9c9;
      }

      .cls-28 {
        fill: #e34036;
      }

      .cls-29 {
        fill: #922f27;
      }

      .cls-30 {
        fill: #f3eedc;
      }

      .cls-31 {
        fill: #f1e8d5;
      }

      .cls-32 {
        fill: #dd5b46;
      }

      .cls-33 {
        fill: #f2e6d7;
      }

      .cls-34 {
        fill: #f3ebd8;
      }

      .cls-35 {
        fill: #f1f0dd;
      }

      .cls-36 {
        fill: #f1f1dd;
      }

      .cls-37 {
        fill: #f2f1dd;
      }

      .cls-38 {
        fill: #f8d4be;
      }

      .cls-39 {
        fill: #f6d6c2;
      }

      .cls-40 {
        fill: #eef1de;
      }

      .cls-41 {
        fill: #ee7f75;
      }

      .cls-42 {
        fill: #fadfcd;
      }

      .cls-43 {
        fill: #f1dabf;
      }
    </style>
  </defs>
  <path class="cls-22" d="M42.18,71.2c-.12-2.74-.61-5.28-1.32-7.79s-4.31-2.37-5.84-3.58c-.34-.27-1.51-.43-1.56.11-.64,6.33-.12,6.09-3.88,11.83,1.23.6,2.47.92,3.69,1.42,2.31.95,3.76,3.28,3.32,5.76-.69,3.89-4.93,3.93-8.07,4.03-2.82.09-5.52.35-8.28-.19-1.76-.34-3.27-1.62-3.47-3.51-.32-3.08.35-6.37,2.25-8.84,3.01-3.9,5.46-5.78,5.19-11.2-5.49-1.6-8.51-5.18-10.4-10.47-2.11-5.92-3.5-11.93-4.58-18.1-3.37.55-8.48.73-9.14-3.31-.42-2.54.84-4.94,3.43-5.26l4.39-.54c.08-5.28.27-9.52,3.99-13.47,2.14-2.27,4.9-3.85,7.85-4.87.82-.28,1.06-.67,1.57-1.28,1.87-2.23,5.14-2.53,7.58-.93,5.11-.71,11.26-.39,15.29,3.42,5.63-3.82,14.19-3.94,19.98-.58,2.94,1.71,4.89,4.35,5.56,7.65,1.76,1.62,2.3,4.03.94,6.04,1.08,1.97.84,4.07-.5,5.82s.76,3.28-.31,7.1c.75,1.9,1.57,3.87.15,5.85,1.39,1.77,1.68,3.87.66,5.82.46.98.4,2.18.46,3.16,2.24,2.8,2.03,6.76-.91,8.96-.68,2.2-2.51,3.57-4.82,3.77-4.78,3.32-8.08-.46-8.39-.47-.28-.01-.68.1-.84.42-.53,1-1.45,1.46-2.26,2.16-1.11.96-2.08,1.99-3.64,2.51l.91,5.56c2.23,1.28,4.58,1.83,6.92,2.54s3.8,2.63,3.73,4.9-1.66,4.11-4.06,4.58c-2.7.52-5.45.52-8.25.56-3.47.05-8.03-.53-8.41-4.85-.14-1.6.21-3.16,1.05-4.71Z"/>
  <path class="cls-15" d="M44.08,8.29c.14.39.02.8-.36,1.22-.53,1.49-1.05,2.97-1.56,4.45-.71.45-.99,1-.83,1.66,1.02.71,1.81,1.82.94,2.88-.24.32-.61.56-1.12.72-8.57,2.34-17.13,4.68-25.99,7.12.74,5.65,1.66,11.32,3.46,16.76,4.86,4.01,10.68,6.61,16.77,7.94l.48.47.31.44c-.28,1.34-.47,2.75-.07,4.08l-.25.48-5.15.64c-.28,8.79-.21,8.4-5.06,15.41l2.9,1.88c.76.49,6.67,1.28,5.15,4.49-.27.56-1,.89-1.64.96-1.92.21-11.9,1.26-12.43-.64-.48-1.71.08-3.47.45-5.09.3-1.33,1.14-1.97,1.96-2.92,1.6-1.87,3-3.98,4.13-6.19.75-1.46.88-6,.92-7.96-4.17-.91-6.86-2.08-9.1-5.88-1.82-3.08-4.55-12.51-5.09-15.88l-1.27-7.94c-2.15.6-9.13,2.1-8.87-1.13.09-1.14.95-1.58,2.1-1.63,2.04-.09,4.08-.14,6.07-.96-.31-3.4-.31-6.73.75-9.97.79-2.4,2.51-4.08,4.48-5.58,1.87-1.42,4.2-1.91,6.24-3.05.76-.71,1.19-1.94,2.43-2.23,1.41-.33,2.2.57,3.43.87,1.73.41,3.76-.4,5.62-.18,5.07.61,6.74.92,10.21,4.76Z"/>
  <path class="cls-12" d="M67.15,37.32c.31.47.2.71-.35.79.16.36-.16,1.12-.38,1.44-.7.99-2.43,1.71-3.6,2.06-1.99.59-4.2.92-6.27,1.05-2.87.18-7.65-.17-10.44-.9-1.11-.29-3.72-1.01-3.15-2.44-.52-.05-.63-.31-.37-.75l-.37-.33c.02-1.77-.04-3.43-2.2-2.94-2.53-.26-3.65-1.5-4.94-3.6-1.12-2.45-1.9-3.02-2.33-1.71-.3,4.3-.98,7.97-6.26,8.34-2.18.64-4.11.44-5.8-.6-1.45-1.49-2.53-3.28-3.25-5.37-.98-.27-1.37-.4-1.67-1.46-.52-1.85.15-2.19,1.69-2.79,2.52-.97,9.82-2.35,12.51-2.1,2.12.7,3.2.55,4.87-1.01,2.34-.96,4.75-1.69,7.22-2.2l-.1-.26c-.92-.42-1.4-1.04-1.42-1.87.12-.95.69-1.67,1.72-2.16-.27-.51.16-1.36-.29-1.79-.48-.46-1.11-.68-1.11-1.31,0-1.78,1.01-.7,1.45-2.95.27-1.37.78-3.1,1.76-4.17,4.25-4.67,12.15-5.11,17.91-2.47,2.96,1.36,4.82,4.01,5.21,7.24.81.45,1.39,1.13,1.47,2.01.07.77-.72,1.02-.98,1.5-.19.35.01,1.21-.06,1.64.56.66,1.17,1.48.82,2.42-.18.49-.96.76-1.17,1.15.11.92-.82,1.88-.81,2.67.02,1.33,1.79,2.45.43,4.96-.29.54-.06,1.43-.47,1.97,1,.77,1.86,1.44,1.57,2.61-.12.48-.57.64-.93,1.01-.01.01-.5,1.93.07,2.29Z"/>
  <path class="cls-11" d="M45.95,45.1c.69.2,1.35.41,1.98.62,2.43.07,4.79.73,7.09,1.96.57.29,1.14.37,1.71.26.65-.56,1.18-.71,1.61-.45.97-.22,1.78-.65,2.43-1.3,2.06-.77,3.94-1.3,6.24-1.24.25.23.37.62.34,1.18,1.52.36,2.45,1.64,2.53,3.21s-.85,2.37-2.09,3.05c-.19.81-.45,1.82-1.15,2.35s-1.76.21-2.38.56c-1.02.57-1.68,1.44-3.03,1.29-1.06-.12-1.88-.91-2.43-1.85l-4.38.19c-.05,1.73-1.5,2.13-2.45,3.05-1.32,1.27-2.53,2.55-4.72,2.43-.19-.01-.68.22-.57.46-.7.11-3.14-.03-3.74-.33l-.35-.36c-.16-.1-.39-.46-.66-.47-1.19-.07-1.82-1.18-2.85-1.46-1.11-.31-2.7-.47-3.22-1.73-.65-1.58-.36-3.39,0-5-.37-.39.36-1.23.71-1.53,1-.85,1.75-1.18,3.08-.92,1.27-.61,1.94-1.86,1.61-3.23l.31-.36c-.24-.52-.08-.77.5-.73.07-.49.24-.49.45-.05.89-1.15,1.83-1.45,2.81-.91.68.31,1.58.79.61,1.32Z"/>
  <path class="cls-13" d="M46.68,60.88c.82.85,1.66,7.35,1.85,9.04.54.43,1.22.5,1.81.84,3.79,2.2,4.17,1.46,7.4,2.79,1.02.42,1.51,1.26,1.38,2.24-.12.92-.97,1.58-2.05,1.74-3.39.51-6.83.55-10.29.35-.88-.05-1.94-.42-2.41-1.14-.71-1.08-.52-2.61.05-3.7.66-1.26.6-2.29.43-3.64-.4-3.21-.93-6.32-2.25-9.21.76-.16,1.51.2,2.35.29.66.07,1.31-.04,1.74.4Z"/>
  <path class="cls-1" d="M67.35,46.14c-.23-.19-.25-.48-.46-.88-.49.3-.93-.02-1.37,0-4.32.18-2.64.84-3.5.93l-1.19.12c-.28.03-.43,1.02-.75,1.08-.54.11-1.18-.05-1.73.1.38-.85,1.16-1.46,2.32-1.83,2.4-.75,2.43-.91.09-.48l-1.4-.02c-1.15,1.09-3.12,1.19-4.32.14-2.23.71-4.67.89-6.91.22-.72.05-1.45-.09-2.18-.42-.02-.2.08-.43-.05-.6-.07-.09-1.63-.8-1.95-.62l-1.41.81c-.5-.07.08-.69.08-.65,0,.05-.43.68-.53.71-.16.25-.29.52-.5.73-.27.27-.39.22-.63,0-1.03-.94.32-2.59,1.13-3.23-.66-.77-.99-1.74-.68-2.72.16-.51.66-1.44,1.2-.94.23.18.32.47.37.75.05.29.03.6-.06.93.3,1.38,1.39,1.88,3.3,1.52,1.21.24,2.4.59,3.54,1.06,1.24-.34,2.46-.4,3.67-.18l2.8,1.47c1.21.54,2.22.11,3.01-1.29.91-.72,2.04-1.05,3.39-.99.92-.59,1.91-1.06,2.96-1.41,1.23.01,1.72-.35,1.48-1.08-.38-.47-.47-.88-.26-1.23.04-.29.2-.55.35-.79.86.54,1.46,1.66,1.37,2.79-.08.95-1,1.34-1.91,1.54.24.54.73.72,1.1,1.13.58.65.92,1.68.24,2.35-.32.32-.75.55-.6,1.03Z"/>
  <path class="cls-40" d="M42.27,18.51c.33.62-.96.5-1.26,1.78-.47,2,1.84,1.27,1.4,2.89-2.43.7-6.57,1.19-8.37,2.88s-3.21.11-5.13.31c-2.01.21-12.15,1.5-12.88,3.07-.26.54.11,1.63.44,2.08.3.41,1.09.21,1.33.68,1.22,2.37,2.13,6.32,6.09,6.04,1.8-.13,3.6-.4,5.26-1.03,4.16-1.57,2.2-7.83,3.87-8.29.55-.15,1,.1,1.28.61,1.36,2.48,3.2,6.14,6.68,5.22l1.45.75c.01,1.14.29,2.08.16,3.06-.59.36-.91,1.03-.91,1.66,0,.73.33,1.35.89,1.96-.29.63-.93.91-1.28,1.45-.47.72-.34,1.5.29,1.83.49,1.55-.1,3.24-1.86,3.98-2.33-.29-2.68.59-3.85,2.07-1.27-.15-2.48-.51-3.8-.95-5.08-1.44-9.71-3.84-13.76-7.24-1.85-5.59-2.91-11.26-3.41-17.17,3.98-1.26,7.74-2.32,11.7-3.36l15.69-4.28Z"/>
  <path class="cls-43" d="M29.34,53.63c-3.36.39-6.89-1.06-8.63-4.17,2.77,1.68,5.51,2.92,8.63,4.17Z"/>
  <path class="cls-15" d="M66.23,13.11c-4.31,3.27-19.1,3.71-23.08.17.31-2.84,1.92-5.17,4.51-6.51,4.76-2.46,10.72-2.15,15.26.76,1.96,1.26,3.07,3.33,3.31,5.58Z"/>
  <path class="cls-15" d="M59.87,30.25c2.1.56,3.97.44,5.99-.12-.33,1.47-1.33,2.33-2.53,2.77-4.51,1.67-9.29,1.93-14,1.07-2.04-.37-6-1.14-6.12-3.85,2.27,1.32,4.84,1.43,7.34.78,1.22-.31,4.45,2.32,8.56.12.23-.12.4-.67.77-.78Z"/>
  <path class="cls-28" d="M51.09,26.22c-2.36-.26-7.12-.69-7.7-3.84,3.35-.2,6.6.79,9.45,2.46,1.09.64,2.05.72,3.2.13,4.14-2.14,5.32-2.41,10.09-3.07.44,2.02-2.92,3.27-4.36,3.69-3.46,1.01-7.09,1.02-10.68.63Z"/>
  <path class="cls-36" d="M53.05,24c-6.15-3.69-10.57-2.12-11.03-3.19-.2-.46.63-1.22,1.1-1.21,5.16,3.04,19.03,2.98,23.64-.36.33-.24.6.36.72.68.4,1.08-3.07,1.26-4.22,1.48-2.64.51-5.1,1.28-7.38,2.69-.99.61-1.86.49-2.84-.09Z"/>
  <path class="cls-8" d="M56.16,19.31c-4.11-1.95-8.25-3.2-12.82-3.39-.61-.03-1.18-.19-1.61-.61.15-.55.58-.92,1.15-.95,4.4,2.81,13.05,2.6,18.01,1.73,2.11-.37,4.01-1.18,5.86-2.1.37,0,1,.72.82,1.12-.49,1.09-3.05-.11-6.89,2.14-1.06.62-2.06,1.25-3.08,1.93-.44.29-.95.37-1.44.13Z"/>
  <path class="cls-37" d="M42.96,39.32c.4,2.36,8.07,2.85,10.17,2.95,3.85.18,7.58-.25,11.18-1.57,2.33-.86,1.74-2.25,2.49-2.58.29.57.95,1.19.67,1.96-.4,1.11-2.65.19-4.29,1.88-.86.89-2.56-.5-4.11,1.69-2.43,3.43-4.97-2.04-8.05-.63-1.11.51-2.1.11-3.1-.45-.86-.48-1.99-.41-2.98-.35-1.3.07-2.45-.72-2.43-2.06,0-.38.17-.72.46-.82Z"/>
  <path class="cls-25" d="M42.8,34.45c-.24,0-.71-.15-.83-.41.07-.46.98-1.38,1.53-1.2,1.04.46,1.88,1.18,3.07,1.48,5,1.26,10.25,1.43,15.22.08,1.57-.42,2.8-1.04,4.03-2.08.41-.35,1.59,1.1,1.04,1.46-1.67,1.06-2.82-.79-10.21,4.1-.53.35-1.52-.21-2.04-.45-3.79-1.74-7.62-2.9-11.8-2.98Z"/>
  <path class="cls-4" d="M44.81,39.98c-.79-.26-1.21-.79-1.14-1.62,5.53,2.53,16.33,2.64,21.85-.35.04.78-.45,1.36-1.07,1.62-5.45,2.35-13.93,2.21-19.63.35Z"/>
  <path class="cls-30" d="M50.97,27.18c-2.34,1.63-2.47-.38-4.17.45-.82.4-1.54-.09-1.95-.85l-2.11-.08c-.16-.57.36-1.68.93-1.73,1.16.67,2.18,1.34,3.48,1.56l3.82.66Z"/>
  <path class="cls-34" d="M51.9,29.49c-2.08,1.35-8.27,1.65-9.1-1.28,2.31,1.51,5.21,1.89,7.96,1.15.39-.11.79-.44,1.14.14Z"/>
  <path class="cls-10" d="M65.1,26.73c-2.18-.59-1.57,1.58-5.23.33,1.93-.5,3.81-.78,5.47-1.98.47.36.83.85.74,1.45-.04.26-.72.27-.98.2Z"/>
  <path class="cls-23" d="M66.52,27.67c.17,3.4-8.68,1.87-7.83.69.07-.09.22-.12.42,0,1.85,1.08,5.9,1.33,7.41-.68Z"/>
  <path class="cls-31" d="M57.44,28.4c.16.5-.23.89-.44,1.13-.94,1.08-4.57-.76-5.75-1.54,1.76-1.14,2.99,2.41,6.19.41Z"/>
  <path class="cls-18" d="M52.22,30.33c.42-1.09,1.54.05,3.78.35.91.12,1.5-.44,2.04-1.05.17-.19.86.2.75.42-.68,1.39-5,.94-6.58.29Z"/>
  <path class="cls-27" d="M47.01,28.43c1.52-.48.89.4,3.36.22-1.28.77-5.98.41-6.75-.97,1.24-.79,1.18,1.45,3.39.75Z"/>
  <path class="cls-2" d="M57.54,27.37c-1.63,1.11-2.36,1.3-4.04,0h4.04Z"/>
  <path class="cls-33" d="M65.45,27.69c-1.3,1.18-3.33.87-4.93.53l2.4-.12c.86-.04,1.59-.92,2.53-.41Z"/>
  <path class="cls-16" d="M47.52,57.81c-.17.72,2.27.38,2.55.65-2.18,1.73-6.44,1.18-8.76.09-1.28-.6-1.98-1.79-2.52-3.17-.59.55-.19,1.12-.3,1.72-.76.1-1.28-.5-1.6-1.18-.87-1.87-.1-5.27,2.01-5.39-.03.64-.55,1.18.02,1.7.57-.89,1.09-1.7,1.9-2.22,2.96-1.87,1.07-4.92,3-5.13.77-.08,1.28.27,1.57,1.01,1.2,3-1.05,3.73-.64,5.07.11.34.51.63.97.75,4.54,1.22,6-2.25,7.75-1.17.48.3.76,1.17.41,1.77-.86,1.48-2.48,2.22-4.15,2.59-.72.16-1.45-.07-2.1.48,2.04.83,4.1.13,5.86-1.05.25.98-.4,1.69-1.14,2.23-2.09,1.52-4.67.6-4.82,1.26Z"/>
  <path class="cls-35" d="M58.34,47.5c-.63.17-1.12.83-1.85.92-1.41.17-5.02-2.29-8.56-2.69-.08-.17,0-.23.2-.2,2.31.16,4.63.05,6.95-.59,1.35.99,2.91.93,4.16-.13,2.25.08,4.45-.24,6.34-1.45.28-.18.52-.46.82-.38.24.07,1.06.84.73,1.39-.09.15-.32.34-.63.35-2.98.13-5.84,1.05-8.17,2.79Z"/>
  <path class="cls-7" d="M58.87,53.62c-1.58.5-3.1.34-4.77.26.62-.96.92-1.81.85-2.98,2.79-.18,5.32-.44,8.12-1.25l-.99,1.69c-1.54-.25-2.9.58-3.2,2.28Z"/>
  <path class="cls-3" d="M65.11,50.65c.46.66,1.36.99,1.68,1.59.42.78-.56,1.75-1.19,1.88-.96.2-1.92-.02-2.34-.8s-.53-1.74.23-2.47c.38-.36,1.2-.82,1.63-.2Z"/>
  <path class="cls-28" d="M68.14,51.01c-1.03.47-1.91-.11-2.36-.94-.39-.73-.63-1.46-.13-2.12.44-.59,1.15-1,1.89-.68s1.33.9,1.29,1.86c-.03.67.07,1.53-.69,1.88Z"/>
  <path class="cls-13" d="M63.33,54.76c-.6.88-1.81,1.18-2.71.7s-1.02-1.28-.69-2.13.98-1.42,1.97-1.15c.08,1.01.53,1.8,1.42,2.57Z"/>
  <path class="cls-32" d="M49.7,50.62c-1.08.45-2.36.45-3.58.17-.22-.2-.47-.32-.37-.56.08-.2.28-.31.58-.36l3.37.75Z"/>
  <path class="cls-6" d="M42.53,44.69c-.13.07-.31.02-.45.05-.29-.65.83-1.5,1.11-1.49,1.06.04-.76,1.21-.66,1.43Z"/>
  <path class="cls-5" d="M48.13,45.52c-.07.06-.14.13-.2.2-.35-.04-1.94-.24-1.98-.62.73-.04,1.5.38,2.18.42Z"/>
  <path class="cls-10" d="M53.78,44.33c-1.71.54-9.1.62-9.68-1.54,2.39.79,4.61,1.51,7.02,1.11.89-.15,1.87-.48,2.66.43Z"/>
  <path class="cls-21" d="M60.16,43.89c.47-1.15,2.49-.35,3.53-1.23.56-.47,1.17-.89,1.97-.79-.49.87-1.29,1.17-2.08,1.48-1.09.27-2.06.65-3.42.54Z"/>
  <path class="cls-29" d="M40.75,42.19c-1.09,1.93-3.14.05-7.06,2.74-1.07.73-2.68,1.06-3.66.07-.72-.72-.56-2-.08-2.81,1.77-2.98,6.49-4.47,9.48-3.2,1.27.54,2.02,1.95,1.32,3.2Z"/>
  <path class="cls-19" d="M38.62,45.36c-1.7.4-3.19.58-4.62,1.85.36-2.02,2.78-2.96,4.62-1.85Z"/>
  <path class="cls-20" d="M32.45,14.59c-.38.23-.75.32-1.01.2-.35-.16-.41-.65-.36-.97.1-.61,1.42-.49,1.58-.16.14.28.16.69-.22.92Z"/>
  <path class="cls-41" d="M60.8,8.16c.05.31-.36.29-.52.25s-.48-.21-.39-.46c.12-.32.85-.16.91.21Z"/>
  <path class="cls-24" d="M56.98,9.08c.27-.24.48.04.55.19.09.2.12.45-.11.63-.15.11-.43,0-.52-.19-.07-.14-.11-.45.08-.63Z"/>
  <path class="cls-39" d="M53.62,7.46c.07-.26.44-.1.56-.05.14.06.22.34.14.56-.04.11-.3.1-.43.06-.15-.05-.37-.17-.27-.57Z"/>
  <path class="cls-14" d="M51.83,9.89c-.21.12-.35.14-.48.09-.12-.04-.23-.17-.12-.31.2-.26.69-.37.86-.21.11.1-.06.32-.25.44Z"/>
  <path class="cls-42" d="M48.42,8.36c.26.13-.02.66-.25.74-.15.05-.36.02-.4-.09-.07-.17-.01-.39.14-.52s.36-.21.51-.14Z"/>
  <path class="cls-9" d="M55.96,6.24c.15-.17.39-.12.53,0,.12.09.03.39-.12.52-.08.07-.23.06-.39.02-.13-.04-.23-.3-.02-.53Z"/>
  <path class="cls-38" d="M50.65,6.86c.1-.18.37-.12.52-.08.11.03.18.21.13.38-.03.12-.23.16-.45.1-.15-.04-.33-.16-.21-.4Z"/>
  <path class="cls-17" d="M36.98,42.4c-1.72.54-2.52.9-3.95,1.84-.61.41-1.92.81-2.4-.03s.57-1.88,1.35-2.24c1.67-.77,3.52-.51,5,.43Z"/>
  <g>
    <path class="cls-26" d="M33.3,8.74c-.29-.27-.66-.46-1.03-.59-.58-.19-1.2-.23-1.8-.17-1,.11-2.24.31-2.71,1.28-.12.26-.13.58-.12.87.02.4.1.81.17,1.21.09.54.8,3.45.95,3.98.19.65.32,1.56,1.28,1.52.41,0,.81-.05,1.22-.15.92-.2,1.86-.53,2.62-1.09.38-.29.77-.65.92-1.11.12-.43.08-.91-.07-1.32-.12-.29-.32-.57-.57-.76-.29-.22-.65-.36-1.01-.44,1.24-.72,1.08-2.39.15-3.24ZM32.3,13.83c-.23.31-.83.59-1.19.48-.39-.11-.33-.81-.09-1.03.19-.16.78-.14,1.03-.1.14.02.32.1.36.24.04.14-.02.3-.1.41ZM32.04,10.81c-.03.23-.22.43-.4.57-.31.23-1.09.69-1.27.37-.05-.16-.23-.89-.23-1.05,0-.07,0-.14.03-.19.04-.07.11-.12.17-.15.41-.22.98-.24,1.4-.01.16.09.32.28.31.47Z"/>
    <path class="cls-26" d="M25.57,13.21c-.52.06-1.02.18-1.53.25-1.08.14-.99-1.09.01-.84.34.09.68.2,1.02.25.4.06.83-.04,1.14-.3.96-.83.25-2.69-.6-2.93-1.37-.38-2.93-.05-4.03.91-.43.38-.76.93-.94,1.52-.18.55-.2,1.23-.03,1.82.55,1.89,2.22,1.34,3.33,1.07.81-.2,1.01.65.17.68-.17,0-1.04-.22-1.21-.23-.26,0-.54.02-.76.15-.2.13-.34.34-.41.58-.07.2-.09.42-.09.63-.01.26.02.54.12.77.1.22.27.41.46.52.27.16.56.21.84.26.81.12,1.64.03,2.39-.23.63-.22,1.22-.61,1.66-1.13,1.12-1.34.48-3.96-1.51-3.76Z"/>
  </g>
</svg>