<?xml version="1.0" encoding="UTF-8"?>
<svg id="Layer_1" data-name="Layer 1" xmlns="http://www.w3.org/2000/svg" viewBox="0 0 84.5 88.61">
  <defs>
    <style>
      .cls-1 {
        fill: #912e26;
      }

      .cls-2 {
        fill: #942f27;
      }

      .cls-3 {
        fill: #e64035;
      }

      .cls-4 {
        fill: #ede8d3;
      }

      .cls-5 {
        fill: #e14a38;
      }

      .cls-6 {
        fill: #f2edd7;
      }

      .cls-7 {
        fill: #ece6d2;
      }
    </style>
  </defs>
  <path class="cls-7" d="M38.36,61.61c-9.59-1.34-11.95-8.79-13.54-17.23-3.92-1.39-7.18-3.63-10.12-6.49-1.37-1.33-2.16-3.58-3.64-4.56-1.26-.83-2.39-1.15-3.53-2.3-1.28-1.3-2.93-2.08-3.74-4.01-.44-1.05-3.07-2-3.74-6.26-.35-2.2,1.54-2.64,2.29-3.86,1.22-1.98,2.52-3.96,5.33-3.12.63-1.03,1.71-1.69,2.74-1.71,2.65-.04,3.71,1.98,4.22,4.4,1.45-.45,2.84-.45,4.03.45.92.69,1.65,1.95,1.39,3.36-.2,1.1-.95,1.84-1.89,2.59-.24,3.2.95,3.81.05,6.33,1.02,2.22,2.96,4.04,5.07,5.5v-3.89c-2.59-1.84-1.22-4.13-.46-6.17.91-2.44.58-5.32,1.58-7.81,1.34-3.35,3.3-6.23,6.67-7.39l6.93-2.38c1.38-.47,2.14-1.9,3.55-2.11,1.84-.27,2.78,1.1,4.3,1.27l7.48.83c4.44.49,8.78,5.67,10.13,10.03,1.46-.49,2.81-.76,4.06-1.43.55-.3.03-1.27,0-1.71-.05-.84-.29-1.4-1.05-1.71-1.37-.57-2.06-1.83-2.05-3.18.02-2.41,2.2-3.66,4.64-3.62-.15-1.39-.19-2.76.65-3.95,1.2-1.7,3.85-2.04,5.37-.41,2.55-1.79,4.25.3,5.94,1.54s3.53,1.57,3.47,4.35c-.04,2.05-1.24,3.88-2.06,5.79s-1.44,3.52-2.94,5.06c-.91.93-1.3,2.55-3.01,2.91-1.45,5.98-5.07,10.85-9.96,14.43.7,9.42,1.23,20.93-9.56,24.48,1.42,5.85.32,11.7-2.69,16.81,1.31,1.36,2.49,2.68,3.25,4.36.6,1.31.9,2.69.63,4.09-.48,2.48-2.52,3.95-5.04,3.71-3.9-.37-8.59-4.05-10.46-7.25-2.86-4.88,2.72-7.9,3.15-8.37,2.66-2.93,3.58-7.21,3.01-11.03-.08-.51-.53-.4-.74-.38-1.7.14.08,2.03-1.18,6.31-1.4,4.75-5.31,5.89-9.87,5.27-.94,3.91-4.05,7.31-7.87,5.99-1.35-.47-2.55-1.73-2.98-3.45-.99-3.94-.65-8.18,1.21-11.83.88-1.72,2.61-2.9,4.48-2.77,2.44.18,4.06,2.59,6.59,2.9.12-.73.08-1.47-.12-2.35Z"/>
  <path class="cls-3" d="M16.62,36.76c-1.78-1.76-2.88-4.06-4.3-5.88-1.33.13-2.24-.62-3.14-1.52-1.02-1.01-2.76-1.26-3.24-3.11-.26-.99-3.43-2.5-3.68-5.59-.06-.74.35-1.53,1.1-1.53,1.09,0,1.59.83,2.33,1.55-.46-1.29-1-2.38-.74-3.74.13-.71.73-1.06,1.32-1.15,1.34-.2,1.81,1.78,2.6,2.5.08-1.39,0-4,1.79-4.09,2.43-.11,1.37,4.82,2.73,6.39.57-1.36,1.67-2.29,3.15-2.27.68,0,1.17.42,1.35.89.56,1.5-1.98,2.32-1.81,3.49.14.98-.33,2.33-.05,3.15.41,1.2.71,2.21-.44,3.26,2.08,4.07,5.66,7.48,10.31,9.04-.26-2.8-.55-5.84-.64-8.67-.67-.51-1.37-.92-1.36-1.81,0-.8.72-1.31,1.35-1.79.36-6.55.98-12.15,7.86-14.97,2.02-.83,4.33-.92,6.28-1.86.91-.44,1.29-1.82,2.48-1.97,1.31-.17,2.23.73,3.04,1.47,9.71-.21,14.19,1.5,17.2,11.04,2.39-.52,4.41-1.22,6.55-1.92.97-.32,1.72.47,1.9,1.24.21.9-.28,1.54-1.2,1.97-2.05.95-4.21,1.43-6.46,2.13l1.03,6.33c1.05-.51,1.77-1.44,2.61-2.28,2.18-2.17,3.64-4.77,4.4-7.76.12-.48.58-1.26.02-1.6-1.19-.73-1.06-1.71-.84-2.96-1.14-3.13.02-2.79-2.64-4.4-.54-.33-.89-.82-.86-1.31.03-.55.38-.99.97-1.23,1.4-.56,2.83.09,3.76,1.33.73-2.07-1.05-5.82.6-6.75.59-.33,1.41-.18,1.92.38,1,1.11,1.17,2.57,1.08,4.08.57-1.12.67-4.45,2.57-4.22,2.12.26,1.42,3.84,1.07,5.37.61-1.04,1.14-3.17,2.75-2.86.45.09.75.51.88,1.03.64,2.49-1.81,5.24-1.88,5.77-.3,2.19-1.57,3.19-2.79,4.69-.69.85-.83,2.53-2.81,2.16-1.1,6.34-4.81,11.61-10.26,15.1l.25,6.35c.12,3.12-.05,6.11-.78,9.12-1.23,5.09-4.5,7.29-9.41,8.9,1.98,7.12.9,12.37-2.94,18.67,1.78,1.4,3.39,2.94,4.24,5.08.54,1.36.51,3.19-.76,4.09-.88.62-2.3.39-3.32,0-2.91-1.08-5.42-3.15-7.14-5.68-.95-1.39-.56-2.95.45-4.1,1.62-1.84,1.41.32,4.16-4.64,2.13-3.83,2.58-8.3,1.08-12.57l-5.5.61c.92,3.9,1.09,10.28-3.67,11.25-1.84.37-3.62.08-5.56-.43-.63,2.39-1.11,5.62-3.8,6.58-1.49.53-2.95-.21-3.4-1.76-1.02-3.53-.64-7.39,1.03-10.67.38-.75,1.07-1.26,1.61-1.42,2.3-.69,3.42,2.48,8.14,3.01,2.55.28,1.37-5.18,1.07-6.65-6.09-.65-8.91-2.36-11.17-7.94-1.16-2.87-1.76-5.8-2.36-8.93-3.8-1.27-7.13-3.1-10.05-5.99Z"/>
  <path class="cls-4" d="M60.09,27.25l-1.02.47c-3.72.2-7.48.9-10.99,1.87-1.71,1.58-3.5,1.61-5.54.65-2.25-.44-7.75.3-10.03.64-.72.11-1.56.31-2.24.57-.28.11-.1,2.12.81,2.1.88,1.66,1.72,3.35,2.51,5.08,1.24,2.06,6.88,1.47,8.39.57.75-.45,1.19-1.4,1.47-2.2l1.06-4.06c.71-1.2,1.38-1.33,2.38-.33l2.16,3.92c1.75,3.12,9.32,1.59,10.05-1.77l.76-3.96.51-.23c.64.82.86,6.26.96,7.8.21,3.37.22,6.63-.52,9.91-.62,2.74-2.24,4.92-4.99,5.9-5.32,1.89-11.04,2.49-16.68,1.95-2.95-.28-5.24-1.76-6.5-4.38-.81-1.64-1.38-3.32-1.81-5.15-1.36-5.8-2-11.63-2.2-17.74,10.48-1.36,20.46-2.8,30.82-5.24.39,1.21.58,2.42.63,3.62Z"/>
  <path class="cls-2" d="M60.09,27.25c.89,0,.99,1.24,1.03,1.77.04.6-.5.96-.76,1.55l-.79,4.1c-.54,3.28-4.28,3.71-7.32,3.99-4.46.41-4.77-6.43-6.57-6.25s-.58,7.01-4.73,7.65c-1.64.25-3.3.35-4.94.3-3.6-.1-3.74-4.34-5.07-6.27-.39-.57-1.3-.67-1.2-1.48.06-.45-.24-1.42.45-1.63,2.46-.78,4.93-.97,7.53-1.06,1.69-.06,3.86-.6,5.39.03,1.79.74,2.83.75,4.38-.53,1.01-.83,2.97-.8,4.28-1.13,2.82-.71,5.53-1.05,8.3-1.04Z"/>
  <path class="cls-1" d="M37.52,44.62c-.89-.02-1.54.81-2.29.05,3.22-.85,2.18-2.99,2.84-3.13.76-.15.34,1.4.35,1.92,4.8,2.11,10.91,2.16,15.22-1.07-.05-.82-.84-1.33-.16-2.17.61,1.63,1.37,2.58,3.11,2.63-.66.9-1.35.18-2.05.13-2.89,3.06-1.39,7.96-6.36,8.87s-8.91-2.51-10.65-7.22Z"/>
  <path class="cls-5" d="M46.07,48.17c1.49-.61,4.08.7,4.06,1.63,0,.35-.32.58-.74.76-2.75,1.19-5.97.45-8.24-1.62,1.64-1.26,3.66-1.05,5.39.28.14-.5-.34-.65-.47-1.05Z"/>
  <g>
    <path class="cls-6" d="M48.83,13.55c-.27-.29-.62-.51-.98-.66-.56-.23-1.18-.31-1.78-.3-1.01.04-2.26.15-2.78,1.09-.14.25-.17.56-.18.85,0,.4.04.82.09,1.22.05.55.57,3.49.67,4.03.15.66.22,1.58,1.17,1.6.4.02.81,0,1.22-.07.93-.14,1.89-.4,2.68-.91.4-.26.81-.6.99-1.04.15-.42.15-.9.02-1.32-.1-.3-.28-.59-.51-.79-.28-.24-.63-.4-.98-.51,1.28-.63,1.24-2.31.37-3.21ZM47.48,18.54c-.25.29-.87.53-1.22.4-.38-.14-.28-.83-.02-1.03.2-.15.79-.09,1.03-.03.14.03.31.12.35.26.04.14-.04.3-.13.4ZM47.43,15.52c-.05.23-.25.41-.44.54-.32.21-1.13.62-1.29.28-.04-.16-.17-.91-.16-1.06,0-.07.01-.14.05-.19.04-.06.11-.11.18-.14.42-.2,1-.17,1.39.08.15.1.3.31.27.49Z"/>
    <path class="cls-6" d="M40.82,17.47c-.52.02-1.03.11-1.55.14-1.08.06-.91-1.16.07-.84.33.11.66.24,1,.32.39.09.83.01,1.15-.22,1.01-.76.43-2.66-.4-2.96-1.34-.47-2.91-.25-4.08.63-.45.34-.82.88-1.04,1.45-.22.54-.28,1.21-.16,1.81.42,1.92,2.11,1.48,3.24,1.29.82-.14.96.71.12.69-.17,0-1.02-.29-1.19-.31-.26-.02-.54-.02-.76.1-.2.11-.36.32-.45.55-.08.19-.12.41-.14.62-.03.26-.02.54.07.78.08.23.24.43.42.55.25.18.54.25.82.32.8.17,1.63.14,2.39-.07.64-.18,1.26-.53,1.73-1.01,1.21-1.25.75-3.91-1.25-3.85Z"/>
  </g>
</svg>