<?xml version="1.0" encoding="UTF-8"?>
<svg id="Layer_1" data-name="Layer 1" xmlns="http://www.w3.org/2000/svg" viewBox="0 0 60.22 104.11">
  <defs>
    <style>
      .cls-1 {
        fill: #f1dfc3;
      }

      .cls-2 {
        fill: #f5e9d0;
      }

      .cls-3 {
        fill: #f4e9cd;
      }

      .cls-4 {
        fill: #d1ad9a;
      }

      .cls-5 {
        fill: #d7baa9;
      }

      .cls-6 {
        fill: #dcc3b1;
      }

      .cls-7 {
        fill: #f3e8ca;
      }

      .cls-8 {
        fill: #d7c1b2;
      }

      .cls-9 {
        fill: #59251e;
      }

      .cls-10 {
        fill: #f0dcc6;
      }

      .cls-11 {
        fill: #8f7463;
      }

      .cls-12 {
        fill: #f2dec3;
      }

      .cls-13 {
        fill: #bf332f;
      }

      .cls-14 {
        fill: #f4e8cc;
      }

      .cls-15 {
        fill: #d7c0ae;
      }

      .cls-16 {
        fill: #60342b;
      }

      .cls-17 {
        fill: #56241f;
      }

      .cls-18 {
        fill: #d1b19c;
      }

      .cls-19 {
        fill: #54221e;
      }

      .cls-20 {
        fill: #573028;
      }

      .cls-21 {
        fill: #bfa28c;
      }

      .cls-22 {
        fill: #ddc1b0;
      }

      .cls-23 {
        fill: #ede8d6;
      }

      .cls-24 {
        fill: #58251f;
      }

      .cls-25 {
        fill: #d7bfab;
      }

      .cls-26 {
        fill: #642e26;
      }

      .cls-27 {
        fill: #f3e7cc;
      }

      .cls-28 {
        fill: #dcb9aa;
      }

      .cls-29 {
        fill: #967e6a;
      }

      .cls-30 {
        fill: #5a3128;
      }

      .cls-31 {
        fill: #efd6bf;
      }

      .cls-32 {
        fill: #5b231e;
      }

      .cls-33 {
        fill: #d8c2af;
      }

      .cls-34 {
        fill: #6a5646;
      }

      .cls-35 {
        fill: #d8c2ad;
      }

      .cls-36 {
        fill: #dbbead;
      }

      .cls-37 {
        fill: #debbac;
      }

      .cls-38 {
        fill: #efdccc;
      }

      .cls-39 {
        fill: #dab1a3;
      }

      .cls-40 {
        fill: #b23330;
      }

      .cls-41 {
        fill: #e64035;
      }

      .cls-42 {
        fill: #ce9e8e;
      }

      .cls-43 {
        fill: #d8beaa;
      }

      .cls-44 {
        fill: #d7b6a2;
      }

      .cls-45 {
        fill: #57241f;
      }

      .cls-46 {
        fill: #e6d1bf;
      }

      .cls-47 {
        fill: #55241e;
      }

      .cls-48 {
        fill: #f3e7cb;
      }

      .cls-49 {
        fill: #d8bcaa;
      }

      .cls-50 {
        fill: #edd9c9;
      }

      .cls-51 {
        fill: #dcc6b5;
      }

      .cls-52 {
        fill: #7b5c4d;
      }

      .cls-53 {
        fill: #5c251e;
      }

      .cls-54 {
        fill: #dcc7b5;
      }

      .cls-55 {
        fill: #efddc3;
      }

      .cls-56 {
        fill: #5d3b33;
      }

      .cls-57 {
        fill: #ee7f6d;
      }

      .cls-58 {
        fill: #5b251e;
      }

      .cls-59 {
        fill: #f2edd7;
      }

      .cls-60 {
        fill: #e2bcaa;
      }

      .cls-61 {
        fill: #d7bcaa;
      }

      .cls-62 {
        fill: #efe1ce;
      }

      .cls-63 {
        fill: #d6b09a;
      }

      .cls-64 {
        fill: #592e26;
      }

      .cls-65 {
        fill: #d9c5b4;
      }

      .cls-66 {
        fill: #f8c1a2;
      }

      .cls-67 {
        fill: #cfab98;
      }

      .cls-68 {
        fill: #cea08f;
      }

      .cls-69 {
        fill: #d4a999;
      }

      .cls-70 {
        fill: #ecd0c2;
      }

      .cls-71 {
        fill: #df4038;
      }

      .cls-72 {
        fill: #d8c3b0;
      }

      .cls-73 {
        fill: #63382e;
      }

      .cls-74 {
        fill: #e3c1b2;
      }

      .cls-75 {
        fill: #602b22;
      }

      .cls-76 {
        fill: #f3e6ce;
      }

      .cls-77 {
        fill: #f3e9cd;
      }

      .cls-78 {
        fill: #e2413a;
      }

      .cls-79 {
        fill: #c3a68f;
      }

      .cls-80 {
        fill: #53221c;
      }

      .cls-81 {
        fill: #d63a35;
      }

      .cls-82 {
        fill: #d7bfaf;
      }

      .cls-83 {
        fill: #d9c3b1;
      }

      .cls-84 {
        fill: #d4aa99;
      }

      .cls-85 {
        fill: #6b241d;
      }

      .cls-86 {
        fill: #caa08f;
      }

      .cls-87 {
        fill: #e44339;
      }

      .cls-88 {
        fill: #e55e53;
      }

      .cls-89 {
        fill: #d7c2af;
      }

      .cls-90 {
        fill: #d5bdab;
      }

      .cls-91 {
        fill: #d8bea9;
      }

      .cls-92 {
        fill: #6b261e;
      }

      .cls-93 {
        fill: #70291e;
      }

      .cls-94 {
        fill: #745b4e;
      }

      .cls-95 {
        fill: #ca9d8c;
      }

      .cls-96 {
        fill: #572821;
      }

      .cls-97 {
        fill: #d3ab98;
      }

      .cls-98 {
        fill: #826050;
      }

      .cls-99 {
        fill: #572820;
      }

      .cls-100 {
        fill: #cb9f8d;
      }

      .cls-101 {
        fill: #8d7665;
      }
    </style>
  </defs>
  <path class="cls-23" d="M34.81,103.93l-4.27-.02c.78,0-11.84.08-9.24-.11l-3.79.28c-1.38.1-2.99-.07-4.16-.87-1.6,1.18-3.4.66-5.19.68-1.9.02-3.65.73-5.45-.43-1.75-1.13-2.8-3.38-1.72-5.37.2-.37.79-.62.63-1.16-.37-1.27-.18-2.49.27-3.79-1.63-.67-2.13-2.1-1.81-3.69l1.45-7.34c.2-1.02.81-2.14,1.86-2.48,1.72-.54,3.64-.52,5.37-.13.67.15,1.28.45,1.83-.28l-1.6-1.61c-.51-.51-.64-1.31-.67-2.06l-.17-3.76c-.04-.96.33-1.83.71-2.71-3.04-2.38-2.19-4.28-2.22-7.84-2.61-.93-4.59-2.94-5.46-5.14-1.54-3.89-.21-8.13,3.44-10.78-2.2-3.47-1.91-7.81,1.1-10.6,2.31-2.14,5.46-2.9,8.49-1.58.16-.47.18-1.34-.43-1.51-1.81-.5-3.1-1.96-2.92-3.93.25-2.7,2.06-4.25,1.64-5.36-.62-1.66.22-2.82.82-4.22,1.07-2.5-1.52-12.49,12.91-16.02,2.33-2.95,5.15-2.29,8.04-1.12,2.7,1.09,12.01-.48,15.38,10.47l3.87-1.02c1.45-.38,2.99.19,3.85,1.45,1.29,1.9.64,4.29-1.18,5.64-1.22.91-2.58,1.3-4.15,1.79.98,1.33,1.74,2.52,2.42,3.88,1.07,2.15.02,4.57-2.35,5.33l-.03,9.25c1.92,1.57,4.15,3.32,5.36,5.51,2.63,4.75,1.01,9.5-3.27,12.37-1.16.78-1.5,3.27-3.86,2.89.6,1.62.45,2.35.22,3.64,1.4.66,2.83,1.08,3.99,2.05,1.93,1.61,2.53,4.23,1.36,6.43-.79,1.49-2.61,1.84-4.06,2.26-.07,3.42-1.01,4.34-3.79,6.05l2.26.85c1.36-.9,2.77-.4,4.2-.37,1.24.03,2.43-.52,3.69-.1,1.48.5,2.22,1.91,1.93,3.49-.36,1.94-.84,3.78-1.1,5.77-.13.95-.51,2.08-.7,2.95.84,1.41.92,2.72.73,4.29-.11.91.03,1.79-.24,2.75-.51,1.78-1.35,3.39-2.78,4.52-2.03,1.6-4.23.78-6.35.53-1.39,0-2.92.62-4.62.21.92.22-9.79.05-10.27.05Z"/>
  <path class="cls-41" d="M49.11,20.98c.24-.14.46-.13.49.2.01.18-3.09,1.76-3.25,1.67-.29-.16-.4-.36-.11-.43l-.43-.45-.43-3.11c-8.7,1.35-17.5,2.79-26.38,4.32.21.58.58,2.06-.07,2.46-.03.19-.15.45-.26.41-1.03-.31-2.12-.79-2.99-1.43-.11-.08,0-.35.1-.51-.05-2.29-.8-1.45-1.1-2.45s.59-1.74,1.1-2.53l.38-4.66c.52-6.26,6.24-9.31,11.77-10.31.47-1.11,1.31-1.73,2.31-1.86,1.14-.15,2.11.34,2.77,1.37,4.76-.24,10.04.82,12.79,5,1.1,1.66,1.66,3.55,2.23,5.47,1.65-.01,5.83-1.74,6.85-1.39.63.22.88.92.86,1.47-.09,2.19-5.04,2.97-7.01,3.58l.37,3.17Z"/>
  <path class="cls-99" d="M16.73,38.19l.51.09c.39,1.08.52,2.8.18,3.9-.29.93-1.16,2.61-1.94,3.01.77,1.33,1.17,2.68,1.22,4.06l.47.06c.16.79.44,1.51.82,2.17,1.97-.43,2.82.66,3.15,2.22.37.15,1.68.31,2.07.17.44-.15,2.31-1.18,2.32-1.32.06-.54.08-1.22-.08-1.74l-2.29-.44-.2-.46c-.56.1-1.02-1.38-.92-1.62.42-1.03.79-.54.94.34.14-.12.3-.19.48-.12,2.5.89,4.68.97,7.34.75l.33.39c.43-.07.61-.01.55.18-.36.51-.55,1.16-.56,1.93-.38.64.25.95,1.88.93l-.19.3c-.31.38-.23.49.25.36,1.09,1.23-.17,1.56-1.34,1.56-.81.57-1.67.93-2.6,1.08,2.92.23,5.8.36,8.65.38.39-.13.7-.35.93-.66.44-.65,1.1-.11.58.45.77.36.12,1.14-.41,1.57,1.11-.07,2.21.54,2.74,1.46l.22-.42,3.15-.69.33.39c.83.01,2.13.15,2.73.8.57.61.32,1.95.1,2.63-.18.56-.97.48-1.34.74s-.07.74,0,1.01l.32.4c-.15,1.19-.15,2.39-.01,3.6,1.02.4,1.62.7,2.33,1.61.22.29.54,1.16.08,1.34-.29,1.28.23,2.69-.19,4.05-.83,2.64-7.45,3.94-10.01,4.35-6.76,1.08-13.57,1.14-20.35.2-1.83-.25-7.72-1.37-8.13-3.33-.32-1.55-.48-3.44-.1-4.97.32-1.29,1.95-1.5,2.89-2.41-1.41-.62-2.94-.88-4.03-1.89-.63-.58-.37-1.51-.52-2.28-.24-1.28.21-2.3,1.51-2.84-.05-.73-.3-1.43-.7-2.08-3.76.21-6.86-2.71-6.95-6.31s2.74-6.66,6.72-6.78c-2.48-.95-4.01-2.99-4.06-5.53-.04-2.46,1.42-4.78,3.92-5.6,2.86-.94,5.77.49,7.2,3.03Z"/>
  <path class="cls-99" d="M38.2,60.27c-.89.67-2.89.6-3.47-.49.22-1.3,3.7-1,3.8-.17.02.16,0,.4-.33.66Z"/>
  <path class="cls-41" d="M49.54,24.36c.19,5.01.45,9.17-.02,14.42,1.86,1.36,3.67,2.69,5.11,4.51,1.67,2.12,2.32,4.91,1.15,7.38-.74,1.56-2.25,2.38-3.67,3.1l-.42-.38c-.03-1.26-.29-2.52-.87-3.65l.17-.54v-.47c2.3-1.77-1.26-4.81-2.76-6.02-1.07,1.5-2.62,3.43-4.6,3.38l-.54.32c-2.19-.36-4.42.2-6.14,1.61h-.64c-.43.33-.76.39-.98.17-.59.15-.54-2.66-.46-2.82s.25-.23.41-.29l.41-.48c5.26-.64,10.18-1.65,10.56-7.92.2-3.23.27-6.47,0-9.71,0-.44.16-.87.32-1.28-.35-.58,1.8-1.89,2.24-1.99.74-.16,1.53.06.72.66Z"/>
  <path class="cls-96" d="M49.54,24.36c.31-1.31-2.63,1.14-2.97,1.33l-.45.73-3.33,2.03c.31,5.9-8.69,7.01-10.32,1.43-.67-.55-1.12.05-1.36,1.81-1.2,3.39-4.51,3.05-7.42,2.71-2.57,2.12-4.71-.85-2.42-2.88l-.09-.65c-.88-.41-1.53-.95-1.92-1.62-.1.12-.26.29-.37.24-.14-.06-2.38-1.53-2.53-1.66l-.23-.46c-.46-.78-.49,1.28-1.26,1.84-.41.29-.95.1-1.23-.18-.29-.29-.53-.71-.4-1.22.35-1.38.98-3.98,2.55-3.69.02.34,3.05,1.75,3.14,1.52.39-.17.83.01,1.31.54l.71.33c.65.08,4.2-.41,5.01-.56.17-.03-3.25-.16-3.5.22-.53-.19-.4-.55-.07-.97,1.3-1.63,6.28-1.76,7.42.29,1.16-.16,2.31-.27,3.47-.32.66-2.24,3.88-3.83,6.09-2.83.78.35,1.57.77.53,1.37-.24-.33-3.93.81-3.44,1.05.33.17,6.56-.64,7.31-1.14l2.01-1.41.45.23c-1.23.65,4.55-2.08,2.88-1.44,1.52-.59,2.95,2.55,3.36,3.56.25.6-.02,1.19-.41,1.49-.41.33-1.11.38-1.43-.08l-1.09-1.6Z"/>
  <path class="cls-53" d="M12.19,97.11l-.88,4.38c-.45.35-1.48.26-2.02-.05l1.75-8.8c.66-.27,1.83-.46,2.33-.05l.8,4.32,2.26-4.33c.57-.46,1.76-.27,2.5,0l-1.57,8.81c-.61.37-1.47.26-2.07,0l.55-3.95-1.54,2.69c-.17.29-1.18.34-1.36.05-.52-.85-.25-1.91-.75-3.09Z"/>
  <path class="cls-41" d="M19.25,29.24l.53.62c.33,3.57,1.15,6.98,2.45,10.23l-.15.59.12.45c-.47.56-2.45,2.31-2.74,1.19-.25.03-.48-.08-.67-.33-.64.48-1.13,1.04-1.47,1.7l.39.52.31.43c-.32,1.38-.07,2.73.55,3.99l-.39.38c-.08.63-1.24.58-1.48.24-.56-1.29-1.07-2.63-1.6-4.07.7-.86,1.59-1.57,1.86-2.81.25-1.17.4-3.05-.23-4.17.28-.13,1.13-.34,1.02-.85-.74-3.38-1.35-6.65-1.63-9.98.52-.09,2.68,1.54,3.13,1.88Z"/>
  <path class="cls-53" d="M48.29,101.28c-.14.56-1.6.49-1.93.16-.55-1.28-.91-2.91-1.34-4.37l-.95,4.38c-.36.4-1.5.3-2-.04l1.66-8.64c.27-.47,1.75-.57,2-.12l1.29,4.06.93-4.03c.12-.51,1.66-.47,2.06.01-.53,2.81-1,5.69-1.72,8.59Z"/>
  <path class="cls-9" d="M56.06,90.46c-.11.56-1.73.63-1.95.18-.66-1.35-.82-2.9-1.36-4.24-.46,1.44-.36,2.81-.89,4.15-.2.5-1.59.46-1.98.01.49-2.79.83-5.71,1.63-8.45.2-.52,1.71-.6,2.04-.18l1.28,4.27c.5-1.37.34-2.94.96-4.2.27-.55,1.53-.36,2-.06l-1.74,8.53Z"/>
  <path class="cls-85" d="M43.64,46.08c.89-.23,1.74-.02,2.57.63.94.77,1.27.89,2.42.77.88.14,2.84.66,2.36,1.72.81,1.29,1.15,3.1,1.12,4.57-.04,1.88-1.68,2.75-3.3,2.92-.91.1-1.83.96-2.78.32-.14-.09-.41.02-.52.05-.12.04-.12.28-.21.35l-.26.66c-.32.3-3.73,1.12-3.69-.27l-.51.11c-.42-.74-.94-1.34-1.56-1.79-.08-.2-.26-.52-.58-.45-.1.01-.18-.13-.22-.41-.19-.05-.19-.11-.01-.2-.29-.23-.45-.58-.48-1.04-.3-.13-.25-.27.1-.27,0-.51-.09-.98-.29-1.41-.59-.44.3-1.76.7-2.25.26-.32.59-.7.96-.89,2.39-1.24.89,1.48-.02,2.31-.32.63-.45,1.48-.25,2.17.45,1.53.75.74,1.14-.34,1.68-2.9,3.83-1.87,1.28.71-1.07,2.08.9,3.92,2.58,2.42-.92-.68-1.05-1.64.39-1.41,1.95,1.11,3.52,1.53,4.47-.95.84-.3,1.02.27.9,1.02,1.79-1.21.73-5.32-1.19-5.96,1.02,2.59-.86,1.86-1.86.16-4.49-4.43-10.6-1.67-12.23,3.73l-.37.34c-.18.15-.41.22-.69.21-.38.03-.64-.19-.79-.67.22-.49-1.16.33-2.11-.79-.12-.14.27-.39.42-.44.07.18.14.39.21.63.3-.39.84-.55,1.6-.48.29-.17.57-.3.85-.37.08-1.11.53-1.71,1.37-2.39.25-.61.65-.98,1.18-1.11,1.98-1.86,4.7-2.52,7.32-1.94Z"/>
  <path class="cls-32" d="M13.87,90.82c-.98-.83-.78-2.29-1.6-3.27-.7.91-.26,2.16-.84,3.01-.37.54-1.51.36-2.07,0l1.61-8.5c1.29-.55,2.84-.57,4.22-.23,1.1.27,1.47,1.24,1.47,2.29,0,1.29-.86,2.22-1.89,2.96l1.01,2.9c0,.54-1.5,1.19-1.92.84Z"/>
  <path class="cls-19" d="M45.44,90.99c-1.39.02-2.35-.78-2.7-1.99-.63-2.93.9-7.47,4.47-7.46,1.45,0,2.51.95,2.71,2.37.39,2.84-1.07,7.03-4.48,7.08Z"/>
  <path class="cls-24" d="M33.75,101.33c-.16.64-1.49.41-2.03.08l1.69-8.74c.37-.43,1.73-.46,2.01,0,.13,1.05-.47,2.27-.49,3.28.52.1,1.06.05,1.61-.05l.75-3.17c.13-.56,1.69-.6,2.04-.07l-1.68,8.79c-.59.36-1.5.26-2.04-.04l.55-3.34c-.48-.19-1.08-.17-1.61-.04l-.8,3.3Z"/>
  <path class="cls-9" d="M53.46,98.34c-.38-.12-.23-1.4.15-1.55.9-.38,2-.2,3.03-.12-.04,1.46-.46,2.77-1.34,3.88-1.18,1.5-3.64,1.71-4.84.17-1.52-1.95-.43-7.26,3.03-8.4.74-.24,1.76-.13,2.35.31.48.36,1.16,1.28.86,2.03-.28.37-1.34.72-1.76.54-.31-.15-.38-.83-.77-.81-.36.01-.78.12-1.05.49-.95,1.32-1.67,4.73-.15,4.9.67.07,1.09-.56,1.19-1.14.05-.26-.25-.15-.71-.3Z"/>
  <path class="cls-24" d="M22.44,99.91c-.07-.37-1.49-.31-1.66,0l-.86,1.59c-.29.53-1.45.17-2.14-.09.52-1.5,1.15-2.81,1.75-4.27.64-1.56,1.15-3.18,2.08-4.59.72-.37,1.83-.26,2.69-.1l.51,8.82c-.4.53-1.51.44-2.08.24l-.29-1.61Z"/>
  <path class="cls-24" d="M5.29,87.85l-.75,2.72c-.16.58-1.41.35-2.1.15l1.66-8.71c1.3-.42,2.59-.46,3.88-.25s1.92,1.3,1.84,2.6c-.14,2.23-2.16,3.73-4.52,3.49Z"/>
  <path class="cls-45" d="M26.41,101.41c-.72-.35-1.4-1.39-.93-2.09.29-.44,1.27-.69,1.68-.64.28.27.29.86.7,1.01.52.18.94.04,1.2-.37.78-1.25-1.96-1.32-2.67-2.96-.52-1.21.14-2.55.92-3.29.99-.93,2.44-1.13,3.63-.56.73.35,1.43,1.38,1.07,2.16-.27.41-1.32.64-1.72.56-.28-.29-.31-.94-.79-.98-.37-.03-.75.19-.92.58-.49,1.17,1.77,1.43,2.45,2.54.96,1.56.05,3.58-1.66,4.15-.97.33-1.9.39-2.94-.11Z"/>
  <path class="cls-26" d="M38.08,89.54c-1.05,1.44-2.98,1.89-4.53,1.1-.69-.35-1.27-1.34-.8-2.05.24-.37,1.24-.77,1.61-.57s.38.82.69.88c.49.09,1.09.12,1.27-.43.42-1.25-2.13-1.37-2.71-2.83-.43-1.07,0-2.31.69-3.08.75-.83,1.92-1.16,3.1-1.02,1.11.13,2.17,1.17,1.79,2.3-.25.42-1.39.73-1.8.5-.28-.16-.25-.79-.58-.8-.38-.01-.72.03-.9.25-.27.33-.32.82.03,1.13s.76.49,1.18.7c1.47.72,1.99,2.48.95,3.91Z"/>
  <path class="cls-24" d="M3.96,101.3c-.72-.4-1.15-1.39-.72-2.02.31-.45,1.04-.46,1.52-.62.42.51.62,1.37,1.52,1.05.22-.08.47-.31.53-.69.16-.93-1.94-1.19-2.62-2.44-.51-.93-.35-1.97.22-2.88.47-.77,1.35-1.31,2.45-1.48,1.53-.24,2.93.91,2.83,2.41-.43.35-1.38.69-1.85.47-.31-.15-.22-.8-.65-.83-.27-.02-.69.07-.89.38-.94,1.46,2.39,1.44,2.76,3.68.14.82-.1,1.67-.71,2.31-1.1,1.15-2.91,1.47-4.38.66Z"/>
  <path class="cls-58" d="M19.37,87.2c-.41.23-.31,1.06-.41,1.54l2.87.11c.07.5-.01,1.48-.41,1.84-.74.21-4.26.29-4.72.03-.15-.09-.24-.41-.19-.7l1.35-7.2c.13-.7.47-1.16,1.27-1.1,1.19.09,2.53-.3,3.73.11.45.15.16,1.51-.25,1.7-.73.34-1.73-.09-2.54.22-.35.13-.5,1.15-.26,1.37l1.99.19c.04.5.04,1.32-.39,1.65-.54.41-1.39-.11-2.04.25Z"/>
  <path class="cls-41" d="M49.52,70.55l-.41-1.05c-.38-.96-1.55-1.15-2.48-1.68.1-1.45-.25-2.97.17-4.22,1.87.5,3.78,1.09,5.57,2.03.97.51,1.65,1.54,1.79,2.58.33,2.47-3.26,2.38-4.64,2.33Z"/>
  <path class="cls-80" d="M25.18,88.48c.15.53.85.42,1.11.32.37-.14.51-.61.84-1.02.3-.38,1.71.16,1.6.71-.39,2.05-2.78,3.05-4.57,2.2-2.41-1.14-1.64-5.73.47-8.03.97-1.06,2.46-1.41,3.79-.87.9.36,1.47,1.55,1.09,2.42-.31.35-1.37.62-1.74.37-.31-.21-.2-.84-.56-.89-1.62-.23-2.53,3.08-2.03,4.79Z"/>
  <path class="cls-17" d="M31.35,90.58c-.38.46-1.71.45-2.16.02l1.73-8.61c.33-.5,1.53-.35,2.11-.12l-1.68,8.71Z"/>
  <path class="cls-24" d="M40.93,101.37c-.32.55-1.62.35-2.11.07l1.71-8.75c.37-.45,1.7-.55,2.1,0l-1.7,8.7Z"/>
  <path class="cls-47" d="M41.08,90.63c-.74.33-1.51.32-2.19-.08l1.72-8.62c.62-.36,1.53-.32,2.17-.03l-1.7,8.74Z"/>
  <path class="cls-13" d="M45.32,58.43c-1.71-.03-2.37.74-3.7.73-.54-.18-.79-1.04-.26-1.35,1.25.86,2.79.49,3.96-.39v1.01Z"/>
  <path class="cls-23" d="M46.23,22.42c-1.15.6-2.29,1.94-3.66,2.09l-6.96.75c.78-1.75,2.66-1.88,4.57-2-2.31-1.77-5.61-.41-6.69,2.22-1.29.14-2.5.36-3.82.37-1.69-2.13-5.55-1.86-7.38,0,1.92-.54,3.7-.73,5.27.35l-6.67.72c-.67-.12-1.43-.76-1.97-1.29-.05-.87-.25-1.7-.16-2.73,3.01-.62,5.85-1.07,8.87-1.58l18.07-3.06c.22,1.53.51,2.82.53,4.15Z"/>
  <path class="cls-89" d="M27.99,78.98c-3.54-.02-14.06-.47-16.25-3.25-.55-.7-.24-1.76-.23-2.58,1.65.91,3.23,1.53,5.15,1.87,8.83,1.57,17.88,1.35,26.62-.68,2.04-.47,3.74-1.21,5.37-2.37v2.27c-.73,1.79-4.58,2.86-6.37,3.29-4.71,1.12-9.4,1.48-14.28,1.44Z"/>
  <path class="cls-35" d="M17.84,65.84c-1.38-.12-8.23-.94-7.84-2.7.08-.37.49-.81.94-.9.18.29.19.71.47.82.85.37,1.81.12,2.65-.22s2.65-.2,2.61-.79l-.05-.82c.48.63.95.63,1.5.82.43.15.6.67,1.07.68s.84.03,1.24-.46c.45.06.84.99.74,1.49-.17.87.54.86.82,1.19.63.75,1.27.44,1.95.67.91.3,1.31.36,2.23,0,.68-.28,1.31-.14,1.91-.87.3-.37.98-.46.69-1.36-.04-.14,0-.46.06-.62.1-.27,2.39-.11,2.44-1.2l.12-2.43c.39-.06.72-.14,1.21,0-.79.53-.81,2.21.09,3.36,1.27,1.63,1.47-.08,2.62.92.71.62,1.49.46,2.16-.12.45-.39.7.41,2.21.1.27-.06.18-.66.52-.79l.91-.36c.24-.09.18-1.15.2-1.57.01-.24.99-.69.52,2.62-.11.76-.24,1.42-.14,2.24-2.38.96-2.87-.05-7.07.24-5.66.39-11.19.59-16.81.08Z"/>
  <path class="cls-40" d="M25.06,69.68c.39-.22.89-.18,1.5.11.5-.54,1.2-.39,1.43.28,1.32.44,2.58.23,3.9-.04,1.02.11,1.32.01.91-.3l.03-.29c1.01.11,1.91-.07,2.72-.55.7.09,1.44-.45,2.21.04-.02.18-.34.25-.34.59.73-.53,1.43-.43,2.29-.47l1.84-.1c.35-.02.58-.48,1-.57.14.51-.16,1.11-.49,1.51s-.86.53-1.45.4c.06-.22.19-.33.18-.49-.31.05-.67.14-.77.37-.06.14.28.31.25.67-3.01,2.58-3.31.9-5.3,2.06-.73.43-1.73.49-2.56.35-1.04-.17-1.84.12-2.76.3s-1.94-.35-2.88-.27c-1.4.12-2.61,0-3.87-.58-.56-.26-1.37.74-5.58-1.96-.54-.35-.75-1.15-.93-1.75,1.43-.75.74,1.38,2.01,1.03-.3-.25-.52-.29-.7-.41s-.21-.51-.06-.68c2.02.27,1.91-.14,3.91.78.04-.5.18-.62.71-.62.44,0,.54.24.73.59.68.35,1.51.25,2.28.48l-.2-.48Z"/>
  <path class="cls-33" d="M11.44,71.66c-.14-1.11,1.78-2.05,2.14-2.03.42.03.83.68,1.43.47.76-.26,1.01.33,1.39.76.79.87,1.96,1.22,2.94,1.82,1.05.64,2.17,1.09,3.44.69,1.48.94,3.12.77,4.79.83,1.31.05,2.57.36,3.81-.3,1.63.63,3.07-.32,4.62-.53l2.06-.28c1.16-.16,2.05-1.38,3.19-1.8,1.68-.61,2.02-1.62,1.97-3.31,0-.18.52-.28.59-.06.37,1.17-.19,2.44.25,3.61.26.7,2.04.64,2.4.01.49-.87-.02-1.77.27-2.69.64.13,1.63.55,1.82,1.35.44,1.85-5.34,3.41-6.81,3.71-8.07,1.65-16.34,1.84-24.46.46-1.43-.24-5.69-1.29-5.86-2.71Z"/>
  <path class="cls-92" d="M35.29,45.07l.05,3.11c.12.03.23.06.27.14.11.16-1.39,2.33-1.97,1.54-.29.67-1.32.72-1.98.74.15.51.3,1.54-.32,1.76-.31-.01-.21-.43-.21-.63-.03-2.41.11-1.33.16-1.97,0-.07-.06-.13-.15-.15.25-.43.76-.7,1.52-.8,1.12-.25,1.61-.73,1.47-1.44-2.27.73-4.65,1.02-7.14.85-1.63.74-2.35.35-3.65-.64.05.49-.07.83-.34,1.02-.16-.19-.08-.56-.57-.53.19.68.26,1.31.55,1.81-.32.39-.78.47-1.39.26-1.14.53-3.03.07-3.4-1.14.07-.5-.33-.87-.48-1.42-.28-1.07-.33-2.36.02-3.38-.5-.77.98-1.96,1.74-1.89.55.36,2.19-1.27,2.62-1.64.31-.43.86-.66,1.67-.68,1.41-.68,2.73-.77,4.27-.53,2.64-.7,5.4,1.62,5.6,4.22.62.07,1.9.65,1.67,1.39Z"/>
  <path class="cls-83" d="M41.91,67.69c-.7.68-2.1.51-3.03.38-1.69-.24-3.15-.19-4.85-.07-6.04.42-11.96.58-17.96-.13-1.24-.15-7.06-.92-5.98-3.23,1.42.8,2.85,1.1,4.43,1.37,6.15,1.07,12.24,1.03,18.48.51,2.25-.19,4.29-.28,6.49.08.81.13,1.55-.08,2.36-.37,0,.23.47,1.06.07,1.45Z"/>
  <path class="cls-27" d="M18.18,49c.69,0,1.31,1.51,3.37.74.41.09,1.04.07,1.42.15l2.9.56c.18.91.1,1.45.07,2.39-3.66,1.86-1.96,1.66-5.14,1.23-.38-.62-.33-1.53-.85-1.99-.56-.5-1.58.03-2.18-.23-.66-.64-.73-1.81-1.07-2.6-.64-.22,1.61-.24,1.48-.24Z"/>
  <path class="cls-25" d="M21.49,61.87c-.48-.33-.71-.47-1-.51-.5-.06-.84.34-1.19.73-.29-.58-.29-.9-.63-1.15s-.69-.1-1.2.18c0-.71.22-1.45-.31-1.89-.17-.14-.88-.26-.69-.59.61-.51,1.24-1.15.69-1.94-.69-1,.53-.36,1.45-.84.36-.19.3-.87.75-1.16.33.14.59.68.88.7,1.17.1,1.54-1.32,1.59.17.02.63.72.93,1.44.77-.18.45-.41.62-.38.89.12,1,1.79.81.53,1.46-.73.38-.76,1.32-.16,1.95-.56.01-.8-.29-1.24.03-.25.18-.43.42-.53,1.19Z"/>
  <path class="cls-5" d="M12.96,57.31c-2.52,2.12-6.23,1.43-8.06-1.01-1.91-2.53-1.48-6.18,1.16-8.07,2.48-1.78,5.97-1.26,7.75,1.07,1.87,2.44,1.68,5.89-.85,8.02Z"/>
  <path class="cls-51" d="M33.6,53.64h.28c.68.96,1.69,1.16,3.03.6.61.02,1.56.06,1.56.84v.2q-.3.41.01,0c.15.08.21.25.22.41-.12.86-.79,1.24-1.75,1.17-4.38-.31-8.65-.63-12.99-.57-.13-.74-.6-.8-1.21-.88.93-.42,2.16-1.06,3.26-.58,4.54,1.98,4.58-.75,6.38-.41.4.08.94-.4.74-.67-.49-.15-1.03.1-1.59,0-.24-.04-.22-.32-.21-.45.03-.35.71-.2,1.48-.35.18-.03.47-.12.52.05.07.24.23.42.27.62Z"/>
  <path class="cls-72" d="M31.13,49.62c-1.69.15-7,.33-8.14-1.02-.08-.32-.29-1.07.12-1.38.27-.21,1.03.3,1.26.57.82.97,1.95.04,2.66.02,2.45-.09,5.11.23,7.38-1.14.12.68.34,1.53-.22,1.87-.87.53-2.08.99-3.07,1.08Z"/>
  <path class="cls-36" d="M6.57,42.3c-.71-2.27.1-4.55,1.77-5.76,1.9-1.38,4.4-1.25,6.22.21,1.73,1.4,2.24,3.64,1.54,5.69-.67,1.97-2.58,3.26-4.73,3.28s-4.12-1.26-4.79-3.41Z"/>
  <path class="cls-21" d="M30.43,61.3c-.17.68-1.76.64-2.22.28-.24-.19-.2-1.15-1.39-.93l.03-3.49,3.7.15c-.13,1.34.24,2.57-.12,3.99Z"/>
  <path class="cls-79" d="M30.3,54.13c-.48,1.03-2.56.62-3.37.2-.27-1.28-.21-2.35-.15-3.66l3.65-.09c-.15,1.07.39,2.43-.14,3.55Z"/>
  <path class="cls-91" d="M16.36,57.25c-.47.67-1.47,1.05-2.25,1-.4-1.25,1.33-1.81,1.68-4.27l1.85-.33c.11-.89.52-1.02,1.27-1.03.59-.01,1,.66.86,1.24l-1.07.21c-.5.1-.33.77-.59,1.2-.25.04-.6-.38-.85-.29-.3.1-.97,1.02-1.17,1.31-.24.34.26.68.28.97Z"/>
  <path class="cls-54" d="M45.93,70.89c0,.49-1.15.52-1.16.22-.14-2.73-.14-5.35-.1-8.11,0-.34,1.14-.33,1.15,0l.11,7.89Z"/>
  <path class="cls-61" d="M15.9,53.15c-.28-4.24-1.73-3.56-2.76-6.8.51-.34.89-.51,1.33-.6l2.64,7.2c-.38.26-.75.27-1.2.2Z"/>
  <path class="cls-43" d="M26.9,63.79c-.35.02-.78-.33-1.06-.13l-.8.56c-.19.13-.55-.45-.85-.5-.33-.06-.6.11-1.06.42-.14-.45-.02-.7-.16-.85-.27-.29-.64-.15-1.08-.42.2-.31.57-.24.77-.5.16-.21.09-.41.05-.86.91.45,1.57-.41,2.22-.46.7-.06,1.47.93,2.4.15-.02.56-.25.61-.17.84.14.39.76.42.85.56.31.46-1.08-.19-1.11,1.2Z"/>
  <path class="cls-88" d="M35.54,68.9c-.43,1.36-1.88.64-2.75.84-.04.17-.14.25-.31.29-1.34.27-3.21.47-4.5.05-.29-.01-.56-.09-.88-.27-.14.09-.2.41-.36.43-.64-.07-1.17-.34-1.69-.56-.27-.11-.67-.03-.86-.4,2.59-.06,5.06-.51,7.55-.3l1.76.15c.7.06,1.3-.33,2.04-.23Z"/>
  <path class="cls-18" d="M38.97,61.35c-.38-.3-.75-.57-1.26-.55-.53.02-.95.16-1.45.83-.41-1.16-1.56-.75-2.21-.91-.22-.27-.53-.66-1.29-.73.72.02,1.01-.57,1.25-1.02.68-.12,1.5.08,2.23-.25,1.08-.5,1.93.62,3.45.1-.09.37-.14.61,0,.76.24.25.51.23.86.4-.43.36-1.79.08-1.58,1.37Z"/>
  <path class="cls-90" d="M15.52,62.18c-.2.31-1.34.28-1.44-.07-.24-.81-.26-1.96-.09-2.86.07-.37,1.07-.53,1.31-.3.39.88.85,2.24.22,3.23Z"/>
  <path class="cls-1" d="M41.35,57.81c.19.43.19.9.26,1.35-.64,0-.76-.32-1.26-.68-.91-.67-2.11-.11-3.25-.56,1.13-.32,2.19-.63,2.18-1.79.87-.69,1.28,1.14,2.06,1.67Z"/>
  <path class="cls-15" d="M13.24,61.98c.06.51-1.15.7-1.38.28-.46-.86-.71-1.85-1.01-2.81.18-.4.91-.49,1.4-.52.34.99.85,1.86.99,3.05Z"/>
  <path class="cls-6" d="M47.56,61.23c-.36,1.14-6.13,1-4.67-.57,1.44.3,3.03.35,4.53-.03.17-.04.18.46.13.6Z"/>
  <path class="cls-22" d="M47.47,59.74c-1.45.69-3.14.68-4.66.01,1.52-.57,3.07-.69,4.66-.01Z"/>
  <path class="cls-10" d="M36.26,57.74c.32.34-4.51.73-4.84.4-.15-.05-.12-.53-.03-.82l4.87.41Z"/>
  <path class="cls-71" d="M43.73,62.71c.08.76.64,4.87-.36,4.37-.54-.27.08-3.69.36-4.37Z"/>
  <path class="cls-49" d="M26.02,60.28c-.74-.08-2.04.21-2.33-.13-.69-.82,1.73-.96,2.22-.85.2.04.12.53.1.99Z"/>
  <path class="cls-12" d="M25.66,57.13c.55-.02.39.7.38.98-.01.48-.6.33-.89.38-1.11.17.21-1.08-1.56-1.23.57-.2,1.19-.11,2.07-.13Z"/>
  <path class="cls-63" d="M15.57,68.87c.3.53-.51.5-.82.49-.28,0-.69-.61-.33-.84.23-.14,1.01.08,1.15.34Z"/>
  <path class="cls-67" d="M37.26,62.59c-.07-.27-.1-.74.11-1.06.09-.14.42-.14.51-.05.18.17.19.46.17.63-.04.26-.33.33-.79.48Z"/>
  <path class="cls-41" d="M42.54,65.54c-.36-1.14.06-2.14.2-3.18.26,1.17-.22,2.13-.2,3.18Z"/>
  <path class="cls-4" d="M35.3,62.1c.05.31-.14.32-.3.23-.34-.19-.31-.34-.24-.85.02-.13.24-.21.41-.1.13.09.08.36.13.71Z"/>
  <path class="cls-68" d="M36.32,63.04c-.39-.3-.42-.84,0-1.14.26.36.31.71,0,1.14Z"/>
  <path class="cls-74" d="M12.41,46.57c.2.03.13.38.05.58-.42-.31-.88-.3-1.43-.53.38-.2.78-.14,1.38-.05Z"/>
  <path class="cls-95" d="M40.22,61.74c-.36.02-.4-.82-.11-.85.45-.04.54.82.11.85Z"/>
  <path class="cls-84" d="M38.92,62.8c-.1-.34-.17-.96.13-1.08.46.24.28.92-.13,1.08Z"/>
  <path class="cls-86" d="M25.14,54.15l.72-.36c.08.06.05.04.06.08.06.19,0,.29-.78.28Z"/>
  <path class="cls-100" d="M33.75,62.62c-.11-.14-.19-.41-.32-.56s.22-.51.34-.47c.14.23.11.46-.02,1.02Z"/>
  <path class="cls-42" d="M26.35,64.29c.02.56-.51.56-.48,0,.01-.31.47-.31.48,0Z"/>
  <path class="cls-44" d="M16.54,59.93c.14-.14.32-.05.37.06.13.26-.35.49-.31.5-.17-.07-.16-.45-.06-.56Z"/>
  <circle class="cls-37" cx="25.06" cy="64.9" r=".23"/>
  <circle class="cls-69" cx="22.13" cy="63.85" r=".23"/>
  <path class="cls-60" d="M12.98,58.26c.1-.13.32-.06.36.06.02.07-.17.16-.2.22-.13.2-.33-.07-.16-.28Z"/>
  <path class="cls-23" d="M35.29,45.07c-.58-.46-1.15-.9-1.96-1.15-.25-1.95-1.56-3.38-3.29-4.05-.81-.32-1.5.07-2.2,0-3.9-.42-1.91.45-5.76.8-1.73-2.83-2.25-8.13-2.83-11.44.55.41,2.23,1.04,2.32,1.5.06.29.3.84-.09,1.12-.85.62-1.05,1.75-.41,2.48.98,1.1,1.83-.27,2.57-.37,1.3-.17,2.68.51,4.07.15,4.19-1.08,2.57-4.65,4.18-4.9.36-.06.9.2,1.03.66.67,2.27,2.72,3.34,5,3.21,2.69-.16,4.69-2.11,4.53-4.84,1.38-.94,2.66-1.77,4.11-2.56.29,3.54.4,7.11.12,10.75-.55,7.21-5.46,7.78-11.41,8.64Z"/>
  <path class="cls-7" d="M51,49.2c-.72-1.15-2.51-1.53-3.67-1.22-1.25-.92-2.34-1.6-3.69-1.9,1.83-.83,3.36-2.07,4.48-3.99,1.55,1.18,3.04,2.49,3.83,4.27.54,1.21.15,2.35-.96,2.84Z"/>
  <path class="cls-31" d="M36.32,48.02c-1.04.97-1.79,2.33-2.55,3.5-.64-.03-.74-1.47-.14-1.66.7-.44,1.72-.64,1.7-1.68.29-.19.65-.16.98-.17Z"/>
  <path class="cls-65" d="M25.89,32.69c.45-.36.39-.36-.2,0-.84.78-3.07.17-3.09-.74,0-.35.36-.56.79-.73.39-.15.83-.29.99.21-.19.26-.53.31-.61.75.41-.21.84.08,1.15.27.47-.35.16-1.15-.25-1.51-.86-.76-1.82.33-2.15.03-.04-.04-.45-1.46-1.01-1.63q.07-1.04,0,0c-.43-.13-.6-.33-.54-.69.04-.26-.1-.91.34-.96l20.71-2.18c.63-.07.99,1.62.29,1.83-.08-.57.25-1.35-.55-1.6-.37.63.37,1.18.29,1.62-.06.36-.47.72-.45,1.18.1,2.08-1.48,3.41-3.4,3.68-2.08.3-3.88-.66-4.55-2.68-.28-.83-1.19-1.25-1.98-1.14-2,.27-.85,2.96-2.82,4.27-1.04.7-2.13.88-3.33.63.13-.27.3-.41.37-.63Z"/>
  <path class="cls-82" d="M51.5,25.46c-.69.08-1.17-2.05-2.18-2.47l-6.08,3.75c-.18-.43-.36-.97-.27-1.43l6.61-3.7c.6.21,2.98,3.73,1.91,3.85Z"/>
  <path class="cls-98" d="M25.89,32.69h-.2c.38-.43-1.26-1.28-.45-3.55.23-.66.78-1.08,1.41-1.11.57-.03,1.27.25,1.48.85-.38.51-.91.75-1.08,1.3l1.63.03c.26,1.05-.21,2.37-1.4,2.62-.51.11-.98-.13-1.4-.14Z"/>
  <path class="cls-8" d="M15.61,26.14c-.64.59-.78,2.47-1.26,2.42-.98-.11.4-3.17.94-3.81,1.74.87,3.38,1.71,5.02,2.76.32.27.03,1.11-.02,1.48l-4.68-2.85Z"/>
  <path class="cls-46" d="M22.76,33.6c-.2.36-.56.45-.9.37-.31-.08-.52-.38-.49-.71s.16-.66.56-.75l.82,1.1Z"/>
  <path class="cls-66" d="M19.46,42.31c-.48.66-1.47,1.08-1.74,1.89-.25-.05-.97-.15-.84-.55.34-1.02,1.27-1.54,2.01-2.36.36.24.47.64.58,1.03Z"/>
  <path class="cls-41" d="M37.8,52.36c.31.7-1.22,1.95-1.9,2.12-.84.22-1.99-.1-1.61-1.05-.45-1.47,2.54-4.91,3.91-5.71,3.23-1.88,7.32-.94,9.57,2.02.28.37.48.71.89.93.17-.67-.24-1.13-.54-1.76.66-.35,1.45.03,1.96.64,1.36,1.64,1.99,5.9-.51,6.13-.14-.5.15-.93-.12-1.47-.28.82-.8,1.54-1.34,1.89-1.54.99-2.91-.55-4.23-.8.01.67.66.74.92,1.26-.71,1.03-2.09,1.09-3,.51s-1.08-1.82-.67-2.92c.31-.85,1.19-1.3,1.47-2.29-1.57.49-2.14,2.06-2.54,3.46-1.41-.74-1.59-2.26-1.16-3.59.3-.92,1.16-1.4,1.64-2.48-1.47.25-2.23,1.81-2.72,3.11Z"/>
  <path class="cls-99" d="M38.09,53.77c-.23-.19-.21-.04-.1.27.27-.06.47.13.52.41.04.19.09.43-.04.63-.74-.54-1.66-.5-2.58-.23-1.01.3-2.1-.27-2.29-1.21,0-.1,0-.39.12-.46s.48.13.56.25c.22.32.48.65.81.75,1.15.34,2.08-1.41,2.7-1.82.17-.08.36-.21.48-.13.27.2.2,1.59-.19,1.54Z"/>
  <path class="cls-87" d="M33.64,49.86l.14,1.66c-.25.39.23.95-2.45.84.02-.64-.05-1.3.06-2.01.82-.22,1.53-.39,2.25-.49Z"/>
  <path class="cls-28" d="M38.09,53.77l-.1.27c-.22.05-.45-.06-.39-.28.03-.1.2-.27.31-.31.1-.04.34.24.18.33Z"/>
  <path class="cls-76" d="M14.25,83.94c.47,1.03-.69,2.02-1.73,1.85-.03-.72.13-1.3.33-1.99.26-.26,1.15-.39,1.39.15Z"/>
  <path class="cls-3" d="M47.02,83.62c1.51.36.38,5.74-1.53,5.25-1.47-.38-.24-5.67,1.53-5.25Z"/>
  <path class="cls-62" d="M22.53,97.64c-.02.41-1.05.41-1.1.1l1.03-3.01c.19.97.12,1.79.07,2.9Z"/>
  <path class="cls-2" d="M7.38,83.93c.36.56,0,1.19-.31,1.53-.33.36-.86.56-1.47.48.12-.72.12-1.39.42-2.06.18-.41,1.08-.39,1.36.05Z"/>
  <path class="cls-93" d="M32.8,69.74c.5.12.98.29,1.63.17-.69,1.23-1.05-.02-3.41.68-1.09.32-2.26.2-3.03-.51l2.28-.2c.86-.08,1.74-.32,2.52-.14Z"/>
  <path class="cls-41" d="M22.1,49.04c-.57-.27-1.08-.58-1.54-.98-.16.4.25.59.32.99-1.47.22-2.41-.98-2.58-2.31-.18-1.45.24-2.85,1.52-3.6.06.7-.61,1.24.09,1.83.44-1.6,1.24-2.82,2.61-3.5,2.13-1.04,4.11,1.94,4.35,3.8.1.75-.06,1.71-.7,2.13-.7.45-1.54-.15-1.88-.78l-1.25-2.35c-.09.78-.77.89-.88,1.42-.25,1.12.01,2.18-.06,3.34Z"/>
  <path class="cls-41" d="M28.69,41.63c1.53,1.54,2.1,4.09.61,5.07-.42.28-1.39.38-1.68-.04.08-2.29-.78-4.53-2.92-5.77,1.48-.87,2.95-.31,3.99.74Z"/>
  <path class="cls-41" d="M32.61,44.27c.02.68-.19,1.13-.46,1.29s-1.2.25-1.2-.06c0-1.91-.79-3.47-2.26-4.94,2.08-.2,3.84,1.67,3.91,3.7Z"/>
  <path class="cls-50" d="M34.46,45.71c-.52.96-4.88,1.5-4.08,1.02.85-.5,2.24.35,2.85-1.75.45.05.92.24,1.23.72Z"/>
  <path class="cls-39" d="M23.35,46.16c.06.2-.35.24-.43-.04.07-.55.15-.48.43.04Z"/>
  <path class="cls-64" d="M19.61,57.07c.85-.28,1.63.15,1.82.86.2.76-.12,1.53-1,1.81-.55.17-1.34-.1-1.65-.73-.33-.68-.06-1.64.83-1.93Z"/>
  <path class="cls-20" d="M12.52,56.66c-2.29,1.92-5.61,1.23-7.14-1.03-1.63-2.42-.92-5.76,1.75-7.13,2.25-1.16,4.98-.4,6.29,1.6s1.11,4.87-.9,6.56Z"/>
  <path class="cls-11" d="M38.49,55.28c.03.5-.09.59-.24.74-.07.07-.2.18-.21-.07-.01-.28-.08-.54.09-.65.08-.05.26.02.36-.02Z"/>
  <path class="cls-30" d="M15.22,38.46c.98,1.89.64,4.06-.7,5.37-1.48,1.45-3.7,1.78-5.5.66-1.63-1.01-2.5-3.05-1.93-5.07.48-1.73,1.93-2.93,3.48-3.15,1.9-.27,3.74.44,4.65,2.2Z"/>
  <path class="cls-73" d="M25.73,63.12c-.55.21-2,.28-2.06-.55s1.37-.94,1.96-.79c.42.11.57.3.63.54.09.37-.07.62-.53.8Z"/>
  <path class="cls-75" d="M38.38,36.64c-2.76,2.38-6.99,2.27-7.1,1.62-.17-.94,3.35.02,6.14-2.4.31-.27.66-.53.99-.26.23.19.31.74-.03,1.03Z"/>
  <path class="cls-52" d="M37.76,29.04c.55.14.98.07,1.57.1.41.95-.17,2.1-1.06,2.46-1.02.41-2.1-.15-2.45-1.24-.46-1.43,0-3.31,1.48-3.44.63-.06,1.23.19,1.58.79l-1.13,1.32Z"/>
  <path class="cls-56" d="M21.51,29.35c-.22-.61-.47-1.23.23-1.51.12.54.12,1.16-.23,1.51Z"/>
  <path class="cls-55" d="M19.69,57.85c.32-.19.66-.14.91.12.18.18.12.73-.14.89-.23.14-.68.18-.88-.04-.25-.27-.26-.75.12-.96Z"/>
  <path class="cls-77" d="M9.38,49.87c.46-.77,2.41.35,1.47,1.05.04.32.08.51.47.4.83-.27.98,1.11.98,1.67.38.03.77-.07,1.32.07.05,2.28-1.92,4.12-4.13,4.16-2.22.04-4.18-1.65-4.35-3.97.43-.08,1.1.05,1.19-.26-.13-.48-.72-.25-1.16-.25-.01-2.03,1.44-3.92,3.55-4.14.44-.05.06,1.04.34,1.25.08.06.21,0,.3.03Z"/>
  <path class="cls-78" d="M12.31,52.99c-.67-.31-.46-1.22-.98-1.67-.46-.05-.1-.43-.1-.4-.05.22-.17.2-.37,0,.03-.75-.87-.84-1.47-1.05.01-.38-.04-.78.09-1.26,1.22-.17,2.34.43,3.06,1.37-.24.28-.49.38-.65.66.39.27.57-.4.83-.37.6.45,1.17,1.65.68,2.27-.13.17-.74-.06-.93.05-.11.06-.21.17-.15.4Z"/>
  <path class="cls-48" d="M8.57,38.54c-.04.36.09.36.19.01.1-.55.29-.51.41.03.74.82,1.45,1.67,2.12,2.55.67.16,1.24.46,1.69.9.6-.36,1.77.63,1.18,1.36-1.46,1.53-3.88,1.68-5.4.27s-1.8-3.91-.38-5.33c.43-.49.62-.25.19.22Z"/>
  <path class="cls-14" d="M14.4,38.41l.09.47c-.63.46-.88,1.15-.75,2.05-.3,2.24-1.41.6-2.12-.47-1.05-.4-1.87-1.03-2.45-1.88l-.41-.03c-.05.18-.12.17-.19-.01.02-.11-.02-.31-.19-.22.7-1.2,1.98-1.54,3.12-1.56,1.42-.02,2.11.8,2.89,1.65Z"/>
  <path class="cls-81" d="M14.16,43.38c-.06-1.08-1.96-1.37-3.11-1.92-.13-.06-2.12-2.65-1.88-2.89,2.87,2.04,2.23.4,3.91,3.35.75-2.33-.44-2.03,1.32-3.52,1.37,1.48,1.08,3.6-.23,4.97Z"/>
  <path class="cls-70" d="M25.68,62.52c-.38.14-.77.15-1.27,0,.3-.21.65-.19,1.27,0Z"/>
  <path class="cls-97" d="M37.84,59.81c-.83.11-1.53.13-2.37,0,.65-.65,1.65-.41,2.37,0Z"/>
  <path class="cls-16" d="M11.32,51.32c-.7.51-.73,1.49-1.22,2.19-.34.49-1.19.56-1.5,1.23-.15.32-.64.07-.78-.08-.12-.12-.19-.52.07-.67.63-.35.47-1.25.88-1.66.6-.59,1.54-.79,2.08-1.43.2-.09.39-.36.5-.32.24.09.01.69-.03.72Z"/>
  <path class="cls-94" d="M8.55,41.21c-.33.06-.57.38-.79.27-.2-.28.04-.46.26-.41.19.05.42-.09.53.14Z"/>
  <path class="cls-30" d="M8.76,38.55c-.03.15.23.27.17.36-.06.11-.25.08-.32.09-.14.03-.39-.11-.29-.28.06-.1.23-.12.25-.19h.19Z"/>
  <path class="cls-34" d="M12.77,43.7c.08-.2.23.07.29.11.11.08.04.19-.03.2-.17.04-.38,0-.26-.31Z"/>
  <path class="cls-29" d="M10.52,37.16c.21-.14.34,0,.33.08-.01.11.04.33,0,.4-.06.1-.25.15-.32.09-.14-.13-.19-.45,0-.58Z"/>
  <path class="cls-101" d="M12.98,37.58c.13-.14.32-.05.37.06.13.26-.35.49-.31.5-.17-.07-.16-.45-.06-.56Z"/>
  <path class="cls-57" d="M11.39,40.58c.11-.11.2-.09.29-.02.13.09.32.2.09.34-.09.06-.24.13-.35.06-.14-.08-.16-.25-.03-.38Z"/>
  <path class="cls-38" d="M9.23,52.63c.14-.15.32-.12.43-.04.14.11.17.33.11.46-.11.2-.35.26-.48.17-.2-.13-.25-.39-.06-.59Z"/>
  <g>
    <path class="cls-59" d="M36.5,8.3c-.22-.25-.51-.44-.8-.57-.46-.2-.97-.29-1.47-.29-.84,0-1.88.07-2.35.84-.12.2-.16.47-.17.71-.02.33.01.68.04,1.02.03.46.39,2.92.46,3.37.11.56.14,1.32.93,1.36.34.03.68.02,1.02-.03.78-.09,1.58-.29,2.26-.69.34-.21.69-.48.85-.84.14-.34.14-.75.05-1.1-.07-.25-.22-.5-.41-.67-.22-.21-.51-.35-.8-.45,1.08-.5,1.09-1.89.39-2.67ZM35.26,12.43c-.22.23-.73.42-1.03.3-.31-.12-.21-.7,0-.86.17-.12.66-.06.86,0,.12.03.26.11.28.23.03.12-.04.25-.12.33ZM35.29,9.91c-.05.19-.22.34-.38.44-.27.17-.96.49-1.08.2-.03-.13-.12-.76-.11-.89,0-.06.01-.11.04-.15.04-.05.1-.09.15-.11.36-.15.83-.12,1.16.1.12.08.24.26.22.41Z"/>
    <path class="cls-59" d="M29.74,11.38c-.43,0-.86.07-1.29.08-.9.03-.73-.99.08-.69.27.1.55.22.83.29.33.08.69.03.97-.16.86-.61.42-2.2-.26-2.47-1.1-.42-2.42-.27-3.41.43-.39.28-.7.71-.9,1.18-.2.44-.26,1-.17,1.5.3,1.61,1.73,1.29,2.67,1.15.69-.1.78.62.08.58-.14,0-.84-.27-.98-.28-.22-.02-.45-.03-.64.06-.17.09-.31.26-.39.44-.07.16-.11.34-.13.52-.03.22-.03.45.04.65.06.19.19.36.33.47.21.16.45.22.68.28.66.16,1.35.16,2,0,.54-.13,1.06-.41,1.47-.8,1.04-1.02.72-3.24-.95-3.24Z"/>
  </g>
</svg>