<?xml version="1.0" encoding="UTF-8"?>
<svg id="Layer_1" data-name="Layer 1" xmlns="http://www.w3.org/2000/svg" viewBox="0 0 69.42 84.45">
  <defs>
    <style>
      .cls-1 {
        fill: #953027;
      }

      .cls-2 {
        fill: #8b2e25;
      }

      .cls-3 {
        fill: #f2f0da;
      }

      .cls-4 {
        fill: #872d25;
      }

      .cls-5 {
        fill: #efbfa1;
      }

      .cls-6 {
        fill: #8c2d24;
      }

      .cls-7 {
        fill: #ee7e6a;
      }

      .cls-8 {
        fill: #e34037;
      }

      .cls-9 {
        fill: #e54237;
      }

      .cls-10 {
        fill: #e54537;
      }

      .cls-11 {
        fill: #f0c2a5;
      }

      .cls-12 {
        fill: #852c23;
      }

      .cls-13 {
        fill: #dc5845;
      }

      .cls-14 {
        fill: #983229;
      }

      .cls-15 {
        fill: #942f28;
      }

      .cls-16 {
        fill: #e54337;
      }

      .cls-17 {
        fill: #e44237;
      }

      .cls-18 {
        fill: #f08f75;
      }

      .cls-19 {
        fill: #f0f0db;
      }

      .cls-20 {
        fill: #8d2e25;
      }

      .cls-21 {
        fill: #e44137;
      }

      .cls-22 {
        fill: #efc4a9;
      }

      .cls-23 {
        fill: #f0f0dd;
      }

      .cls-24 {
        fill: #e13e36;
      }

      .cls-25 {
        fill: #eef1dd;
      }

      .cls-26 {
        fill: #e13f35;
      }

      .cls-27 {
        fill: #f2edd7;
      }

      .cls-28 {
        fill: #862c24;
      }

      .cls-29 {
        fill: #e34036;
      }

      .cls-30 {
        fill: #db3a35;
      }

      .cls-31 {
        fill: #e34136;
      }

      .cls-32 {
        fill: #dd5a46;
      }

      .cls-33 {
        fill: #892d24;
      }

      .cls-34 {
        fill: #f2f1dd;
      }

      .cls-35 {
        fill: #903026;
      }

      .cls-36 {
        fill: #f6d6bd;
      }

      .cls-37 {
        fill: #862b24;
      }

      .cls-38 {
        fill: #eff2de;
      }
    </style>
  </defs>
  <path class="cls-25" d="M37.43,79.15c-.78-3.21,1.06-4.64.88-5.98l-1.32-9.85-2.73,1.23c-.12,3.42-1.36,6.74-1.17,10.15.1,1.82,1.32,3.41.62,5.45s-2.24,3.55-4.51,3.97c-2.44.45-4.93.34-7.46.21-2.19-.12-5.77-.1-7.42-1.76-1.2-1.21-1.57-3.05-1.11-4.79.4-1.51,1.6-2.8,3.31-3.37l4.86-1.61c.84-.28,2.02-.93,2.57-1.56.51-1.89.6-3.77.91-5.75-4.1-.98-6.64-2.49-9.2-5.71-2.97-3.74-3.06-8.09-3.6-12.59-.65-5.39-2.7-10.46-2.89-15.99-3.51.57-8.2.56-9.05-3.26-.43-1.92.25-4.07,2.12-5.01,1.82-.91,3.86-.83,5.97-1.04.09-2.94.23-5.83,1.21-8.58.98-2.78,2.9-4.73,5.03-6.69s5.46-2.49,7.63-4.05C24.78.06,27.51-.84,31.14.9c9.82-.58,14.89,1.64,19.05,10.69,2.49,1.54,2.58,3.43,2.75,6,.21,3.17,1.69,6.24,1.88,9.46,1.98-2.04,4.38-1.85,6.23-.22,1.23,1.08,1.03,2.7,1.18,3.99.96.74,2.69,1.42,2.93,2.98.25,1.66-.06,3.14-1.56,4.26,1.13.77,1.71,1.78,2.54,2.63,1.12,1.16,1.79,2.4,2.11,4,.1.49.64,1.07.79,1.53,1.07,3.32-.28,6.21-1.5,9.16-.57,1.37-.48,2.74-1.41,4.13-.88,1.32-1.4,2.8-2.81,3.91-4.38,3.46-11.19,3.67-16.61,2.59l.51,4.81,3.02,1.3c2.25.97,8.36,1.39,7.93,6.52-.44,5.24-6.74,4.65-10.17,4.91-2.11.17-4.16.06-6.24-.31-2.16-.4-3.8-1.88-4.33-4.08Z"/>
  <path class="cls-29" d="M53.14,38.5c-.49.64-2.37.72-3.02.08.15-.26.28-.63.05-.88l-.48-.99c-.43-6.09-1.42-12.14-3.35-17.93-10.49,2.07-20.6,4.9-31.03,8.2.23,1.28.38,2.6.44,3.96.61,5.65,2.07,16.3,5.94,20.5,2.78,3.01,7.49,2.72,11.24,2.43l.48.37c.66-.12.82.57.22.81-.2.79-1.65.63-2.25.23-2.79.04-5.38-.12-8.04-1.12-1.35.04-2.13-.06-2.43-1.53-.56-.3-.81-.73-1.11-1.26-1.51-.1-1.8-1.14-1.23-2.42.07-.59-.27-1-1.01-1.22.35-1.29-.27-3.43-1.34-4.24-.43-.32-.45,9.99.44,10.52.6.32.83.89.69,1.71.77,1.74,1.88,3.03,3.33,3.86,1.19-.6,2-.36,2.1,1.13,1.3-.16,1.48-.14,2.15.93,2.2-.12,4.78.12,3.6,3.03.3,2.29.34,4.16-.9,6.23-.09,2.33-.9,4.55-3.63,4.49-.45.39-.93.74-1.44,1.05l-3.31.57c.01,1.01-.68,1.13-1.51,1.19-1.69,2.12,1.24,2.71,2.98,2.3,2.32.08,4.64.17,6.97.25,3.21-.08,2.84-3.39,1.07-5.05-.19-1.53.14-3,.99-4.41l.17-3.07c.43-1.16.68-2.31.74-3.46-.49-.93-.44-1.61.17-2.04-.17-1.49,1.12-2.92,2.65-2.53,1.05-.58,1.24-1.3.56-2.18-.43.15-.72.08-.88-.2-.29-.1-.19-.24.3-.43-.37.18-.47.33-.3.43.61.62-.53,1.77-1.28,1.23-1.41-1.02.89-2.58,1.92-2.81.6.27,1.12.77,1.58,1.49l1.46,1.21.15.58c-1.34,1.44-3.22,2.25-5.25,2.84l-1.79,12.22c-.16,1.07,2.04,3.59.62,5.69-.5.73-1.67,1.13-2.59,1.2-3.45.27-6.86.25-10.26-.25-.9-.13-1.73-.69-1.89-1.32-.93-3.76,5.38-3.28,8.11-5.28.79-.58,1.64-.91,2.6-1.25l1.49-10.61c-4.28.14-8.15-1.62-10.43-5.02s-2.55-6.96-2.68-10.77c-.08-2.34-1.13-4.52-1.56-6.82-.77-4.12-1.54-8.09-1.77-12.33-1.85.56-8.4,1.79-8.86-.55-.72-3.66,5.37-1.66,8.37-3.22-.24-3.28-.15-6.53.9-9.7,1.61-4.87,6.92-7.71,11.56-9.04,1.45-.42.49-1.73,3.29-2.62,1.26-.4,2.22.73,3.12,1.11,2.74-.04,5.41-.44,8.12.15,7.5,1.64,8.45,7.77,10.19,9.78.51.59,1.37.66,1.63,1.32.36.91-.02,1.47-.12,2.34-.1.95.52,1.95.77,2.93,1.49,5.99,2.39,12.04,2.52,18.12Z"/>
  <path class="cls-15" d="M50.17,37.71c.31-.05.1.63.27.72.83.41,1.9-.04,2.69.08,1.46.34,2.95,1.17,4.53,1.15l2.79-.02c1.73-.01,2.39,1.46,3.32,2.63.82,1.03,2.07,1.84,1.56,3.56,2.38,1.42,1.03,7.4-1.3,8.84.45.63.43,1.17.46,1.86.02.54-.91.77-1.06,1.21-.34,1.53-.88,2.82-2.22,3.74-4.89,3.36-12.74,2.62-17.87.4l-.43.23c-.77-.56-1.44-1.24-2-2.05-.62.42-1.09.5-1.42.24-.78-.35-1.72-.3-2.45-.77-1.34-.85-2.46-1.87-3.2-3.28-.58.18-.75-.98-.2-1.18-.05-.27-.02-.58-.22-.81l-.15-.41,1.37-1.3c.05-1.01.11-2.07.19-3.16-9.66.58-10.59-8.34-2.8-12.78,5.13-2.92,14.92-3.23,14.66,4.61-.58,1.93-.48,1.91.45.18,1.1-.14,1.83-.55,2.19-1.24-.17-.99.11-1.83.85-2.44Z"/>
  <path class="cls-9" d="M43.34,61.87l1.34,10.69,4.15,2.08,4.95,1.56c1.04.33,1.67,1.1,1.61,2.12-.15,2.57-4.3,2.29-6.65,2.4-2.19.1-4.35.21-6.45-.25-1.8-.39-2.56-2-2.07-3.72.26-.9.7-1.67,1.03-2.58l-1.75-13.87c.48-.22.99-.58,1.55-.7.71.77,1.34,1.86,2.3,2.28Z"/>
  <path class="cls-6" d="M58.02,35.78c-.31,1.61-3.31,1.08-3.74.55-.31-.38-.82-1.08-.31-1.68.36-.43.79-.99,1.18-1.34.65-.58,1.24.18,1.73.45.83.45,1.32,1.05,1.14,2.02Z"/>
  <path class="cls-35" d="M62.31,35.51c-.37.64-1.04.48-1.55.21-.4-.21-.97-.94-.53-1.45.28-.33,1.12-.5,1.55-.44.76.1.89,1.05.53,1.69Z"/>
  <path class="cls-20" d="M59.43,29.52c.06.89-.61,1.25-1.13,1.32-.57.08-1.37-.06-1.49-.82-.09-.53.38-1.41.88-1.64.71-.32,1.68.36,1.74,1.14Z"/>
  <path class="cls-38" d="M50.17,37.71c.23.64-.37.91-.46,1.29-.13.53.19,1.12-.14,1.63-.83,1.29-2.19.62-2.32,1.26-.18.87-.84,1.45-1.74,1.23,1.69-2.63.7-5.74-1.94-7.05-6.31-3.14-15.58,1.59-16.32,7.12-.33,2.48,1.1,4.58,3.44,5.35,1.55.51,3.06.48,4.82.4-.43,1.3-.52,2.4-.4,3.69l-1.7,1.61c-4.75.37-9.99.73-12.91-3.65-3.54-5.3-5.22-17.44-5.45-23.83,4.52-1.69,8.83-2.95,13.37-4.11l12.17-3.12c1.97-.52,3.87-.93,5.95-1.02,2.37,6.07,3.15,12.95,3.63,19.2Z"/>
  <path class="cls-9" d="M15.53,42.72c-.32.39-.12,1-.73,1.29-.97-1.8.39-2.6-.98-4.19-.15-.17-1.21-4.56-.97-5.67.73-3.41-1.39-1.52-.64-6.07.05-.32.19-.42.09-.57-.15-.22-.59-.38-.75-.21-.59.58-1.09.27-1.76.25-2.99-.12-3.74.86-5.26.11-.32-.16-.89.03-1.13-.32s-.42-1.02,0-1.23c.69-.36,1.46,0,2.04-.2.23-.08.21-.64.45-.67.55-.06.52.23.75.64.27.48,1.16.19,1.55.08-.14-.39-.26-.54-.15-.93.62.27,1.28-.21,1.84-.06s.96.34,1.56.1c.27.06.16.64-.07.92.45.13.58-.23.73-.36.17-.15-.03-6.62-.14-7.61-.36-3.16.51-2.45,1.04-3.25.27-.4-.26-.8-.18-1.22.1-.51.99-.21,1.26-.41.42-.31.39-1.39.86-1.35l.55.04c.3.02.18-.98.68-1.5.16-.17.48-.33.77-.07.2.18.27.47.39.57.48.37,1.15-.33,1.56.03.18.16.34.65.03.72l-1.45.31c-1.23.26-2.2,1.3-2.8,2.22.59,1.45-.56,1.51-.14,2.48-.02-.04,1.34,1.03,1.27,1.03,1.14.04.4-1.08,2.01-1.37.17-.03.33-.28.47-.36.19-.1.42.25.62.22,1.1-.14,1.55.54,1.89,1.47.19.51.94.83,1.33,1.23.75.79,1.53-.18,1.94.33.12.14.17.34.01.48-.1.09-.32.03-.53.36,5.09.31,1.82.22,4.98-.54.49-.12.61-1.28,1.34-1.4l1.86-.3c.58-.09,1.05.42,1.75.06.36-.18.92.53,1.32.37,3.37-1.41,1.39-.83,2.17-1.58.2-.2.48-.21.97-.21-.05-2.46,1.34-3.62-.53-4.35-.92-.36-.34-1.14-.25-1.72.12-.79-.12-3.48-1.4-3.91-.92.09-1.96-.08-2.9-.15-.54-.04-1.05.12-1.47-.63-.31-.3,2.61-.09,2.11-.29.72.29,2.72-.03,3.52-.15.69-.1,1.4.27,2.29-.14-.34,1.05-.77,1.55-.63,2.48.11.74-.87.56-1.03,1.3-.07.29.32.41.42.67.27.7.22,1.5.68,2.17.31.46,1.04.61,1.28,1.15.17.38,0,1.15.45,1.27.19-.02.49-.37.71-.35.21.02.63.38.43.57-1.06.34-1.21,1.47-1.17,1.54.07.11.31.3.49.11l.47-.49c.2-.21.36.36.59.45.88.22,1.73-.24,2.71-.22.41-.83.71-1.63,1.03-2.51-.16-.38-.33-.63-.46-1.04.55-.3.47-.79.89-1.43.22.73-.11,1.53.05,2.35,1.09.61,1.48.39,1.88,1.24.13.26-1.08,1.33-.36,1.37.25.01,1.1-.17,1.05.2-.19,1.33.44,2.11,1.04,3.13.66,1.13.76,3.2.01,3.6-.15.08-.46-.19-.69-.12-.08.52.05,1.17-.51,1.29-.74-1.17-.75-2.32-.43-3.64.15-.61-.17-1.73-.62-2.14-.68-.62-1.96-1.18-2.55-.7l-.65.53c-.3.25-.63-.29-.99-.36-.67-.12-1.39.31-2.04.36.23.46.59.46.6.67.12,1.37-2.99-1.08-2.95,1.03-3.02.99-2.33-.07-5.18.25-.16.29-.16.64-.41.9-.34-.04-.84-.41-1.1-.19-.57.47-1.6.06-3.61.74-.42.14-.45,1.17-1.14,1.15s-1.55-.34-2.2.03c-.18.1-.26.44-.4.55-.55.44-.26-.77-1.88.85-3.04-1.13-2.79.85-3.49.33-.59-.44-1.1-.83-1.92-.67-.3.06-.36.22-.4.47-.05.35.35.24.6.51-.32.09-.66-.1-.85.04-.31.22-.19.63-.31.98s-.49.29-.68.1c-.13-.14-.17-.42-.26-.77-.07-.25-.93.1-.82.33.13.28.33.45.35.62.02.3-.02.69-.42.71-.26.02-.53-.24-.7-.18-.53.21-.36,1.32-.15,1.84.09.22.45.24.73.39.47,1.89.13,3.74.54,5.19.33,1.17.27,2.39.03,3.51-.19.89.38,1.09.67,1.52.8,1.22.41,2.92-.48,4.01Z"/>
  <path class="cls-9" d="M33.64,55.06l.2,1.18c0,1.01-1.59.67-1.83,1.69-.06.27-.16.88.45.89.31-.07.57-.72.74-1l.95-.29c.52.38.8,1.4.73,1.98l-1.15,1c-.27.24-.83-.18-1.35.13-.84.51-1.22,1.16-1.13,2.13.02.2-.51.5-.53.71-.03.29.19.54.28.83.43,1.38-.38,2.6-.63,3.84s.1,2.5-.33,3.66c-.26.71-.86,1.34-.88,2.08l-.04,1.42c-.02.69.91.9.98,1.33.11.76.35,1.41.48,2.05.14.69-.77,1.93-1.41,2.18-1.52.6-3.12.09-4.57.1-1.28.02-2.41.24-3.73-.05-.68-.15-2.99.69-3.84-1.01-.33-.67-.22-1.63.57-2.06.37-.2,1.13.06,1.25-.48.06-.28-.1-.59.1-.69.09-.05,2.89-.49,3.35-.57.67-.11,1.02-.89,1.65-1.1,1.74.11,3.12-1.2,3.15-2.92.04-2.56,1.49-2.42,1.22-5.53-.09-1.06-.36-2.02.09-3.02.13-.28.12-.55,0-.74-.13-.21-.34-.36-.65-.44l-1.38-.36c-.59-.16-1.43.35-1.94-.21-.17-.19-.07-.65-.38-.73-.6-.16-1.03.31-1.52-.05-.36-.27-.06-1.22-.54-1.29-1.45-.22-.41.85-2.05-.05-1.21-.67-1.67-1.64-2.3-2.78-.34-.6-1.09-1.1-.56-2.04-.24-.25-.58-.39-.76-.64-.82-2.55-1.09-5.18-.7-7.83.23-1.57-.24-3.11.6-3.62,1.17,1.79,2.34,2.68,1.63,4.8.6.16.95.27,1.06.7.35,1.31-.51,1.04-.08,2.3.13.39.64.27,1.02.38.51.14.55.96.96,1.13.66.27.54.78.79,1.28.3.6,1.32.27,1.83.41l3.51,1,4.41.12c.57.02.02.53,2.27.17Z"/>
  <path class="cls-9" d="M21.1,12.6c-.5.34-1.48.03-1.32-.57.09-.34.52-.53.19-.92-.13-.16-.16-.42-.12-.59.04-.19.38-.18.53-.35,1.1-1.24.81-2.31,2.91-2.04-.41,3.15-2.1.51-2.19,4.46Z"/>
  <path class="cls-9" d="M22.58,17.4l-.61-1.26c-.15-.31-.83.08-1.21-.06-.53-.2-.65-.8-.71-1.23-.07-.51.25-1.15.88-1.31s.34,1.08.71,1.61c.16.23.66-.01.89.19.51.45.49,1.43.05,2.06Z"/>
  <path class="cls-9" d="M19.23,9.05c.27.28-1.23,1.38-1.69.55-.14-.26.3-.59.48-.71.26-.17.7-.35,1.21.16Z"/>
  <path class="cls-9" d="M31.22,5.62c-.26.08-.4-.08-.65.11-.4-.53-.91-.85-1.36-1.35.48-1.02,1.42,1.07,2,1.25Z"/>
  <path class="cls-9" d="M28.79,6.21c-.26.47-.45.55-.69.47-.16-.06-.58-.25-.44-.46.32-.44.83-.17,1.13,0Z"/>
  <path class="cls-22" d="M33.2,57.82c-1.09.33-.82.24-.87-.06-.06-.35.93-.19,1.3-.44-.24.18-.31.31-.43.51Z"/>
  <path class="cls-9" d="M24.19,5.8c.08-.19.22.06.28.1.13.09.04.18-.02.2-.15.04-.38,0-.25-.3Z"/>
  <path class="cls-17" d="M49.05,47.8c.99,1.78-3.19,2.98-4.05,4.65s-1.25,3.72-3.17,4.54c-.86.36-2-.12-3,.12-.51,1.23,2.98.8,1.58,1.73-1.64,1.09-4.36-1.12-5.29-2.46-.57-.81-.66-1.91.08-2.61.47.39.42,1.02,1.24,1.1-1.07-4.01.27-8.24,3.61-10.71,2.45-1.81,5.39-.88,4.06-.38-1.71.66-3.43,1.62-3.97,3.45l3-2.21c1.08-.79,2.47-.93,3.73-.4.38.16,1.01,1.19.49,1.35-4.91,1.5-4.74,3.69-4.1,3.21,1.28-.97,4.61-3.47,5.77-1.39Z"/>
  <path class="cls-17" d="M48.05,51.08c1.39-1.26,2.49-1.73,1.88-3.71-.16-.52-1.11-.76-1.42-1.24-.26-.85,0-1.86-1.2-2.22,1.08-3.12,2.97.07,3.37-4.29,1.87-.19,3.72.06,5.53.81-.7.58-1.01,1.32-1.13,1.97-.17.94.98,1.48,1.1,2.09.29,1.46,1.15,2.11,2.26,3.02.71.57.89,2.05,2.5,2.1-3.01,2.04-9.37,2.09-12.89,1.48Z"/>
  <path class="cls-21" d="M62.25,57.84c-.12,3.13-4.71,4.48-7.26,4.72-3.96.38-7.93-.05-11.45-1.88-.89-.46-1.76-1.15-1.79-2.21-.02-.53.89-.75,1.38-.63,2.75.7,5.22,1.85,7.64,3.27.35.21.94.5,1.32.31l4.33-2.13c1.84-.64,3.66-1.12,5.83-1.45Z"/>
  <path class="cls-8" d="M28.54,45.65c1.7-2.06,4.69-2.14,6.52-.3.2.2.73.35.76.07-.23-.74-1.01-1.01-1.35-1.61,1.22-.79,2.69-.42,3.95.38-1.09,1.18-1.81,2.23-2.4,3.67-1.98.43-6.28.21-7.48-2.2Z"/>
  <path class="cls-19" d="M51.8,60.55c-2.59-1.55-5.13-2.76-7.98-3.6-.17-.05.11-.43.21-.5.14-.1.38,0,.65.08,4.52,1.34,9.32,1.63,13.89.54,1.61-.38,3.01-.99,4.12-2.2.5.15,1.09,1.31.62,1.64-2.22.65-4.63.59-6.71,1.63l-4.81,2.41Z"/>
  <path class="cls-23" d="M41.47,37.63c-2.86,1.18-7.98,2.66-10.96,1.72,3.2-2.83,7.43-4.05,11.48-2.92.45.13-.14,1.04-.52,1.19Z"/>
  <path class="cls-34" d="M53.61,55.13c-2.45-1.18-4.65-2.33-7.09-2.96.47-.45.84-.23,1.27-.15,4.02.75,8.12.47,12.01-.78,2.72-.88,2.72-2.52,3.69-1.33.28.35.24,1.15-.35,1.2-6.28.58-8.26,4.63-9.53,4.02Z"/>
  <path class="cls-31" d="M63.89,53.41c-1.02-2.23,1.67-1.43.53-3.83-.87-1.85-2.52-.15-4.3-1.25-.43-.27-.59-.71-.49-1.23.27-1.49,3.43-1.22,4.62-.87,2.02.59,1.32,3.64.98,5.06-.22.89-.51,1.63-1.34,2.12Z"/>
  <path class="cls-10" d="M64.44,45.38c-4.13-1.05-5.12.81-5.5.92-.62.19-1.31-.43-1.46-.87-.73-2.06,3.44-3.07,5.77-2.03.77.34,1.31,1.15,1.19,1.98Z"/>
  <path class="cls-16" d="M62.51,42.13c-1.91-.03-3.66-.1-5.12,1.02-.28.21-.53.53-.84.39s-.59-.55-.51-.98c.3-1.5,1.76-2.06,3.18-2.06,1.31,0,2.62.18,3.28,1.64Z"/>
  <path class="cls-24" d="M56.9,36.02c-.57.09-1.01-.13-1.52.06-.43.16-.84-.18-.94-.5-.21-.72,1.07-1.62,1.11-1.63.34-.1,1.55.5,1.63.91.07.33.2,1.08-.29,1.16Z"/>
  <path class="cls-13" d="M57.83,29.16c.36-.2.81-.12.95.2.11.23-.03.57-.34.78-.18.12-.52.1-.79-.17-.16-.16-.26-.56.18-.81Z"/>
  <path class="cls-4" d="M32.09,32.7c-3.11-1.77-5.49-.73-8.02,1.53.16-1.95,1.74-3.21,3.47-3.8,2.94-1,5.38,1,5.27,1.94-.03.23-.29.33-.72.34Z"/>
  <path class="cls-37" d="M44.97,29.14c-1.91-.83-3.71-.26-4.98,1.27-.35.42-.69.96-1.42.97-.37-1.44.57-2.76,1.84-3.42,1.9-.99,4.3-.58,5.53,1.31-.26.19-.63.02-.96-.12Z"/>
  <path class="cls-28" d="M28.54,25.48c-.47,1.21-2.2-.1-4.76,2.42-.51.5-.79,1.23-1.6,1.51.44-2.68,3.45-5.54,6.13-4.72.34.1.3.58.22.79Z"/>
  <path class="cls-12" d="M45.03,24.27c-3.04-2.5-5.74.26-6.42-1.1-.13-.27,0-.8.49-1.02,2.34-1,5.33-.23,6.66,2.07.13.22-.57.18-.73.05Z"/>
  <path class="cls-33" d="M28.2,49.52c.21,1.05-1.39,2.51-2.64,2.12-.63-.2-1.38-1.09-1.04-1.89.17-.41.72-.82,1.02-1.14.56-.61,2.57.43,2.67.91Z"/>
  <path class="cls-1" d="M24.93,45.21c-.67.32-1.05.46-1.41.09-.49-.5-.62-.94-.14-1.51.54-.63,1.52-.91,2.12-.17.43.53,0,1.31-.57,1.59Z"/>
  <path class="cls-2" d="M48.55,36.54c-.25.44-.97.45-1.46.34-.39-.09-.97-.46-1.09-1.05-.11-.55.28-1.2.67-1.53.5-.41.99-.03,1.41.24.69.44.96,1.12.46,2Z"/>
  <path class="cls-14" d="M32.47,51.56c-.09.32-.14.55-.32.7-.14.12-.36.09-.62.06-.75-.07-1.29-.33-1.21-1.18.05-.53.48-1.15,1.31-1.05.55.06,1.1.56.84,1.46Z"/>
  <path class="cls-3" d="M28.55,58.94c-2.58.47-6.62-.91-7.77-3.4,2.47,1.38,5.03,2.07,7.78,2.23.28.02.27,1.12,0,1.17Z"/>
  <path class="cls-26" d="M26.43,15.56c-.51.35-1.16.23-1.55-.03.34-.31,1.34-.83,1.61-.43.06.08.11.34-.06.46Z"/>
  <path class="cls-18" d="M51.54,45.65c-.06.27-.71.59-1.14.37-.13-.07-.18-.29-.1-.45.16-.34.78-.5,1.11-.35.1.05.18.19.13.43Z"/>
  <path class="cls-7" d="M52.93,41.43c-.29-.04-.51-.2-.51-.38,0-.24.29-.37.56-.38.21,0,.32.12.47.15.18.04.12.27.05.42-.06.12-.21.24-.56.2Z"/>
  <path class="cls-36" d="M55.53,44.97c.05.41-.44.27-.6.17-.19-.13-.4-.63-.13-.7.23-.06.7.2.74.54Z"/>
  <path class="cls-11" d="M50.17,42.1c.26.01.25.11.25.19.02.25-.09.38-.21.4-.11.02-.39.01-.38-.07.02-.2.13-.4.34-.52Z"/>
  <path class="cls-5" d="M52.17,43.38c-.5,0-.44-.23,0-.29.17-.05.31-.03.38,0,.08.04.14.2.13.32-.01.09-.33.07-.51-.03Z"/>
  <path class="cls-30" d="M27.61,49.64c-.32.83-1.37,1.78-2.25,1.27-.68-.39.31-2.05.78-2.01.52.05.88.6,1.47.74Z"/>
  <path class="cls-32" d="M48.12,35.97c-.17.52-.9.41-1.18.21s-.39-1.03.02-1.32c.46-.32,1.41.38,1.16,1.1Z"/>
  <g>
    <path class="cls-27" d="M34.38,8.51c-.29-.27-.66-.47-1.03-.59-.58-.19-1.21-.23-1.81-.18-1.01.11-2.26.31-2.73,1.29-.12.26-.13.58-.12.87.02.41.1.82.17,1.22.09.55.81,3.47.95,4.01.19.66.33,1.57,1.28,1.53.41,0,.82-.05,1.23-.15.93-.2,1.87-.54,2.64-1.1.39-.29.77-.66.93-1.11.12-.43.08-.92-.07-1.33-.12-.29-.32-.57-.57-.76-.29-.22-.66-.36-1.02-.45,1.25-.73,1.09-2.41.15-3.26ZM33.37,13.64c-.23.31-.84.59-1.2.49-.39-.11-.34-.82-.09-1.04.19-.16.79-.15,1.03-.1.14.02.32.1.37.24.04.14-.02.3-.1.41ZM33.11,10.6c-.03.24-.23.43-.41.58-.31.23-1.09.7-1.28.37-.05-.16-.23-.9-.24-1.06,0-.07,0-.14.03-.19.04-.07.11-.12.17-.15.41-.23.99-.24,1.41-.01.16.09.32.29.31.47Z"/>
    <path class="cls-27" d="M26.59,13.02c-.52.06-1.03.18-1.55.25-1.08.14-1-1.1.01-.85.34.09.69.2,1.03.25.4.06.83-.04,1.15-.3.97-.84.25-2.71-.6-2.95-1.38-.38-2.95-.05-4.06.92-.43.38-.76.94-.95,1.53-.18.56-.2,1.23-.03,1.83.55,1.9,2.23,1.35,3.35,1.08.82-.2,1.01.65.17.69-.17,0-1.05-.22-1.22-.23-.26,0-.54.02-.76.15-.2.13-.34.34-.42.58-.07.2-.09.42-.1.64-.02.27.02.54.12.78.1.23.27.41.46.53.27.16.57.22.85.26.82.12,1.65.03,2.4-.23.63-.22,1.23-.62,1.67-1.14,1.13-1.35.49-3.99-1.53-3.79Z"/>
  </g>
</svg>