<?xml version="1.0" encoding="UTF-8"?>
<svg id="Layer_1" data-name="Layer 1" xmlns="http://www.w3.org/2000/svg" viewBox="0 0 77.75 88.08">
  <defs>
    <style>
      .cls-1 {
        fill: #ece6d5;
      }

      .cls-2 {
        fill: #8a2f2a;
      }

      .cls-3 {
        fill: #8b372e;
      }

      .cls-4 {
        fill: #932f27;
      }

      .cls-5 {
        fill: #f6d8c7;
      }

      .cls-6 {
        fill: #ede7d5;
      }

      .cls-7 {
        fill: #a3302c;
      }

      .cls-8 {
        fill: #8c2e27;
      }

      .cls-9 {
        fill: #8a2521;
      }

      .cls-10 {
        fill: #84312a;
      }

      .cls-11 {
        fill: #ede8d6;
      }

      .cls-12 {
        fill: #f3e2ce;
      }

      .cls-13 {
        fill: #ece7d5;
      }

      .cls-14 {
        fill: #933028;
      }

      .cls-15 {
        fill: #f4d0c0;
      }

      .cls-16 {
        fill: #8d332b;
      }

      .cls-17 {
        fill: #e23b35;
      }

      .cls-18 {
        fill: #efdfcc;
      }

      .cls-19 {
        fill: #e64035;
      }

      .cls-20 {
        fill: #ece7d3;
      }

      .cls-21 {
        fill: #d83a35;
      }

      .cls-22 {
        fill: #f6c8b6;
      }

      .cls-23 {
        fill: #a0322b;
      }

      .cls-24 {
        fill: #f2edd7;
      }

      .cls-25 {
        fill: #eee6d6;
      }

      .cls-26 {
        fill: #832b24;
      }

      .cls-27 {
        fill: #8f2d26;
      }

      .cls-28 {
        fill: #ad8e7e;
      }

      .cls-29 {
        fill: #f1dbc9;
      }

      .cls-30 {
        fill: #982f28;
      }

      .cls-31 {
        fill: #f2b6a1;
      }

      .cls-32 {
        fill: #ede7d6;
      }

      .cls-33 {
        fill: #efe3d2;
      }

      .cls-34 {
        fill: #966c5c;
      }
    </style>
  </defs>
  <path class="cls-20" d="M65.14,76.13c2.46,2.96,3.88,7.21.82,9.98-.99.9-2.34,1.25-3.63,1.47-13.8,2.39-32.54-4.22-44.71-10.57-3,1.54-6.2,1.97-9.25.87-1.2-.43-2.1-1.28-2.27-2.34-.37-2.3,1.07-2.85,2.58-4.07-1.99-1.49-3.76-2.9-5.52-4.56-2.04-1.94-2.57-5.05-.92-7.37.86-1.21,2.31-1.43,3.6-2,.38-.48.42-1.47.98-2.04-3.44-1.1-8.48-5.77-6.28-9.64,3.16-5.55,6.31-6.13,7.43-7.73.81-1.16,2.14-1.15,3.2-1.72,2.03-1.1,3.77-2.61,6.3-3.09-.44-3.42-.85-6.68-.88-10.11-1.81-1.86-1.27-4.13-.07-5.99.51-1.51.44-3.4.86-5,1.73-6.66,6.75-9.15,13.09-10.16,1.69-2.5,4.84-2.68,7.15-.94,1.05.79,12.22-1.74,16.11,9.84,1.23-.2,2.33-.74,3.5-1.06,2.12-.57,4.06.28,4.75,2.21.72,2-.1,3.94-2.11,4.84-1.26.57-4.13,1.43-4.27,1.56s-.09.58.17.69c1.75-1.23,4.01-1.25,5.9-.1,1.59-1.48,3.7-1.79,5.51-.73.82.48,1.82,1.44,2.79,1.43,1.29-.45,2.58-.94,3.89-.25s2.03,1.96,2.12,3.27c.25,3.5-3.09,4-5.28,7.67-.73,1.22-1.88,1.79-3,2.52-.94.61-1.69,1.46-3.04,1.35-2.11,2.76-5.14,4.28-8.59,4.51-.28.59-.49,1.11-.52,1.88,2.09-1.3,4.33-1.96,6.87-2,6.5-.11,12.16,3.85,14.2,10.03,2.5,7.58.78,15.82-4.57,21.75-2.03,2.25-4.31,3.99-6.93,5.56Z"/>
  <path class="cls-19" d="M54.33,33.05c.25.87,2.13.24,2.77,0,1.29-.49,2.39-1.18,3.26-2.27,1.01-.13,2.87.77,2.4,1.87-.89,2.07-5.44,3.84-7.61,3.85l.12.31c-.22.3-.69.15-1.26.12-.24,1.58-.52,3.11-1.26,4.44-.39.72-1.16,1.13-2.29,1.25-.87.36-1.55.31-2.05-.15.07-.77.43-1.55,1.06-2.34,1.82-4,1.33-10.6.99-14.98-.08-1.09-.61-7.09-1.05-7.29-9.08,1.46-18.12,2.82-27.12,4.08.19,5.76.47,12.11,2.46,17.59.63,1.73,1.54,3.24,3.14,4.2l.18.63-.41.42c-1.45-.14-2.85-.22-4.21-.23-1.45-1.72-2.12-3.9-2.83-6.18-2.3.31-4.24,1.19-5.82,2.88,1.59.92.31,2.25.32,3.15,0,2.24.46,4.38-.83,6.49-.54.87-1.39,1.38-2.37.86-.13-.93-.28-1.21-.44-.85l-1.04,1.4c-2.3,3.09-6.19-.63-7.49-2.43-.89-1.22-.76-2.45-.02-3.66,1.12-1.83,2.54-3.42,4.34-4.63,1.17-.78,2.43-.67,3.7.05-.32-.79-1.42-.71-1.81-1.08-.09-1.84,2.01-1.15,2.68-1.63,2.48-1.81,4.82-3.58,8.19-3.79-.91-4.47-1.13-8.74-1.4-13.13-.46-.42-.95-1.04-1.06-1.48-.25-.96.67-1.17.93-1.86.94-2.46-.55-10.19,7.95-13.32,1.72-.63,3.71-.71,5.32-1.49.76-.37,1.05-1.61,2-1.65,2.89-.11,2.19,1.42,3.73,1.36,4.64-.2,9.64.57,12.41,4.65,1.14,1.68,1.69,3.55,2.35,5.48,2.19.13,7.77-3.66,7.66-.12-.06,1.86-5.23,2.77-6.85,3.25.86,5.55,1.41,10.87,1.25,16.22Z"/>
  <path class="cls-19" d="M66.54,62.57c.06,1.13,1.5-1.57,1-2.09-.22-.94-.18-1.98.11-3.12-.03-1.69-.04-3.72,1.81-2.37,2.15,1.57,1.54,6.63.89,8.92-1.41,4.88-4.69,9.71-9.8,11.16-4.99-4.21-10.71-7.38-16.69-9.94l-.07.66c2.29,1.41,3.52,3.92,1.76,6.29-.39.53-1.13,1.23-1.78,1.08-.03.62-.34.59-.9.51v.52c-2.37,1.32-7.7,3.35-9.22,0-.55-1.22-.32-3.2.9-3.75-.19-.57.13-.64.67-.52l.16-.68c1.19-.7,2.41-1.32,3.68-1.86l-1.62-3.44.28-.49c-.57-.34-1.01-.66-.42-1.2-.25-.15-.4-.25-.52-.5-.21-.44-.44-3.21.33-3.3l.6-.38,3.42.39.54.45c.04,1.14-.12,2.67.94,3.14.43.81,2.67.59,3.59.46,6.43-.92,11.52-4.86,11.4-11.79-1.04-2.8,1.68-3.86,1.3-.75.18.88.9,1.4,2.16,1.56.44,1.49.61,1.44.51-.14.81-.76,2.96-2.07,3.47-.68-.68,1.13-.68,2.1,0,2.92.86.29,1.68.62,2.46,1,.33,2.65.01,5.3-.96,7.95Z"/>
  <path class="cls-8" d="M22.04,58.18c.76-.67,1.47.62.72,1.15l-.55.22c-3.4-.45-6.81-.84-10.25-1.17-2.16-.37-2.87-.02-2.13,1.07l9.61,3.81.08.53c.81.35-.12,1.22-.67.62h-.79c-3.12-1.19-6.25-2.35-9.37-3.5-.45-.18-3.02.5-3.06.65-.15.49,2.85,2.85,3.45,3.28,8.62,6.14,16.79,10.32,26.79,13.65,8.53,2.85,17.81,5.04,26.8,3.63-6.57-2.72-13.14-5.36-19.71-7.91l-.09-.53c.29-.16.46-.57.9-.51l.57-.27,19.23,7.66c-3.92-6.71-11.66-10.6-18.52-13.76l-1.27-1c-.2-.41-.85-.67-.63-1.46,6.33,2.75,12.14,5.6,17.48,10.33,2.57-1.02,4.87-2.63,6.43-4.94,2.39-3.55,4.39-8.71,3.01-12.96-.3-.94-.87-1.69-1.91-1.81-.02,1.98-.25,3.76-.63,5.53.35.56-.28,2.16-1,2.09-.31,0-.25-.59-.16-.9.61-2.21,1.2-4.37.8-6.68-.12-.72-2.4-.03-3.02-1.9-.29-.86,0-1.72.55-2.6-1-.01-1.89.49-2.77,1.07.09,2.26.12,4.61-1.29,6.62.14-2.16.92-4.39.12-6.34-.68-.16-1.47-.3-1.84-.7-.99-1.08-.16-2.27-.55-2.59-.13-.1-.68.24-.62.46,1.08,4.21-.63,8.21-4,10.93-4.62,3.73-11.37,3.46-11.51,2.46-.02-.18.14-.33.34-.35,5.63.7,12.11-1.92,14.07-7.77.51-1.53.72-3.16.09-4.7-.96.61-1.87.84-2.71.24-2.28-1.63-.22-5.15,1.87-6.64,6.17-4.42,15.55-1.75,18.36,5.66,4.13,10.92-2.19,22.43-12.8,26.5,1.48,1.53,2.6,2.87,3.58,4.67.78,1.44.71,4.12-1.13,4.79-3.25,1.2-6.8,1.23-10.3.98-12.64-.91-24.95-5.51-36.05-11.24-2.67,1.63-5.68,2.2-8.53,1.2-.41-.14-.77-.33-.81-.66-.16-1.15,2.73-1.52,3.48-4.18-2.56-1.74-4.85-3.42-7.02-5.53-1.24-1.2-1.8-3.39-.46-4.69,1-.97,2.65-.77,3.9-1.16.23-.65-.05-1.35.14-2.02.14-.5.81-.67,1.34-.66,4.25.05,8.34.67,12.42,1.34Z"/>
  <path class="cls-14" d="M41.67,58.91c-1.53.09-3.06-.25-4.56-.46-.48.85-2.65-.56-2.75-1.36.09-1.16.32-2.29.71-3.41-1.44,1.02-2.8,2.18-4.1,3.49-.21.06-3.95-1-4.15-1.16s-.28-.29-.32-.58c-.13.14-.32.34-.45.29-.79-.31-2.74-1.32-3.44-1.79l-.08-.56c-.13-.07-1.36-.84-1.43-1.32-.13-.92,3.12-3.66,3.58-5.05-.7-.83-1.29-1.56-1.21-2.45.11-.34.67-.65,1.14-.52,1.23.32,2.37.19,3.48.34l1.18-.33c6.23.58,12.69-.21,18.6-1.83l.54.26c1.49-.08,2.97-.54,4.34-1.1.27,1.87-.92,1.99-1.21,4.34-.35,2.83-1.72,5.15-3.72,7.11-1.3,1.28-1.12,4.31-1.95,5.4-1.31.59-2.84.62-4.2.7Z"/>
  <path class="cls-19" d="M26.5,55.44l.46.38c.12,1.11.44,2.17.95,3.18l-.27.54c.87.33,1.17.73.9,1.2,1.57.87,3.27,4.08,1.98,5.69-.43.53-1,1.07-1.72.91.21.36-.05.51-.76.47l-.3.47c-2.62,1.16-11.42,2.82-10.28-2.33.13-.57.74-1.9,1.4-1.55.16-.22.71-.22.67-.62l.28-.45c1.2-.62,2.45-1.11,3.76-1.49l-1.08-2.02.29-.5c-.13-.33-.11-1.05-.72-1.15.88.25-.69-2.43.48-4.81l3.97,2.07Z"/>
  <path class="cls-30" d="M55.27,36.8c-.38,0-.85-.06-1.22-.1-.09,0-.09-.35-.03-.42s.17-.24.38-.24c3.23.08,6.29-1.28,8.19-3.81-.62-.53-1.2-.98-2.06-1.08-1.12,1.74-6,3.8-6.54,2.24-.04-.13.22-.27.34-.34,2.17.03,4.6-.81,5.74-2.7-.44-.76-.33-1.59-.28-2.4.05-.74-.3-1.65-.44-2.45-.29-1.73-2.95-2.49-2.31-4.14.22-.55.82-.86,1.51-.88,1.36-.05,2.39.79,3.27,1.92.38-.83,1.12-1.57,1.83-2.03,1.58-1.02,2.43.15,3.52.89.79.54,2.25.31,2.37,1.93,1.03-1.1,2.69-2.45,3.71-1.33,1.45,1.59-.7,3.26-1.77,4.14-1.01.82-1.74,1.96-2.44,3.02-.74,1.13-1.7,1.55-2.76,2.19-.82.5-1.42,1.45-2.77,1.02-1.9,2.9-4.94,4.52-8.25,4.56Z"/>
  <path class="cls-31" d="M11.93,51.75c-.3-.16-.33-.57-.44-.85.28-.88.66-1.69,1.24-2.64.11,1.57-1.05,2.1-.81,3.49Z"/>
  <path class="cls-11" d="M48.41,42.47c-.95.48-2.01.62-3.17.87-5.7,1.21-11.48,1.78-17.16,1.03-1.43-.77-2.51-1.88-3.24-3.45-2.35-5.01-2.87-13.72-3.09-19.36l7.77-1.07,20.44-3.17c.99,5.9,1.89,15.55.65,21-.37,1.64-1.15,3-2.2,4.16Z"/>
  <path class="cls-32" d="M18.85,64.4c-.57.79-1.2,1.61-.99,2.64.66,3.19,6.48,1.92,8.83,1.06.48-.18.93-.32,1.34-.28.04-.07.08-.12.12-.12.48-.05,6.24,2.08,6.36,2.4.04.1.04.22.03.34-.25,1.16-1.34,2.11-.35,3.82,1.56,2.69,6.57.6,8.67-.58l15.13,5.99c2.07.82,4.04,1.5,6.02,2.63-13.16,3.16-33.25-4.37-44.63-10.32-4-2.09-7.6-4.4-11.1-7.17-1.29-1.03-2.53-1.93-3.49-3.45,1.29-.43,3.11-1.27,4.49-.78,3.31,1.17,6.43,2.52,9.55,3.83Z"/>
  <path class="cls-1" d="M43.77,73.16c.17-.19.41-.47.7-.68,1.7-1.22,1.93-3.62.47-5.14-.5-.52-.87-.97-1.15-1.55,6.26,2.35,18.28,8.87,20.72,15.63l-20.75-8.26Z"/>
  <path class="cls-6" d="M37.72,63.45l1.99,4.23c-1.67.69-3.19,1.22-4.5,2.24-.21.14-.34.21-.59.16-.51-.1-5.7-2.1-5.81-2.39-.04-.1-.04-.22-.03-.34.45-.47,1.39-.98,1.57-1.57.23-.71.15-1.76-.27-2.45l-1.57-2.58c.05-.17.17-.42.28-.4,2.18.5,4.88,1.34,7.01,2.07.84.11,1.48.46,1.9,1.04Z"/>
  <path class="cls-25" d="M37.1,58.45c-.14,1.16.07,2.69.19,3.8l-.63.12c-2.67-.72-5.35-1.44-8.04-2.16l-1-.67c-.55-1.33-1.19-2.63-1.13-4.1l4.38,1.32c1.24-.85,3.64-4.55,4.73-3.26-.26,1.31-.95,2.51-.76,3.91.72.33,1.54.94,2.26,1.05Z"/>
  <path class="cls-16" d="M37.3,62.26c.17.3.27.88.42,1.2l-9.19-2.71c-.26-.42-.69-.69-.9-1.2,3.29.61,6.47,1.7,9.66,2.71Z"/>
  <path class="cls-5" d="M61.78,64.91l-1.11,1.01-.26-.16c2.05-2.48,3.51-5.25,3.96-8.6.66.33.41.96.42,1.34.08,2.73-1.61,4.46-3.01,6.41Z"/>
  <path class="cls-3" d="M28.79,67.35l6.42,2.57c-.2.16-.36.51-.67.52l-6.52-2.62c.02-.38.56-.33.76-.47Z"/>
  <path class="cls-15" d="M57.38,61.67c-.58.85-1.28,1.31-2.09,1.36.99-1.03,1.86-2.16,2.5-3.54l1.3-2.77c.55,2.16-.92,3.43-1.71,4.95Z"/>
  <path class="cls-7" d="M55.29,63.03c.76-.36,1.39-.89,2.09-1.36-.8,1.55-2.24,2.87-4.56,2.96-2.19.95,5.11-2.86,2.47-1.6Z"/>
  <path class="cls-23" d="M60.41,65.77l1.37-.85c-.87,1.21-1.89,2.67-4.12,2.69.5-.7,1.17-.95,1.87-1.18.44-.15.61-.49.88-.66Z"/>
  <path class="cls-22" d="M66.54,62.57c.47-.65.83-1.3,1-2.09,1.24-.94-.47,4.15-2.22,3.73.52-.44.82-1.09,1.22-1.64Z"/>
  <path class="cls-6" d="M65.68,49.75c-1.68-1.36-4.54,2.18-6,.66-.76-.79.39-2.12-.14-2.82-1.04-1.4-3.69,2.38-5.08,1.35s.39-4.05,2.41-5.31c5.24-3.26,12.47-1.58,15.61,3.8,4.36,7.47,1.7,17.78-4.96,23.16,2.52-4.18,5.17-9.4,3.39-14.22-1.58-4.15-4.78-1.73-5.7-3.4-.72-1.3,1.32-2.53.46-3.22Z"/>
  <path class="cls-33" d="M64.1,83.33c-.49,1.97-9.79,1.53-11.61,1.36-7.12-.68-13.83-2.34-20.5-4.84-5.72-2.14-11.13-4.5-16.34-7.65-3.7-2.24-7.11-4.57-10.22-7.55-.46-.44-.96-.92-.81-1.62,10.17,9.34,26.08,16.11,39.36,19.29,5.91,1.41,14.14,2.5,20.12,1.01Z"/>
  <path class="cls-13" d="M22.76,59.33c.26.69,1.01,1.91,1.48,2.82-1.61.5-3.11.88-4.49,1.74-.11-.11-.2-.1-.23-.11l-10.11-4c-.3-.45-.41-1.48-.05-1.9,4.57-.1,9.04.76,13.4,1.45Z"/>
  <path class="cls-19" d="M16.86,74.06c-2.37,1.6-5.25,2.02-7.75.79,1.58-.86,2.52-1.87,3.23-3.46,1.66.79,3.02,1.61,4.52,2.67Z"/>
  <path class="cls-17" d="M43.74,57.76c-1.85.25-7.2.01-7.82-.96-.4-.63,1-3.41,1.38-4.34-2.04-.18-3.81-.41-5.73-1.04.29.83.95,1,1.62,1.53l-2.68,2.72c-1.58-.46-6.47-2.21-7.28-3.29l-.24-.53c1.08-1.35,2.13-2.72,3.13-4.12l.55-.16,6.92.25c.36.53-1.77,2.72-.45,3.27.38.16,1.03.09,1.26-.36l1.45-2.78c1.18,1.23.71,3.66,2.25,3.51,1.43-.14.05-2.75-.11-3.59,2.16-.26,4.26-.3,6.33-.83,1.4-.36,2.69-.81,4.02-1.02l.4.45c-.5,1.98-1.5,3.74-3.02,5.3-1.1,1.71-1.73,3.62-1.91,5.74-.13-.29-.12-.09-.07.27Z"/>
  <path class="cls-18" d="M35.83,47.04c-.13-.38-2.2,3.98-1.94,3.22-.05.14-.58.08-.51-.14.48-1.42,2.46-4.07,1.7-4.03s-.18,1.14-1.95,1.11c-2.19-.03-4.27-.37-6.46-.53-1.04-.08-1.94-.62-1.97-1.7,8.97,1.61,18.29.34,26.83-2.31-.19.84-.67,1.25-1.08,1.97-4.23,1.34-8.62,2.27-13.11,2.23-.33-.06-.59-1.37-1.28-.76.36.37,2.89,4.7,1.76,4.56-.6-.07-.82-2.61-2.01-3.64Z"/>
  <path class="cls-12" d="M49.52,45.74c.93,1.01-.31,3.05-.97,4.11-2.29,2.35-2.83,4.11-3.53,7.25-.05.22-.14.4-.34.53-.43.02-.71.1-.94.13-.18,0-.32-.05-.36-.19-.05-.2.1-.4.12-.56.55-6.68,4.32-6.47,4.83-11.01.51-.08.82-.33,1.19-.27Z"/>
  <path class="cls-21" d="M44.68,57.63c.42-7.24,4.43-6.42,4.84-11.89.29-.22.61-.47,1.08-.4-.21,2.52-1.35,4.66-3.1,6.47-2.44,2.52-1.45,5.76-2.82,5.82Z"/>
  <path class="cls-29" d="M26.67,47.56c-.68,1.78-2.72,3.31-3.44,4.82-.34-.03-1.09-.37-.91-.64l3.39-4.19c.28-.34.73,0,.96.01Z"/>
  <path class="cls-19" d="M62.38,24.02c.2.25.28.66.26,1.22.15,1.08,1.07,1.04,1.96,1.49.71.36,1.02,1.18,1.87,1.14s1.42-.28,2.05-.95c1.77-1.89-.2-2.68,3.25-4.79.34-.21.77-.09.96.06.24.18.33.59.3.96-.11,1.09-1.06,1.67-1.87,2.27-2.41,1.76-2.54,5.66-6.91,4.91.31.45.86.39,1.12.91-1.95.79-4.43-.23-4.92-2.4.83-.07,1.33.6,2.08.15-1.94-.62-2.25-2.08-2.54-3.74-.25-1.44-2.76-2.84-2.31-3.74.52-1.03,2.88-.18,3.93,1.96.17.35.47.57.77.56Z"/>
  <path class="cls-19" d="M62.64,25.25c-.05-.32-.18-.85-.26-1.22-.19-.96.1-1.56.89-2.42.57-.63,2.23-1.42,2.83-.32.81,1.47-.18,3.6-1.39,4.48-.37.27-.83.12-1.09,0-.96-.46.03-2.61-.11-3.07-.91.71-.86,1.66-.87,2.56Z"/>
  <path class="cls-19" d="M68.25,26.3c-.48.81-1.23,1.18-2.11.92-2.27-.67,1.23-2.53.93-5.13.97-.23,1.7.35,1.8,1.29.12,1.04-.05,1.96-.62,2.92Z"/>
  <path class="cls-4" d="M30.61,32.1c-1.11-.6-2-2.33-1.49-3.41.4-.45,1.77-.4,1.78-1.09,0-.65-1.12-.78-1.43-1.29-.43-.71.34-1.66.85-2.02.76-.53,1.94-.23,2.53.54,1.41,1.84,1.69,4.24.65,6.32-.51,1.03-1.66,1.63-2.9.96Z"/>
  <path class="cls-27" d="M43.12,31.21c-1.84.37-3.25-1.69-3.07-3.4.67-.46,1.48-.56,2.09-1.19-.37-.72-1.31-.78-1.71-1.38-.41-.76.49-1.78,1.15-2.09.88-.4,1.93-.07,2.54.78,1.88,2.63,1.16,6.84-.99,7.27Z"/>
  <path class="cls-2" d="M41.28,36.89c-3.38,2.01-7.48,1.47-10.75-.24l-1.16.45c-.18.07-.37-.04-.43-.14-.08-.14,0-.39.19-.52,1.56-1.06.83-2.37,1.58-2.32.87.05-.45,1.23,1.12,1.92,3,1.32,6.13,1.14,9.45.86Z"/>
  <path class="cls-10" d="M32.06,22.33c.1,1.02-2.36-.13-4.84,2.09.21-2.12,4.69-3.57,4.84-2.09Z"/>
  <path class="cls-26" d="M45.35,21.2c-1.48-.26-2.82-.91-4.39-.35-.33.12-.73-.18-.78-.42-.29-1.41,4.48-.89,5.17.77Z"/>
  <path class="cls-9" d="M39.1,39.36c-1.08,1.27-2.88,1.3-3.82.16,1.46-.06,2.61,0,3.82-.16Z"/>
  <path class="cls-34" d="M46.94,44.88c-1.43.71-3.06,1.36-4.85.97,1.57-.25,2.96-.87,4.85-.97Z"/>
  <path class="cls-28" d="M31.89,46.44c-.79.49-1.52,0-2.24-.15.76-.09,1.41-.35,2.24.15Z"/>
  <path class="cls-24" d="M40.27,8.48c-.23-.28-.53-.5-.84-.66-.49-.24-1.05-.36-1.59-.39-.92-.04-2.06-.02-2.6.79-.14.21-.19.5-.22.76-.04.36-.02.74,0,1.11,0,.5.27,3.2.33,3.7.09.61.08,1.45.95,1.54.37.05.74.06,1.12.03.86-.06,1.74-.23,2.5-.63.38-.21.78-.48.97-.87.17-.37.2-.81.11-1.19-.07-.27-.21-.55-.41-.75-.23-.24-.54-.41-.85-.53,1.21-.48,1.29-2.01.56-2.89ZM38.69,12.92c-.25.24-.82.42-1.14.28-.34-.15-.19-.77.05-.94.19-.12.72-.03.94.04.12.04.27.13.3.26.02.13-.06.27-.15.35ZM38.86,10.18c-.06.21-.26.35-.44.46-.31.17-1.07.48-1.19.16-.02-.15-.09-.83-.07-.98,0-.06.02-.12.05-.17.05-.05.11-.09.17-.12.4-.15.91-.09,1.26.17.13.1.25.3.21.46Z"/>
  <path class="cls-24" d="M32.72,11.48c-.47-.02-.94.03-1.41.02-.98-.02-.75-1.11.12-.75.29.12.59.27.89.36.35.11.75.07,1.06-.12.97-.62.58-2.38-.15-2.71-1.18-.52-2.63-.43-3.74.29-.44.28-.8.74-1.05,1.24-.24.47-.34,1.07-.27,1.63.25,1.77,1.81,1.5,2.85,1.4.76-.07.82.72.06.64-.15-.02-.9-.34-1.06-.36-.23-.04-.49-.05-.7.04-.19.09-.35.26-.45.46-.08.17-.14.36-.17.56-.05.24-.05.49,0,.71.06.22.19.4.34.53.22.18.48.27.72.34.71.21,1.47.24,2.18.11.59-.12,1.18-.39,1.64-.79,1.19-1.05.96-3.5-.87-3.58Z"/>
</svg>