<?xml version="1.0" encoding="UTF-8"?>
<svg id="Layer_1" data-name="Layer 1" xmlns="http://www.w3.org/2000/svg" viewBox="0 0 71.87 85.09">
  <defs>
    <style>
      .cls-1 {
        fill: #e1513a;
      }

      .cls-2 {
        fill: #8e352c;
      }

      .cls-3 {
        fill: #92372d;
      }

      .cls-4 {
        fill: #e64035;
      }

      .cls-5 {
        fill: #ede8d3;
      }

      .cls-6 {
        fill: #f2e2ce;
      }

      .cls-7 {
        fill: #923027;
      }

      .cls-8 {
        fill: #f2edd7;
      }

      .cls-9 {
        fill: #9d322b;
      }

      .cls-10 {
        fill: #828484;
      }

      .cls-11 {
        fill: #eee8d7;
      }

      .cls-12 {
        fill: #89352d;
      }

      .cls-13 {
        fill: #913128;
      }
    </style>
  </defs>
  <path class="cls-5" d="M26.96,83.4c-3.02-.33-5.51-2.77-4.98-5.84.22-1.23,1.17-2.52,2.57-3.12,3.34-1.44,5.51-.98,8.49-3.62l-2.17-10.66c-.14-.71-.29-1.06-.9-1.2-.73-.18-.88.24-1.28.8-1.86,2.61-5.34,3.21-8.22,1.83-3.79-1.82-4.19-5.52-4.94-5.84-2-.84-1.83,2.31-7.46-.42-1.92-.93-2.87-1.72-3.66-3.75-.82-2.12-1.33-4.22.57-6.2.72-.75,2.08-1.21,2.84-1.9.59-.89.53-2.52,1.75-3.19-.09-.44-.58-1.17-.97-1.21-2.97.14-8.37,0-8.58-3.92-.21-3.94,3.39-3.52,3.75-5.34-2.08-1.13-3.28-3.1-3.3-5.38-.02-1.81,1.08-3.05,2.09-3.98,1.51-1.37,3.22-.52,4.74-.88s2.7-1.91,4.69-1.32c1.35.4,2.81,1.06,3.68,2.76.2-1.21,1.55-1.8,1.83-2.88l1.54-5.97C21.45,2.74,33.88,2.34,35.27,1.82,36.82,1.23,37.81-.04,39.64,0s2.78,1.19,4.34,1.9c2.66,1.23,14.25-.02,17.13,13.51,1.66-.2,3.11-.75,4.67-1.05,2.53-.49,4.73,1.2,4.86,3.74.23,4.55-4.8,4.75-8.47,5.59.4,6.13.22,12.02-.51,18.15,2.28,2.92,3.56,6.21,4.38,9.79,2.91,1.72,2.62,4.23,3.12,5.36,1.96,4.35,5.4,12.77-.94,15.23-2.22.86-4.79,1.14-7.07,1.1-2.93-.06-3.82-2.06-5.27-3.82-1.06-1.29-2.92-1.8-2.99-4.14-.07-2.52.61-5.31,2.34-7.39.47-.57.85-1.23.38-1.9-1.95,1.48-4,2.34-6.26,3.03l-2.45,4.91c2.15,2.49,4.71,4.11,7.31,5.85,3.04,2.03,3.74,5.95,1.31,8.78-3.07,3.57-7.58,5.92-12.29,6.39-2.01.2-3.79-.31-5.23-1.57-3.71.3-7.31.33-11.03-.08Z"/>
  <path class="cls-4" d="M17.77,53.92c.13-.2.27-.43.5-.52.7-.29,2.69-.62,3.39-.41.54.13.94.66,1.18,1.6.73,1.29,1.16-.06.64-.76-.79-.52-1.14-1.08-1.04-1.68-.28-1.42-.53-2.87-.74-4.34-.84-.98-1.65-2-2.44-3.04l.22-.57c-.65-6.44-1.12-12.9-.44-19.53.15-1.46-1.22-1.26-1.03-3.19.07-.69.83-.96,1.31-1.57,1.11-1.42.7-6.92,4.25-11.01,4.38-5.03,11.44-3.9,12.99-4.79,1.04-.6,1.62-1.74,2.86-1.69s2.17.59,3,1.74c.37.43,1.54.35,2.17.4,15.1,1.24,13.49,12.3,14.79,13.21,1.51,1.06,8.11-3.04,8.91-.01.25.96-.15,1.93-1.22,2.32-2.38.87-4.85,1.15-7.41,1.71.57,7.02.48,13.78-.5,20.64,2.73,3.23,4.07,7.05,4.92,11.19.2.46,1.1.22,1.46.57.8.79,1.09,1.93,1.06,3.03-1.3-.04-2.52-.42-3.62-.08,1.21.36,3.07-.08,3.91,1.06,1.8,2.45,2.45,5.7,2.62,8.72.07,1.3-.67,2.43-1.79,2.88-2.16.87-8.02,2.42-9.15-.62-.59-1.58-.64-3.2-.74-4.93-.61.7-.19,1.86-.53,2.7-.8.44-1.98-.7-2.04-1.78-.13-2.24.64-4.55,2.14-6.23,1.97-2.2-.91-3.18,2.83-4.58-.04-2.23-.86-4.84-2.09-6.98-1.08,4.47-3.92,7.72-8.2,8.97-.7.21-1.65.49-2.25.89l-2.99,5.67c-.28.52-.53,1.57-.12,2.07,2.36,2.87,5.34,4.83,8.35,6.83,1.85,1.23,2.21,3.62.78,5.29-4.26,4.98-13.07,7.41-14.28,4.18-.54-1.42.41-2.84,1.64-3.57,1.29-.77,2.43-1.5,3.36-2.73l2.22-2.95c-2.02-1.62-3.92-3.11-5.54-4.99-1.07-1.24-1.16-2.87-.5-4.3l2.29-4.98-6.58-.09.98,4.97,2.74,11.95c.11.5,1.07,1.38.55,1.89-1.52,1.18-2.88,2.46-2.64,4.7-3.85.33-7.5.31-11.26-.24-1.6-.23-2.98-1.98-2.23-3.42,1.04-2.01,5.37-1.22,9.94-4.79.3-.23,1.44-.05,1.3-.71l-3.1-14.82c-1.77-.33-3.26-.8-5.02-1.34-.09,1.57-.81,2.81-1.95,3.49-1.31.78-2.93.82-4.29.1-2.1-1.11-3.22-3.33-3.61-5.55Z"/>
  <path class="cls-4" d="M10.29,30.79c-2.16-1.75-7.84-2.95-7.45-6.47.08-.72.51-1.63,1.35-2.05,1.32-.65,2.75-.28,3.98.82.52-1.64,1.65-2.74,3.19-2.57,1.5.17,2.56,1.53,2.43,3.18-.24,3.09-3.07,4.07-3.5,7.09Z"/>
  <path class="cls-9" d="M19.49,44.19c1.8,3.17,2.92,1.95,2.96,5.57,0,.75.77,1.74,0,2.38.13.66-.13,1-.78.84-1.3.58-2.61.86-3.89.93-.83.04-1.62-.78-2.42-.81-1.71-.06-4.2,2.44-5.87-.24-.62-.07-1.52-.08-1.97-.42-.71-.53-.43-1.35-.78-2.03s-.95-1.12-.75-1.95c.55-2.3,2.58-2.62,4.8-3.23-.17-1.13-.83-2.54.6-3.42.65-.4,1.53-.25,2.24.25,2.74,1.94,2.85.49,5.87,2.12Z"/>
  <path class="cls-4" d="M7.49,36.84c-1.73-.12-5.44.18-5.17-2.33.14-1.31,1.55-.93,2.26-1.4.65-.42.55-1.88,1.75-1.77.91.09,1.67.62,1.73,1.81s-.31,2.26-.57,3.68Z"/>
  <path class="cls-3" d="M17.39,41.3c-1.33-3.09-3.13-1.57-5.28-2.32-1.03-.36-1.73-1.23-1.83-2.16-.34-3.28,3.86-2.29,1.89-5.89.84.28,1.25.97,1.35,1.69.25,1.73-2.08,2.58-1.58,4.18.45,1.46,2.58,1.08,3.81,1.66,1.02.55,1.93,1.36,1.65,2.84Z"/>
  <path class="cls-10" d="M43.38,72.29c-.11.64-.52,1.03-.98,1.46-.41-.84-.55-1.66-.62-2.67l1.6,1.21Z"/>
  <path class="cls-11" d="M31.18,53.29c-4.54-.97-6.61-3.42-7.69-7.74-1.63-6.54-1.37-14.98-.91-21.91l12.15-.49c7.13-.29,14.06-.5,21.36-1.17.67,8.05.55,16.07-1.07,23.91-.83,4.03-3.59,6.77-7.57,7.49-5.39,1.06-10.88,1.06-16.27-.09Z"/>
  <path class="cls-6" d="M21.66,52.99c.11-.31.39-.52.78-.84.81.98,2.01,1.44,1.75,2.56-.09.37-.49,1.25-1.1.86-.84-.53-1.07-1.76-1.43-2.57Z"/>
  <path class="cls-4" d="M19.13,51.59c-2.51.06-4.82.71-7.2,1.53-.36.12-.87,0-1.09-.16-.24-.17-.47-.76-.25-1.17.91-1.76,2.9-2.23,4.84-1.84-1.1-1.37-2.13-2.2-2.92-3.63-.39.38.01.63-.13,1.05-1.9.32-3.51,1.12-5.26,2.11-1.59-3.07,5.56-3.65,7.1-3.93.19-.24.12-.36.03-.36h-.59c-.73.02-1.4-.06-1.8-.5-.44-.47-.68-1.37-.18-1.97.29-.35,1.16-.27,1.49.02,2.29,1.97,5.13.64,6.32,3.12-.64.2-1.24-.12-1.72.47,1.19-.2,2.25.17,3.14,1.05.95.95.9,2.26.11,3.27.4.13.63-.11.73-.04,1.32.81-2.6,3.42-5.25,2.19.98-.58,1.98-.45,2.64-1.21Z"/>
  <path class="cls-1" d="M13.61,49.21c-4.02.75-3.42,2.71-4.22,2.74-.65.03-1.27-.05-1.47-.48-1.01-2.13,2.8-3.21,4.51-3.39.62-.06,1.15.67,1.18,1.12Z"/>
  <path class="cls-7" d="M31.37,37.58c-2.38.24-3.75-3.2-3.21-5.31.93-.16,1.8-.09,2.53-.41-.07-.97-1.03-1.53-1.23-2.42-.16-.72.81-1.26,1.31-1.39.71-.18,1.68.12,2.2.8,2.51,3.28,1.04,8.48-1.61,8.74Z"/>
  <path class="cls-13" d="M44.3,32.11c1.75.11,4.27,1.07,4.53,2.55.24,1.32-2.68-2.66-7.47-.2-.34.17-1.18.48-1.38.06.52-2.68,5.26-4.94,7.54-3.23-1.21.14-2.23.17-3.22.81Z"/>
  <path class="cls-2" d="M32.61,42.89c2.06,1.21-1.21,1.92-.25,3.5.75,1.24,2.15-.37,2.85-.68.16,1.05-.71,1.58-1.25,1.89-.92.53-2.18.12-2.57-.46-1.47-2.18.73-2.93-.16-3.83-.66-.67-.85-1.61-.54-2.47s1.14-1.44,2.19-1.3c.8.11,1.93.65,1.78,1.81-.81-.51-1.7-1.3-2.51-.61-.72.61-.25,1.72.47,2.14Z"/>
  <path class="cls-12" d="M32.18,25.44c-.18.79-3.27-.52-5.51,2.64.16-2.61,2.96-4.02,5.26-3.56.46.09.3.68.24.92Z"/>
  <g>
    <path class="cls-8" d="M46.7,10.67c-.25-.37-.6-.68-.97-.92-.58-.36-1.26-.57-1.93-.67-1.13-.15-2.55-.26-3.32.68-.2.25-.3.6-.36.92-.09.45-.11.92-.14,1.38-.05.62-.04,4.01-.02,4.63.04.77-.06,1.8,1,2.02.45.1.91.16,1.38.16,1.07.02,2.19-.09,3.17-.5.5-.21,1.02-.51,1.31-.97.25-.44.34-.98.27-1.47-.05-.35-.2-.71-.42-.98-.26-.32-.62-.57-1-.76,1.56-.46,1.83-2.34,1.03-3.52ZM44.23,16c-.34.27-1.07.42-1.44.21-.4-.22-.15-.98.17-1.16.25-.12.9.05,1.16.16.15.06.32.2.34.36.01.16-.1.32-.22.42ZM44.76,12.61c-.1.25-.36.41-.6.52-.4.17-1.38.47-1.49.06-.01-.19-.01-1.05.02-1.22.01-.07.04-.15.09-.2.06-.06.15-.1.22-.12.51-.14,1.15,0,1.54.36.15.14.27.4.21.6Z"/>
    <path class="cls-8" d="M36.99,13.52c-.59-.07-1.17-.07-1.75-.14-1.22-.14-.8-1.47.24-.92.35.19.7.4,1.06.55.42.17.92.17,1.33-.02,1.28-.66,1-2.89.12-3.38-1.41-.78-3.21-.83-4.68-.07-.57.3-1.08.82-1.44,1.42-.35.56-.55,1.29-.52,1.99.1,2.23,2.08,2.07,3.37,2.07.95,0,.93.98,0,.8-.19-.04-1.08-.52-1.27-.57-.29-.07-.6-.12-.87-.04-.25.09-.46.29-.61.52-.12.2-.21.44-.27.67-.09.29-.12.6-.07.88.05.27.19.52.36.7.25.25.56.39.86.51.86.35,1.79.47,2.69.39.75-.07,1.51-.35,2.13-.8,1.59-1.17,1.59-4.23-.66-4.54Z"/>
  </g>
</svg>