<?xml version="1.0" encoding="UTF-8"?>
<svg id="Layer_1" data-name="Layer 1" xmlns="http://www.w3.org/2000/svg" viewBox="0 0 85.92 78.12">
  <defs>
    <style>
      .cls-1 {
        fill: #c8d37e;
      }

      .cls-2 {
        fill: #c8d571;
      }

      .cls-3 {
        fill: #dee4b0;
      }

      .cls-4 {
        fill: #e9e1be;
      }

      .cls-5 {
        fill: #ece4cb;
      }

      .cls-6 {
        fill: #cad178;
      }

      .cls-7 {
        fill: #ccd39c;
      }

      .cls-8 {
        fill: #8ca251;
      }

      .cls-9 {
        fill: #ede8d6;
      }

      .cls-10 {
        fill: #8b3128;
      }

      .cls-11 {
        fill: #c2d173;
      }

      .cls-12 {
        fill: #c08a7c;
      }

      .cls-13 {
        fill: #ebe3cb;
      }

      .cls-14 {
        fill: #ece3cd;
      }

      .cls-15 {
        fill: #8f2c25;
      }

      .cls-16 {
        fill: #ead8c4;
      }

      .cls-17 {
        fill: #e14c39;
      }

      .cls-18 {
        fill: #e64035;
      }

      .cls-19 {
        fill: #ede7d3;
      }

      .cls-20 {
        fill: #829a4e;
      }

      .cls-21 {
        fill: #8f372c;
      }

      .cls-22 {
        fill: #eeddc7;
      }

      .cls-23 {
        fill: #eae2ca;
      }

      .cls-24 {
        fill: #8e3b2f;
      }

      .cls-25 {
        fill: #8fa55a;
      }

      .cls-26 {
        fill: #f2edd7;
      }

      .cls-27 {
        fill: #e5e3b6;
      }

      .cls-28 {
        fill: #8b332b;
      }

      .cls-29 {
        fill: #c5d477;
      }

      .cls-30 {
        fill: #cfd79d;
      }

      .cls-31 {
        fill: #ebe5d0;
      }

      .cls-32 {
        fill: #cad391;
      }

      .cls-33 {
        fill: #893027;
      }

      .cls-34 {
        fill: #8f4337;
      }

      .cls-35 {
        fill: #963629;
      }

      .cls-36 {
        fill: #ebe6d3;
      }

      .cls-37 {
        fill: #859149;
      }

      .cls-38 {
        fill: #898946;
      }

      .cls-39 {
        fill: #6b8143;
      }

      .cls-40 {
        fill: #78984f;
      }

      .cls-41 {
        fill: #e9e7c2;
      }

      .cls-42 {
        fill: #ead4c1;
      }

      .cls-43 {
        fill: #79994f;
      }
    </style>
  </defs>
  <path class="cls-36" d="M39.56,55.1c-1.97,2.83-2.27,6.48-.8,9.58,2.78,1.96,3.19,5.61.85,8.2-2.96,3.28-10.49,7.09-14.05,4.26-2.26-1.8-2.47-4.98-1.02-7.39,1.21-1.89,2.89-3.2,4.86-4.35-1.09-4.07-.83-8.13.75-12.06-6.04-2.45-7.96-7.27-8.96-13.36-2.99-1.23-5.44-3.28-7.23-6.09-3.1,1.4-8.51-.25-11.27-2.01-2.42-1.55-1.92-3.45-1.21-5.79-1.91-1.42-1.56-3.33-1.24-5.25.24-1.43.27-2.64.85-4.05s.68-2.94,2.4-3.67C.55,10.73.05,6.91,1.76,3.8,3.45.73,7.19-.7,10.61.42c4.88,1.61,4.77,5.83,5.41,6.01.8.22,1.17-2.48,3.48-3.13,1.64-.47,3.31-.65,4.97-.99s2.91.6,3.27,2.26c2.52-1.57,5.13-2.15,7.95-2.51.6-.08,1.6.05,2.05-.37,2.1-2.2,5.34-2.28,7.44-.05.6.64,11.59-.36,15.36,8.54.53,1.25.91,2.48,1.3,3.92,1.4-.19,2.67-.6,4.05-.95-.51-1.24-.28-2.66.84-3.31,4.24-2.49,10.36-1.8,13.59,2.08,2.97.05,4.15,2.33,4.69,4.81.35,1.61.75,2.84.66,4.57-.07,1.39.71,2.8-.12,4.28-.66,1.18-1.9,1.67-2.81,2.54-2.11,2.02-4.31,3.25-7.2,3.76-1.03.18-2.03,1.37-3.35.94-2.49,3.15-5.69,5.23-9.53,6.36-.58,3.08-.94,5.79-2.43,8.6,1.72.23,2.98.94,4.1,2.11,2.53,2.63,4.11,6.08,4.47,9.73.31,3.14-2,5.55-5.12,5.46-2.49-.07-4.51-1.42-6.04-3.42-3.69,2.83-8.41,3.01-11.25-.76-1.3-1.72-2.04-3.64-2.61-5.73-1.47.09-2.58.13-4.21-.06Z"/>
  <path class="cls-18" d="M61.22,32.52l.34.26c2.47-1.07,4.62-2.66,6.44-4.75.11-.12.25-.2.41-.22.38-.04,2.66,2.12,2.62,2.38-.11.76-1.99,2.55-2.66,3.14-2.05,1.8-4.6,2.88-7.17,3.7-.02.27-.15.44-.39.49-.76,4.13-1.1,9.08-4.73,12.04-1.62,1.32-3.53,2.03-5.61,2.7.11,1,.79,5.22,2.49,4.1,2.07-1.37,3.66-3.12,4.91-5.23.82-1.39,2.65-1.54,3.92-.63,1.88,1.34,3.05,3.29,3.91,5.43.86,2.13,2.15,6.14-1.12,6.92-1.25.3-2.49-.03-3.55-.76-2.41-1.66-2.51-3.87-3.49-3.05-1.85,1.56-4.94,3.52-7.35,2.27-3.19-1.64-3.89-4.97-4.73-8.12-.07-.27-.63-.31-.87-.28-2.02.32-3.9.15-5.91.1-.64.06-1.02,1.03-1.3,1.53-1.74,3.15-2.12,6.77-.93,10.14.32.9.79,1.54,1.49,2.13,1.15.98,1.41,2.49.63,3.79-2.1,3.53-10.1,7.12-12.13,4.48-1.26-1.64-.64-3.81.64-5.25,1.36-1.52,2.98-2.54,4.86-3.36-1.61-5.15-1.5-9.42,1.13-14.36-7.37-2.02-8.89-6.63-9.97-13.52-1.1-.59-2.19-.97-3.2-1.64-2.6-1.74-4.59-4.24-5.67-7.09.37-.56.94-.99,1.72-1.3.68-.63,1.38-1.02,2.11-1.18.11,1.96,2.71,4.96,4.54,6.1-.24-3.95-.21-7.7.07-11.55-.8-.33-1.21-.84-1.2-1.52.03-1.75,1.4-1.12,1.62-2.5.38-2.36.8-4.65,1.73-6.88,1.39-3.31,4.31-5.43,7.76-6.31,1.81-.46,3.63-.61,5.48-.81.74-.08,1.01-.34,1.43-.91,1.03-1.42,3.26-1.18,4.27.18.33.45.67.66,1.25.69,6.05.32,11.87,1.81,14.01,8.13.47,1.4.8,2.75,1.17,4.23,2.35.85,8.16-3.02,8.59.19.11.79-.41,1.6-1.33,1.92-2.06.72-4.21.94-6.47,1.42l.36,8.56-.13,4.17Z"/>
  <path class="cls-24" d="M18.06,27.41c-1.11,1.07-2.39,1.92-3.82,2.48-1.06.41-.15,2.55-2.52,2.55-2.57,0-5.12-.77-7.38-2.01-2.39-1.32-.78-2.37-.56-5.29-.91-.36-1.44-1.06-1.69-1.73-.32-.87.39-1.71.56-2.33-.36-1.31-.06-2.28.6-3.47.38-.69.01-1.77.81-2.4.52-.42,1.22-.77,2.12-.74.31-.61.25-1.21.42-1.71l.02-.36c-.45-.41-.37-.79.27-.8-.3-.2-.26-.37.11-.39l-.28-.42c-.08-.15.89-3.19,1.02-3.31.61-.55.94.11,1.11.64l1.45.96c.72.17,1.2.49,1.44.95l.4.06c.21-.47.8-.18.74.3.46-.19,1-.14,1.63.15,1.06.32,1.32.27,1.83-.67-.78-.4-1.6-.69-2.47-.86l-.24-.47c-.75.14-.64-.88.05-.61l3.54,1.12c1.34-1.68,1.53-3.8,3.74-3.95,1.45-.1,2.8-.71,4.3-.63.48.03.68,1.54.24,1.71-2.05.81-4.73.27-5.44,1.91-.29.67-.9,1.15-1.04,1.87.49.3,1.16.75,1.29,1.31l-2.48,7.74c2.11,2.98-.08,4.51.64,5.92.4.78.23,1.89-.41,2.5Z"/>
  <path class="cls-35" d="M80.31,14.02c2.91.07,2.3,3.55,2.6,3.87,1.06,1.14.77,2.33.37,3.65.09.68.85,1.55.56,2.44-.75,2.3-1.88,1.47-2.78,2.65-1.59,2.07-4,3.13-6.64,3-.58,1.21-1.79,1.38-2.92.76-2.85,3.97-6.26,5.86-10.7,7.14.05-.28-.25-.68.35-.87,4.19-1.37,6.85-2.7,9.56-6.47l-2.26-2.07-2.74,2.62c-1.26,1.2-2.8,2.03-4.57,2.56-.3-.09,0-.59.07-.77,2.62-1.04,4.85-2.75,6.59-5.16-.64-1.22-.45-2.43.53-3.38-.38-2.81-.28-4.93,2.25-6.33.07-.43.38-.48.93-.14.46-.69,2.07-.62,2.46.12.45-.25.65-.19.62.19.94-.23,1.67,1.12,1.56,2.06-.06.49-.23,1.09-.79,1.05.26.29.14.41-.2.21.2.83-1.18,1.33-1.77.76-.66.96-3.65-.03-2.31-1.03,1.05.09,3.74.28,3.55-1.38-.07-.57-.88-.75-1.36-.83-4.45-.69-4.74,3.92-2.74,6.74.79,2.02-.91,1.05-1.79.11-.39,1.57,2.96,4.84,4.48,3.85-1.43-1.27-.52-1.7,1-1.01,2.08.42,4.03-.41,5.43-1.96-.65-.14-.94-.42-.88-.85-.68.28-.95-.66-.54-1.16-.19-.03-.19-.1-.03-.21l.17-.8c-.35-.16-1.08-1.03-1.25-1.31-.02-.03.05-.12.15-.22-.52-.45-.58-1.15-.18-2.09-1.73-1.34-1.18-3.32.73-4.01-.13-.52.01-.6.4-.23-.09-.53.47-.72.92-.53l.06-.41c-.31-.56.06-.74,1.11-.54Z"/>
  <path class="cls-38" d="M13.69,7.92c0,.09-.19.17-.19.31,0,.11.09.22.14.3.52.51-.02,1.87-.76,1.85l-1.14-.36c-.06-.12-.05-.25.07-.33.79-.63.93-2.81.47-3.78-.8-1.74-2.18-2.62-4.1-2.67-1.63-.04-3.4,1.34-3.87,2.9-.72,2.41.28,4,2.38,5.05.15.07.19.23.19.4-.25.36-.15.76-.29,1.16-.02-.07.05-.45-.12-.5-1.98-.59-3.36-2.19-3.55-4.32-.27-3.21,2.3-5.85,5.46-5.81,3.1.04,5.56,2.68,5.3,5.8Z"/>
  <path class="cls-39" d="M80.31,14.02c-.24.05-.62-.03-.87.12-.05.12.08.41.09.56.02.26-.28.19-.39.28l-.56-.15c-2.24-3.13-6.47-4.29-9.91-2.46.19.26.32.56.38.91.56-.11.89,1.06.7,1.52.24.68-.21.52-.54,0-.46-.97-1.19-1.83-1.51-3.08,3.61-2.22,8.91-1.52,11.46,2.16.45-.12.84.14,1.15.15Z"/>
  <path class="cls-8" d="M69.76,14.79l.28-.04c.44.95.93,1.87,1.48,2.75-.26.03-.63.25-.93.14l-1.37-2.85c.08.06.17.11.3.13.08.02.19-.03.24-.13Z"/>
  <path class="cls-9" d="M52.84,47.67c-4.12,2.31-11.23,2.36-15.81,1.78-3.86-.49-7.82-1.61-9.28-5.59-.92-2.22-1.29-4.5-1.53-6.94-.5-5.03-.45-9.97-.07-15.04l22.62-1.24,8.65-.55c.49,6.42.89,18.23-1.38,23.91-.64,1.61-1.68,2.83-3.19,3.68Z"/>
  <path class="cls-32" d="M12.48,18.97c-.57,1.06.47,2.26,1.38,2.74-.08.24.11.29.57.15.72.23,1.92-.34,1.5.42-.04.06-.07.1-.17.16l-.26.05-2.35,6.98c-.15.33-.82.37-1.14.31-.05,0,.84-.11.88.12,0,.14-.18.17-.37.17h-2.48c-.14,0-.26.07-.18.18-.22.35-.44.26-.66-.25-1.66-.35-3.75-1.04-4.79-2.37-.18-.23-.19-.51-.16-.79.22-.7.23-1.14.04-1.34.21-.45.95-.13,1.34-.21l.26.1c.23,1.64,1.46,2.82,3.03,3.24.66.17,2.28.21,2.44-.47-.37-.17-.05-.19-.05-.17.02.1-1.74.57-1.66-.22l-.4-.26v-1.43c-.45.12-.81-.14-.71-.6-.49,0-.98.05-1.48.17l-.27-.35c-.4.09-.51-.09-.23-.39l.33-.37c1.4.01,1.66-.11.79-.38-.64.13-.81-.01-.53-.43.07-.34-.13-1.23.2-1.44,1.04-.66.5-1.69.79-2.42.27-.67,1.26-1.27.72-2.22.44.07.91.24,1.42.5l.65-1.55.45-.1c.31.25.46.68.45,1.29.29.4.5.79.65,1.16Z"/>
  <path class="cls-1" d="M11.73,10.02c-1.13-.36-2.3-.8-3.2-1.71-.09-.09-.03-.43-.1-.54-.05-.09-.24-.18-.43-.08l-1.01,3.51c-1.37-.06-2.53-1.59-2.85-2.83-.34-1.34.41-3.91,1.9-4.23.38-.94,2.24-1.17,2.95-.61.91-.25,1.98.46,2.54,1.19.09.11.41.62.47.73.46.89.88,1.8.31,2.74.08.61-.14,1.42-.58,1.83Z"/>
  <path class="cls-40" d="M11.93,12.52c1.05.46,1.04,1.64.76,2.61.63-.52,3.46-.56,3.9-.03.17.2.09.61.03.87-.2.7-.42,1.39-.64,2.07-1.19-.36-2.84-.3-3.49.92-1.02-.27-1.24-1.47-1.1-2.46-.58-.59-1.23-1.13-1.95-1.61l.02-.46c-.21-.16-.56-.18-.78-.04-.04.17-.1.16-.17,0-.65.1-.67-.8-.61-1.31.07-.69.51-1.47,1.01-1.95-.44-.51.04-1.21.68-1.11.31.04,1.43.73,1.7.98.36.32,1.04,1.12.65,1.52Z"/>
  <path class="cls-18" d="M17.65,24.92c1.49,1.5-2.03,4.08-3.49,4.21l2.64-7.75-2.53-.15c-.83-.05-1.26-.74-1.24-1.38.02-.93.7-1.27,1.56-1.29,1.15-.02,2.02.15,2.71.91,1.75,1.94.44,4.6-1.18,6.7.56-.23.79-.78,1.53-1.25Z"/>
  <path class="cls-14" d="M9.86,30.26c.98.33,2.02.17,3.16.21.08.75-.47,1.35-1.28,1.33-2.6-.08-5.16-.65-7.36-2-.36-.22-.71-.55-.73-.83-.03-.31,0-.85.28-.99.27-.13.49.31.76.09-1.14-.29-.42-1.75-.39-2.55.94-.4-.34,1.47.39,2.04,1.53,1.21,3.39,1.98,5.35,2.18.43-.16.44.19.01.14-.4-.08-.59.24-.19.37Z"/>
  <path class="cls-30" d="M16.68,13.52c.48-.15,1.49.38,1.67.82.13.33-1.01,3.6-1.27,4.12-.39-.08-.72-.3-1.11-.41-.19-.06-.35-.31-.6-.33.62-.34.89-1.83.98-2.42-3.21-.42-1.91-.21-4.45.47.84-1.08.66-2.28.03-3.25.38-.25.93-.25,1.62.01.6-.09,1.07-.02,1.41.22.36,1.04.88-1.62,1.91-.65-.09.53-.64.85-.64,1.3,0,.2.38.19.45.12Z"/>
  <path class="cls-27" d="M11.73,10.02c-.48-.03.79-1.61-.02-1.83-1.06-.28-2.1-.16-3.05-.58l3.46.31c.42-.74.16-1.94-.56-2.39-.34-.21-.69.47-.93.5-.9.12.55-.49.65-.75.29-.76-1.27-1.57-2-1.52l-.72,2.31c-.17-.91.35-1.62.08-2.48-.56-.13-1.21-.12-1.78.07-1.11.38.28,1.67.25,2.19-.42-.49-.61-1.09-1.27-1.41-.7.51-1.22,1.27-1.31,2.11l1.13.37-1.28.19c-.16.71-.07,1.8.55,2.28.39.3.87-.44,1.25-.43-.19.3-.87.56-.79,1.04.14.82,1.75.67,1.6,1.21-.03.12-.04.28-.11.39-2.08-.62-3.31-2.54-3.02-4.83.2-1.6,1.44-2.99,2.79-3.49,1.67-.62,3.43-.27,4.74.88,1.66,1.46,1.84,4.02.79,5.86-.12.03-.42-.1-.44,0Z"/>
  <path class="cls-18" d="M6.46,16.09c.87.34,1.91,1.12,1.96,2.09.02.39-.31.93-.76,1.1-1.04.39-1.94-.11-2.72-.75-.67-.55-.98-1.21-.82-2.1.11-.65.8-1.57,1.72-1.35.27.06.22.86.61,1.01Z"/>
  <path class="cls-23" d="M14.96,12.75c-.97.38-2.07.1-3.03-.23-.62-.96-1.25-1.9-2.53-2.3-.18.28-.36.63-.5.92-.91,1.25-1.4,2.73-1.47,4.44-.15.32-.4.17-.65-.02.02-2.19.97-4.28,1.37-6.68,2.28,1.57,4.7,2.37,7.34,2.88l-.52.99Z"/>
  <path class="cls-18" d="M6.99,22.1c-1.17.49-2.38.02-3.13-.73-.86-.86-1-2.08-.08-3.1.95,1.15,2.11,1.34,3.4,1.72.67.2.48,1.83-.19,2.11Z"/>
  <path class="cls-31" d="M9.46,14.44l1.94,1.49c.13.1.39.07.33.29-.03.11-.3.19-.35.3l-.83,2.06c-.61-.02-1.44-.34-1.69-.91s-.56-1.18-1.13-1.56c-.65-.34.11-1.91.77-1.71h.17c.21-.15.59-.11.78.05Z"/>
  <path class="cls-18" d="M6.31,22.93c.33.41.06,1.31-.36,1.62-1.08.79-2.76-.15-3.05-.86-.24-.57-.13-1.58.45-1.83.96.49,1.92.89,2.96,1.07Z"/>
  <path class="cls-5" d="M17.08,18.46l.95-4c-.39-.47-1.1-.43-1.35-.94.29-.37.41-1.02.9-1.29.56-.31,1.27-.23,1.89.03-1.03,2.19-1.13,4.54-2.39,6.2Z"/>
  <path class="cls-13" d="M12.88,10.38c.36-.56.61-1.21.76-1.85,1.08.33,2.17.52,3.3,1.15l-1.04,1.48c-1.08-.15-2.1-.34-3.01-.78Z"/>
  <path class="cls-22" d="M19.41,6.98c.34-.15.49-.02.38.34-.64,1.45-1.54,2.6-2.3,3.9-.16.28-.8.21-.98,0l2.18-3.6c.19-.32.39-.58.72-.64Z"/>
  <path class="cls-14" d="M15.75,22.45l-2.39,7.12c-.08.24-.28.38-.47.34-.57-.12-1.18.1-1.72-.13.51-.3,1.35.18,1.72-.33.57-.78.55-1.9.94-2.82.64-1.52,1.04-3.02,1.56-4.54.07-.08.28,0,.3.06.02.09.08.22.06.3Z"/>
  <path class="cls-20" d="M11.37,28.18c1.23.04-1.3,1.66-3.82.16-.94-.56-1.86-1.75-1.92-3.03.13-.17.32-.25.51-.32.16.03.29.1.29.24.06,1.55,1.63,3.27,3.21,2.93.59.05,1.16.05,1.71.02Z"/>
  <path class="cls-7" d="M8.89,11.14c-.5,1.02-.92,2.22-.39,3.26-.35.53-.68,1.08-.77,1.71-.3-.2-.77-.19-.96-.55.07,0,.2.06.24.01.27-.31.08-3.59,1.88-4.43Z"/>
  <path class="cls-16" d="M25.09,5.74c-1.27.41-2.51.56-3.74.76-.26.04-.4-.8-.1-.88.4-.11,4.44-.92,3.75-.58.13-.06.32.63.08.7Z"/>
  <path class="cls-3" d="M6.55,24.75c.17.03.17.09.01.18.09.12.17.25.23.39.17.72.58,1.23,1.23,1.54-.45.16-.42.21.08.13.44.58.86.86,1.56.79.51.21,1.13.31,1.73,0,.15.1.04.29-.02.39-1.11.55-2.51.46-3.61-.3-.89-.62-1.69-1.72-1.61-2.89.14-.05.25-.21.4-.24Z"/>
  <path class="cls-25" d="M13.85,21.72c.18.1.38.09.57.15-.73.68-1.85.91-2.98.6-.8-.22-2.06-.87-2.06-2.02,1.14,1.61,3.05,2.32,4.48,1.27Z"/>
  <path class="cls-11" d="M6.56,24.93v-.18s.59-1,.59-1c-.02.04,0,.18.06.21.04.02.19-.28.25-.26.57.17,1.09.5,1.75.86-.95.47-1.79.33-2.65.38Z"/>
  <path class="cls-42" d="M19.62,11.2c-.4.46-.98.36-1.58.27.07-.32.24-.92.57-.97.35-.06.66.29,1.01.7Z"/>
  <path class="cls-12" d="M19.79,7.32c-.15-.09-.28-.2-.38-.34.17-.15-.03-.4.06-.59.06-.12.45-.3.57.28-.21-.83.28-.55.43-.95.19-.08.34.38.35.59.02.38-.69.78-1.03,1Z"/>
  <path class="cls-18" d="M73.38,21.9c.17.04.17.1,0,.17.69,1.1,1.32,2.24,1.9,3.43.43.09.65.65.27.96.34-.06.56.16.66.68.82-.38,1.52-.96,2.11-1.72l.43.11c.44.3.99.47,1.52.67-1.82,2.36-4.88,3.42-7.56,2,.16.54.69.65.93,1.18-1.24,2.03-4.36-1.22-5.24-2.65-.32-.51-.21-1.66.35-1.67.63.22.98,1.13,1.73,1.26-.84-2.28-1.56-1.79-1.5-4.84.04-1.95,1.48-3.43,3.48-3.27.82.06,1.74.1,2.33.75.24.27.27.97.06,1.3-.88,1.43-2.68.95-4,.99.74.78,1.65.63,2.51.65Z"/>
  <path class="cls-29" d="M73.98,17.62c-.8-.18-1.65-.21-2.46-.12-.35-.56-2.09-3.69-2.04-4.1.13-1.03,3.83-1.64,4.25-.28,1-1.08,4.14,1.18,3.35,2.45-.09.14-2.42,1.9-2.63,2.01l-.47.03Z"/>
  <path class="cls-18" d="M78.96,19.31c-.9.02-2.14-.67-1.83-1.83.4-1.49,3.13-1.61,2.8-2.82.92-.13,1.5.44,1.86,1.14.48.95.22,1.65-.45,2.32-.71.71-1.27,1.17-2.38,1.19Z"/>
  <path class="cls-41" d="M78.22,15.5c-.13.05-.29.15-.4.23-.98.63-1.89,1.36-2.74,2.19l-.48-.1c-.2,0-.43-.15-.62-.19l2.74-2.19c.89-.72-1.88-2.51-2.59-2.28l-1.42,4.18.64-4.28c-1.17-.58-2.58-.4-3.54.45l1.72,4.02c-.37.17-.91-1.47-1.76-2.71-.3-.43-.36-1.1-.7-1.52-.83-.86.22-1.21,1.03-1.48,2.38-.78,5.16-.07,7.01,1.59.53.48,1.59,1.46,1.12,2.12Z"/>
  <path class="cls-18" d="M81.93,21.79c-.99.57-1.92.99-2.93.77-.55-.12-.91-.67-1-1.04-.1-.42-.15-1.43.34-1.59,1.42-.1,2.73-1.05,3.96-1.43,1.07.64.68,2.69-.37,3.3Z"/>
  <path class="cls-2" d="M73.39,22.07c-.02-.05,0-.12,0-.17.7.01,1.25-.3,1.77-.76.75.27,2.57,1.06,2.86,1.87.32.88-1.55,2.93-2.59,2.75-.63-1.27-1.31-2.5-2.04-3.68Z"/>
  <path class="cls-8" d="M79.14,14.97c-.24.29-.58.4-.92.53-1.34-2.95-5.7-4.67-8.81-3.01-.18.1-.35.16-.4.32s-.01.32.05.46c-.21-.26-.88-.58-.79-1.11,3.83-2.16,8.57-.81,10.87,2.81Z"/>
  <path class="cls-18" d="M82.8,24.4c-.74,1.3-2.96,1.56-3.65.46-.26-.42-.36-1.36.27-1.55,1.1-.33,2.19-.4,3.19-1.2.54.7.61,1.55.19,2.29Z"/>
  <path class="cls-6" d="M77.81,15.73c-.53.4-1.04.88-1.28,1.55-.37,1.05.25,1.69.89,2.35-.05.65-.34,1.55-.16,2.21-.49.24-1.66-.41-1.9-.91.26-.56.61-1.21.32-1.9-.22-.52-.76-.87-1.09-1.22.71-.55,2.41-2.21,3.22-2.08Z"/>
  <path class="cls-4" d="M77.26,21.84c.84,1.44,1.08.6,1.1,1.53l-.17.8c0,.06,0,.15.03.21-.08.66-.51,1.24-1.28,1.73-.53.55-.99.67-1.38.36-.53-1.1-1.69-3.15-2.17-4.39.43-.51,1.59,2.99,2.08,3.35,1.23-.3,2.16-1.38,2.25-2.54-.13-.66-2.24-1.12-2.56-1.74.06-.06.17-.14.2-.21.64.3,1.22.72,1.9.91Z"/>
  <path class="cls-37" d="M78.77,25.53c-.73.68-1.4,1.72-2.49,1.97-.45.1-.58-.74-.72-1.03,1.09-.38,1.82-1.32,2.66-2.09.17.33.21.92.54,1.16Z"/>
  <path class="cls-37" d="M78.2,24.17c.01-.26-.08-.63.17-.8,0,.25.13.68-.17.8Z"/>
  <path class="cls-15" d="M32.77,37.15c-.54-.07-1.35.95-1.83.37-.11-.14-.01-.46.26-.57,2.13-.85,1.54-2.44,2.04-2.64.16-.07.46.08.48.35.03.32-.04.56.06.9,5.28,1.02,10.67.82,15.79-.88.41-.14-.09-1.35.46-1.54.79-.26-.13,1.74,2.25,2.79.23.1.39.38.36.53-.15.75-1.24-.1-1.7-.19-.75,2.65-1.78,5.33-3.99,7.22-2.61,2.23-6.63,2.4-9.52.62-2.53-1.56-3.85-4.1-4.67-6.97Z"/>
  <path class="cls-10" d="M38.4,30.58c-4.05-2.36-6.08,1.34-6.74.84-1.15-.89,2.11-2.99,3.84-2.75-1.05-.78-2.13-.16-3.36-.35,3.42-2.61,7.49,1.32,7.01,2.16-.14.24-.49.26-.76.11Z"/>
  <path class="cls-33" d="M47.77,28.27c2.15-.26,5.09,2.23,3.96,2.87-.14.08-.43,0-.6-.17-1.62-1.69-4.06-1.99-6.03-.72-.2.13-.42.12-.55.07-.14-.06-.3-.42-.2-.65,1.18-2.61,4.52-3.5,6.76-1.73-1.18.17-2.29-.36-3.35.33Z"/>
  <path class="cls-21" d="M36.55,23.8c-.42,1.13-2.97-.38-6.08,2.7,1.06-3.67,6.63-4.16,6.08-2.7Z"/>
  <path class="cls-28" d="M52.55,25.76c-1.54-1.36-3.33-2.27-5.47-1.96-.36.05-.64-.34-.68-.55-.09-.38.16-.56.61-.76,2.23-.14,4.75.83,5.55,3.27Z"/>
  <path class="cls-34" d="M44.85,46.31c-1.41,1.41-3.93,1.57-5.33.04,1.85.51,3.48.25,5.33-.04Z"/>
  <path class="cls-43" d="M11.23,27.04l-.78-1.18c-.2-.3-.45-.9-.17-1.23.89-1.05,2.21-1.38,3.58-1.15.08,1.61-.87,3.11-2.62,3.56Z"/>
  <path class="cls-11" d="M9.66,27.8c-.06.18-.22.28-.34.34-.67.31-1.93-1.31-1.58-1.1-.34-.21-.81-.2-.96-.72-.1-.34-.34-.69.02-.99.82-.07,1.62-.4,2.47-.14-.15.26-.54.35-.3.7.13-.15.44-.54.61-.35.16.77.02,1.53.1,2.25Z"/>
  <path class="cls-7" d="M9.46,14.44l-.78-.04c-.02-.24.33-.18.49-.18.1,0,.34.03.3.22Z"/>
  <path class="cls-19" d="M48.92,35.55c-1.46,4.15-12.28,4.62-14.25.8,4.82.96,9.48.74,14.25-.8Z"/>
  <path class="cls-17" d="M37.66,43.52c-.15-1.55,3.01-2.13,4.11-1.73-.26.57-.69.72-.73,1.26l1.88-1.32c1.26-.89,3.12-.57,4.47.17-1.61,2.87-6.93,3.42-9.73,1.62Z"/>
  <g>
    <path class="cls-26" d="M47.96,9.91c-.24-.34-.57-.62-.92-.83-.55-.32-1.17-.5-1.79-.58-1.05-.11-2.36-.19-3.05.7-.18.23-.26.56-.31.86-.07.42-.08.85-.1,1.28-.03.58.05,3.7.08,4.27.05.71-.02,1.67.96,1.84.42.08.84.13,1.28.12.99,0,2.02-.13,2.92-.53.45-.21.93-.49,1.18-.92.22-.41.29-.91.22-1.36-.05-.32-.2-.65-.41-.9-.25-.29-.59-.51-.94-.68,1.43-.46,1.64-2.2.88-3.27ZM45.8,14.88c-.3.26-.98.41-1.33.23-.37-.2-.16-.9.14-1.07.23-.12.83.03,1.07.12.14.05.3.18.32.33.02.15-.08.3-.2.4ZM46.21,11.74c-.09.23-.32.39-.54.5-.36.17-1.26.47-1.38.09-.02-.17-.03-.96,0-1.13.01-.07.03-.14.08-.19.06-.06.14-.1.2-.12.47-.14,1.06-.02,1.43.3.14.12.26.36.21.55Z"/>
    <path class="cls-26" d="M39.07,12.75c-.54-.06-1.08-.04-1.62-.09-1.13-.1-.77-1.34.2-.85.33.16.65.35.99.48.39.15.85.14,1.23-.05,1.17-.64.86-2.69.04-3.13-1.31-.69-2.98-.7-4.32.03-.52.29-.98.78-1.3,1.34-.31.52-.48,1.21-.44,1.85.14,2.05,1.96,1.86,3.16,1.83.87-.02.88.89.02.73-.17-.03-1.01-.46-1.18-.5-.27-.06-.55-.1-.8-.02-.23.09-.42.27-.55.5-.11.19-.19.41-.24.63-.07.27-.1.55-.05.82.05.25.18.48.35.64.23.22.52.34.8.45.8.3,1.66.4,2.49.3.69-.09,1.38-.35,1.95-.78,1.44-1.11,1.38-3.94-.71-4.18Z"/>
  </g>
</svg>