<?xml version="1.0" encoding="UTF-8"?>
<svg id="Layer_1" data-name="Layer 1" xmlns="http://www.w3.org/2000/svg" viewBox="0 0 83.13 81.15">
  <defs>
    <style>
      .cls-1 {
        fill: #f2e0cc;
      }

      .cls-2 {
        fill: #f0dcc6;
      }

      .cls-3 {
        fill: #e7d1be;
      }

      .cls-4 {
        fill: #efd8be;
      }

      .cls-5 {
        fill: #894137;
      }

      .cls-6 {
        fill: #922f26;
      }

      .cls-7 {
        fill: #993d30;
      }

      .cls-8 {
        fill: #8c3128;
      }

      .cls-9 {
        fill: #8c3126;
      }

      .cls-10 {
        fill: #962f28;
      }

      .cls-11 {
        fill: #e64035;
      }

      .cls-12 {
        fill: #ece7d3;
      }

      .cls-13 {
        fill: #edd7c0;
      }

      .cls-14 {
        fill: #f3e0c9;
      }

      .cls-15 {
        fill: #f2edd7;
      }

      .cls-16 {
        fill: #8e2e26;
      }

      .cls-17 {
        fill: #efdbc5;
      }

      .cls-18 {
        fill: #953128;
      }

      .cls-19 {
        fill: #f1e0cd;
      }

      .cls-20 {
        fill: #e3cfb6;
      }

      .cls-21 {
        fill: #cf4b38;
      }

      .cls-22 {
        fill: #933027;
      }

      .cls-23 {
        fill: #f1ddc6;
      }

      .cls-24 {
        fill: #f2dfc9;
      }

      .cls-25 {
        fill: #86362b;
      }

      .cls-26 {
        fill: #963128;
      }

      .cls-27 {
        fill: #d8503b;
      }
    </style>
  </defs>
  <path class="cls-12" d="M6.56,34.66c-1.46-1.4-1.77-2.88-1.66-4.76l.2-3.65c.1-1.86,1.19-2.77,1.6-4.16.53-1.8.1-4.07,2.47-5.05,1.19-.49,2.92-.4,4.21-.61.65-1.02.95-2.67,2.19-3.38,2.74-1.57,6.05-3.26,7.7-.23.56,1.03.67,2.3-.08,3.34s-1.82,1.21-2.95,1.77c1.45.61,2.52,1.49,2.98,2.53.68,1.54.45,2.95-.2,4.28.44.77,1.02,1.89,1.11,2.77.16.25.98-.12,1.03-.52.4-3.41,2.36-6.56,2.6-9.9.13-1.76-.42-4.17,1.66-5.18.39-.19.95-.66,1.14-.99,1.13-1.97,2.11-3.89,3.52-5.7C37.73.57,43.17-.4,48.79.55c.63.11,1.64.42,2.22.28,2.87-1.76,5.83-.58,7.38,2.13,1.97,1.08,4.28,1.9,6.17,3.21,3.62,2.51,5.89,6.18,5.99,10.65l.07,3.26c1.49.23,2.85.3,4.29.4,2.11.14,3.58,1.76,3.65,3.73.07,2.1-1.54,3.78-3.75,3.91-1.82.1-3.53-.19-5.37-.25l-.89,3.75c3.92,2.21,7.44,4.89,10.13,8.46,6.17,8.18,5.92,19.11-.65,26.96-3.05,3.65-6.74,6.49-11.09,8.61-7.48,3.66-15.47,5.3-23.84,5.49-9.51.22-18.75-1.51-27.23-5.71-4.17-2.06-7.72-4.83-10.67-8.28C-.48,60.48-1.34,51.92,1.82,43.89c.74-1.87.95-4.11,3.39-4.65.59-.7,1.56-1.64,2.02-2.43l-.67-2.14Z"/>
  <path class="cls-11" d="M76.5,61.84c-.36-2.72-.75-5.61-2.63-7.71-.92-1.03-2.51-.49-3.78-.82,1.1-.3,2.23,0,3.66-.18-.77-4.42-1.92-1.94-2.7-3.95-1.4-3.62-4.11-6.35-7.59-8.23l2.05-6.64c.11-.36.26-.65.6-.57.18-.3.19-.65,0-.95l1.59-7.36c2.47,0,8.44,1.86,8.68-1.04.07-.82-.55-1.65-1.57-1.74-2.21-.19-4.33-.24-6.57-.68.79-5.27-.34-11.77-5.41-14.32l-6.1-3.06c-.77-.39-.79-1.99-1.78-2.18-3.34-.65-2.4,1.22-4.31.78-5.72-1.34-11.01-1.32-14.9,3.47-1.61,1.99-2.43,4.39-3.76,6.56-.64.37-1.76.49-1.99,1.25-.26.84.14,1.62.57,2.34-1.42,4.13-3.04,8.09-3.74,12.25-.29.21-.56.47-.6.7,0,.04.01.08,0,.11,0,.01,0,.02,0,.03.03.13.15.24.41.32l-.87,3.97c-.07.32-.26.5-.51.46.06.47-.45.43-1.52-.1-2.5-1.91-4.55,1.3-1.48,2.52l2.34,1.28c.1.13.64.22.6.55-.18,1.4-.08,2.72.08,4.17-5.32-.91-7.42.43-10.99,3.92-1.78-2.23-5.7-6.59-8.67-5.44-1.1.42-1.45,1.79-1.22,2.99.78,4.06,2.98,7.75,6.04,10.5.93.84,2.42,1.19,3.48.84.89-.3,2.08-1.15,2.39-2.38.76-2.93,2.88-5.59,6.17-5.89,4.04-.36,6.91,3.42,7.43,2.96l2.36-2.11c-2.18-1.41-3.64-3.34-3.86-5.87-.11-1.31-.2-2.64-.03-3.99.58-4.51,1.6-8.8,2.81-12.97.06-.32.17-.63.31-.93.09-.44.24-.87.48-1.25-.01-.31-.03-.63-.04-.94-.9-1.39-.75-1.89.82-2.32.18-.05.28-.24.32-.43.25-.7.41-1.41.82-2.27,10.08,2.69,20.1,5.2,30.55,7.19-1.56,7.71-3.75,15.13-7.1,22.19-1.15,2.44-2.55,4.45-4.56,6.04.29.36.55.34.93.29,2-.24,5.08-2.23,6.76-4.04-5.67,6.47-16.38,6.47-24.45,5.92l-.83.41c-1.51,1.57-3.56,7.26-2.36,9.66l.59.42c3.45-.46,6.11,1.34,8.81,3.24,3.5,1.84,7.11,1.23,10.03-1.36,2.24-2.86,5.09-4.67,8.83-4.23l.59-.41c-.86-3.21.11-6.78,2.62-9.18-.26-1.74.5-3.05,1.85-4.08-.9-1.87-2.37-3.49-4.28-4.06-.14-.2.09-1.16.5-1.16,2.4,1.1,4.7,3.4,5.19,5.94-1.07.62-2.37,1.42-1.97,2.92.23.88-.43,1.27-.92,1.8-1.67,1.83-2.89,6.4-1.43,7.51.3.23,1.08.6,1.37.28l.53-2.81c.36,2.13-.46,6.21,2.81,6.7,2.11.31,4.27-.03,6.29-.69,1.86-.61,2.57-2.23,2.32-4.15Z"/>
  <path class="cls-6" d="M33.02,19.78c3.97.82,7.89,2.09,11.57,3.93.79,1.53,2.49,1.98,3.92,1.1,3.55.42,10.03,1.48,12.88,3.32,1.24.8-.45,2.48-1.26,2.89-1.56,1.36-2.43,5.7-5.77,5.41-1.63-.14-3.26-.42-4.83-.88-4.69-1.35-1.91-8.03-3.85-8.54-1.59-.41-3.3,6.35-7.31,5.33-2.48-.63-6.94-1.8-6.84-4.72.14-1.06,0-2.13-.09-3.3-.05-.62.32-1.3-.13-1.84-.51-.63-.55-1.4-.18-2.03.34-.59,1.2-.82,1.88-.68Z"/>
  <path class="cls-11" d="M50.15,53.68c-.12.15-.24.3-.39.42-1.1.91-9.73,1.65-10.95.89-.16-.1-.3-.23-.44-.36l1.61-.1c-.79-.95-1.93-1.49-3.12-1.45-1.1.04-2.05.73-2.73,1.77-1.68,2.55-2.83,5.48-2.91,8.6-.03,1.2.71,2.24.75,3.44.03,1.08-.79,1.98-1.81,2.53-3.34,1.81-7.3,2.58-11.06,1.87-1.07-.2-1.63-1.36-1.77-2.12-.65-3.65,6.22-5.92,9.04-6.6.62-4.12,2.43-9.91,5.71-12.44,2.28-2.26,5.46-2.66,8.31-1.25,2.05,1.02,3.38,2.83,4.91,4.43,1.43.78,3.37.21,4.85.37Z"/>
  <path class="cls-11" d="M22.15,48.79l.53.27c1.05,1.88,3.24,2.95,5.13,3.84l.21.58c-1.42,2.62-2.16,5.34-2.69,8.23-1.95.41-3.61,1.22-5.29,2.01l-.67-.18c-1.64-3.06-4.03-3.37-7.13-3.01-3.73-.26-5.08-1.5-5.45-5.32-.52-1.57-1.53-2.86-3.03-3.87-.76-.95-1.03-2.79.31-3.03,2.09,3.84,6.75,11.84,11.8,7.71,1.2-.98,1.62-2.34,2.12-3.83.62-1.83,2.44-2.95,4.17-3.4Z"/>
  <path class="cls-8" d="M4.06,48.31c-1.95,3.8,2.87,2.47,3.41,8.11.18,1.85,1.4,3.19,3.27,3.5,3.81.64,6-1.65,9.29,3.79-1.83,1.86-1.02-3.17-5.84-2.71-3.51.33-7.29-.26-7.77-4.52-.23-2.06-1.32-3.82-3.16-4.72-.88,11.83,9.59,19.81,19.75,23.19,11.8,3.93,24.72,3.98,36.56.19,4.64-1.49,8.77-3.58,12.44-6.64.89-.74,1.71-1.45,2.94-1.36-4.61,5.21-12.39,8.58-19.01,10.16-10.54,2.5-21.52,2.27-31.88-.88-4.07-1.24-7.7-2.89-11.17-5.23C4.35,65.41-.15,56.44,3.39,46.46c.55.59.39,1.34.67,1.85Z"/>
  <path class="cls-11" d="M75.01,52.49c-.66-1.3-.48-3.1-2.85-3.66-1.47-3.64-4.06-6.43-7.38-8.47.65-2.23,1.56-4.12,1.78-6.17.26-.09.55-.16.83-.08,1.88.59,6.04,4.18,7.48,5.72,1.92,2.06,4.02,5.11,4.55,7.91.32,1.69-2.56,3.87-3.88,4.74h-.53Z"/>
  <path class="cls-26" d="M10.91,21.97l.4-.35c.54.08,3.73.97,3.78,1.17.03.11.04.22.04.34,1.73.38,3.49.49,5.28.34.13.04,0,1.48-.04,1.82,3.07,2.85.79,4.23,2.2,6.2.32.45-.12,1.19.16,1.76.38.78,1.78,1.27,2.48,1.41.11.02.29.21.38.27.17.11-.1.25-.19.3-.85.48-2.42-.69-3.22-.93-.46,0-1.35.97-1.09,1.38.84,1.3,2.85,1.43,3.46,2.67-1.74-.03-2.96-1.53-4.59-2.14-.67-.25-1.8.09-2.44-.54-.86,2.73-6.42,1.13-8.31-.02-.74-.46-.13-1.59-.49-2.1-.47-.66-1.23-.91-1.47-1.55-.27-.72.3-1.54.16-2.09-.32-1.25-.27-2.04.02-3.29.22-.93-.19-2.33,1.21-2.7.48-.13.7-.34.85-.75l.12-.66c-.15-1.17.37-1.03,1.27-.55Z"/>
  <path class="cls-11" d="M8.59,40.5c-.78-.63,1.07-2.25,1.68-2.6.27-.16.55-.31.87-.16,1.9.34,4.02,1.05,5.78.11,3.31-1.77,3.16.49,6.99,1.64.11.73.12,1.41.1,2.23-3.65-.39-7.13.67-9.62,3.66-1.77-2.07-3.51-3.77-5.8-4.87Z"/>
  <path class="cls-16" d="M75.01,52.49c.21-1,4.43-2.76,3.95-4.65-1.59-6.22-7.11-10.79-12.4-13.65-.13-.14-.28-.33-.46-.44-.16-.1-.38-.38-.35-.57.03-.17.23-.28.35-.38,3.85,1.97,7.43,4.39,10.24,7.82,5.44,6.64,6.17,15.9,1.41,23.15.06-.59-.19-1.39,0-2.05,1.83-3.71,2.71-7.7,1.74-11.93-1.98,2.19-2.89,1.74-4.12,4.07-.47-.41-.17-1-.36-1.37Z"/>
  <path class="cls-22" d="M61.63,62.82c.74.47,1.41,1.27,2.31,1.49-5.88-.89-7.02-1.07-11.12,3.28-3.03,3.21-7.74,3.79-11.42,1.36-3.33-2.21-4.16-2.95-8.18-2.83-.48.01-.31-.72-.42-.95,3.8-.36,5.59.44,8.72,2.68,3.75,2.68,8.4,1.79,11.28-1.68,2.41-2.9,5.3-3.76,8.84-3.35Z"/>
  <path class="cls-10" d="M35.15,55.5c.67-.7-.09-1.27,3.22-.87,3.92.47,7.95,0,11.78-.95.83-.2,1.74-.64,2.6-.76,2.03-.3,3.81-1.31,5.62-2.51,2.76-1.84,2.92-3.94,3.38-3.52.8.72-1.04,3.13-2.19,4.02-6.99,5.33-16.15,5.23-24.4,4.61Z"/>
  <path class="cls-9" d="M51.32,38.63c-.27,2.61,1.62,2.41,1.93,3.05.27.56-1.31.35-2.21-.61-4.84,3.34-13.24,1.55-16.38-3.31-.91.14-1.85.54-2.46-.3,3.59.07,2.76-2.23,3.51-2.22.24,0,.43.26.33.57l-.45,1.45c3.74,3.86,9.71,5.21,14.64,2.9.36-.28.13-2.05.73-2.05.23,0,.39.22.36.51Z"/>
  <path class="cls-25" d="M20.38,25.28l-.18-1.5c-3.31-.6-1.6.42-5.06-.66l.36-.42s1.14.06,3.43.18c-2.67.03-5.34-.46-7.84-1.42l-.18.5c-.24-.1-.89-.18-1,.17-.13.41-.29.75-.4,1.04.12-.69-.15-1.26-.37-1.99-.28-.9.48-2.14,1.41-2.31,1.54-.29,2.98-.02,4.48,0,.92-1.91.67-3.68,2.78-4.5,1.92-.75,3.36-1.61,3.66-.21.09.42,0,.81-.46,1.04-2.66,1.32-3.03.09-4,4.14,1.34.5,2.57.63,3.68,1.39s.93,2.28.09,3.12c-.41.4,0,1.13-.4,1.44Z"/>
  <path class="cls-18" d="M28.02,53.47c-1.53-.51-5.77-2.84-5.87-4.68.67-.17,1.05.1,1.39.46,1.39,1.48,3.07,2.47,4.93,3.25-.06.42-.3.69-.45.97Z"/>
  <path class="cls-7" d="M11.14,37.74c-.89.9-2.11,1.56-2.55,2.76-.46-.22-.89-.06-1.19-.45,1.19-1.19,2.41-3.37,3.74-2.31Z"/>
  <path class="cls-5" d="M44.33,44.38c-1.62,1.25-4.09.77-4.95-1.1,1.58.84,3.03,1.16,4.95,1.1Z"/>
  <path class="cls-24" d="M45.54,59.7c-.47.16-.89-.07-.92-.32s-.04-.69.3-.85c.88-.43,3.88-1.96,3.69-.31-.03.25-.25.52-.59.63l-2.48.86Z"/>
  <path class="cls-17" d="M55.92,61.54l-2.49-1.28c-.37-.19-.51-.47-.46-.84.19-1.31,2.92.51,3.58.96.32.22.39.58.3.88-.06.21-.47.52-.93.29Z"/>
  <path class="cls-14" d="M60.83,54.04c-1.29,1.41-1.66,2.39-2.58,2.31-1.48-.12,1.54-4.04,2.55-3.35.22.15.3.74.03,1.04Z"/>
  <path class="cls-23" d="M37.72,59.29c.51.83,1.92,3.02.93,3.37-.28.1-.73,0-.92-.37-.56-1.08-1.9-3.05-.85-3.43.32-.12.63.08.85.42Z"/>
  <path class="cls-2" d="M46.13,67.04c-.33.23-.78.16-.94-.1-.61-.99,1.36-1.86,2.44-2.63.32-.23.77-.1.97.14.61.78-1.4,1.83-2.47,2.59Z"/>
  <path class="cls-1" d="M22.76,54.31c-.22,1.41-.45,3.68-1.4,3.56-1.01-.13-.26-2.47.04-3.59.1-.37.34-.61.65-.62.34-.01.79.13.71.65Z"/>
  <path class="cls-19" d="M71.89,39.66c-.13,1.07-2.26.59-3.64.34-.44-.08-.6-.45-.56-.76.12-1.05,2.61-.44,3.66-.21.36.08.57.37.54.63Z"/>
  <path class="cls-4" d="M75.94,46.61c.22.35.12.76-.09.93-.85.71-1.84-1.39-2.51-2.52-.17-.29-.05-.7.1-.86.24-.24.84-.19,1.06.16l1.44,2.28Z"/>
  <path class="cls-11" d="M16.47,35.94c-.46,1.27-6.21.08-6.76-.94-.23-.43-.44-1.52,0-1.68.66-.24,1.26-.32,1.66-.67.53-.46.05-1.29.11-1.78.74-.8.97-1.82.44-2.81,2.92-3.96-3.41-2.83-1.45-5.69,3.01.92,5.95,1.75,9.09,1.46.12.64.14,1.2-.13,1.67-1.12-.1-2.14-.21-3.01.34-.77.49-1.16,1.25-.96,2.1.35,1.47,2.37,1.18,2.47,1.49.27.82-.99,5.24-1.45,6.52Z"/>
  <path class="cls-11" d="M18.81,35.75c-.41-.6-.65-1.09-1.09-1.42l1.05-4.73c.09-.42.65-.56.54-1.04-1.09.12-2.4.34-3.15-.56-.35-.42-.03-1.08.26-1.33.82-.7,3.42-.83,4.07.05,1.25,1.72.85,3.98-.35,5.88.97.28.76-1,1.26-1.37,1.89.41-.86,4.05-2.59,4.52Z"/>
  <path class="cls-3" d="M15.14,23.13c-1.12-.35-3.22-.74-4.23-1.16-.17-.36-.68-.33-.98-.64-.24-.24-.29-.59.03-.82.13-.09.29.09.56.21,3.2,1.42,6.7,1.9,10.17,1.63.14-.01.12.49,0,.56-1.38.75-4.02.46-5.54.22Z"/>
  <path class="cls-11" d="M11.81,25.63c.65.54.2,1.38-.14,1.67-.99.87-3.02-.04-3.29-.84-.21-.6-.21-1.62.53-1.81.9-.23,2.15.35,2.9.97Z"/>
  <path class="cls-11" d="M11.14,30.06c-1.23.5-2.57-.02-3.24-1.06-.29-.44-.18-1.64.39-1.54.83.15,1.47.7,2.37.68.43-.01.84.34.94.6.14.37.11,1.09-.46,1.32Z"/>
  <path class="cls-11" d="M10.89,31.04c.45.15.27.97.11,1.22s-.52.53-1.03.56c-.9.06-1.75-.43-2.12-1.26-.15-.35.06-1.15.49-1.08.83.14,1.67.25,2.55.55Z"/>
  <path class="cls-13" d="M16.57,41.38l-2.53-.26c-.37-.04-.63-.26-.68-.53-.25-1.28,2.16-.76,3.61-.55.46.07.55.48.53.83-.02.4-.41.55-.93.5Z"/>
  <path class="cls-20" d="M16.27,20.91c.26-.15.21-.56.32-.67.51-.54,3.76.76,4.11,1.5-2.13.6-9.05-.37-10.66-1.89,1.56-.79,3.14-.41,4.63-.31l-.25,1.08c.51.23,1.23.64,1.84.29Z"/>
  <path class="cls-27" d="M17.17,16.77c-.43,1.28-.52,3.51-1.69,3.58-.96.05.79-3.47,1.09-3.85.1-.12.43.11.6.27Z"/>
  <path class="cls-21" d="M20.72,14.15c.49.82-2.49,1.61-2.74,1.37-.09-.09-.34-.37-.16-.47.44-.25,2.65-1.32,2.9-.9Z"/>
  <g>
    <path class="cls-15" d="M58.36,11.14c-.13-.38-.36-.73-.63-1.02-.42-.45-.96-.79-1.52-1.03-.95-.39-2.15-.81-3.04-.17-.23.17-.4.45-.53.72-.18.37-.31.77-.44,1.17-.19.53-.95,3.47-1.09,4.01-.15.68-.47,1.55.4,1.98.37.19.75.35,1.16.46.92.27,1.92.43,2.87.3.48-.07,1-.21,1.36-.54.32-.32.52-.78.58-1.21.04-.31,0-.66-.14-.95-.15-.34-.41-.64-.69-.89,1.46-.04,2.13-1.61,1.71-2.82ZM55,15.19c-.35.16-1.03.12-1.3-.15-.29-.29.1-.89.42-.96.24-.05.77.25.97.41.12.09.24.25.21.39-.03.14-.16.26-.29.32ZM56.23,12.38c-.14.19-.41.27-.64.32-.39.06-1.31.09-1.31-.29.03-.16.23-.91.3-1.05.03-.06.07-.12.12-.15.07-.04.15-.05.22-.06.47,0,.99.26,1.26.67.1.15.15.41.05.57Z"/>
    <path class="cls-15" d="M49.28,11.38c-.49-.2-1-.33-1.49-.52-1.03-.4-.35-1.46.42-.75.26.24.51.51.79.72.33.25.76.36,1.16.28,1.26-.28,1.53-2.28.89-2.91-1.04-1-2.6-1.46-4.04-1.14-.57.13-1.13.46-1.58.9-.43.41-.77,1-.91,1.61-.43,1.96,1.33,2.27,2.45,2.57.82.22.58,1.07-.18.69-.15-.08-.82-.7-.97-.79-.23-.13-.49-.25-.75-.23-.24.02-.47.14-.65.31-.15.14-.28.33-.39.52-.14.23-.25.49-.27.75-.02.25.04.5.15.69.16.27.4.46.63.64.67.5,1.45.82,2.24.95.67.11,1.39.04,2.03-.2,1.65-.65,2.36-3.31.47-4.09Z"/>
  </g>
</svg>