<?xml version="1.0" encoding="UTF-8"?>
<svg id="Layer_1" data-name="Layer 1" xmlns="http://www.w3.org/2000/svg" viewBox="0 0 79.88 87.69">
  <defs>
    <style>
      .cls-1 {
        fill: #fef7d8;
      }

      .cls-2 {
        fill: #e74736;
      }

      .cls-3 {
        fill: #de614e;
      }

      .cls-4 {
        fill: #902823;
      }

      .cls-5 {
        fill: #e74737;
      }

      .cls-6 {
        fill: #b13430;
      }

      .cls-7 {
        fill: #a3352d;
      }

      .cls-8 {
        fill: #e55341;
      }

      .cls-9 {
        fill: #8c2622;
      }

      .cls-10 {
        fill: #962e28;
      }

      .cls-11 {
        fill: #e74a37;
      }

      .cls-12 {
        fill: #e74435;
      }

      .cls-13 {
        fill: #902825;
      }

      .cls-14 {
        fill: #e34a3b;
      }

      .cls-15 {
        fill: #e74938;
      }

      .cls-16 {
        fill: #8a2621;
      }

      .cls-17 {
        fill: #fef6d7;
      }

      .cls-18 {
        fill: #d76857;
      }

      .cls-19 {
        fill: #f2eeda;
      }

      .cls-20 {
        fill: #9a312a;
      }
    </style>
  </defs>
  <path class="cls-19" d="M36.98,86.87c-1.27-.87-1.78-2.21-2.5-3.42-6.49,1.45-15.05-1.1-15.79-8.57-.43-4.33,3.1-6.6,7.13-7.13.56-2.11,1.94-3.66,3.98-4.7-3.26-3.52-3.41-6.13-1.44-10.39-3.13-1.6-5.24-4.14-6.81-7.35-5.87,2.39-2.28,3.53-4.65,5.66-1.2,1.08.8,4.25-2.29,5.73-1.74.84-3.68.21-4.85-1.38-1.06,1.18-2.19,2.17-3.72,2.33-1.85.2-3.7-.82-4.03-2.68C-.04,54.18.1,52.37.03,50.63c-.08-2-.19-3.71,1.82-4.96.69-.43,1.67-.71,2.49-1.11,1.43-.69,2.66-1.58,4.38-1.5.71-1.25,2.41-.75,3.3-1.35,2.19-1.5,3.8-3.18,6.64-4.13-1.57-3.53-1.52-7.32-2.92-10.76-.81-2-2.34-3.84-.26-6.12-.63-2.9-.37-5.9.56-8.62,1.87-5.48,6.25-7.7,11.41-9.34,1.53-2.78,4.96-3.61,7.54-1.74,7.83-1.29,14.34.62,17.79,8.22l3.95-1.64c1.9-.79,3.09.43,4.61,1.04.95.38,2.76-.64,3.73.53,1.61-1.94,1.06-2.78,3.81-3.47,1.8-.45,2.52,1.26,3.77,1.73,2.02.76,4.18,1.52,4,4.33-.02.34.23.92.47,1.24,1.27,1.72,1.07,4.06-.6,5.12l-3.19,2.01c.48-.3-5.15,4.85-7.48,4.96-2.15,2.02-4.31,3.83-7.16,4.93.35,2.18.55,4.03.61,6.09,3.29,1.43,3.64,4.12,3.68,7.34,1.47-.26,2.89-.1,4.23.62,3.68-2.57,8.21-1.51,10.69,2.08,4,5.81,1.43,11.4-3.4,15.69,1.04,1.27,1.79,2.56,1.64,4.16-.41,2.25-2.07,3.91-4.12,4.77-2.61,1.1-5.39.07-6.71-2.66-6.61,4.07-13.18,7.69-20.18,11.18,1.73,2.71.81,5.86-1.9,7.39-1.93,1.09-4.24,1.52-6.25.2Z"/>
  <path class="cls-5" d="M61.96,20.48c.13-.12.34-.29.45-.22.33.2,2.3,1.94,2.32,2.14.01.11-.03.22-.08.33-2.05,2.84-5.11,4.67-8.51,5.87.56,3.32.97,6.34.85,9.58,2.01-.32,3.46,1.14,3.57,3.1.22,2.11-.22,4.08-.34,6.2,2.29-1.7,4.28-2.59,6.48-.95.47.21.09.53-.33.73-1-.13-2-.04-2.84.57-2.27,1.66-3.63,3.37-5.09,5.73l.06.52c-.43.5-2.37,2.01-2.77,1.09-.61-.22-.86-.83-.76-1.82l.55-8.71c-1.52,1.6-3.15,3.05-4.91,4.36l-2.1.29c-3.43,1.34-7.2,2.27-10.68,2.71-.68.23-4.64,5.17-2.79,6.39,1.84,1.64,3.76,3.17,5.78,4.61v.63c-1.43,1.58-3.81,2.81-5.94,2.97-2.46.15-4.52,1-6.19,2.54-.06.63-.19.67-.59.18-.45-3.06,3.32-4.92,6.18-5.45-1.59-1.13-2.96-2.26-4.09-3.76-1.98-2.63-.27-6.09,1.67-8.68-5.14-1.2-7.28-4.56-9.28-9.2-2.63,1.09-5.35,2.52-7.15,4.74.46,2.54-.16.77-1.35,5.24-.2.74.33,1.6-.13,2.24-.39.52-1.31.44-1.83.11-1.13-.73-.67-2.09-1.07-2.93-2.37.51-4.1,4.65-6.23,3.66-.87-.4-.67-1.65-.21-2.3-.61-.27-1.36.18-1.9-.18-.75-.51-.43-1.71.17-2.16.37-.47.36-.63-.03-.48-.5-.29-.68-.89-.65-1.47.03-.51.45-.98.97-1.19l2.57-1.05c1.47-.6,2.7-.88,4.05-1.41.82-.32,1.69-1.27,2.89-.71,2.44-2.4,5.34-4.43,8.66-5.47-1.59-4.63-2.48-9.16-3.39-13.78-.57-.34-1.11-.89-1.26-1.37-.22-.72.58-1.14.74-1.81.36-1.52.02-3.27.02-4.89.02-5.06,2.83-9.09,7.47-10.99,1.31-.54,2.95-.77,4.1-1.58.7-.58.84-1.71,1.71-1.92,3.75-.9,2.04,1.12,4.62.74,2.51-.36,5.03-.52,7.53.04,3.04.68,5.6,2.64,7.02,5.34l1.67,3.16c.18.34.91.08,1.2-.05l4.47-1.95c.87-.38,1.76-.23,2.2.62,1.31,2.54-4.61,3.83-6.42,4.88.9,3.17,1.82,6.22,2.46,9.64,2.59-.83,4.72-2.5,6.45-4.5Z"/>
  <path class="cls-13" d="M28.11,69.33c.2-.06.39-.13.59-.18,1.67-1.28,4.08-2.21,6.19-2.54,2.03-.9,3.99-1.93,5.95-2.97l.52-.62c4.53-2.56,9.07-5.12,13.6-7.68l.78-.16c1.09-.14,1.84-1.01,2.7-1.61.28-.74,1.15-1.41,1.95-1.37,1.9-1.7,3.94-3.21,6.11-4.51-.53-.59.41-.88.93-.95.44-.32.96-.72,1.44-1.02,2.61-1.62,5.43-.74,7.14,1.61,4.02,5.52-.05,10.89-4.87,14.25,1.89,1.42,3.81,3.89,1.84,5.88-.99,1-2.77,1.95-4.2,1.19s-2.06-2.36-2.62-3.76c-7.91,5.02-15.91,9.44-24.4,13.46.73,1.17,2.03,2.37,1.96,3.88-.12,2.27-2.96,3.71-4.95,3.06-1.14-.37-2.93-3.4-2.35-4.96-4.15,1.83-8.44,1.7-12.19-.48-1.8-1.04-2.94-2.89-3.26-4.93s.83-3.7,2.67-4.25l4.47-1.33Z"/>
  <path class="cls-11" d="M69.5,20.6c-1.19.2-2.3.43-2.94,1.56-1.68.78-5.64-2.12-4.2-3.92.61.05.71-.26.3-.93.26-1.21.28-2.36.03-3.44-2.14-3.29,1.52-4,2.52-.74l.21-.37c.48-.12.8-.56,1.05-1.04l1.56-2.97c.37-.71,1.06-.95,1.66-.75,1.77.6.55,2.99.07,4.18l2.24-1.82c.61-.49,1.43-.45,1.86-.08,1.44,1.24-.19,3.01-1.3,4.11.75-.02,2.03-.99,2.78-.11.29.34.34.78.2,1.23-.55,1.72-3.11,1.93-3.89,2.96-.67.89-1.27,1.63-2.15,2.14Z"/>
  <path class="cls-7" d="M65.42,12.76c.95,2.05,2.03,1.82,1.61,3.24-.55-.85-1.42-1.33-1.89-2.17-.44-.78-.57-1.75-1.34-2.36-.42-.33-.99-.18-1.21.15-.19.29-.37.86-.1,1.22,2.05,2.8-.56,2.97,1.2,5.6.12.18.06.51-.07.59-.31.18-.7-.75-1.01-.44-.99,1,1.65,3.04,3.21,3.44.39.1.81-.33.88-.57.09-.3-.31-.42-.45-.79,1.98.51,2.84-.53,3.25-.07-.55.32-1.18.46-1.84.78-.5.25-.62,1.06-1.25,1.25s-1.24-.19-1.77.09l-2.69-2.25c-.91-.76-.25-2.11.2-2.94,1-4.2-.35-3.65-.5-4.84-.09-.77-.01-1.45.63-1.84,1.31-.78,2.64.85,3.13,1.9Z"/>
  <path class="cls-19" d="M67.43,46.73c-.35.25-.67.62-.93.95l-2,.95c-1.45,1.08-2.82,2.27-4.11,3.56-.41.72-1.32.92-1.95,1.37-.14.02-.11-.2-.06-.34,1.01-2.31,2.66-4.28,4.75-5.68,2.43-1.63,3.62-.09,3.57-1.01.23.11.47.17.72.19Z"/>
  <path class="cls-5" d="M2.89,50.66c.07-.05.08-.25.12-.36.02-.05-.09-.08-.15-.11.09-.48.71-.66,1.22-.77,1.01-.22,1.61-1.1,2.74-1.04-.69.78-1.7.85-2.48,1.49-.46.38-.9.79-1.45.79Z"/>
  <path class="cls-19" d="M47.21,45.87c-4.25,1.56-8.48,2.62-12.9,2.61-3.33,0-5.99-1.75-7.44-4.68-1.54-2.96-2.52-6.07-3.48-9.31-.98-3.35-1.75-6.63-2.03-10.17l28.44-8.22c1.8,5.84,3.06,11.63,3.86,17.6.14,2.04.29,3.91,0,5.88-2.53,1.81-4.72,3.84-6.45,6.29Z"/>
  <path class="cls-19" d="M55.74,55.18c-4.71,3.2-9.86,5.79-14.9,8.46-2.05-1.97-3.42-2.26-5.82-4.6-2.54-2.48,1.02-5.56,2.64-7.51,3.81-.37,7.27-1.38,10.8-2.68,1.19.15,2.27-.2,3.11-1.01l3.48-3.36c.31-.3.68-.55,1.07-.41l-.62,8.17c-.08,1.06-.05,2.03.26,2.94Z"/>
  <path class="cls-1" d="M39.71,14.88c-1.12,1.03-4.38,2.09-4.99.29s-.98-3.72-1.11-5.66c-.06-.85.38-1.52,1.14-1.8,1.72-.63,4.04-.6,4.83,1.57.29.8-.31,1.47-.49,2.17.44.42,1.25.79,1.26,1.41.02.71,0,1.42-.65,2.02Z"/>
  <path class="cls-17" d="M28.05,14.73c.1-.15.03-.32-.23-.48-1.31-.88-1.46-2.52-.57-3.82.98-1.44,3.2-2.2,4.81-1.27.83.48.76,2.27.09,2.7-.73.46-2.11-.5-2.57.14-.14.19-.12.45.09.54.85.39,2.39-.63,3.35.43.7.78.59,1.92.14,2.8-.98,1.95-4.28,2.01-5.1,1.24-.63-.59-.22-1.64-.01-2.29Z"/>
  <path class="cls-19" d="M34.89,66.61c-2.03.9-4.03,1.98-6.19,2.54.39-2.19,4.64-2.99,6.19-2.54Z"/>
  <path class="cls-18" d="M28.05,14.73c-.13-.22-.18-.36-.23-.48.95.29,2.16-.49,2.71,0,.11.1.09.36-.06.49-.47.42-1.6-.22-2.42,0Z"/>
  <path class="cls-15" d="M63.22,63.27c.96.81,2.42-.75,3.27-.61.2.03.64.59.39.75-8.46,5.48-17.22,10.3-26.35,14.54-.39.18-.83.18-.96-.02-.63-1.02,1.94-1.73,2.11-2.91.15-.99-.8-2.23-1.44-2.93s-1.5-.2-2.31.07c-.4-1.72-1.58-2.52-3.35-2.47,9.46-4.67,18.58-9.61,27.41-15.31,4.84-3.12,3.84-2.78,7.73-6.27,1.58-1.41,3.64-1.5,5.4-.06,1.28,1.04,1.91,2.88,1.67,4.66-.29,2.2-1.54,4.07-3.09,5.56-1.33,1.28-2.47,2.57-4.28,3.36-2.89-3.53.78-3.22-1.55-6.02-.56-.68-.99-1.7-1.91-2.07-1.18-.47-2.18.08-3.18.68-1.33.8-2.26,2.33-1.34,3.78.21.33.41.63.5.98.1.39-.66.65-.64,1.1.04,1.15,1.03,2.44,1.92,3.18Z"/>
  <path class="cls-2" d="M32.45,75.72c1.21,2.74,2.5-.14,4.28,3.48-4.01,2.29-10.51,2.04-13.61-1.38-.75-.83-1.02-2.04-.67-3.12.29-.89,1.27-1.61,2.42-1.87,2.57-.57,4.98-1.25,7.52-2.08-.46.81-1.16,1.57-1.11,2.52s.83,1.68,1.16,2.44Z"/>
  <path class="cls-19" d="M32.8,69.53c-5.7,2.69-8.75,1.43-10.91,4.46-.08-1.42,1.23-2.39,2.55-2.7,3.63-.85,6.92-1.95,10.33-3.59,9.04-4.36,17.71-9.18,26.16-14.58,2.79-1.78,5.13-3.74,7.48-5.98,1.45-1.38,3.54-1.82,5.21-.89-1.75-.02-3.45.29-4.72,1.54-2.28,2.24-4.63,4.12-7.4,5.87-9.23,5.95-18.77,11.18-28.7,15.87Z"/>
  <path class="cls-19" d="M38.65,77.07c-.67.64.98,2.68.85,3.36-.03.18-.49.41-.63.23-.92-1.14-1.67-2.38-2.54-3.76,3.76-1.87,1.62-3.66,2.78-4.14.93-.38,1.88,2.08,1.67,2.27l-2.13,2.03Z"/>
  <path class="cls-19" d="M69.18,64.21c-.66.35-1.86-2.75-2.88-2.47l-2.55.7c-.44.12-2.23-2.14-1.23-2.38.41-.1,1.62,2.04,4.81-.14.92,1.31,1.62,2.53,2.27,3.82.11.22-.3.4-.42.47Z"/>
  <path class="cls-19" d="M62.62,57.85c-.62-.16-.74-.93-.59-1.41.45-1.4,1.81-2.29,3.25-2.24.43.02.82.28.98.51.25.37.32.89.1,1.38-.6,1.34-2.2,2.16-3.74,1.77Z"/>
  <path class="cls-19" d="M36.51,72.61c-1.1,1.61-3.57,2.13-4.21,1.1-.24-.38-.27-1.03.03-1.45,1.09-1.53,3.47-2.15,4.19-1.15.31.43.31,1.04,0,1.5Z"/>
  <path class="cls-19" d="M34.58,76.32c-.84-.04-1.32-.53-1.45-1.23,1.8.03,3.35-.67,4.27-2.32.74.79.62,1.81-.06,2.49s-1.61,1.1-2.75,1.05Z"/>
  <path class="cls-19" d="M65.05,59.99c-1.04.16-1.75-.27-2.02-1.15,1.89-.05,3.32-.85,4.19-2.48.48.42.75,1.1.44,1.69-.5.97-1.43,1.76-2.62,1.94Z"/>
  <path class="cls-19" d="M70.08,68.07c-.96.13-1.49-.41-1.68-1.12,1.73-.14,3.14-1.04,4.04-2.52.71.63.67,1.61.08,2.29s-1.39,1.21-2.44,1.36Z"/>
  <path class="cls-19" d="M39.18,84.49c-.6-.15-.86-.73-1.07-1.16,1.9.09,3.35-.73,4.31-2.31.61.6.65,1.39.18,2.04-.72,1-2.04,1.77-3.42,1.43Z"/>
  <path class="cls-14" d="M66.5,47.68c-.64.84-1.47,1.49-2.39,2.15l-2.8,2.03c-.32.23-.61.37-.93.34,1.12-1.95,3.68-4.68,6.11-4.51Z"/>
  <path class="cls-19" d="M71.58,64.02c-1.02,2.03-3.93,2.63-4.36,1.33-.14-.43-.09-1.03.44-1.33.28.54.64.98,1.07,1.02.66.07,1.15-.16,1.48-.54.47-.54.21-1.17-.3-1.8.33-.46.9-.3,1.26-.12.51.25.69.88.4,1.44Z"/>
  <path class="cls-19" d="M38.25,82.46c-.64-.05-.99-.36-1.09-.82-.08-.38.02-.91.53-1.09.4.91,1.14,1.27,1.95.83s1.07-1.36.37-2.26c.39-.26.96-.13,1.37.16.36.26.44.83.2,1.35-.57,1.23-1.85,1.94-3.34,1.82Z"/>
  <path class="cls-6" d="M67.29,12.71c.78-1.28,5.49,2.69,4.05,3.96-.83-1.9-2.09-3.19-4.05-3.96Z"/>
  <path class="cls-4" d="M39.47,44.73c-1.93-2-1-3.46-3.37-3.97-1.98-.43-3.49-1.65-4.81-3.22-.52.74-1.23,1.18-2.07.91,1.83-1.91,1.24-.3,2.05-3.5.62.27.66.94.48,1.64,4.57,1.77,11.03.45,14.34-3.52-.29-.57-.82-1.15-.43-1.71.15-.22.57.32.67.51.9,1.78,2.08.97,2.57,1.46.1.1.1.28,0,.38-.12.12-.29.19-.51.18l-1.63-.09c-.1,1.86-1.4,3.47-2.17,4.93.73,1.34,1.75,2.93,1.07,4.59-.5,1.25-1.41,2.22-2.51,2.49-1.42.36-2.71-.06-3.68-1.07Z"/>
  <path class="cls-9" d="M30.76,32.26c-1.28-.87-1.92-2.27-1.96-3.7.81-.27,1.63-.32,2.27-.88l-1.71-2.07c-.39-.48.62-1.21,1.06-1.33.59-.16,1.37-.12,1.91.36,2.64,2.32,2.73,6.74.68,7.83-.63.34-1.57.24-2.25-.22Z"/>
  <path class="cls-16" d="M47.11,26.09c-2.45-.53-4.84-.16-6.56,1.55-.2.2-1.01.52-1,.12.07-2.66,2.61-4.65,5.24-4.6-.69.78-1.77.94-2.31,1.86,1.66-.29,3.56-.77,4.63,1.06Z"/>
  <path class="cls-8" d="M37.65,9.97c.2.67-.66,1.42-1.28,1.21-.53-.18-.55-1.08-.29-1.36.38-.41,1.37-.5,1.56.16Z"/>
  <path class="cls-3" d="M37.51,13.73c-.54.19-.9.11-.98-.26-.09-.45,0-.84.58-.91.37-.05.72.01.85.34.1.25-.03.68-.45.83Z"/>
  <path class="cls-10" d="M65.08,56.22c-.3.67-1.4,1.06-1.81.43s.39-1.27.96-1.38c.32-.06.52-.06.68.07.17.13.37.43.17.88Z"/>
  <path class="cls-20" d="M34.68,73.19c-.52.19-1.09.19-1.26-.32-.11-.32.1-.78.51-1.04.35-.23.67-.25,1.09-.16.26.06.48.41.39.78-.06.25-.25.56-.73.73Z"/>
  <path class="cls-12" d="M36.66,39.74c.92-1.16,2.32-.93,3.48-.47,1.05.42,1.31,1.6,1.95,2.86.24-1.59-.85-2.82-2.01-3.63.71-.28,1.51-.5,2.23-.26,1.79.59,3.15,2.42,2.84,4.26-.27,1.62-1.4,2.62-2.8,2.7-3.54.22-2.78-3.32-5.7-5.46Z"/>
</svg>