<?xml version="1.0" encoding="UTF-8"?>
<svg id="Layer_1" data-name="Layer 1" xmlns="http://www.w3.org/2000/svg" viewBox="0 0 132.74 100.06">
  <defs>
    <style>
      .cls-1 {
        fill: #a22728;
      }

      .cls-2 {
        fill: #b32429;
      }

      .cls-3 {
        fill: #f3ebd4;
      }

      .cls-4 {
        fill: #ea3732;
      }

      .cls-5 {
        fill: #ee3634;
      }

      .cls-6 {
        fill: #ec3731;
      }

      .cls-7 {
        fill: #a5272a;
      }

      .cls-8 {
        fill: #f2ead4;
      }

      .cls-9 {
        fill: #e63d37;
      }

      .cls-10 {
        fill: #8e1517;
      }

      .cls-11 {
        fill: #921416;
      }

      .cls-12 {
        fill: #f2ebd4;
      }

      .cls-13 {
        fill: #f2e8d2;
      }

      .cls-14 {
        fill: #efead5;
      }

      .cls-15 {
        fill: #ec3631;
      }
    </style>
  </defs>
  <path class="cls-12" d="M87.16.46c1.42.91,1.44,2.45.59,3.75-.54.92-1.3,1.68-1.93,2.55-1.14,1.52-1.89,3.42-1.57,5.31.2,1.19,1.06,2.42,2.1,2.89,1.92.81,3.95-.49,5.84-.91,3.36-.99,7.27-1.1,10.41.66,1.92,1.14,3.46,3,4.13,5.18.55,1.9.87,4.15,2.58,5.42,2.18,1.51,5.66,2.04,8.14,1.08,1.53-.62,2.93-1.6,4.06-2.8.85-.86,1.79-1.66,2.54-2.63,1-1.3,1.94-2.9,3.55-3.56,1.99-.86,3.73,1.05,4.13,2.89,2.52,9.82.3,20.57-5.28,28.98-3.76,5.7-9.5,9.93-15.9,12.24-4.62,1.59-9.7,2.31-14.55,1.28-2.91-.47-5.82-1.71-8.58-2.6-1.29-.24,1.01.9,1.28,1.02,2.36,1.23,4.73,3.3,6.07,5.62.9,1.63,1.43,3.69.83,5.46-.6,2.22-2.12,3.99-3.82,5.46-.72.67-1.51,1.19-2.3,1.67-.74.44-1.84.82-1.68,1.86.1.89.76,1.8,1.13,2.7,1.18,2.61,2.71,5.5,2.55,8.45-.32,4.1-5.78,6.7-9.18,4.32-1.18-.78-1.68-1.9-2.29-3.24-.61-1.26-1.41-2.44-2.19-3.55-.23-.24-.67-1.04-.95-1.09-.15-.02-.17.23-.07.71.12.58.36,1.37.44,1.99.49,3.66.19,6.88-3.83,8.2-5.27,1.39-6.56-2.97-8.54-6.69-1.61-1.99-4.12.49-9.23-1.94-1.88-.89-3.41-2.44-4.78-3.97-1.24-1.65-1.9-1.97-3.99-1.89-2.77-.06-5.6-.2-8.13-1.39-3.05-1.53-5.9-3.9-7.96-6.63-.81-1.02-1.47-2.16-2.26-3.18-.91-1.23-2.58-1.08-3.97-1.07-.89-.02-1.79-.12-2.64.21-.84.28-1.44,1.05-2.29,1.39-1.45.65-3.02-.14-4.47.36-3.06,1.14-6.68,1.26-9.85.42-6.52-1.65-5.92-9.03-3.93-14.04,1.76-3.84,3.74-2.98,6.82-4.29.78-.4,1.58-.88,2.47-1.01,2.64-.36,5.53.75,7.23,2.8.52.66,1.07,1.37,1.71,1.86.88.62,1.99,1.1,2.65,1.98.87,1.01.61.48.4-.29-.84-2.24-1.59-4.69-2.14-7.07-.35-1.32-1.2-2.52-1.5-3.83-.24-1.16-.03-2.25-.11-3.46-.1-1.32-.08-2.5-.06-3.74-.15-4.55,1.64-8.99,4.62-12.35,1.24-1.39,2.73-2.76,4.29-3.78.69-.42,1.41-.84,1.99-1.41.7-.65,1.13-1.53,1.81-2.23.89-.92,2.15-1.49,3.4-1.61,1.18-.14,2.34.18,3.47.1,1.37-.11,2.69-.5,4.06-.63,5.3-.59,9.53.25,13.75,3.6.95.67,1.9.24,2.66-.45.9-.75,1.71-1.58,2.25-2.57.61-1.17,1.31-2.49,1.68-3.76.33-1.08.47-2.25.79-3.32.47-2.02,1.33-3.98,2.52-5.71.99-1.43,2.35-2.6,3.55-3.86,1.48-1.53,3.25-2.45,5.02-3.56,1.53-.92,3.32-1.14,5.02-1.65,2.31-.6,5.12-1.75,7.41-.67l.03.02Z"/>
  <path class="cls-5" d="M56.77,30.04c.12,0,.24.04.27.14.06.17,1.22,2.24,1.35,2.24,2.07-.78,4.18-1.44,6.33-1.99,3.21-.92,4.32,1.21,2.06,3.41-1.75,1.7-3.95,3.25-6,4.65l1.94,6.33c-.4.73-.96,1.38-1.67,1.94l-.34-.04c-.58.14-1.11-1.38-.71-1.73l.21-.27c2.06.42.54-2.29-.91-1.85l-.2-.25-.32-.03-.85-2.44c-10.13,5.65-21.26,9.79-32.69,11.95l.63,3.12-.25.26-.11.38c-1.12.71-.24,2.39.96,2.47.4.29.97.9.48,1.26l2.62,5.67c4.28,8.54,9.32,16.12,19.96,14.44,6.28-1,15.78-5.04,18.44-11.23,1.38-3.21.56-5.89-1.14-8.75-1.09.18-2.17.36-3.26.54-.85.07-2.16-.88-1.67-1.7l.27-.45c1.32-1.23,2.92-2.23,4.47-3.11.27-.15.9-.38,1.07-.06.01.19.1.35.21.44.14.12.35.09.56.09,4.4-.05,8.53,1.81,11.4,5.12.93-.47,2.23-1.41,3.3-.66.78.55,1.22,1.45,1.47,2.33-1.74.68-3.31,1.58-4.31,3.21.47-.18.77-.57,1.2-.9,1.21-.91,2.62-1.69,4.19-1.76,1.12-.05,2.11.61,2.97,1.24,2.89,2.1,6.43,5.35,3.89,9.11-1.55,2.3-4.55,4.58-7.31,5.31-1.11.29-2.13-.1-2.79-1.02-1.03-1.42-.85-3.36-1.81-4.64l.52,2.92c-1.7.94-3.54.15-4.3-1.61-.85-1.98-.8-4.07.49-5.86-.56-.73-1.05-1.34-1.62-1.96-1.21-1.31.05-2.37.98-3.39-1.72-1.85-3.9-3.11-6.47-3.47.1.69.6,1.22.83,1.91,1.24,3.65.6,7.55-1.53,10.74-1.12,1.69-2.54,2.96-4.14,4.26,3.07,4.44,7.71,5.76,12.76,5.46.53-1.39,1.79-2.35,3.24-2.28,3.52.15,8.9,10.4,7.63,13.53-.47,1.17-1.68,1.73-2.84,1.99-1.32.3-2.53-.11-3.33-1.21-1.62-2.22-2.33-5.07-4.36-7.36-.14-.26-.24-.5-.44-.74-1.99.13-3.84-.11-5.92-.44,1.3,2.36,2.26,4.62,2.76,7.14.41,2.07.19,4.06-2.03,4.81-1.62.55-3.5-.02-4.18-1.67-.91-2.22-1.71-4.39-2.84-6.57-6.53,1.66-12.26.43-14.74-6.42-4.98.86-9.45.59-13.66-2.41-3.63-2.58-6.21-6.31-8.48-10.12-3.03.66-5.97.49-8.98-.09-.28.82-.51,2.1-1.47,2.4s-2.05-.43-3.05-.67c-2.44,2.49-8.16,2-11.16.61-1.02-.48-1.6-1.78-1.74-2.88-.33-2.56.12-5.17,1.16-7.49.86-1.93,2.95-2.77,4.76-1.9.14.22.23.24.26-.02.56-.04.37-1.47,2.35-1.65,1.1-.11,2.11.23,3.08.62,1.81.74,2.74,2.31,2.82,4.24.05,1.28.42,2.51.24,3.8-.06.46-.29.91-.04,1.33.48-1.73.58-3.36.44-5.14.72.04,1.26.13,1.83.25,1.33.29.95,1.6,1.19,2.67,2.12.46,4.29.65,6.43.26-2.25-4.71-3.9-9.38-4.79-14.36-.61-.16-.89-.53-1.07-.91-.25-.53.42-.99.37-1.38-.26-2.25-.54-4.36-.34-6.62.6-7.05,5-11.59,11-14.75.02-1.23.72-2.14,1.76-2.68,1.2-.62,2.51-.5,3.57.43,6.48-2.21,13.71-2.33,18.44,3.29.22.26.39.57.71.6Z"/>
  <path class="cls-10" d="M67.7,54.95c-.44.19-.93.26-1.41.56-1.54.97-2.99,1.99-4.39,3.06v.35c-1.58.78-3.69,1.15-4.78-.61-2.04-3.29,1.05-8.82,3.15-11.49l.44-.11c.46-.63,1.33-1.08,1.73-1.9-.65-2.13-1.42-4.19-1.9-6.43,1.74-1.23,3.35-2.48,4.98-3.82.89-.74,2.65-2.15,2.05-3.39-.18-.36-.62-.69-1.15-.69-1.98.03-6.14,1.59-8.16,2.29-.48-.85-.91-1.65-1.48-2.4-.08-.1,0-.26,0-.34,5.44-2.87,7.33-5.69,8.71-11.75,1.16-5.1,3.6-9.15,8.21-11.85,3.78-2.21,8-3.52,12.33-3.97.06.47-.23.7-.47.94-1.36,1.33-2.47,2.73-3.29,4.45-1.53,3.25-.67,7.09,2.22,9.24,1.12.84,2.48,1.17,3.83.77l5.21-1.52c4.4-1.28,9.5-.21,11,4.56l.9,2.87c1.62,5.17,8.35,6.83,13.09,5.01,3.05-1.17,6.25-4.85,8.28-7.37.46-.57,1.86-2.67,2.24-1.45.77,2.5,1.18,5.02,1.21,7.67.09,9.49-3.39,19.14-10.53,25.59-5.18,4.68-11.92,7.33-18.91,7.47-5.43.11-10.23-1.97-15.07-4.03-1.56-.66-2.98-1.31-4.61-1.87-4.35-1.5-9.24-1.64-13.42.16Z"/>
  <path class="cls-11" d="M8.79,60.03c.63.46-.03,1.61,1.03,3.21.27.41.73.68,1.13.73,1.26.14,1.94-1.07,2.3-2.04.43.7-.24,1.32-.16,1.91.24,1.94.47,3.83-.18,5.72-.57,1.67-2.21,2.86-4.05,2.64,3.01-1.73,3.37-4.3,3.06-7.33-1.06.34-2.02-.09-2.71-.87-.98-1.11-1-2.57-.68-3.94l.26-.02Z"/>
  <path class="cls-13" d="M60,44.98c.19.59.32,1.24.71,1.73-2.08,2.84-4.68,6.76-3.7,10.6.33,1.3,1.43,2.18,2.85,1.94.63-.11,1.53-.29,2.04-.68.85,2.58,3.04.81,5.1.87.48,1.09,1.12,2.01,1.53,3.14.79,2.21.44,4.63-.61,6.72s-2.71,3.75-4.68,5.12c-3.16,2.2-6.66,3.71-10.36,4.81-5.69,1.7-11.36,1.56-15.87-2.69-2.25-2.12-4.02-4.56-5.59-7.24-1.48-2.52-3.82-7.08-4.46-9.71h.34s1.24,1.93,1.24,1.93c1,1.34,1.66,2.14,3.45,1.94,3.26-.35,7-.84,6.94-4.81l.08-3.01c.2-1.96,1.36-2.15,2.63-.79,1.01,1.65,2.3,2.97,3.85,3.98,2.03.64,5.22-.94,6.95-2.03,1.44-.91,1.48-3.14,1.33-4.65-.18-.99-.24-1.94-.16-2.87,1.14-1.34,2.45-2.58,3.92-3.72l1.53-1.21c.55-.36,1.4.07.95.63Z"/>
  <path class="cls-7" d="M60,44.98c-.04-.13-.14-.28-.21-.36-.13-.15-.4-.16-.58-.03-1.36.96-2.46,2.08-3.73,3.17-.59.51-1.49,1.08-1.7,1.88.26,2.62,1.17,6.36-1.75,7.73-1.45.68-2.87,1.4-4.42,1.82-1.19.32-2.18.13-3.14-.64-2.72-2.18-3.1-4.7-4.55-4.2-1.23.42-.1,2.79-1.07,6.16-.27.93-.79,1.61-1.71,1.98-1.88.76-3.88,1.27-5.95,1.29-1.95.02-3.39-2.91-4.24-4.2-.46-1.9-1.76-.45-2.14-2.44-.06-.29-.19-.85.05-1.11.17-.19.45-.44.77-.55.42-.39.9-.67,1.46-.81,3.38-1.23,6.8-2.08,10.26-2.55,1.5.67,2.68.26,3.48-1.17,3.89-2.32,8.48-3.91,12.83-4.85,1.73-.99,3.36-2.13,4.88-3.44l.56-.05c.65-.19,1.56.11,2.01.62s.55,1.38-.01,1.78c-.33.23-.79-.04-1.09-.03Z"/>
  <path class="cls-8" d="M59.1,42.61c-1.68,1.22-3.28,2.73-5.21,3.71-.92.46-2.16.41-3.19.76-3.09,1.04-6.07,2.16-8.99,3.6-.43.21-.76.49-.99.89-.66,1.14-1.99,1.43-3.17.91-.38-.17-.92-.05-1.34.03-3.65.72-7.15,1.76-10.6,2.97l-.72-3.58c8.24-1.48,16.73-4.38,24.45-7.76,3.01-1.32,5.82-2.72,8.75-4.38l1,2.85Z"/>
  <path class="cls-3" d="M35.81,40.39c.67,1.23.35,2.75-.75,3.65-1.16.95-2.95,1.4-4.39.81-1-.41-1.1-2.12-.29-2.65.71-.47,2.04.33,2.47-.17.14-.16.16-.48,0-.7-.43-.61-3.23,1.4-4.21-.55-.55-1.1-.64-2.48.07-3.57,1.04-1.61,3.23-2.39,5.02-1.66.63.26,1.29,2.07.37,2.96-.77.75-1.91-.15-2.75.21-.28.12-.23.51-.13.69.34.6,1.25.21,1.86.02,1.02-.33,2.13-.08,2.7.97Z"/>
  <path class="cls-3" d="M65.2,85.12c-4.26,1.26-8.48,1.16-10.19-3.58,2.54-.85,4.85-1.81,7.15-3.11,1.23,1.78,2.61,3.24,4.42,4.45-.67.61-1.19,1.19-1.37,2.25Z"/>
  <path class="cls-2" d="M100.84,45.45c4.76-1.11,9.35-4.63,12.82-7.94,1.93-1.83,3.62-3.75,5.33-5.78.97-1.15,1.83-2.2,3.09-3.06,2.06-1.41,3.7-3.15,5.36-5.13-1.83,5.41-4.24,10.53-7.37,15.14-3.4,5-7.92,8.79-13.49,11.44,1.93-.1,3.74-.79,5.47-1.65l3.11-1.55c1.91-.95,3.54-2.11,5.26-3.44-3.93,7.26-7.98,8.93-15.58,11.11,4.12.01,7.99-1.46,11.26-3.79,1.03-.73,1.91-1.49,2.85-2.31,3.42-2.95,5.11-5.7,7.56-9.41-3.36,9.57-10.9,16.27-20.71,18.66-7.34,1.79-13.63-.17-20.25-3.26-1.55-.73-2.96-1.44-4.58-2.03-3.99-1.45-8.32-1.66-12.38-.35-2.25.72-4.13,1.97-5.95,3.43-.72.58-2.45,2.51-3.66,1.63-1.39-1.02-.61-3.91-.04-5.34,1.98-5.03,6.13-8.28,10.72-10.78-2.01.3-3.77,1.07-5.57,1.99-.69-.86-1.28-1.68-1.74-2.7-.16-.35-.26-1.25.11-1.53l3.71-2.87c.82-.63,1.46-1.33,2.12-2.12.84-1,1.35-2.33.68-3.57-.45-.84-1.46-1.18-2.41-1.22-2.32-.09-4.9,1.76-7.35,1.78.79-.85,1.64-1.45,2.52-2.1,2.31-1.7,4-3.92,4.69-6.73l1.06-4.34c1.73-7.09,7.41-11.29,14.34-12.83-1.21,1.96-1.81,3.91-1.97,6.06-.19,2.61-2.48,2.81-4.2,6.88-.74,1.76-1.33,3.51-1.63,5.48l2.57-4.2c.91-1.49,1.93-2.85,3.31-3.98,1.07.96,1.32,3.86,1.43,5.35-.12,2.35-.91,4.45-2.28,6.35-2.77,3.81-6.25,6.74-10.32,9.26,3.34-.83,6.31-2.58,8.88-4.71,3.02-2.5,4.87-6.51,10.35-10.56,2.87-2.12,6.15-3.33,9.73-3.08,1.39.1,2.66.5,3.71,1.38,3.62,3.01.79,7.9-1.64,10.71-4.72,5.46-12.28,7.94-19.09,10.27,4.32.72,10.02-.17,14.16-1.39-1.19-.2-2.25.1-3.47-.31,3.89-1.63,7.59-3.43,11.2-5.59.64-.38,1.18-1.01,2.02-.66-2.3,3.35-4.49,3.72-7.45,5.84.99-.15,2.08,0,2.98-.38,4.67-1.95,6.96-4.45,10.51-6.25.31-.16.65-.21.98-.14.9.21,1.22,2.06.11,3.55s-2.43,2.78-3.91,3.99c-3.27,2.65-7.03,4.34-11.23,4.99-5.3.82-10.61,1.09-15.95.4-3.44-.44-6.74-.39-9.96.9-2.13.85-3.96,2.14-5.52,3.8-.57.6-1.18,1.09-1.48,1.9,6.93-5.81,14.24-5.11,22.66-3.97,1.88.25,3.67.45,5.56.26,3.06-.31,5.99-.82,8.97-1.52Z"/>
  <path class="cls-1" d="M45.09,68.65c-1.16.34-5.06,1.23-4.92-.79.13-1.85,2.58-.18,5.74-2.03s2.31-4.06,4.03-3.43c.39.14.87.79.63,1.39-.97,2.37-3.01,4.13-5.48,4.86Z"/>
  <path class="cls-9" d="M38.86,37.46c-.49-.49-.58-1.08-.48-1.68.46-.47,1.12-.58,1.72-.3.37.17.55.64.29.99-.35.48-.86.83-1.53.99Z"/>
  <path class="cls-15" d="M88.17,48c8.37-.16,14.82.21,21.52-5.66l1.43-1.25c1.32-1.16,2.53-2.42,3.72-3.73l2.15-2.37,4.99-5.56c-.47,1.29-1.32,2.24-2.13,3.32-4.56,6.06-10.12,12.72-17.27,15.72-1.76.74-3.53,1.25-5.45,1.16-3.06-.15-5.98-.71-8.96-1.62Z"/>
  <path class="cls-6" d="M82.38,31.12c-2.52,2.33-5.67,3.74-8.96,4.43,2.14-1.21,4.15-2.25,5.95-3.81l1.18-1.01c1.88-1.61,3.51-5.05,7.38-8.26,1.91-1.58,3.9-2.87,6.32-3.47,1.57-.39,3.17-.56,4.73.13-1.47-.11-2.79.02-4.14.6-3.96,1.7-6.89,4.52-9.45,7.94-.93,1.24-1.85,2.38-3.01,3.45Z"/>
  <path class="cls-6" d="M67.62,24.28c-.42.5-.72,1.07-1.32,1.15.62-1.28,1.39-2.32,1.53-3.64l.45-4.07c.53-4.82,4.33-8.53,8.84-10.24-.64.81-1.46,1.29-2.21,1.94-6.51,5.61-3.38,10.22-7.29,14.85Z"/>
  <path class="cls-4" d="M58.86,56.08c-.2-4.88,3.21-9.46,7.13-12.06-1.38,1.85-2.73,3.48-3.88,5.42-1.55,1.99-2.43,4.2-3.25,6.64Z"/>
  <path class="cls-14" d="M35.99,34.49c-.26,1.12.94,5.27,1.39,6.45.8,2.07,2.29,1.68,4.11.93,2.39-.98,4.13-3.83.81-4.73-.26-.21.68-1.14.71-1.72.04-1.03-.74-2.02-1.62-2.46-1.38-.69-5-.21-5.4,1.53ZM38.61,35.42c.09-.16,1.37-.4,1.67-.3,1.56.54-.88,2.84-1.51,1.42-.06-.13-.19-1.07-.17-1.12ZM40.61,38.25c1.75-.11.28,1.97-.71,1.44-.73-.39-.32-1.37.71-1.44Z"/>
</svg>