<?xml version="1.0" encoding="UTF-8"?>
<svg id="Layer_1" data-name="Layer 1" xmlns="http://www.w3.org/2000/svg" viewBox="0 0 78.64 78.93">
  <defs>
    <style>
      .cls-1 {
        fill: none;
      }

      .cls-2 {
        fill: #a42f2c;
      }

      .cls-3 {
        fill: #f2edd7;
      }

      .cls-4 {
        fill: #e63e35;
      }

      .cls-5 {
        fill: #f2eeda;
      }
    </style>
  </defs>
  <g>
    <path class="cls-4" d="M76.43,52.64c-.87-1.88-3.19-5.61-5.08-6.5-.57-.27-1.02-.2-1.62-.09-1.25.24-2.55.73-3.7,1.25-.11-.02-.05-.09.02-.14,1.46-1,3.17-1.63,4.91-1.91-.03-.08-.03-.17-.07-.25-.26-.46-1.16-1.58-1.57-1.91-.29-.23-.52-.28-.88-.23-.19.03-.44.11-.74.22-2.31-3.09-5.92-4.61-8.35-5.33.26-2.59.41-5.59.49-9.07-.08-3.47-.22-6.46-.48-9.05,3.47-.47,5.92-.98,7.34-1.54.82-.32,1.23-1.25.91-2.07-.32-.82-1.25-1.23-2.07-.91-.99.38-2.91.86-6.59,1.35-1.61-9.66-5.8-12.34-16.45-13.02-.42-1.04-1.44-1.77-2.62-1.77s-2.22.74-2.63,1.79c-11.22.78-15.11,3.9-16.42,15.44,0,0-.01,0-.02,0-.88.02-1.58.76-1.56,1.64.02.76.57,1.39,1.29,1.53-.14,1.99-.22,4.18-.28,6.61.08,3.47.22,6.46.48,9.05-2.83.8-7.25,2.66-9.5,6.68-.42-.17-.78-.3-1.03-.33-.37-.06-.6,0-.88.23-.41.33-1.32,1.45-1.57,1.91-.05.08-.04.17-.07.25,1.74.28,3.45.91,4.91,1.91.07.05.14.12.02.14-1.16-.52-2.46-1.01-3.7-1.25-.6-.12-1.04-.18-1.62.09-1.89.89-4.21,4.63-5.08,6.5-.86,1.87-.77,3.16.87,4.49,1.43,1.16,5.01,3.13,6.88,2.71,1.97-.44,3.06-3.91,3.63-5.64.12-.35.2-.72.32-1.07.12.04.1.15.11.25.1.95-.26,2.41-.54,3.33-.18.59-.47.74.42.77,2.11.05,2.4-2.41,2.46-4,.07-1.65-.15-3.34-1.34-4.58.23-.65.88-1.77.84-2.45-.01-.25-.39-.78-.57-.95-.23-.22-.67-.52-1.2-.84,1.61-2.77,4.8-4.21,7.07-4.91,1.36,8.1,4.55,11.27,11.86,12.47-.04.11-.07.24-.09.36l-1.87,15.12c-.69-.04-1.43.19-2.19.8-3.01,2.46-7.31,2.4-8.83,3.67-.82.69-.3,2.64,1.19,3.34,1.34.63,4.34.42,6.32.45,4.18.06,7.81.87,7.62-3.56-.03-.74-.45-1.82-1.13-2.75l2.06-16.68c.02-.13.01-.25,0-.37,1.22.11,2.52.18,3.93.23.06,0,.13,0,.19,0,.05-.01.1-.02.15-.02.03,0,.06,0,.1,0,.98-.04,1.91-.09,2.8-.16,0,.1,0,.21,0,.32l2.03,16.48c-.76.98-1.24,2.16-1.28,2.95-.19,4.43,3.44,3.62,7.62,3.56,1.98-.03,4.98.17,6.32-.45,1.49-.69,2-2.65,1.19-3.34-1.52-1.28-5.81-1.22-8.83-3.67-.69-.56-1.37-.8-2.01-.81l-1.87-15.12c-.01-.09-.03-.18-.06-.26,7.77-1.13,11.11-4.24,12.51-12.55,1.81.59,4.19,1.67,5.84,3.56-.62.37-1.14.72-1.4.96-.18.17-.56.7-.57.95-.04.68.61,1.79.84,2.45-1.18,1.24-1.41,2.94-1.34,4.58.07,1.6.36,4.06,2.46,4,.9-.02.61-.18.42-.77-.29-.92-.65-2.38-.54-3.33.01-.1-.01-.21.11-.25.11.35.2.72.32,1.07.57,1.73,1.66,5.19,3.63,5.64,1.87.42,5.45-1.54,6.88-2.71,1.64-1.34,1.73-2.62.87-4.49Z"/>
    <path class="cls-5" d="M39.86,1.66c1.19,0,2.2.73,2.62,1.77,10.65.68,14.83,3.36,16.45,13.02,3.68-.5,5.61-.97,6.59-1.35.19-.07.39-.11.58-.11.64,0,1.25.39,1.49,1.02.32.82-.09,1.75-.91,2.07-1.42.55-3.87,1.07-7.34,1.54.26,2.59.41,5.59.48,9.05-.08,3.47-.22,6.47-.49,9.07,2.43.72,6.04,2.24,8.35,5.33.3-.11.55-.19.74-.22.09-.01.17-.02.24-.02.24,0,.42.07.64.25.41.33,1.32,1.45,1.57,1.91.05.08.04.17.07.25-1.74.28-3.45.91-4.91,1.91-.07.05-.14.12-.02.14,1.16-.52,2.46-1.01,3.7-1.25.29-.06.55-.1.8-.1.26,0,.52.05.82.19,1.89.89,4.21,4.63,5.08,6.5.86,1.87.77,3.16-.87,4.49-1.29,1.05-4.35,2.77-6.31,2.77-.2,0-.39-.02-.57-.06-1.97-.44-3.06-3.91-3.63-5.64-.12-.35-.2-.72-.32-1.07-.12.04-.1.15-.11.25-.1.95.26,2.41.54,3.33.18.59.47.74-.42.77-.02,0-.04,0-.07,0-2.05,0-2.33-2.43-2.4-4.01-.07-1.65.15-3.34,1.34-4.58-.23-.65-.88-1.77-.84-2.45.01-.25.39-.78.57-.95.26-.24.78-.59,1.4-.96-1.65-1.89-4.03-2.97-5.84-3.56-1.4,8.32-4.74,11.43-12.51,12.55.02.08.05.17.06.26l1.87,15.12c.64,0,1.32.24,2.01.81,3.01,2.46,7.31,2.4,8.83,3.67.82.69.3,2.64-1.19,3.34-.86.4-2.4.46-3.92.46-.67,0-1.33-.01-1.93-.01-.17,0-.33,0-.48,0-1.19.02-2.34.1-3.36.1-2.57,0-4.39-.49-4.26-3.66.03-.8.51-1.97,1.28-2.95l-2.03-16.48c-.01-.11-.02-.21,0-.32-.89.07-1.82.12-2.8.16-.03,0-.06,0-.1,0-.05,0-.1,0-.15.02-.06,0-.13,0-.19,0-1.41-.05-2.71-.13-3.93-.23.01.12.01.25,0,.37l-2.06,16.68c.68.94,1.1,2.01,1.13,2.75.13,3.17-1.68,3.66-4.26,3.66-1.03,0-2.17-.08-3.36-.1-.15,0-.32,0-.48,0-.6,0-1.26.01-1.93.01-1.52,0-3.06-.06-3.92-.46-1.49-.69-2-2.65-1.19-3.34,1.52-1.28,5.81-1.22,8.83-3.67.7-.57,1.39-.81,2.04-.81.05,0,.1,0,.15,0l1.87-15.12c.02-.13.05-.25.09-.36-7.32-1.21-10.5-4.38-11.86-12.47-2.27.7-5.46,2.15-7.07,4.91.53.32.97.62,1.2.84.18.17.56.7.57.95.04.68-.61,1.79-.84,2.45,1.18,1.24,1.41,2.94,1.34,4.58-.07,1.58-.35,4.01-2.4,4.01-.02,0-.04,0-.07,0-.9-.02-.61-.18-.42-.77.29-.92.65-2.38.54-3.33-.01-.1.01-.21-.11-.25-.11.35-.2.72-.32,1.07-.57,1.73-1.66,5.19-3.63,5.64-.18.04-.37.06-.57.06-1.95,0-5.02-1.71-6.31-2.77-1.64-1.34-1.73-2.62-.87-4.49.87-1.88,3.19-5.61,5.08-6.5.29-.14.55-.19.82-.19.25,0,.51.05.8.1,1.25.24,2.55.73,3.7,1.25.11-.02.05-.09-.02-.14-1.46-1-3.17-1.63-4.91-1.91.03-.08.02-.17.07-.25.26-.46,1.16-1.58,1.57-1.91.22-.17.4-.25.64-.25.08,0,.16,0,.24.02.24.04.61.16,1.03.33,2.25-4.02,6.67-5.87,9.5-6.68-.26-2.59-.41-5.59-.48-9.05.05-2.43.14-4.62.28-6.61-.72-.14-1.27-.77-1.29-1.53-.02-.88.68-1.62,1.56-1.64,0,0,0,0,.02,0,1.31-11.54,5.2-14.66,16.42-15.44.41-1.05,1.44-1.79,2.63-1.79M39.86,0c-1.48,0-2.82.71-3.65,1.87-5.86.5-9.49,1.72-12.04,4.05-2.63,2.4-4.12,5.94-4.89,11.71-.3.16-.58.37-.82.63-.6.63-.92,1.46-.9,2.33.03,1,.49,1.89,1.22,2.47-.1,1.65-.17,3.49-.21,5.58,0,.02,0,.05,0,.07.07,3.11.19,5.64.37,7.83-4.44,1.53-6.99,3.86-8.44,5.89-.02,0-.04,0-.06,0-.17-.03-.34-.04-.49-.04-.62,0-1.17.2-1.68.61-.61.49-1.64,1.77-1.99,2.4-.14.26-.2.49-.22.62-.01.04-.02.08-.03.13-2.42,1.55-4.7,5.61-5.35,7.02-.78,1.68-1.49,4.19,1.33,6.48,1.26,1.02,4.71,3.14,7.36,3.14.33,0,.65-.03.94-.1,1.29-.29,2.25-1.23,2.98-2.37.21.03.41.04.55.04.04,0,.07,0,.11,0,1.75,0,3.87-.97,4.06-5.6.08-2.01-.27-3.63-1.09-4.9.32-.71.63-1.5.59-2.3-.06-1.04-1.05-2.02-1.09-2.06.97-1.03,2.24-1.77,3.47-2.31.79,3.42,2,5.91,3.75,7.74,1.78,1.85,4.18,3.09,7.48,3.83l-1.57,12.69c-.6.19-1.19.52-1.74.97-1.47,1.2-3.41,1.71-5.11,2.17-1.51.4-2.81.75-3.73,1.52-.75.63-1.09,1.62-.95,2.73.19,1.44,1.17,2.77,2.5,3.39,1.1.51,2.64.62,4.62.62.35,0,.69,0,1.03,0,.31,0,.61,0,.9,0,.16,0,.31,0,.46,0,.52,0,1.05.03,1.56.05.64.02,1.24.05,1.83.05,1.64,0,3.48-.17,4.71-1.46.89-.93,1.28-2.21,1.21-3.93-.04-.93-.43-2.05-1.06-3.09l1.83-14.86c.74.05,1.53.08,2.37.11.02,0,.04,0,.06,0,.02,0,.04,0,.05,0h.13s.07,0,.07,0c.04,0,.09,0,.13,0,.02,0,.04,0,.06,0,.02,0,.04,0,.07,0,.43-.02.84-.04,1.24-.06l1.8,14.59c-.71,1.09-1.17,2.31-1.21,3.32-.07,1.72.32,3.01,1.21,3.93,1.24,1.29,3.08,1.46,4.71,1.46.59,0,1.19-.02,1.83-.05.51-.02,1.03-.04,1.56-.05.15,0,.3,0,.46,0,.29,0,.59,0,.9,0,.34,0,.68,0,1.03,0,1.98,0,3.52-.11,4.62-.62,1.33-.62,2.31-1.95,2.5-3.39.15-1.1-.2-2.1-.95-2.73-.92-.78-2.22-1.12-3.73-1.52-1.71-.45-3.65-.97-5.11-2.17-.5-.41-1.02-.71-1.56-.91l-1.56-12.61c6.86-1.36,10.28-4.7,11.89-11.65.65.3,1.32.68,1.95,1.13-.25.27-.95,1.1-1,1.97-.04.79.27,1.58.59,2.3-.81,1.27-1.17,2.89-1.09,4.9.19,4.63,2.31,5.6,4.06,5.6.04,0,.07,0,.11,0,.14,0,.34,0,.55-.04.73,1.14,1.69,2.07,2.98,2.37.29.07.61.1.94.1,2.65,0,6.1-2.12,7.36-3.14,2.81-2.29,2.1-4.8,1.33-6.48-.65-1.4-2.93-5.47-5.35-7.02,0-.04-.02-.09-.03-.13-.03-.13-.08-.36-.22-.61-.35-.64-1.38-1.92-1.99-2.41-.51-.41-1.06-.61-1.68-.61-.12,0-.24,0-.37.02-2.11-2.36-4.85-3.78-7.18-4.62.18-2.2.3-4.74.37-7.86,0-.02,0-.05,0-.07-.07-3-.18-5.46-.35-7.59,2.81-.43,4.83-.89,6.15-1.41.81-.32,1.45-.93,1.8-1.73.35-.8.37-1.69.05-2.5-.49-1.26-1.69-2.08-3.04-2.08-.41,0-.81.08-1.19.22-.63.25-1.94.61-4.65,1.03-.95-4.44-2.58-7.36-5.16-9.33-2.56-1.95-6.06-2.98-11.62-3.42-.83-1.14-2.17-1.84-3.63-1.84h0Z"/>
  </g>
  <g>
    <path class="cls-1" d="M55.81,40.17c-.39,1.44-.97,3.54-1.43,5.17.64-1.38,1.1-3.12,1.43-5.17Z"/>
    <path class="cls-3" d="M46.96,9.03c-.24-.36-.57-.65-.93-.88-.56-.35-1.2-.55-1.84-.64-1.08-.14-2.44-.25-3.18.65-.19.24-.29.57-.35.88-.08.43-.11.88-.13,1.32-.05.6-.04,3.83-.02,4.43.04.74-.06,1.73.95,1.93.43.1.87.15,1.32.15,1.02.02,2.09-.08,3.04-.48.48-.2.98-.49,1.25-.93.24-.42.32-.94.26-1.4-.05-.33-.19-.68-.4-.94-.25-.31-.59-.55-.95-.73,1.49-.44,1.75-2.24.99-3.37ZM44.6,14.12c-.32.26-1.02.4-1.38.2-.38-.21-.14-.94.17-1.11.24-.12.86.05,1.11.15.14.06.31.19.32.35.01.15-.1.31-.21.4ZM45.1,10.88c-.1.24-.35.39-.57.5-.38.17-1.32.45-1.43.06-.01-.18-.01-1,.02-1.17.01-.07.04-.14.08-.19.06-.06.14-.1.21-.12.49-.13,1.1,0,1.48.35.14.13.26.38.2.57Z"/>
    <path class="cls-3" d="M37.67,11.75c-.56-.07-1.12-.07-1.68-.13-1.17-.13-.76-1.4.23-.88.33.18.67.38,1.01.52.4.17.88.17,1.27-.02,1.23-.63.95-2.76.12-3.24-1.35-.75-3.07-.8-4.48-.07-.55.29-1.04.79-1.38,1.36-.33.54-.52,1.24-.5,1.9.1,2.13,1.99,1.98,3.23,1.98.9,0,.89.94,0,.76-.18-.04-1.04-.5-1.21-.55-.27-.07-.57-.12-.83-.04-.24.08-.44.27-.58.5-.12.19-.2.42-.26.64-.08.27-.12.57-.07.85.05.26.18.5.35.67.24.24.54.37.82.49.82.33,1.71.45,2.57.37.71-.07,1.44-.33,2.04-.76,1.52-1.12,1.52-4.05-.63-4.35Z"/>
    <path class="cls-3" d="M56.17,20.01c-4.1.45-9.24.86-15.41,1.23-6.89.41-13.43.65-17.02.77-.15,2.04-.23,4.26-.29,6.66.19,8.76.83,15.24,3.26,18.35,1.93,2.48,5.54,3.51,13.29,3.8.13-.01.26-.02.39-.02.04,0,.08,0,.12,0,7.51-.31,11.02-1.36,12.92-3.86.35-.47.67-1.01.95-1.61.46-1.64,1.04-3.73,1.43-5.17.51-3.14.72-7.01.82-11.49-.07-3.21-.2-6.12-.46-8.66ZM44.33,45.22c-.11.07-1.91,1.12-4.38,1.12-1.26,0-2.69-.27-4.16-1.1-.77-.43-1.05-1.41-.62-2.18.43-.77,1.41-1.05,2.18-.62,2.7,1.51,5.24.08,5.34.02.76-.45,1.74-.2,2.19.56.45.76.2,1.75-.56,2.2ZM54.91,28.35c-.29,1.59-.56,3.23-1.23,4.7-.72,1.58-1.26,2.02-2.96,2.37-1.67.34-3.74.42-5.44.27-1.96-.17-3.05-3.08-3.64-4.68-.25-.67-.45-2.18-1.19-2.43-1.52-.51-1.67,1.48-2.02,2.43-.59,1.6-1.68,4.51-3.64,4.68-1.59.14-5.91.07-7.17-.89-1.6-1.23-2.1-4.55-2.44-6.42-.27-.2-1.18-.59-1.3-.87-.14-.34-.05-1.8.32-2.02.3-.18,1.67-.29,2.09-.32,1.92-.14,3.92,0,5.84.13,1.64.12,3.52.23,5.13.45.23.03.62.09.82.2.22.12.27.33.43.46.68.55,2.37.57,3.04,0,.57-.49.44-.54,1.31-.66,3.06-.41,7.02-.71,10.09-.57.56.03,2.68.04,3.02.41.25.27.35,1.63.22,1.94-.11.26-1.01.69-1.28.84Z"/>
    <g>
      <path class="cls-2" d="M42.7,42.46c-.11.06-2.64,1.49-5.34-.02-.77-.43-1.75-.16-2.18.62-.43.77-.16,1.75.62,2.18,1.47.82,2.9,1.1,4.16,1.1,2.47,0,4.27-1.05,4.38-1.12.76-.45,1.01-1.44.56-2.2-.45-.76-1.43-1.01-2.19-.56Z"/>
      <path class="cls-2" d="M55.98,25.57c-.34-.37-2.46-.38-3.02-.41-3.07-.14-7.02.16-10.09.57-.87.12-.74.17-1.31.66-.66.57-2.36.55-3.04,0-.16-.13-.21-.34-.43-.46-.2-.11-.59-.17-.82-.2-1.61-.22-3.49-.34-5.13-.45-1.92-.13-3.92-.27-5.84-.13-.42.03-1.79.15-2.09.32-.38.22-.47,1.68-.32,2.02.12.28,1.03.68,1.3.87.34,1.88.85,5.2,2.44,6.42,1.26.96,5.58,1.03,7.17.89,1.96-.17,3.05-3.08,3.64-4.68.35-.95.5-2.95,2.02-2.43.74.25.94,1.76,1.19,2.43.59,1.6,1.68,4.51,3.64,4.68,1.7.15,3.77.07,5.44-.27,1.7-.35,2.24-.79,2.96-2.37.67-1.48.94-3.12,1.23-4.7.27-.15,1.17-.58,1.28-.84.13-.31.03-1.67-.22-1.94Z"/>
      <path class="cls-4" d="M76.43,52.64c-.87-1.88-3.19-5.61-5.08-6.5-.57-.27-1.02-.2-1.62-.09-1.25.24-2.55.73-3.7,1.25-.11-.02-.05-.09.02-.14,1.46-1,3.17-1.63,4.91-1.91-.03-.08-.03-.17-.07-.25-.26-.46-1.16-1.58-1.57-1.91-.29-.23-.52-.28-.88-.22-.19.03-.44.11-.74.22-2.31-3.09-5.92-4.61-8.35-5.33.26-2.59.41-5.59.49-9.07-.08-3.47-.22-6.46-.48-9.05,3.47-.47,5.92-.98,7.34-1.54.82-.32,1.23-1.25.91-2.07-.32-.82-1.25-1.23-2.07-.91-.99.38-2.91.86-6.59,1.35-1.61-9.66-5.8-12.34-16.45-13.02-.42-1.04-1.44-1.77-2.62-1.77s-2.22.74-2.63,1.79c-11.22.78-15.11,3.9-16.42,15.44,0,0-.01,0-.02,0-.88.02-1.58.76-1.56,1.64.02.76.57,1.39,1.29,1.53-.14,1.99-.22,4.18-.28,6.61.08,3.47.22,6.46.48,9.05-2.83.8-7.25,2.66-9.5,6.68-.42-.17-.78-.3-1.03-.33-.37-.06-.6,0-.88.22-.41.33-1.32,1.45-1.57,1.91-.05.08-.04.17-.07.25,1.74.28,3.45.91,4.91,1.91.07.05.14.12.02.14-1.16-.52-2.46-1.01-3.7-1.25-.6-.12-1.04-.18-1.62.09-1.89.89-4.21,4.63-5.08,6.5-.86,1.87-.77,3.16.87,4.49,1.43,1.16,5.01,3.13,6.88,2.71,1.97-.44,3.06-3.91,3.63-5.64.12-.35.2-.72.32-1.07.12.04.1.15.11.25.1.95-.26,2.41-.54,3.33-.18.59-.47.74.42.77,2.11.05,2.4-2.41,2.46-4,.07-1.65-.15-3.34-1.34-4.58.23-.65.88-1.77.84-2.45-.01-.25-.39-.78-.57-.95-.23-.22-.67-.52-1.2-.84,1.61-2.77,4.8-4.21,7.07-4.91,1.36,8.1,4.55,11.27,11.86,12.47-.04.11-.07.24-.09.36l-1.87,15.12c-.69-.04-1.43.19-2.19.8-3.01,2.46-7.31,2.4-8.83,3.67-.82.69-.3,2.64,1.19,3.34,1.34.63,4.34.42,6.32.45,4.18.06,7.81.87,7.62-3.56-.03-.74-.45-1.82-1.13-2.75l2.06-16.68c.02-.13.01-.25,0-.37,1.22.11,2.52.18,3.93.23.06,0,.13,0,.19,0,.05-.01.1-.02.15-.02.03,0,.06,0,.1,0,.98-.04,1.91-.09,2.8-.16,0,.1,0,.21,0,.32l2.03,16.48c-.76.98-1.24,2.16-1.28,2.95-.19,4.43,3.44,3.62,7.62,3.56,1.98-.03,4.98.17,6.32-.45,1.49-.69,2-2.65,1.19-3.34-1.52-1.28-5.81-1.22-8.83-3.67-.69-.56-1.37-.8-2.01-.81l-1.87-15.12c-.01-.09-.03-.18-.06-.26,7.77-1.13,11.11-4.24,12.51-12.55,1.81.59,4.19,1.67,5.84,3.56-.62.37-1.14.72-1.4.96-.18.17-.56.7-.57.95-.04.68.61,1.79.84,2.45-1.18,1.24-1.41,2.94-1.34,4.58.07,1.6.36,4.06,2.46,4,.9-.02.61-.18.42-.77-.29-.92-.65-2.38-.54-3.33.01-.1-.01-.21.11-.25.11.35.2.72.32,1.07.57,1.73,1.66,5.19,3.63,5.64,1.87.42,5.45-1.54,6.88-2.71,1.64-1.34,1.73-2.62.87-4.49ZM46.92,13.12c.21.26.36.61.4.94.06.46-.02.99-.26,1.4-.27.44-.77.73-1.25.93-.94.39-2.01.5-3.04.48-.45,0-.89-.06-1.32-.15-1.01-.2-.92-1.19-.95-1.93-.01-.6-.02-3.83.02-4.43.02-.44.05-.89.13-1.32.06-.31.15-.64.35-.88.74-.9,2.09-.8,3.18-.65.64.1,1.29.3,1.84.64.36.23.69.52.93.88.76,1.13.5,2.93-.99,3.37.36.18.7.42.95.73ZM35.49,13.17c-1.24,0-3.13.15-3.23-1.98-.02-.67.17-1.37.5-1.9.35-.57.83-1.07,1.38-1.36,1.4-.73,3.13-.68,4.48.07.83.48,1.11,2.61-.12,3.24-.39.19-.87.19-1.27.02-.35-.14-.68-.35-1.01-.52-.99-.52-1.39.75-.23.88.56.06,1.12.06,1.68.13,2.15.3,2.15,3.23.63,4.35-.6.43-1.32.69-2.04.76-.86.08-1.75-.04-2.57-.37-.29-.12-.58-.25-.82-.49-.17-.17-.3-.4-.35-.67-.05-.27-.01-.57.07-.85.06-.23.14-.45.26-.64.14-.23.35-.42.58-.5.26-.08.56-.04.83.04.18.05,1.04.51,1.21.55.89.18.9-.76,0-.76ZM54.38,45.34c-.28.61-.6,1.15-.95,1.61-1.9,2.49-5.4,3.54-12.92,3.86-.04,0-.08,0-.12,0-.13,0-.26,0-.39.02-7.74-.29-11.35-1.33-13.29-3.8-2.43-3.11-3.06-9.59-3.26-18.35.05-2.4.14-4.63.29-6.66,3.59-.12,10.13-.37,17.02-.77,6.16-.36,11.31-.77,15.41-1.23.26,2.54.39,5.45.46,8.66-.1,4.48-.31,8.35-.82,11.49-.33,2.06-.79,3.79-1.43,5.17Z"/>
      <path class="cls-4" d="M43.42,9.97c-.07.02-.15.06-.21.12-.05.05-.07.12-.08.19-.04.17-.04.99-.02,1.17.11.39,1.05.11,1.43-.06.23-.11.48-.26.57-.5.06-.19-.06-.44-.2-.57-.38-.35-.99-.48-1.48-.35Z"/>
      <path class="cls-4" d="M44.49,13.37c-.25-.11-.87-.27-1.11-.15-.31.17-.55.89-.17,1.11.36.2,1.06.06,1.38-.2.12-.1.23-.25.21-.4-.01-.15-.18-.29-.32-.35Z"/>
    </g>
  </g>
</svg>