<?xml version="1.0" encoding="UTF-8"?>
<svg id="Layer_1" data-name="Layer 1" xmlns="http://www.w3.org/2000/svg" viewBox="0 0 82.75 97.48">
  <defs>
    <style>
      .cls-1 {
        fill: #8b372e;
      }

      .cls-2 {
        fill: #ebd5c5;
      }

      .cls-3 {
        fill: #e14737;
      }

      .cls-4 {
        fill: #efe0ce;
      }

      .cls-5 {
        fill: #eee5d3;
      }

      .cls-6 {
        fill: #dd5a4c;
      }

      .cls-7 {
        fill: #f0e0cf;
      }

      .cls-8 {
        fill: #e13b35;
      }

      .cls-9 {
        fill: #ece7d5;
      }

      .cls-10 {
        fill: #f3e0d1;
      }

      .cls-11 {
        fill: #e8cdbe;
      }

      .cls-12 {
        fill: #eee6d2;
      }

      .cls-13 {
        fill: #962f28;
      }

      .cls-14 {
        fill: #ebd8c7;
      }

      .cls-15 {
        fill: #ebd1c0;
      }

      .cls-16 {
        fill: #edd8c7;
      }

      .cls-17 {
        fill: #eacebf;
      }

      .cls-18 {
        fill: #eacfc0;
      }

      .cls-19 {
        fill: #e64035;
      }

      .cls-20 {
        fill: #8e352b;
      }

      .cls-21 {
        fill: #d83a35;
      }

      .cls-22 {
        fill: #ede7d3;
      }

      .cls-23 {
        fill: #ede8d3;
      }

      .cls-24 {
        fill: #8f2c26;
      }

      .cls-25 {
        fill: #eddcc8;
      }

      .cls-26 {
        fill: #e8caba;
      }

      .cls-27 {
        fill: #952f28;
      }

      .cls-28 {
        fill: #902e26;
      }

      .cls-29 {
        fill: #efdac9;
      }

      .cls-30 {
        fill: #8a342d;
      }

      .cls-31 {
        fill: #88332c;
      }

      .cls-32 {
        fill: #8f2d26;
      }

      .cls-33 {
        fill: #d73b35;
      }

      .cls-34 {
        fill: #d0493b;
      }

      .cls-35 {
        fill: #912f27;
      }

      .cls-36 {
        fill: #97584c;
      }

      .cls-37 {
        fill: #efe2d2;
      }
    </style>
  </defs>
  <path class="cls-22" d="M5.95,55.36c-2.5-3.04-6.48-1.56-5.89-7.97.27-2.86,1.65-4.47,4.49-5.19,1.94-.49,3.79-1.18,5.79.25.51.36,1.19,1.04,2.15,1.04-2.09-1.73-4.73-2.63-7.49-3.22-1.13-.24-2.18-1.52-1.98-2.73.62-3.81,1.17-7.5,2.13-11.2.21-.82.9-1.53.68-2.46-.38-1.63,1.11-2.13,1.83-2.9,1.27-1.35,2.34-1.54,4.13-1.6,1.89-.06,3.29.4,4.95,1.2,1.35.65,2.89.67,3.98,2.05.63.8,2.08,1.31,2.16,2.41l.14,1.88c.12,1.59.5,3.04-.92,4.13-.52.4-.22,1.31-.54,1.84l-5.67,9.35c2.45.24,4.1,2.42,3.46,4.86-.27,1.05-.46,1.88.12,2.97,1.59,3.01-.09,3.87,2.03,4.38-.55-2.58.44-5.6-.29-8.08-.66-2.28-1.12-4.14.96-6.01,1.03-8.95,6.1-13.75,15.26-14.04,2.24-2.57,5.32-2.09,7.65-.22,7.75,1.06,12.76,2.67,15.04,11.07l4.53-.77c-1.19-1.94-1.63-4.13-2.88-5.81-.99-1.32-1.94-2.37-1.75-4.24.14-1.39.96-2.72,2.58-3.56-.61-.42-1.23-.38-1.85-.53-1.69-.42-2.36-1.81-2.06-3.48.27-1.57,1.34-3.06,3.14-2.92,1.58.12,3.22.37,4.71.87s2.18,2,2.93,3.31c1.48-.31,3.06-.72,4.36-.36,2.73.77,2.59,3.35,3.03,5.58l2.4,12.06c.38,1.92-1.6,3-3.31,4.01,3.77,1.88,6,.92,6.68,6.03.84,6.29-3.33,4.87-6.12,8.21-1.21,1.45-2.86,1.83-4.42,2.65-1.05.55-2.31,1.03-3.41,1.23-2.36,2.23-4.83,4.06-8.11,4.45l-.78,2.63c-1.34,4.56-5.13,7.81-9.94,8.65l.59,10.95c1.82.93,3.69,1.52,5.69,2.05,2.84.75,4.72,2.78,4.12,5.61-.81,3.85-5.91,3.71-9.02,3.65-3.99-.07-8.1.52-9.81-3.92-.77,2.16-2.41,3.48-4.61,3.7-3.23.31-6.43.38-9.66.02-1.94-.21-3.77-1.2-4.45-3.05-.9-2.44.57-4.87,3.04-5.7,2.23-.75,4.43-1.2,6.62-2.33l.64-11.03c-6.17-1.58-9.08-5.16-10.5-11.15-3.42-.45-5.97-2.42-8.55-4.55-1.79-.38-6.72-2.52-8-4.07Z"/>
  <path class="cls-23" d="M48.55,18.23c-4.03,2.4-8.73,3.32-13.26,2.88-2.02-.2-3.26-1.17-4.72-2.33-1.43-1.14-2.55-2.43-1.81-4.55-1.35-1.16-1.3-2.96-.27-4.31.06-2.93,1.36-5.63,3.85-7.39,5.24-3.71,14.76-3.82,17.49,2.97,1.48.89,2.06,2.49,1.52,4.15,1.03,1.29.74,2.66.32,4.04-.55,1.82-1.27,3.45-3.12,4.54Z"/>
  <path class="cls-19" d="M59.22,57.69l.36.41c2.19-.57,4.14-1.69,5.85-3.37.73-.24,2.42,1.44,2.16,1.96-.99,2.06-6.12,4.63-8.47,4.76-.15.21-.35.34-.61.39-.11,1.28-.54,2.52-.93,3.84-1.46,4.95-5.41,6.87-10.22,7.67l.84,14.48c2.34,1.17,4.78,1.97,7.37,2.6.94.23,1.83.67,2.32,1.51.31.53.22,1.43-.12,1.94-1.28,1.87-9.69,1.19-11.92.98-.91-.09-1.61-.87-1.96-1.38-.5-.72-.52-1.89-.13-2.62l1.18-2.19-.71-15.04-5.61-.03-.64,13.94c-.12,2.68,2.21,3.04,1.11,5.67-.3.72-1.27,1.58-2.38,1.68-2.93.26-5.82.33-8.79.12-1.08-.08-2.23-.32-2.87-1.18-.42-.57-.38-1.4-.03-2.01.26-.46.93-1,1.65-1.21,2.69-.79,5.25-1.49,7.91-2.78l.86-14.6c-4.91-.75-8.85-2.99-10.15-7.81l-.96-3.55-.48-.42c-2.38-.13-7.4-2.53-8.41-4.64-.53-1.11,1.31-2.59,2.34-2.01.87,1.12,1.98,1.98,3.24,2.6.73.36,2.22,1.09,2.7.56.08-.09.19-.15.3-.21-.51-4.01-.15-8.07-.25-12.23-.1-.59-1.07-1.08-.95-1.84s.66-1.02,1.12-1.73c1.11-1.71.41-8.87,7.2-12.03,3.99-1.86,7.02-.67,8.03-2.04.52-.7,1.32-1.04,2.08-1.05,2.1-.05,1.76,1.65,3.58,1.73,5.57.23,10.61,1.96,12.57,7.65.43,1.26.63,2.58,1.17,3.77l5.87-1.08c.96-.18,1.71.41,1.92,1.22.23.91-.28,1.63-1.26,1.94-1.97.63-3.92.95-6.02,1.48.44,4.74.18,9.38.14,14.15Z"/>
  <path class="cls-1" d="M19.26,31.77c-1.29,3.15-3.52,5.79-5.13,8.83-.2.38-.62.8-1.05.51-2.36-1.59-4.83-2.61-7.75-3.09.66-3.74,1.12-7.33,2.02-10.93.17-.7.67.93.9-3.61.56-.24,1.28.14,1.6-.34.19-.29.06-.73.19-.96.26-.46,1.74-.3,2.04.07.17.21.04.61.34.91.2-.48.16-.89.46-1.18.43-.42,1.75.18,1.86.3.59.65-.69.48,1.28,2.06.28-.42.44-1,.8-1.13.59-.21,1.11.15,1.42.37,1.04.73-.71,2.2-.13,2.52.32-.41.76-1.67,1.62-1.07.41.28.73.58.9.93.22.48-.49.94-.36,1.44.11.47.83.68.76,1.15-.05.35-.35.94-.66,1.12-.99.57-.77,1.33-1.09,2.1Z"/>
  <path class="cls-20" d="M69.23,40.43l-5.76-11.78c-.34-.7-1.31-.66-1.08-1.94.34-1.9,2.06-2.25,3.98-3.23-1.91-4.52-3.05-2.32-5.21-3.61-.37-.22-.13-1.44.32-1.67,6.14.65,3.96.33,6.87,4.49,1.55-.31,3.17-1.1,4.83-.74,1.14.24,1.64,1.87,1.01,2.81l2.88,12.86c-2.01,2.01-4.82,3.17-7.82,2.82Z"/>
  <path class="cls-13" d="M24.02,57.75c.04.37.09.6,0,.81-.07.17-.4.17-.66.12-2.51-.47-4.42-1.85-6.06-3.72-.68.34-1.21.77-1.7,1.37,2.04,2.62,5.02,4.22,8.27,4.7.26.04.48.3.57.47.05.1-.04.25-.12.37-3.7-.14-7-2.15-9.48-5.09-1.17.36-2.22.16-2.89-.91-1.49-.15-2.96-.66-3.94-1.79-2.75-3.18-4.7-2.3-5.71-4.48-.36-.77.44-1.26.49-1.92.06-.79-.38-1.53.2-2.18.45-.5,1.13-.79,1.97-.61.57.12.82-.4,1.23-.68.98-.69,2.28-.31,3.15.37l3.71,2.89c.31-1.23.68-2.43,1.92-2.79.7-.2,1.38-.06,1.76.32,1.31,1.33-.68,3.02-.06,4.04.38.63.27,1.77.66,2.19.83.87.36,1.9.43,2.68,1.21,2.32,3.81,3.56,6.25,3.85Z"/>
  <path class="cls-27" d="M58.51,61.84c.04-.42.23-.73.62-.79,3.13-.49,5.95-2.07,8.05-4.44-.42-.72-.97-1.27-1.65-1.47-1.87,1.69-3.8,3.21-6.38,3.49-.33.04-.11-.84.07-.95,2.17-.48,4.73-1.6,5.68-3.79.3-.69-.51-1.85.46-2.54.24-2.27,1.46-2.19.4-4.29-.38-.76-.26-1.66.25-2.12.61-.56,1.52-.58,2.23-.12.85.55,1.12,1.53,1.35,2.55,1.8-.81,4.33-4.51,6.66-3.32.66.34,1.04.92,1.96.74.72-.14,1.32.46,1.63.84.5.61-.06,1.34.08,1.99s.76,1.27.45,2.01c-.8,1.92-3.46,1.64-5.72,4.54-.93,1.2-2.44,1.18-3.61,1.83-.98.55-1.84,1.16-3.12.82-2.41,2.77-5.77,4.99-9.42,5Z"/>
  <path class="cls-35" d="M46.88,16.55c-3.48,1.79-7.43,2.59-11.23,2.27-1.61-.14-2.68-.93-3.55-2.1-.24-.32-.91-.26-1.03-.54-.25-.59-.07-.99.19-1.48.54-.99-.24-1.89-1-2.39-.7-.46.35-1.17.62-1.56-.36-4.5,2.64-7.13,6.86-8.09,2.48-.56,4.94-.41,7.23.72,1.6.78,2.4,2.25,3.02,3.82.15.38,1.58.46,1.07,1.26-.6.94-.43,2,.43,2.74.55.48-.05,1.12-.14,1.64-.24,1.55-.86,2.88-2.48,3.71Z"/>
  <path class="cls-9" d="M49.26,69.7c-4.86,1.27-14.69,1.5-18.73-1.65-4.43-3.45-3.82-17.62-3.45-22.84l14.06-.92,14.63-.91c.53,6.5.65,14.76-1,20.96-.73,2.81-2.69,4.63-5.5,5.36Z"/>
  <path class="cls-5" d="M47.62,38.18c0,2.31-3.2,2.73-4.77,2.49-.72-.11-1.19-.74-1.18-1.43.01-1.3-.3-6,.65-6.45,1.36-.65,5.12-.5,5.31,1.99.06.8-.38,1.38-1.04,1.98.6.48,1.03.88,1.03,1.42Z"/>
  <path class="cls-12" d="M39.82,39.79c-1.35,1.04-3.6.97-4.8-.14-.48-.44-.2-1.33.06-1.73.74-1.08,2.42.67,2.99-.13-.54-.87-2.73.02-3.25-1.36-.46-1.22.05-2.76,1.25-3.4,1.28-.69,3.04-.84,4.22.08.66.52.43,1.94-.17,2.36-1.18.83-2.66-1.08-2.84.03-.13.84,3.31.01,3.37,2.17.02.74-.09,1.54-.84,2.11Z"/>
  <path class="cls-19" d="M15.7,32c.59-.23.88-.89,1.48-.73.39.1.95.28,1.23.72l-5.05,8.48c-2.22-1.52-4.56-2.45-7.2-3.07l1.71-9.83c.48-.1,1.29,0,1.54.47.34.64.05,1.44.5,2.1,1.21,1.75,3.68,2.67,5.79,1.85Z"/>
  <path class="cls-4" d="M19.93,26.48c-.13.17-4.51,6.12-4.56,4.84,1.04-2.04,2.36-3.9,3.69-5.68.17-.22.5.05.62.11.17.08.47.43.25.73Z"/>
  <path class="cls-7" d="M13.53,31.31c-.23.42-1.14.15-1.11-.16l2.11-3.76c.17-.3.45-.47.7-.43,1.23.23-.63,2.38-1.7,4.35Z"/>
  <path class="cls-29" d="M11.31,30.56c-.37.15-.79-.5-.7-.91l.77-3.84c.08-.38.25-.6.54-.58.43.03.69.23.55.76-.4,1.49-.6,3.06-1.15,4.58Z"/>
  <path class="cls-26" d="M12.11,30.57c-.27-1.74.96-3.26.8-5.03-.07-.77-.61-1.36.08-2.28.14-.18.02-.77.41-.82.23-.03.61.01.82.23s.01.6-.09.93l-2.03,6.97Z"/>
  <path class="cls-17" d="M11.12,25.06c-.51,1.27-.53,2.61-.93,3.87-.26-.85.21-6.08.42-6.33.09-.1.62-.22.75-.08.71.79.06,1.77-.25,2.54Z"/>
  <path class="cls-18" d="M14.7,31.43c-.16.33-.77.34-.67.16l2.33-4.36c.15-.27.23-.56.39-.67.22-.15.72-.05.82.23-.93,1.51-2.07,2.96-2.87,4.64Z"/>
  <path class="cls-25" d="M20.3,28.59c-.1.21-1.75,2.46-2.24,2.37-.19-.04-.69-.29-.54-.52.55-.9,1.26-1.69,2.07-2.4.21-.18.82.34.72.56Z"/>
  <path class="cls-11" d="M9.68,27.14c-.5.25-.88,0-1.02-.4.06-.9-.08-1.73.13-2.63.07-.3.81-.24.98.02.06,1.01,0,1.83-.09,3.01Z"/>
  <path class="cls-2" d="M17.71,24.9c-.44,1.3-2.06,1.78-1.69,1.77-.82,0,.62-2.3.9-2.78.22-.36.66-.06.85.09.31.24.06.55-.07.91Z"/>
  <path class="cls-15" d="M14.63,26.55c-.6.55-.71,1.14-1.12,1.65.05-1.48.56-2.62.89-3.93.24-.09.78-.05.85.15.07.68-.23,1.43-.61,2.13Z"/>
  <path class="cls-8" d="M69.79,40.01l-2.87-5.86c-.92-1.87-1.84-3.64-2.54-5.67,3.3-.62,6.18-1.59,9.11-3.41l2.89,12.37c-1.88,1.67-3.94,2.28-6.58,2.56Z"/>
  <path class="cls-37" d="M63.14,26.42c.83-1.48,2.42-1.72,3.62-2.36.18.49.18.76.36.87.4.25,1.72-.26,1.87-.54.13-.23-.1-.55-.33-.97,1.35-.67,2.92-1.03,4.56-.83-1.1,1.33-2.54,1.81-3.96,2.45-1.96.6-3.82,1.52-6.11,1.38Z"/>
  <path class="cls-10" d="M73.85,23.59c.12,1.46-8.09,4.78-10.46,4.1-.12-.04-.19-.55-.06-.57,3.43-.43,7.34-1.62,10.11-3.81.13-.11.4.15.41.28Z"/>
  <path class="cls-21" d="M64.62,20.07c-1.15-.27-2.05-.28-2.94-.64-.16-.06-.1-.61.14-.61,1.07-.02,1.97.22,2.97.45.25.22.31.58-.16.8Z"/>
  <path class="cls-34" d="M66.55,21.04c.06.11,2.87,4.48,1.18,3.25-.06-.05-2.55-3.76-1.51-3.54.09.02.24.14.32.29Z"/>
  <path class="cls-19" d="M7.71,49.59c.07.37.43.81.55.6.67-1.15,1.57-1.81,2.56-2.65-.66-.31-.93.33-1.56.32-.72-1.28-1.88-1.87-2.98-2.62-.25-.36.56-.78.93-.75,2.29.2,3.75,3.03,6.43,3.85l.39-1.82c.18-.82,1.36-1.72,2.13-1.06.53.46.19,1.64-.06,2.17-.77,1.65.95,2.19.06,4.72.33-.05.62-.19.76-.08.91.74-1.64,4.38-3.9,3.82-.02-.7.66-.83.81-1.46-3.39,1.36-5.06-.79-7.08-2.65-1.09-1-4.36-1.47-3.6-3.21.62-1.43,3.84.71,4.54.82Z"/>
  <path class="cls-19" d="M7.71,49.59c-1.68-2.38-5.3-1.41-4.28-3.44.97-1.95,4.67.87,5.72,1.97-.41.67-.76,1.3-1.44,1.47Z"/>
  <path class="cls-19" d="M71.48,46.93c.21.04.21.11,0,.21.19.65,2.51,1.73,3.48,3.42-.11-1.24,3.19-2.98,4.6-2.09.33.21.35.82.19,1.09-.76,1.25-2.76.94-5.51,4.01-1.46,1.62-3.42,1.97-5.46,1l1.1,1.16c-1.05,1.42-4.59-1.41-4.17-3.29.04-.19.62-.28.61-.48-.22-2.49,1.11-2.85-.06-5.13-.34-.66,0-1.32.56-1.54.61-.25,1.14.06,1.58.63.55.71.33,1.57.59,2.47.99-.34,1.86-.84,2.49-1.46Z"/>
  <path class="cls-19" d="M73.89,47.66c1.02-.57,4.07-3.41,5.38-1.68.24.32.3,1.45-.2,1.53-1.56.26-3.06.77-4.14,1.99-.81-.16-1.26-1.13-1.05-1.83Z"/>
  <path class="cls-8" d="M73.89,47.66c-1.04.58-1.26-.26-2.41-.52-.02-.06.01-.14,0-.21.71-.7,3.99-3.75,5.15-1.89-1.22.85-2.38,1.42-2.75,2.62Z"/>
  <path class="cls-19" d="M47.09,7.46c-2.01,2.73-12.73,4.97-15.27,3.06-.51-2.12.8-4.45,2.59-5.65,2.96-1.99,6.67-2.5,9.83-1.02,1.57.73,2.75,1.87,2.85,3.61Z"/>
  <path class="cls-19" d="M33.09,16.41c1.86-.07,3.46-.12,5.16.02,1.71.14,2.7,1.46,4.26-.11,1.61-1.62,3.73-2.79,6.1-3.14-.18,1.77-1.63,2.73-3.11,3.35-3.36,1.4-7.05,1.85-10.67,1.42-.8-.1-1.57-.48-1.75-1.54Z"/>
  <path class="cls-14" d="M34.78,12.04l-3.76.03c-.37,0-.1-.59.14-.7.2-.09.47-.19.82-.04,3.38,1.36,9.11-.18,12.43-1.45,2.73-1.05,2.66-2.26,3.66-1.99.18.05.52.39.29.58-.72.6-1.79.48-2.59.99-2.36,1.51-3.31,3.64-5,3.2-1.95-.51-3.87-.64-6-.62Z"/>
  <path class="cls-16" d="M41.69,16.24c-.98,1.01-3.25-1.38-9.17-.28-.5.09-.85-.23-.79-.62.04-.23.24-.61.67-.48,3.42,1.04,9.2.1,12.61-1.24,2.87-1.13,3.82-3.05,4.04-1.87s-3.94.97-7.36,4.49Z"/>
  <path class="cls-24" d="M37.96,66.04c-2.18-1.32-3.3-3.49-4.28-5.7-.74.15-1.46.74-2.07-.05,1.37-.34,2.17-1.04,2.42-2.53.9.36.37,1.07.35,1.74,4,2.32,9.13,2.32,13.25.18,1.5-.78-.05-1.99.91-2.16.89-.16-.23,1.74,2.62,2.56-.66.74-1.35.14-2.11.03-.86,2.38-2.02,4.56-4.25,5.89-2,1.2-4.74,1.32-6.86.04Z"/>
  <path class="cls-28" d="M34.67,55.88c-1-.84-1.44-2.08-1.34-3.27l2.21-.94c-.19-.75-1.23-.97-1.59-1.62-.26-.8.8-1.81,1.46-2.02.95-.31,2.04.28,2.49,1.23.92,1.92.99,4.22-.16,6.03-.69,1.08-2.03,1.47-3.07.59Z"/>
  <path class="cls-32" d="M45.83,55.85c-1.09-.77-1.44-2.1-1.46-3.25l2.33-1.06-1.69-1.55c-.37-.73.7-1.69,1.34-1.96.75-.32,2.04.08,2.55,1,1.01,1.83,1.09,4.12.07,5.96-.61,1.1-2.02,1.64-3.14.85Z"/>
  <path class="cls-31" d="M37.08,45.83c.22,1.46-2.26-.28-5.19,2.07.49-2.42,5.02-3.18,5.19-2.07Z"/>
  <path class="cls-30" d="M50.75,46.84c-2.92-2.03-4.87-.46-5.15-1.56-.42-1.61,4.82-.55,5.15,1.56Z"/>
  <path class="cls-36" d="M43.78,67.99c-1.08,1.22-2.93,1.38-4.08.18,1.42.05,2.68.01,4.08-.18Z"/>
  <path class="cls-6" d="M45.64,35.11c.23.84-1.14,1.2-1.59.78-.25-.24-.22-.94.04-1.18.34-.31,1.38-.24,1.55.41Z"/>
  <path class="cls-33" d="M44.59,38.46c-.58.13-.81-.2-.77-.55s.22-.64.7-.61c.33.02.69.12.79.38.12.32-.22.67-.72.78Z"/>
  <path class="cls-3" d="M45.48,64.5c-2.04,2.16-5.36,2.19-7.78.45,2.04-2.11,5.32-2.19,7.78-.45Z"/>
</svg>