<?xml version="1.0" encoding="UTF-8"?>
<svg id="Layer_1" data-name="Layer 1" xmlns="http://www.w3.org/2000/svg" viewBox="0 0 97.79 86.51">
  <defs>
    <style>
      .cls-1 {
        fill: none;
      }

      .cls-2 {
        fill: #b53430;
      }

      .cls-3 {
        fill: #8f2c25;
      }

      .cls-4 {
        fill: #e63c35;
      }

      .cls-5 {
        fill: #e64035;
      }

      .cls-6 {
        fill: #f0dbc2;
      }

      .cls-7 {
        fill: #922a26;
      }

      .cls-8 {
        fill: #e13f35;
      }

      .cls-9 {
        fill: #a22e2b;
      }

      .cls-10 {
        fill: #f2edd7;
      }

      .cls-11 {
        fill: #e63f35;
      }

      .cls-12 {
        fill: #81221d;
      }

      .cls-13 {
        fill: #e9dabd;
      }

      .cls-14 {
        fill: #efe9d3;
      }

      .cls-15 {
        fill: #e63e35;
      }

      .cls-16 {
        fill: #e13d35;
      }

      .cls-17 {
        fill: #f2eeda;
      }

      .cls-18 {
        fill: #9f2d2a;
      }

      .cls-19 {
        fill: #8f2723;
      }

      .cls-20 {
        fill: #86231f;
      }
    </style>
  </defs>
  <g>
    <path class="cls-15" d="M95.4,23.82c0-.55.52-1.29.51-1.91-.03-1.16-.89-1.83-1.07-2.52-.21-.77.14-1.64-.19-2.46-.55-1.35-2.75-1.63-2.86-1.77-.12-.15.13-.79-.21-.92-.01-.12.02-.26,0-.38-.02-.15-.05-.27-.08-.37-.03-.78.87-1.2.84-1.78-.03-.48-.98-2.12-1.44-2.35-1.6-.81-5.54,0-7.32.32-1.3-1.66-1.34-4.61-3.47-5.58-.52-.24-5.03-1.43-5.41-1.38-.74.1-1.11,1.81-.83,2.24.24.37,4.59,1.08,5.25,1.64.19.15,1.75,3.55,1.72,3.75-1.37.79-5.58,1.85-5.86,3.62-.11.73.06,1.6-.01,2.35-1.86-.49-7.22,1.7-8.3,1.23-.7-.3-1.1-3.22-1.38-4.11-2.53-7.89-9.36-9.27-16.8-9.82-1.03-1.07-1.55-2.01-3.23-1.96-2.36.07-2.14,1.78-3.51,2.11-1.43.35-3.29.26-4.78.51-5.91,1.01-9.84,4.33-11.39,10.14-.37,1.38-.61,5.08-1.4,5.96-.44.49-1.12.59-1.29,1.35-.46,1.98.93,1.79,1.1,3.17.14,1.19-.18,2.31-.2,3.4-.04,2.23.11,4.42.19,6.62.08,1.98.12,3.97.19,5.95-.7-.04-2.68.73-3.4,1.04-1.72.74-3.93,2.11-5.29,3.39-.46.43-1.56,1.95-1.89,2.08-.56.23-1.76-.58-2.92.46-.77.7-.64,1.71-.88,2.04-.06.08-1.43.55-1.79.76-1.91,1.12-4.28,3.81-5.42,5.72-1.25,2.09-1.26,3.43.27,5.36,1.57,1.97,5,4.58,7.65,4.26,1.64-.2,2.48-2.32,3.04-2.43.28-.05.93.51,1.49.55,2.78.2,3.83-4.38,3.66-6.5-.07-.85-.77-2.44-.73-3.03.04-.66,1.02-1.36.96-2.47-.05-.83-1.14-1.29-.93-2.03.31-1.12,5.52-4.22,6.96-4.1,1.25,4.08,2.52,7.98,6.36,10.35,1.19.73,2.53.94,3.65,1.73-2.04,3.67-2.99,7.17-2.64,11.42.14,1.72.88,3.3,1.11,4.99-3.39,1.07-8.84,4.87-6.6,8.99,1.14,2.1,4.24,1.36,6.09.79,2.91-.9,9.42-4.25,7.99-8.07-.45-1.21-1.77-2.02-2.27-3.02-2.04-4.08-1.2-9.1,1.15-12.82.23-.37.96-1.12,1.02-1.34.85.04,1.71-.05,2.56,0,.25.01.49.2.56.2h3.4c.07,0,.31-.19.56-.2.73-.03,1.37-.05,1.99.38.48,3.21,2.54,9.02,6.32,9.44,3.24.36,5.45-1.74,7.92-3.4,1.2,2.31,3.48,5.13,6.41,4.89,5.45-.44,2.29-7.72.65-10.43-1.24-2.05-3.74-5.13-6.41-3.65-1.3.71-1.69,2.22-2.54,3.32-.74.96-3.62,3.6-4.75,3.77-1.32.19-2-3.79-2.31-4.69,1.12-.91,2.65-1.12,3.97-1.79,2.86-1.44,5-3.76,6.02-6.82.52-1.54,1.89-7,1.71-8.39,2.96-.82,6.13-2.06,8.5-4.06.62-.52,3.29-3.58,3.53-3.65.48-.14.97.17,1.47.18,1.02,0,1.41-.71,2.08-1.33.46.58.29,1.36,1.05,1.78,1.49.81,5.22.04,6.83-.51.86-.29,3.29-1.39,3.81-2.04.7-.86-.18-2.24.1-3.26.07-.27,1.66-.62,1.87-2.32.2-1.54-.69-2.04-.69-2.59ZM76.47,17.08h0c.22.25.9,2.12.88,2.36-.02.16-1.28,1.11-1.6,1.73-1.24,2.4-.06,3.44-.23,5.25-.06.7-1.95,2.38-.56,3.69-.1,1.03-1.91,2.71-2.74,3.39-1.32,1.08-2.65,1.71-4.24,2.27h0s0,0,0,0l-.17-.38c-.03-4.42-.09-8.88-.35-13.23,1.87-.54,3.79-.98,5.78-1.32,2.39-.68,3.03-1.32,3.24-3.77Z"/>
    <path class="cls-17" d="M45.38,1.66c1.58,0,2.1.92,3.1,1.96,7.44.55,14.27,1.94,16.8,9.82.28.88.69,3.81,1.38,4.11.11.05.25.07.43.07,1.47,0,5.21-1.37,7.2-1.37.25,0,.48.02.67.07.07-.75-.1-1.62.01-2.35.28-1.76,4.49-2.82,5.86-3.62.03-.2-1.53-3.6-1.72-3.75-.66-.55-5.01-1.26-5.25-1.64-.28-.44.09-2.15.83-2.24,0,0,.02,0,.03,0,.55,0,4.87,1.15,5.38,1.38,2.13.97,2.17,3.92,3.47,5.58,1.22-.22,3.46-.67,5.26-.67.83,0,1.56.1,2.06.35.47.24,1.42,1.87,1.44,2.35.03.58-.87,1-.84,1.78.03.1.06.22.08.37.02.12-.01.26,0,.38.34.13.09.77.21.92.11.14,2.31.42,2.86,1.77.33.81-.02,1.69.19,2.46.18.69,1.05,1.36,1.07,2.52.01.61-.51,1.35-.51,1.91,0,.55.89,1.05.69,2.59-.22,1.7-1.8,2.05-1.87,2.32-.28,1.02.6,2.39-.1,3.26-.53.65-2.95,1.75-3.81,2.04-1.11.38-3.22.86-4.92.86-.77,0-1.45-.1-1.91-.35-.76-.41-.59-1.19-1.05-1.78-.66.62-1.05,1.33-2.06,1.33,0,0-.01,0-.02,0-.41,0-.81-.21-1.2-.21-.09,0-.18.01-.26.04-.24.07-2.91,3.13-3.53,3.65-2.37,2-5.53,3.24-8.5,4.06.18,1.39-1.19,6.85-1.71,8.39-1.02,3.06-3.16,5.37-6.02,6.82-1.32.67-2.85.88-3.97,1.79.31.88.96,4.7,2.22,4.7.03,0,.06,0,.09,0,1.13-.16,4.01-2.81,4.75-3.77.85-1.1,1.24-2.6,2.54-3.32.49-.27.97-.39,1.44-.39,2.1,0,3.96,2.36,4.98,4.04,1.65,2.71,4.8,9.99-.65,10.43-.12,0-.23.01-.35.01-2.77,0-4.91-2.69-6.06-4.91-2.29,1.53-4.34,3.44-7.2,3.44-.23,0-.47-.01-.72-.04-3.79-.42-5.85-6.23-6.32-9.44-.47-.33-.96-.4-1.48-.4-.16,0-.33,0-.51.01-.25,0-.49.2-.56.2h-3.4c-.07,0-.31-.18-.56-.2-.18,0-.36-.01-.54-.01-.52,0-1.04.03-1.55.03-.16,0-.31,0-.46,0-.06.22-.79.97-1.02,1.34-2.35,3.73-3.19,8.74-1.15,12.83.5,1,1.81,1.81,2.27,3.02,1.44,3.82-5.08,7.16-7.99,8.07-.92.28-2.14.61-3.28.61s-2.23-.34-2.81-1.4c-2.24-4.12,3.21-7.92,6.6-8.99-.23-1.69-.97-3.27-1.11-4.99-.35-4.25.6-7.75,2.64-11.42-1.11-.8-2.46-1-3.65-1.73-3.84-2.37-5.11-6.27-6.36-10.35-.03,0-.06,0-.09,0-1.55,0-6.57,3.01-6.87,4.1-.2.74.88,1.21.93,2.03.07,1.1-.91,1.81-.96,2.47-.04.59.66,2.18.73,3.03.17,2.07-.83,6.51-3.48,6.51-.06,0-.11,0-.17,0-.53-.04-1.15-.55-1.45-.55-.01,0-.03,0-.04,0-.56.11-1.41,2.23-3.04,2.43-.15.02-.3.03-.46.03-2.57,0-5.71-2.42-7.19-4.29-1.53-1.93-1.53-3.27-.27-5.36,1.14-1.9,3.51-4.6,5.42-5.72.36-.21,1.74-.68,1.79-.76.24-.34.11-1.34.88-2.04.49-.44.98-.55,1.42-.55.48,0,.91.13,1.23.13.1,0,.19-.01.27-.04.33-.14,1.43-1.65,1.89-2.08,1.36-1.28,3.57-2.65,5.29-3.39.7-.3,2.61-1.04,3.35-1.04.02,0,.03,0,.05,0-.07-1.98-.11-3.96-.19-5.95-.08-2.2-.24-4.39-.19-6.62.02-1.08.34-2.21.2-3.4-.16-1.38-1.55-1.19-1.1-3.17.17-.76.86-.86,1.29-1.35.79-.89,1.03-4.58,1.4-5.96,1.55-5.81,5.48-9.13,11.39-10.14,1.48-.25,3.35-.16,4.78-.51,1.37-.33,1.15-2.04,3.51-2.11.04,0,.08,0,.13,0M67.98,35.77h0c1.59-.56,2.92-1.19,4.24-2.27.84-.69,2.64-2.36,2.74-3.39-1.39-1.3.5-2.99.56-3.69.17-1.81-1.01-2.85.23-5.25.32-.62,1.58-1.57,1.6-1.73.03-.25-.66-2.11-.88-2.36h0c-.21,2.45-.84,3.09-3.24,3.77-1.99.33-3.92.77-5.78,1.32.26,4.35.32,8.8.35,13.23l.17.38s0,0,0,0M45.38,0h0c-.06,0-.12,0-.18,0-2.16.06-3.06,1.18-3.59,1.84-.09.11-.22.27-.28.32-.65.16-1.52.21-2.36.26-.76.05-1.55.09-2.29.22-6.64,1.13-11.04,5.06-12.72,11.35-.14.54-.26,1.27-.38,2.11-.14.95-.41,2.69-.67,3.19-.04.03-.12.09-.19.13-.42.28-1.2.81-1.46,1.93-.46,2.02.41,2.98.88,3.5.07.07.16.18.18.22,0,0,0,0,0,.02.06.53,0,1.11-.09,1.72-.06.46-.12.94-.13,1.45-.03,1.71.05,3.4.12,5.04.03.56.05,1.12.07,1.67.04,1.06.07,2.14.1,3.18.01.45.03.9.04,1.35-1.03.31-2.06.74-2.35.86-2.02.87-4.34,2.36-5.77,3.71-.26.25-.57.62-.93,1.06-.13.16-.31.38-.47.56-.23-.04-.53-.07-.85-.07-.96,0-1.82.33-2.54.98-.75.67-1.02,1.48-1.16,2.06-.59.23-.97.38-1.24.54-2.24,1.31-4.77,4.22-6.01,6.3-1.64,2.73-1.52,4.83.4,7.25,1.57,1.98,5.13,4.91,8.49,4.91.22,0,.45-.01.66-.04,1.58-.19,2.59-1.32,3.23-2.12.28.12.61.22.98.24.1,0,.19.01.29.01,1.15,0,2.21-.49,3.05-1.41,1.78-1.93,2.22-5.26,2.09-6.9-.05-.59-.26-1.26-.46-1.91-.07-.24-.18-.57-.23-.8.03-.05.07-.11.1-.16.33-.53.89-1.41.82-2.6-.04-.73-.38-1.28-.67-1.67.87-.73,2.68-1.81,3.92-2.36,1.15,3.58,2.7,7.35,6.6,9.76.68.42,1.38.69,1.99.93.1.04.19.07.28.11-1.73,3.6-2.36,7-2.05,10.83.09,1.09.37,2.08.64,3.03.07.26.15.52.21.77-2.59,1.15-5.38,3.26-6.43,5.86-.67,1.67-.58,3.39.29,4.98.56,1.03,1.76,2.27,4.27,2.27,1.4,0,2.82-.39,3.77-.68,2.34-.73,7.19-2.97,8.81-6.29.64-1.3.72-2.67.24-3.95-.37-.98-1.06-1.71-1.61-2.29-.3-.32-.62-.65-.73-.88-1.61-3.22-1.19-7.62,1.07-11.19.05-.08.25-.32.37-.46.03-.03.06-.07.08-.1.15,0,.3,0,.45-.01.24,0,.49-.01.73-.01.1,0,.18,0,.27,0,.17.08.45.21.83.21h3.4c.37,0,.65-.12.82-.2.08,0,.16,0,.24,0,0,0,.02,0,.02,0,.77,3.66,3.09,9.33,7.6,9.83.3.03.6.05.9.05,2.74,0,4.84-1.4,6.68-2.71,2.53,3.74,5.37,4.18,6.58,4.18.16,0,.32,0,.48-.02,2.4-.19,3.52-1.43,4.03-2.44,1.9-3.73-1.68-9.83-2.1-10.51-1.1-1.81-3.39-4.84-6.4-4.84-.53,0-1.05.09-1.55.28.9-1.16,1.6-2.47,2.09-3.91.26-.77,1.45-5.03,1.74-7.66,3.35-1.04,5.96-2.37,7.96-4.05.35-.3.95-.94,1.9-1.97.35-.38.82-.89,1.16-1.24.23.06.53.12.86.12,0,0,.02,0,.03,0,.62,0,1.13-.15,1.55-.36.2.22.45.43.77.6.69.37,1.57.55,2.71.55,1.83,0,4.11-.49,5.45-.95.03-.01,3.54-1.29,4.57-2.57.89-1.09.66-2.35.51-3.18-.01-.08-.03-.16-.04-.25.68-.47,1.67-1.37,1.87-2.98.19-1.47-.3-2.4-.61-2.94.02-.05.04-.11.06-.15.17-.45.39-1,.38-1.65-.03-1.2-.57-2.04-.93-2.59-.07-.11-.17-.27-.21-.34-.02-.11,0-.36,0-.55.03-.55.07-1.3-.25-2.09-.57-1.39-1.9-2.05-2.87-2.39-.02-.08-.05-.15-.08-.22,0-.02,0-.04,0-.06s0-.04,0-.06c.02-.02.03-.04.05-.06.29-.37.78-.98.73-1.89-.05-.94-1.26-3.19-2.35-3.74-.7-.36-1.62-.53-2.82-.53-1.47,0-3.13.26-4.42.49-.14-.32-.28-.67-.41-1.03-.57-1.49-1.27-3.34-3.21-4.22-.61-.28-5.18-1.53-6.07-1.53-.08,0-.17,0-.25.02-.49.06-1.39.36-1.96,1.6-.33.71-.71,2.17-.05,3.19.47.74,1.24.92,3.28,1.42.65.16,1.67.41,2.19.59.2.39.5,1.03.76,1.61-.04.02-.08.03-.13.05-2.18.88-4.89,1.97-5.24,4.18-.05.32-.06.64-.06.94-1.07.14-2.29.44-3.48.74-.73.18-1.6.4-2.19.5-.16-.52-.33-1.29-.43-1.72-.11-.49-.2-.92-.3-1.24-2.83-8.82-10.48-10.34-17.6-10.92C48.45,1.12,47.45,0,45.38,0h0ZM69.19,23.41c1.41-.37,2.85-.68,4.32-.92.02,0,.04,0,.06-.01-.15,1.03.02,1.86.15,2.53.08.41.15.75.15,1.09-.05.08-.11.2-.17.28-.42.69-1.39,2.33-.65,3.91-.37.5-1.08,1.24-1.9,1.92-.53.43-1.07.8-1.71,1.13-.03-3.13-.09-6.55-.27-9.93h0ZM57.08,59.41c.3-.13.64-.24.99-.37.58-.2,1.18-.41,1.79-.72.64-.32,1.24-.68,1.8-1.07-.05.09-.11.19-.16.28-.21.37-.41.73-.62,1-.56.73-2.22,2.2-3.19,2.85-.24-.56-.47-1.41-.62-1.97h0ZM57.14,61.68h0s0,0,0,0h0Z"/>
  </g>
  <path class="cls-3" d="M91.58,13.87c-.37-.34-.84-.5-1.43-.48l-.08-.46-.06-.43c2.24-1.68.09-.79-.93.11-3.42,1.56-9.31,3.44-13,2.65-.06-.01.12.5.9.5,4.29.01,7.88-1.02,11.86-2.61l.67.16c.01.22-.02.45-.2.55-2.51,1.45-5.21,2.44-8.11,2.47-1.03.23-2.14.39-3.31.49-.05.01-.33.46-.28.65.53.06.61.44.19.76.16.36.16.61,0,.76.23.63-.19,1.22-.76,1.51.16.2.06.27-.19.19-.98,1.56-1.02,3.53-.57,5.29.16.06.16.13,0,.19.55,1.15.42,1.65-.38,1.51-.05.16-.11.15-.19,0-.82.45-.59,1.42-.37,2.18l-.39.27c-1.02.28-1.03-1.44-.63-2.18.6-.76.86-1.54.8-2.33-.67-2.42-.37-4.65,1.82-6.25-.42-.84-.58-1.6-.49-2.27-.48.28-1.8-.35-1.51-.76.07-.75-.1-1.62.01-2.35.28-1.76,4.49-2.83,5.86-3.62.03-.2-1.53-3.6-1.72-3.75-.66-.55-5.01-1.26-5.25-1.64-.28-.44.09-2.15.83-2.24.39-.05,4.89,1.14,5.41,1.38,2.13.97,2.17,3.92,3.47,5.58,1.79-.32,5.73-1.14,7.32-.32.47.24,1.42,1.87,1.44,2.35.04.66-1.16,1.12-.76,2.15Z"/>
  <path class="cls-7" d="M91.58,14.25c.34.13.09.77.21.92.11.14,2.31.42,2.86,1.77.33.81-.02,1.69.19,2.46.18.69,1.05,1.36,1.07,2.52.01.61-.51,1.35-.51,1.91s.89,1.05.69,2.59c-.22,1.7-1.8,2.05-1.87,2.32-.28,1.02.6,2.39-.1,3.26-.53.65-2.95,1.75-3.81,2.04-1.61.55-5.34,1.31-6.83.51-.76-.41-.59-1.19-1.05-1.78-.67.62-1.05,1.34-2.08,1.33-.5,0-.99-.31-1.47-.18-.24.07-2.91,3.13-3.53,3.65-2.37,2-5.53,3.24-8.5,4.06-.39.23-.32-.24-.19-.57-.28-.38-.02-.55.37-.72,2.76-.85,4.98-1.6,7.34-3.54.67-.55,3.07-2.75,3.04-3.42,0-.12-1.69-1.58-1.79-1.52-.76,1.6-7.3,6.35-8.62,5.53-.47-.29-.59-1.12.04-1.24,0-.48.32-.6.94-.38l.32-.52c2.51-.92,4.93-2.62,6.23-4.95l.44-.2c.09-.89-.41-2.29.76-2.45.12.11.19.26.15.42-.58,2.61,4.5,5.61,5.1,4.68.02-.03-.23-.32-.29-.38-1.95-1.54-.71-1.99,1.02-1.03l.25-.11c.18-.06.42-.11.48,0,.32.55.58,1.11.84,1.69.4-.09.51.07.64.39,1.49,1.12,8.46-.63,9.17-2.28-.11-.45.01-.7.38-.75-.17-.66-.11-1.25.17-1.75,1.23-.75,2.18-1.61,1.72-3.16-.56,0-.71-.29-.38-.76-.6.07-.68-.62-.6-1.13.89-1.32.36-2.39-.3-3.64.26-1.01.18-1.88-.24-2.59-.41.11-1.62-.41-1.51-.94-.91.58-1.49-1.66-.76-2.08Z"/>
  <path class="cls-18" d="M90.07,12.92c.8.52,1.33-.34,1.51.94.02.12-.01.26,0,.38.1.86-.22,1.5.76,2.08.52.47.07.93-.45,1.18-7.44,2.77,2.35,5.51,1.67.11l.3-.35c.14.15.43.17.53.51.17.59-.07,1.36.08,2,.23,1.01,1.02.95.7,2.86-.18,1.09-.78.61-.18,1.99,0,.16-.04.32-.18.4-1.19.68-2.13.97-3.47,1.16-.69,2.58,4.13,1.73,3.7-.52l.33-.29c.3.93.32,1.83-.44,2.58-1.12,1.11-1.05.33-1.45,2.33-.42.15-.65-.18-.7-1-2.37.37-3.63-1.45-3.07-3.64-1.55-.83-1.6-2.39-1.01-3.91-2.89-1.92-.26-4.84,2.06-5.77l-.43-1.75c-2.55,1.27-5.21,2.13-7.96,2.57l-.6-.28c-.37.08-.56.02-.57-.19.5-.42,1.35-.18,1.89-.28,2.37-.43,4.74-1.41,6.41-2.74-.08-.55.14-.73.57-.38Z"/>
  <path class="cls-5" d="M81.76,16.51c1.34-.23,2.68-.39,4.01-.81,1.69-.54,3.17-1.58,4.88-1.95l.54,2.45c-1.49.77-3.51,1.72-3.34,3.74.11,1.39.98,1.26,1.27,1.68.1.14-1.03,1.96.1,3.2.22.25.77.43.84.68.17.6-.57,1.37.36,2.66s2.2.54,2.66.83c.21.13.09,1.09.4,1.3-.11.57.24.89-.38,1.41-1.88,1.57-6.59,2.83-8.95,2.16-.61-.17-.55-.46-.86-.93-.64-.89-3.32-8.14-3.14-8.56.04-.09.07-.19.1-.28,1.51-.17,3.92-.76,3.33-2.85s-3.7-1.8-5.3-1.59c-.22-.45-.38-.93-.46-1.44-.14-.36-.13-.4-.19-.76l.02-.49c1.33-.38,2.71-.53,4.14-.45Z"/>
  <path class="cls-5" d="M76.85,21.04c4-4.28,11.24,2.21,2.72,2.89.94,2.26,1.79,4.57,2.55,6.93l-.18.38c-.05.49.31.59-.33.43s-1.12-.45-1.74-.62c.33.63,2.54,1.73.81,2.23-1.42.41-6.77-3.65-4.96-5.63.05,0,.13,0,.19,0l.36-.28c.41.44.41.03.01-1.23,0-.06,0-.13,0-.19-.34-1.5-.59-3.86.57-4.91Z"/>
  <path class="cls-13" d="M90.45,10.09c-1.6,1.68-4.51,2.58-6.76,3.15-1.09.28-7.24,1.55-7.78.81.23-.97,5.43-3.05,5.66-2.83.48.89-.36.86-.37,1.04-.05.75,3.08.71,3.56-.6.29-.8-.94-.11-.91-.92.02-.49,5.9-1.22,6.6-.66Z"/>
  <path class="cls-9" d="M77.8,18.21c.13.32.44.65.39,1.12,1.69-.16,3.48-.56,4.9.67,2.37,2.04-.11,4.68-2.65,4.25l2.83,8.68c-.61-.92-.46-.97-1.32-1.7-.67-.56-1.83-5.76-2.49-6.86-.31-.52-1.12-.4-1.1-1.07,1.34.6,5.62.1,4.62-2.07-.8-1.73-4.87-1.37-6.13-.19-.27.08-.27-.04,0-.38.06-.07.13-.12.19-.19.58-.33.96-.85.76-1.51-.04-.23.03-.51,0-.76Z"/>
  <path class="cls-6" d="M90.07,12.92c-.12.1-.35.21-.57.38-3.83,1.39-8.4,3.19-12.55,2.83-.95-.08-1.19-.12-1.04-1.13,4.26.2,8.92-.78,12.78-2.61.53-.25,1.94-1.32,2.06-1.34.31-.07.67.58.62.82-.05.25-1.02.83-1.3,1.06Z"/>
  <path class="cls-8" d="M82.53,11.97c-.16-.76-2.49-4.96-2.27-5.27.08-.12.81-.3,1.03,0s1.5,3.24,1.7,3.78c.25.67.68,1.58-.46,1.5Z"/>
  <path class="cls-16" d="M79.31,4.62c-.53.76-.11,1.09-1.18.9-.39-.07-3-.85-3.17-.99-.21-.17-.26-.77-.19-.85.32-.32,3.85.93,4.53.95Z"/>
  <path class="cls-9" d="M81.2,16.32c.07,0,.34.29.57.19-1.12.19-1.91.31-3.06.43-.28.03-1.26,0-1.09.51-.05-.28-.43-.69.32-.91.36-.11,2.84-.28,3.27-.23Z"/>
  <path class="cls-7" d="M76.29,26.14l1.89,3.4c-1.05-.12-1.34-1.75-2.27-1.89.69-.66.44-.75.38-1.51Z"/>
  <path class="cls-7" d="M76.85,21.04c-.76,2.47-.8,2.16-.57,4.91-.55-.92-.6-3.9-.09-4.71.19-.3.52-.41.65-.57-.02.12.03.28,0,.38Z"/>
  <path class="cls-7" d="M77.04,20.48c.42-.5.69-.84.76-1.51.01.06.21.2.21.47,0,.52-.43.98-.96,1.04Z"/>
  <path class="cls-5" d="M66.66,41.06c.53-.67,2.93-1.07,3.9-1.48,2.85-1.19,5.73-3.63,7.43-6.18l-2.37-2.16c-2.01,2.59-5.07,5.08-8.33,5.83-.45.1-.25-.61-.26-.92.33-.07.65-.28.94-.38l-.17-.38c-.03-4.42-.09-8.88-.35-13.23,1.87-.54,3.79-.98,5.78-1.32,2.39-.68,3.03-1.32,3.24-3.77-.52-.59-.6-.25-1.19-.42-.23-.07-.29-.33-.32-.34-1.86-.49-7.22,1.7-8.3,1.23-.7-.3-1.1-3.22-1.38-4.11-2.53-7.89-9.36-9.27-16.8-9.82-1.03-1.07-1.55-2.01-3.23-1.96-2.36.07-2.14,1.78-3.51,2.11-1.43.35-3.29.26-4.78.51-5.91,1.01-9.84,4.33-11.39,10.14-.37,1.38-.61,5.08-1.4,5.96-.44.49-1.12.59-1.29,1.35-.46,1.98.93,1.79,1.1,3.17.14,1.19-.18,2.31-.2,3.39-.04,2.23.11,4.42.19,6.62.08,1.98.12,3.97.19,5.95-.7-.04-2.68.73-3.4,1.04-1.72.74-3.93,2.11-5.29,3.39-.46.43-1.56,1.95-1.89,2.08-.56.23-1.76-.58-2.92.47-.77.7-.64,1.71-.88,2.04-.06.08-1.43.55-1.79.76-1.91,1.12-4.28,3.81-5.42,5.72-1.25,2.09-1.26,3.43.27,5.36,1.57,1.98,5,4.58,7.65,4.26,1.64-.2,2.48-2.32,3.04-2.43.28-.05.93.51,1.49.55,2.78.2,3.83-4.38,3.66-6.5-.07-.85-.77-2.44-.73-3.03.04-.66,1.02-1.36.96-2.47-.05-.83-1.14-1.29-.93-2.03.31-1.12,5.52-4.22,6.96-4.1h0c1.25,4.08,2.52,7.98,6.36,10.35,1.19.73,2.53.94,3.65,1.73-2.04,3.67-2.99,7.17-2.64,11.42.14,1.72.88,3.3,1.11,4.99-3.39,1.07-8.84,4.87-6.6,8.99,1.14,2.1,4.24,1.36,6.09.79,2.91-.9,9.42-4.25,7.99-8.07-.45-1.21-1.77-2.02-2.27-3.02-2.04-4.08-1.2-9.1,1.15-12.83.23-.37.96-1.12,1.02-1.34.85.04,1.71-.05,2.56,0,.25.01.49.2.56.2h3.4c.07,0,.31-.19.56-.2.73-.03,1.37-.05,1.99.38.48,3.21,2.54,9.02,6.32,9.44,3.24.36,5.45-1.74,7.92-3.4,1.2,2.31,3.48,5.13,6.41,4.89,5.45-.44,2.29-7.72.65-10.43-1.24-2.05-3.74-5.13-6.41-3.65-1.3.71-1.69,2.22-2.54,3.32-.74.96-3.62,3.6-4.75,3.77-1.32.19-2-3.79-2.31-4.69,1.12-.91,2.65-1.12,3.97-1.79,2.86-1.44,5-3.76,6.02-6.82.52-1.54,1.89-7,1.71-8.39,0-.08-.29-.34-.19-.57h0Z"/>
  <path class="cls-11" d="M93.85,17.27c.58,1.82-.47,3.5-2.38,3.76-3.19.44-3.65-1.99-1.12-3.39.9-.49,1.81-.22,1.99-1.32.65.38.75.11,1.51.94Z"/>
  <path class="cls-11" d="M94.98,24.63c.11.25.3.52.38.76.68,3.12-4.85,3.78-4.55,1.04.11-.97,1.39-.65,2.28-.94.67-.22,1.17-.82,1.89-.85Z"/>
  <path class="cls-11" d="M89.91,22.01c.13-.08,2.07-.24,2.67-.45.74-.26,1.63-1.27,1.74-1.27.72,0,.73,1.79.62,2.31-.52,2.5-5.43,3.17-5.41.61,0-.17.33-1.17.38-1.2Z"/>
  <path class="cls-14" d="M63.26,21.99c.1,1.85.11,3.71.19,5.57.24,5.64.48,18.98-2.94,23.49-3.67,4.83-14.85,4.58-20.35,3.96-6.32-.71-9.68-2.36-11.2-8.82-.93-3.95-1.28-8.89-1.39-12.96-.08-3.05.14-6.11.41-9.14l35.28-2.11Z"/>
  <path class="cls-20" d="M57.59,40.87c.54.5-1.19.39-1.4.36-.37-.05-.99-.45-1.24-.28-.13.08-1.31,2.14-1.62,2.55-.63.82-1.55,1.96-2.53,2.28.87,1.74,1.32,3.12.6,5.03-1.35,3.59-6.36,3.57-7.92.11-.42-.94-.76-3.42-1.17-3.93-.36-.44-1.75-.88-2.33-1.25-1.49-.95-3.05-2.67-3.72-4.3-.24-.18-2.23,1.22-2.82.27,1.11-.4,2.05-.58,2.59-1.75.13-.29.31-1.75.71-1.55.73.36-.08,1.93.12,2.24s4.41,1.67,5.08,1.82c3.23.73,6.36.48,9.44-.76.39-.16,2.9-1.46,3.01-1.62.1-.14-.89-1.94.11-2.43.54,1.37.38,2.17,1.85,2.87.34.16,1.22.3,1.26.34Z"/>
  <path class="cls-19" d="M35.52,30.31c.97.03,1.89-.16,2.81-.4.21-.73-1.5-2.76-1.5-2.92s.97-.93,1.26-1c3.97-.92,5.18,7.24,1.85,9.4-2.77,1.79-5.16-2.78-4.42-5.08Z"/>
  <path class="cls-12" d="M55.89,28.03l-3.02.85-1.33.84c1.7-.26,3.44-.16,4.9.86.22.15,1.51,1.37.67,1.4-.09,0-1.24-.68-1.65-.8-1.72-.53-3.28-.4-4.97.24-.54.21-2.1,1.41-2.34.64-.05-.64.6-1.48,1.02-1.96,1.7-1.95,4.18-2.65,6.7-2.07Z"/>
  <path class="cls-4" d="M43.43,44.64c.9-.13,1.7.01,2.41.41.06-.54.57-.68,1.55-.41,1.93.17,3.6,2.59,3.6,4.44,0,2.97-3.36,4.83-5.77,2.93-2.02-1.59-1.2-5.19-3.49-6.7.44-.49,1.1-.54,1.7-.66Z"/>
  <path class="cls-2" d="M47.4,44.64c-2.03-.17-1.07.31-.6,1.07.5.8.88,1.86.97,2.8.02.19.15.8-.28.66-.1-.04-.35-1.73-.51-2.13-.6-1.49-1.97-2.3-3.55-2.4,1.24-.24,2.71-.37,3.97,0Z"/>
  <path class="cls-10" d="M52.43,10.33c-.25-.37-.59-.68-.97-.92-.58-.36-1.25-.57-1.92-.67-1.13-.15-2.54-.26-3.31.68-.2.25-.3.59-.36.92-.09.45-.11.92-.14,1.37-.05.62-.04,3.99-.02,4.61.04.77-.06,1.8.99,2.01.45.1.9.16,1.37.16,1.06.02,2.18-.09,3.16-.5.5-.21,1.02-.51,1.3-.97.25-.43.33-.98.27-1.46-.05-.35-.2-.71-.42-.98-.26-.32-.62-.57-.99-.76,1.55-.46,1.82-2.33,1.03-3.5ZM49.98,15.63c-.33.27-1.06.42-1.44.21-.4-.22-.15-.98.17-1.15.25-.12.89.05,1.15.16.15.06.32.2.33.36.01.16-.1.32-.22.42ZM50.5,12.26c-.1.25-.36.41-.59.52-.4.17-1.37.47-1.49.06-.01-.19-.01-1.04.02-1.21.01-.07.04-.15.09-.2.06-.06.15-.1.22-.12.51-.14,1.14,0,1.54.36.15.14.27.4.21.59Z"/>
  <path class="cls-10" d="M42.77,13.17c-.58-.07-1.16-.07-1.75-.14-1.21-.14-.79-1.46.24-.92.35.19.69.4,1.05.54.42.17.92.17,1.32-.02,1.27-.66.99-2.87.12-3.37-1.4-.78-3.19-.83-4.65-.07-.57.3-1.08.82-1.44,1.41-.35.56-.54,1.29-.52,1.98.1,2.22,2.07,2.06,3.35,2.06.94,0,.93.98,0,.79-.19-.04-1.08-.52-1.26-.57-.28-.07-.59-.12-.87-.04-.25.09-.46.28-.61.52-.12.2-.21.43-.27.67-.09.28-.12.59-.07.88.05.27.19.52.36.69.25.25.56.38.85.51.85.35,1.78.47,2.67.38.74-.07,1.5-.35,2.12-.79,1.58-1.16,1.58-4.21-.66-4.52Z"/>
  <path class="cls-1" d="M74.48,29.09s2.38,3.98,5.46,4.69"/>
</svg>