<?xml version="1.0" encoding="UTF-8"?>
<svg id="Layer_1" data-name="Layer 1" xmlns="http://www.w3.org/2000/svg" viewBox="0 0 132.24 118.21">
  <defs>
    <style>
      .cls-1 {
        fill: #e9e4d1;
      }

      .cls-2 {
        fill: #e93b24;
      }
    </style>
  </defs>
  <path class="cls-2" d="M130.35,62.44c.05-2.44.11-4.9,0-7.34-.08-1.53-.35-3.05-1-4.45-2.67-5.84-9.86-8.12-15.91-7.17-1.38.17-3.27.58-4.5.41-1.11-.12-1.51-.92-1.45-1.87.01-1.05.49-2.45.81-3.58.39-1.3.66-2.65.78-4,.56-6.34-1.7-12.76-5.41-17.85-8.7-11.85-24.93-14.54-38.75-14.9-6.79-.19-13.33.23-20.08,1.29-3.68.57-7.31,1.29-10.89,2.32-2.23.65-4.53,1.44-6.52,2.54-3.16,1.67-5.83,4.61-5.9,8.3-.13,2.97.98,5.85,1.82,8.71.69,2.26,1.19,4.56,1.48,6.91.19,1.47.32,2.95.5,4.43.19,2.28,1.55,6.96-1.46,7.76-.9.22-1.85.11-2.76,0-1.76-.25-3.63-.67-5.45-.62-6.21,0-11.97,4.02-13.44,10.13-.61,2.51-.32,5.12-.19,7.66.26,3.78.25,7.55,3.31,10.27,2.83,2.55,6.89,3.35,10.61,3.03,1.82-.17,3.49-.69,5.26-.88.83-.09,1.69-.13,2.5.1,3.57,1.12,1.73,6.88,1.55,9.7-.27,2.43-.55,4.87-1.15,7.24-.61,2.55-1.68,5-2.18,7.6-1.06,5.4.76,9.16,5.77,11.52,5.91,2.8,12.64,4.17,19.08,5.27,6.39,1.02,12.44,1.61,18.76,1.61,14.61.04,32.17-2.33,40.3-16.06,3.71-6.28,6.22-14,4.4-21.3-.94-3.86-.86-4.95,3.39-4.74,5.49.38,12.11-.78,15.19-5.68,1.2-1.88,1.45-4.14,1.51-6.34h0Z"/>
  <g>
    <path class="cls-1" d="M19.17,58c-1.25-.16-2.5-.16-3.75-.29-2.6-.29-1.7-3.13.5-1.97.74.4,1.49.85,2.26,1.17.9.37,1.97.37,2.84-.05,2.74-1.41,2.12-6.16.27-7.22-3-1.67-6.85-1.78-9.99-.16-1.22.64-2.31,1.75-3.08,3.03-.74,1.2-1.17,2.76-1.12,4.25.21,4.75,4.44,4.41,7.2,4.41,2.02,0,1.99,2.1,0,1.7-.4-.08-2.31-1.12-2.71-1.22-.61-.16-1.27-.27-1.86-.08-.53.19-.98.61-1.3,1.12-.27.42-.45.93-.58,1.43-.19.61-.27,1.27-.16,1.89.11.58.4,1.12.77,1.49.53.53,1.2.82,1.83,1.09,1.83.74,3.82,1.01,5.74.82,1.59-.16,3.21-.74,4.54-1.7,3.4-2.5,3.4-9.03-1.41-9.7Z"/>
    <path class="cls-1" d="M28.49,69.12c.9.35,2.02.24,2.87-.24.56-.35,1.01-1.01,1.2-1.67.48-1.78-.05-4.81-.35-6.61.45.85,1.3,2.74,2.07,3.27,1.2.8,2.58,1.01,3.98.08.77-.5,1.78-2.6,2.23-3.45-.29,1.81-.98,5.05-.5,6.83.19.69.66,1.38,1.27,1.7.93.5,2.1.53,3.08.11.48-.21.93-.56,1.25-1.01.48-.66.8-1.49,1.04-2.28.32-1.2.5-2.44.61-3.69.21-2.36.08-4.75-.24-7.09-.13-1.01-.27-2.02-.61-2.95-.32-.82-.74-1.67-1.35-2.31-.4-.4-.85-.74-1.35-.85-.37-.08-.74-.08-1.09,0-.48.11-.93.4-1.3.74-.8.74-1.41,1.75-1.86,2.76-1.12,2.52-2.87,7.65-5.1,2.79-.48-1.06-.9-2.15-1.38-3.21-.5-1.06-1.2-2.1-2.12-2.76-.61-.45-1.22-.56-1.97-.42-.48.11-.9.4-1.25.74-.58.58-1.01,1.33-1.33,2.1-.5,1.22-.69,2.58-.85,3.9-.27,2.34-.35,4.7-.08,7.01.13,1.43.4,2.84.9,4.14.24.61.56,1.2.98,1.65.35.35.8.58,1.25.74Z"/>
    <path class="cls-1" d="M62.73,50.37c-2.42-2.47-6.85-1.43-8.82,1.17-1.14,1.54-1.94,3.37-2.6,5.18-.58,1.62-1.14,3.27-1.51,4.97-.27,1.22-.45,2.47-.64,3.69-.5,3.4,2.15,4.3,5.07,3.53,1.14-.29,1.73-1.49,2.02-2.97.11-.24.19-.5.37-.66.56-.5,2.42-.35,3.13-.16,1.28.35.93,2.07,1.57,3.05.53.8,1.65,1.17,2.6,1.25.77.05,1.59-.05,2.28-.4.37-.16.74-.4,1.01-.72.21-.24.32-.56.37-.88.05-.35-.03-2.2-.05-2.58-.08-2.23-.45-4.49-.96-6.67-.64-2.82-1.78-5.74-3.85-7.81ZM57.36,60.04c-1.59-.77-.5-3.03.19-4.44,1.01-2.05,1.43-2.28,2.07-.5.43,1.2.69,2.44.82,3.72.19,1.65-2.07,1.7-3.08,1.22Z"/>
    <path class="cls-1" d="M76.57,62.86c-.4-.08-2.31-1.12-2.71-1.22-.61-.16-1.27-.27-1.86-.08-.53.19-.98.61-1.3,1.12-.27.42-.45.93-.58,1.43-.19.61-.27,1.27-.16,1.89.11.58.4,1.12.77,1.49.53.53,1.2.82,1.83,1.09,1.83.74,3.82,1.01,5.74.82,1.59-.16,3.21-.74,4.54-1.7,3.4-2.5,3.4-9.03-1.41-9.7-1.25-.16-2.5-.16-3.75-.29-2.6-.29-1.7-3.13.5-1.97.74.4,1.49.85,2.26,1.17.9.37,1.97.37,2.84-.05,2.74-1.41,2.12-6.16.27-7.22-3-1.67-6.85-1.78-9.99-.16-1.22.64-2.31,1.75-3.08,3.03-.74,1.2-1.17,2.76-1.12,4.25.21,4.75,4.44,4.41,7.2,4.41,2.02,0,1.99,2.1,0,1.7Z"/>
    <path class="cls-1" d="M106.45,59.54c0-1.89.19-3.77.35-5.63.08-.96.19-1.97-.05-2.9-.11-.4-.35-.77-.66-1.04-.35-.29-.82-.48-1.3-.61-.58-.21-1.22-.35-1.86-.35-.5-.03-1.04.11-1.43.4-.42.27-.74.69-.98,1.12,0,0-.08.05-.08.08-.21.24-.48,1.38-.56,1.7-.37,1.89-.5,3.9-.56,5.82-.05,2.82-4.54,2.97-4.54,0,0-1.89.13-2.47.29-4.33.08-.98.19-1.97-.08-2.92-.11-.37-.35-.74-.64-1.01-.37-.29-.85-.48-1.3-.64-.61-.19-1.25-.32-1.86-.32-.5-.03-1.04.11-1.46.37-.4.29-.74.72-.98,1.14,0,0-.05.05-.05.08-.21.24-.5,1.38-.56,1.7-.4,1.89-.53,3.83-.58,5.76-.03,2.68.08,5.39.69,8,.19.85.45,1.7.96,2.39.24.32.56.61.93.8.58.27,1.27.37,1.91.35.64,0,1.33-.08,1.89-.37.32-.16.64-.4.82-.69.24-.4.35-.88.37-1.33.08-1.01-.08-2.47,1.38-2.82,1.94-.5,3.08,0,3.51,1.78.19.85.42,1.7.96,2.39.24.32.53.61.9.8.58.27,1.27.37,1.94.35.64,0,1.3-.08,1.89-.37.32-.16.61-.4.8-.69.27-.4.35-.88.4-1.33.08-1.14-.11-2.31-.24-3.48-.13-1.38-.19-2.79-.19-4.2Z"/>
    <path class="cls-1" d="M124.06,61.05c-.56-.69-1.33-1.22-2.12-1.62,3.32-.98,3.9-4.99,2.2-7.52-.53-.8-1.27-1.46-2.07-1.97-1.25-.77-2.68-1.22-4.12-1.43-2.42-.32-5.45-.56-7.09,1.46-.42.53-.64,1.28-.77,1.97-.19.96-.24,1.97-.29,2.95-.11,1.33-.08,8.55-.05,9.88.08,1.65-.13,3.85,2.12,4.3.96.21,1.94.35,2.95.35,2.28.05,4.67-.19,6.77-1.06,1.06-.45,2.18-1.09,2.79-2.07.53-.93.72-2.1.58-3.13-.11-.74-.43-1.51-.9-2.1ZM118.88,63.28c-.72.58-2.28.9-3.08.45-.85-.48-.32-2.1.37-2.47.53-.27,1.91.11,2.47.35.32.13.69.43.72.77.03.35-.21.69-.48.9ZM119.99,56.06c-.21.53-.77.88-1.28,1.12-.85.37-2.95,1.01-3.19.13-.03-.4-.03-2.23.05-2.6.03-.16.08-.32.19-.43.13-.13.32-.21.48-.27,1.09-.29,2.44,0,3.29.77.32.29.58.85.45,1.27Z"/>
    <path class="cls-1" d="M76.34,33.13c.11-.61-.29-1.2-.9-1.31-.61-.11-1.2.29-1.31.9-.11.61.29,1.2.9,1.31.61.11,1.2-.29,1.31-.9Z"/>
    <path class="cls-1" d="M80.64,33.08c.11-.59-.28-1.15-.87-1.26-.59-.11-1.15.28-1.26.87-.11.59.28,1.15.87,1.26.59.11,1.15-.28,1.26-.87Z"/>
    <path class="cls-1" d="M76.68,35.84c-.13.71.34,1.39,1.04,1.52.71.13,1.39-.34,1.52-1.04.13-.71-.34-1.39-1.04-1.52-.71-.13-1.39.34-1.52,1.04Z"/>
    <path class="cls-1" d="M29.88,27.53c.61,3.01.69,6.12.97,9.17.63,6.36,2.94,9.45,9.47,9.98,1.05.09,2.11.14,3.17.16,1.56.03,2.83-1.22,2.83-2.78v-6.9c0-1.26.35-2.43.94-3.47.03-.06.07-.12.09-.18.99-2.09,2.62-3.9,4.57-5.1,2.7-1.8,6.28-2.38,9.6-2.51,2.34-.11,4.69-.11,7.03-.06,3.66.08,7.74.4,10.84,2.29,1.63.96,3.08,2.24,4.14,3.81,1.65,2.41,2.39,5.57,1.58,8.39-.41,1.56-1.6,3.19-2.45,4.21-.84,1.03-1.56,1.86-.14,2.13,2.07.33,5.5.14,7.87-.1,3.24-.34,6.23-1.29,8.69-3.34,8.21-6.86,4.58-19.74-2.16-26.31h-.01c-8.85-8.88-25.21-10.19-37.33-9.94-9.31.03-25.19,2.6-30.52,5.89-2.32,1.3-3.01,2.71-2.12,5.39,1,2.99,2.35,6.04,2.93,9.27Z"/>
    <path class="cls-1" d="M105.52,82.59c-.46-4.7-3.48-8.6-7.94-10.16-1.91-.68-4-.9-6.05-1-2.15-.08-4.06-.14-6.06-.01-.05,0-.11,0-.16.02-.69.08-1.85.13-1.73,1.03.12.67.54,1.26.87,1.98.34.68.69,1.48.91,2.36,1.3,5.32-2.86,10.49-7.95,11.7-3.33.83-7.29.61-10.86.65-1.84,0-3.69,0-5.51-.02-3.25-.04-6.65-.27-9.25-1.84-2.59-1.48-4.43-3.94-5.02-6.66-.01-.07-.03-.13-.05-.2-.17-.56-.24-1.15-.22-1.77.12-1.5.2-2.99.26-4.49.05-1.52-1.16-2.79-2.69-2.8-.3,0-.56,0-.76,0-2.31.03-4.73.21-6.84.99-1.61.62-2.95,1.69-3.85,3.15-1.47,2.38-1.67,5.36-1.86,8.15-.2,3.65-.71,7.57-1.97,10.96-.6,1.76-1.39,3.49-1.87,4.93-.71,2.02-.42,3.27,1.3,4.39,5.76,3.96,24.3,7.21,35.64,7.29,1.14.03,2.26.04,3.39.03,9.24-.16,18.66-1.16,26.56-5.85,2.61-1.58,4.77-3.74,6.47-6.27,2.99-4.58,5.79-11.02,5.23-16.54v-.02Z"/>
  </g>
</svg>