<?xml version="1.0" encoding="UTF-8"?>
<svg id="Layer_1" data-name="Layer 1" xmlns="http://www.w3.org/2000/svg" viewBox="0 0 125.79 112.44">
  <defs>
    <style>
      .cls-1 {
        fill: #e9e4d1;
      }

      .cls-2 {
        fill: #e93b24;
      }
    </style>
  </defs>
  <path class="cls-1" d="M125.73,59.49c.05-2.39.1-4.79,0-7.18-.08-1.5-.34-2.99-.98-4.36-2.61-5.72-9.65-7.95-15.56-7.01-1.35.17-3.2.57-4.41.4-1.08-.12-1.48-.9-1.42-1.83.01-1.03.48-2.4.8-3.5.38-1.28.64-2.59.76-3.91.55-6.2-1.66-12.48-5.3-17.47C91.11,3.02,75.24.39,61.71.04c-6.64-.19-13.05.23-19.65,1.26-3.6.56-7.15,1.26-10.65,2.27-2.19.64-4.43,1.41-6.38,2.48-3.09,1.63-5.71,4.51-5.77,8.12-.12,2.91.95,5.72,1.78,8.52.68,2.21,1.16,4.46,1.45,6.76.19,1.44.32,2.89.49,4.33.19,2.23,1.52,6.81-1.43,7.6-.88.22-1.81.11-2.7,0-1.72-.25-3.55-.66-5.33-.61-6.08,0-11.71,3.93-13.15,9.92-.6,2.45-.31,5.01-.18,7.5.26,3.7.24,7.39,3.24,10.05,2.77,2.5,6.74,3.28,10.39,2.96,1.78-.17,3.41-.67,5.15-.86.82-.09,1.66-.13,2.45.1,3.49,1.09,1.69,6.73,1.52,9.49-.27,2.38-.54,4.76-1.12,7.08-.6,2.49-1.64,4.9-2.13,7.44-1.03,5.28.74,8.96,5.65,11.27,5.78,2.74,12.37,4.08,18.67,5.15,6.25,1,12.17,1.57,18.35,1.58,14.29.04,31.48-2.28,39.43-15.71,3.63-6.15,6.09-13.7,4.3-20.84-.92-3.77-.84-4.85,3.32-4.64,5.37.37,11.84-.76,14.86-5.55,1.17-1.84,1.42-4.05,1.48-6.2h0Z"/>
  <g>
    <path class="cls-2" d="M16.96,55.14c-1.22-.16-2.44-.16-3.66-.29-2.55-.29-1.66-3.07.49-1.92.73.39,1.46.83,2.21,1.14.88.36,1.92.36,2.78-.05,2.68-1.38,2.08-6.03.26-7.07-2.94-1.64-6.7-1.74-9.77-.16-1.2.62-2.26,1.72-3.01,2.96-.73,1.17-1.14,2.7-1.09,4.16.21,4.65,4.34,4.31,7.04,4.31,1.98,0,1.95,2.05,0,1.66-.39-.08-2.26-1.09-2.65-1.2-.6-.16-1.25-.26-1.82-.08-.52.18-.96.6-1.27,1.09-.26.42-.44.91-.57,1.4-.18.6-.26,1.25-.16,1.85.1.57.39,1.09.75,1.46.52.52,1.17.81,1.79,1.07,1.79.73,3.74.99,5.61.81,1.56-.16,3.14-.73,4.44-1.66,3.33-2.44,3.33-8.84-1.38-9.49Z"/>
    <path class="cls-2" d="M26.08,66.02c.88.34,1.98.23,2.81-.23.55-.34.99-.99,1.17-1.64.47-1.74-.05-4.7-.34-6.47.44.83,1.27,2.68,2.03,3.2,1.17.78,2.52.99,3.9.08.75-.49,1.74-2.55,2.18-3.38-.29,1.77-.96,4.94-.49,6.68.18.68.65,1.35,1.25,1.66.91.49,2.05.52,3.01.1.47-.21.91-.55,1.22-.99.47-.65.78-1.46,1.01-2.23.31-1.17.49-2.39.6-3.61.21-2.31.08-4.65-.23-6.94-.13-.99-.26-1.98-.6-2.88-.31-.81-.73-1.64-1.33-2.26-.39-.39-.83-.73-1.33-.83-.36-.08-.73-.08-1.07,0-.47.1-.91.39-1.27.73-.78.73-1.38,1.72-1.82,2.7-1.09,2.47-2.81,7.48-4.99,2.73-.47-1.04-.88-2.11-1.35-3.14-.49-1.04-1.17-2.05-2.08-2.7-.6-.44-1.2-.55-1.92-.42-.47.1-.88.39-1.22.73-.57.57-.99,1.3-1.3,2.05-.49,1.2-.68,2.52-.83,3.82-.26,2.29-.34,4.6-.08,6.86.13,1.4.39,2.78.88,4.05.23.6.55,1.17.96,1.61.34.34.78.57,1.22.73Z"/>
    <path class="cls-2" d="M59.57,47.68c-2.36-2.42-6.7-1.4-8.63,1.14-1.12,1.51-1.9,3.3-2.55,5.07-.57,1.59-1.12,3.2-1.48,4.86-.26,1.2-.44,2.42-.62,3.61-.49,3.33,2.1,4.21,4.96,3.46,1.12-.29,1.69-1.46,1.98-2.91.1-.23.18-.49.36-.65.55-.49,2.36-.34,3.07-.16,1.25.34.91,2.03,1.53,2.99.52.78,1.61,1.14,2.55,1.22.75.05,1.56-.05,2.23-.39.36-.16.73-.39.99-.7.21-.23.31-.55.36-.86.05-.34-.03-2.16-.05-2.52-.08-2.18-.44-4.39-.94-6.52-.62-2.75-1.74-5.61-3.77-7.64ZM54.32,57.14c-1.56-.75-.49-2.96.18-4.34.99-2,1.4-2.23,2.03-.49.42,1.17.68,2.39.81,3.64.18,1.61-2.03,1.66-3.01,1.2Z"/>
    <path class="cls-2" d="M73.11,59.89c-.39-.08-2.26-1.09-2.65-1.2-.6-.16-1.25-.26-1.82-.08-.52.18-.96.6-1.27,1.09-.26.42-.44.91-.57,1.4-.18.6-.26,1.25-.16,1.85.1.57.39,1.09.75,1.46.52.52,1.17.81,1.79,1.07,1.79.73,3.74.99,5.61.81,1.56-.16,3.14-.73,4.44-1.66,3.33-2.44,3.33-8.84-1.38-9.49-1.22-.16-2.44-.16-3.66-.29-2.55-.29-1.66-3.07.49-1.92.73.39,1.46.83,2.21,1.14.88.36,1.92.36,2.78-.05,2.68-1.38,2.08-6.03.26-7.07-2.94-1.64-6.7-1.74-9.77-.16-1.2.62-2.26,1.72-3.01,2.96-.73,1.17-1.14,2.7-1.09,4.16.21,4.65,4.34,4.31,7.04,4.31,1.98,0,1.95,2.05,0,1.66Z"/>
    <path class="cls-2" d="M102.35,56.64c0-1.85.18-3.69.34-5.51.08-.94.18-1.92-.05-2.83-.1-.39-.34-.75-.65-1.01-.34-.29-.81-.47-1.27-.6-.57-.21-1.2-.34-1.82-.34-.49-.03-1.01.1-1.4.39-.42.26-.73.68-.96,1.09,0,0-.08.05-.08.08-.21.23-.47,1.35-.55,1.66-.36,1.85-.49,3.82-.55,5.69-.05,2.75-4.44,2.91-4.44,0,0-1.85.13-2.42.29-4.24.08-.96.18-1.92-.08-2.86-.1-.36-.34-.73-.62-.99-.36-.29-.83-.47-1.27-.62-.6-.18-1.22-.31-1.82-.31-.49-.03-1.01.1-1.43.36-.39.29-.73.7-.96,1.12,0,0-.05.05-.05.08-.21.23-.49,1.35-.55,1.66-.39,1.85-.52,3.74-.57,5.64-.03,2.62.08,5.28.68,7.82.18.83.44,1.66.94,2.34.23.31.55.6.91.78.57.26,1.25.36,1.87.34.62,0,1.3-.08,1.85-.36.31-.16.62-.39.81-.68.23-.39.34-.86.36-1.3.08-.99-.08-2.42,1.35-2.75,1.9-.49,3.01,0,3.43,1.74.18.83.42,1.66.94,2.34.23.31.52.6.88.78.57.26,1.25.36,1.9.34.62,0,1.27-.08,1.85-.36.31-.16.6-.39.78-.68.26-.39.34-.86.39-1.3.08-1.12-.1-2.26-.23-3.4-.13-1.35-.18-2.73-.18-4.11Z"/>
    <path class="cls-2" d="M119.58,58.12c-.55-.68-1.3-1.2-2.08-1.59,3.25-.96,3.82-4.89,2.16-7.35-.52-.78-1.25-1.43-2.03-1.92-1.22-.75-2.62-1.2-4.03-1.4-2.36-.31-5.33-.55-6.94,1.43-.42.52-.62,1.25-.75,1.92-.18.94-.23,1.92-.29,2.88-.1,1.3-.08,8.37-.05,9.67.08,1.61-.13,3.77,2.08,4.21.94.21,1.9.34,2.88.34,2.23.05,4.57-.18,6.63-1.04,1.04-.44,2.13-1.07,2.73-2.03.52-.91.7-2.05.57-3.07-.1-.73-.42-1.48-.88-2.05ZM114.51,60.31c-.7.57-2.23.88-3.01.44-.83-.47-.31-2.05.36-2.42.52-.26,1.87.1,2.42.34.31.13.68.42.7.75.03.34-.21.68-.47.88ZM115.6,53.24c-.21.52-.75.86-1.25,1.09-.83.36-2.88.99-3.12.13-.03-.39-.03-2.18.05-2.55.03-.16.08-.31.18-.42.13-.13.31-.21.47-.26,1.07-.29,2.39,0,3.22.75.31.29.57.83.44,1.25Z"/>
    <path class="cls-2" d="M72.89,30.81c.11-.6-.28-1.17-.88-1.28-.6-.11-1.17.28-1.28.88-.11.6.28,1.17.88,1.28.6.11,1.17-.28,1.28-.88Z"/>
    <path class="cls-2" d="M77.1,30.76c.11-.57-.27-1.13-.85-1.23-.57-.11-1.13.27-1.23.85-.11.57.27,1.13.85,1.23.57.11,1.13-.27,1.23-.85Z"/>
    <path class="cls-2" d="M73.23,33.46c-.13.69.33,1.36,1.02,1.48.69.13,1.36-.33,1.48-1.02.13-.69-.33-1.36-1.02-1.48-.69-.13-1.36.33-1.48,1.02Z"/>
    <path class="cls-2" d="M27.44,25.33c.6,2.95.67,5.99.95,8.97.62,6.22,2.88,9.25,9.27,9.76,1.03.09,2.07.14,3.1.16,1.52.03,2.77-1.19,2.77-2.72v-6.75c0-1.23.34-2.37.92-3.4.03-.06.06-.12.09-.18.97-2.04,2.56-3.81,4.47-4.99,2.64-1.76,6.14-2.33,9.39-2.46,2.29-.11,4.59-.11,6.87-.06,3.58.07,7.57.39,10.61,2.24,1.59.94,3.02,2.19,4.05,3.73,1.61,2.35,2.34,5.45,1.54,8.21-.4,1.52-1.57,3.13-2.4,4.12-.82,1.01-1.53,1.82-.13,2.08,2.03.32,5.38.14,7.7-.1,3.17-.33,6.09-1.26,8.5-3.27,8.03-6.71,4.48-19.31-2.11-25.74h-.01c-8.66-8.69-24.67-9.97-36.52-9.72-9.11.03-24.64,2.54-29.86,5.76-2.27,1.28-2.95,2.65-2.07,5.27.98,2.93,2.3,5.9,2.87,9.07Z"/>
    <path class="cls-2" d="M101.44,79.2c-.45-4.6-3.4-8.42-7.77-9.94-1.87-.66-3.92-.88-5.92-.98-2.11-.08-3.97-.14-5.93-.01-.05,0-.11,0-.16.01-.68.08-1.81.13-1.69,1,.12.66.53,1.23.85,1.93.33.67.68,1.45.89,2.31,1.27,5.21-2.79,10.26-7.77,11.44-3.26.81-7.13.59-10.63.64-1.8,0-3.61,0-5.39-.02-3.18-.04-6.51-.26-9.05-1.8-2.53-1.45-4.33-3.86-4.91-6.52-.01-.07-.03-.13-.05-.19-.16-.55-.24-1.13-.21-1.73.12-1.46.2-2.93.25-4.4.05-1.49-1.14-2.73-2.63-2.74-.29,0-.55,0-.74,0-2.26.03-4.62.21-6.69.97-1.58.61-2.89,1.65-3.76,3.09-1.44,2.33-1.63,5.25-1.82,7.97-.19,3.57-.69,7.4-1.93,10.73-.58,1.72-1.36,3.42-1.83,4.82-.69,1.97-.41,3.2,1.27,4.29,5.63,3.88,23.78,7.06,34.87,7.14,1.11.03,2.21.04,3.31.03,9.04-.15,18.26-1.13,25.99-5.72,2.55-1.55,4.67-3.65,6.33-6.14,2.93-4.48,5.66-10.78,5.11-16.18v-.02Z"/>
  </g>
</svg>